<svg width="500" height="500" viewBox="0 0 500 500" fill="none" xmlns="http://www.w3.org/2000/svg">
<path d="M500 382.4H0V382.65H500V382.4Z" fill="#EBEBEB"/>
<path d="M449.9 398.49H416.78V398.74H449.9V398.49Z" fill="#EBEBEB"/>
<path d="M331.22 401.21H322.53V401.46H331.22V401.21Z" fill="#EBEBEB"/>
<path d="M415.78 389.21H396.59V389.46H415.78V389.21Z" fill="#EBEBEB"/>
<path d="M95.65 390.89H52.46V391.14H95.65V390.89Z" fill="#EBEBEB"/>
<path d="M110.89 390.89H104.56V391.14H110.89V390.89Z" fill="#EBEBEB"/>
<path d="M225.15 395.11H131.47V395.36H225.15V395.11Z" fill="#EBEBEB"/>
<path d="M237 337.8H43.91C42.3973 337.797 40.9475 337.195 39.8788 336.124C38.8102 335.053 38.21 333.603 38.21 332.09V60.66C38.2231 59.156 38.8292 57.718 39.8964 56.6582C40.9637 55.5985 42.4059 55.0026 43.91 55H237C238.514 55 239.967 55.6016 241.038 56.6724C242.108 57.7433 242.71 59.1956 242.71 60.71V332.09C242.71 333.604 242.108 335.057 241.038 336.128C239.967 337.198 238.514 337.8 237 337.8ZM43.91 55.2C42.4636 55.2026 41.0774 55.7791 40.0556 56.8027C39.0338 57.8264 38.46 59.2136 38.46 60.66V332.09C38.46 333.536 39.0338 334.924 40.0556 335.947C41.0774 336.971 42.4636 337.547 43.91 337.55H237C238.447 337.547 239.834 336.971 240.858 335.948C241.881 334.924 242.457 333.537 242.46 332.09V60.66C242.457 59.2127 241.881 57.8255 240.858 56.8021C239.834 55.7787 238.447 55.2026 237 55.2H43.91Z" fill="#EBEBEB"/>
<path d="M453.31 337.8H260.21C258.696 337.797 257.246 337.195 256.175 336.125C255.105 335.054 254.503 333.604 254.5 332.09V60.66C254.516 59.1551 255.124 57.7171 256.193 56.6576C257.262 55.5981 258.705 55.0025 260.21 55H453.31C454.812 55.0052 456.252 55.6022 457.317 56.6617C458.382 57.7212 458.987 59.1578 459 60.66V332.09C459 333.601 458.401 335.05 457.335 336.121C456.268 337.191 454.821 337.795 453.31 337.8ZM260.21 55.2C258.763 55.2026 257.375 55.7787 256.352 56.8021C255.329 57.8255 254.753 59.2127 254.75 60.66V332.09C254.753 333.537 255.329 334.924 256.352 335.948C257.375 336.971 258.763 337.547 260.21 337.55H453.31C454.757 337.547 456.145 336.971 457.168 335.948C458.191 334.924 458.767 333.537 458.77 332.09V60.66C458.767 59.2127 458.191 57.8255 457.168 56.8021C456.145 55.7787 454.757 55.2026 453.31 55.2H260.21Z" fill="#EBEBEB"/>
<path d="M103.65 371.41H54C51.6694 371.41 49.78 373.3 49.78 375.63V402.79C49.78 405.121 51.6694 407.01 54 407.01H103.65C105.981 407.01 107.87 405.121 107.87 402.79V375.63C107.87 373.3 105.981 371.41 103.65 371.41Z" fill="#EBEBEB"/>
<path d="M67.7001 385.56H54.9101C54.6926 385.56 54.484 385.474 54.3303 385.32C54.1765 385.166 54.0901 384.958 54.0901 384.74C54.0901 384.522 54.1761 384.312 54.3296 384.157C54.4831 384.001 54.6917 383.913 54.9101 383.91H67.7001C67.9202 383.91 68.1313 383.998 68.287 384.153C68.4426 384.309 68.5301 384.52 68.5301 384.74C68.5275 384.959 68.4389 385.167 68.2835 385.321C68.1281 385.474 67.9185 385.56 67.7001 385.56Z" fill="#FAFAFA"/>
<path d="M103.91 376.83H91.12C90.9017 376.827 90.6931 376.739 90.5396 376.583C90.3861 376.428 90.3 376.218 90.3 376C90.3 375.782 90.3861 375.572 90.5396 375.417C90.6931 375.261 90.9017 375.173 91.12 375.17H103.91C104.13 375.17 104.341 375.257 104.497 375.413C104.653 375.569 104.74 375.78 104.74 376C104.74 376.22 104.653 376.431 104.497 376.587C104.341 376.742 104.13 376.83 103.91 376.83Z" fill="#FAFAFA"/>
<path d="M67.7001 403H54.9101C54.6917 402.997 54.4831 402.909 54.3296 402.753C54.1761 402.598 54.0901 402.388 54.0901 402.17C54.0901 401.951 54.1761 401.742 54.3296 401.586C54.4831 401.431 54.6917 401.342 54.9101 401.34H67.7001C67.9202 401.34 68.1313 401.427 68.287 401.583C68.4426 401.739 68.5301 401.95 68.5301 402.17C68.5301 402.39 68.4426 402.601 68.287 402.757C68.1313 402.912 67.9202 403 67.7001 403Z" fill="#FAFAFA"/>
<path d="M58.2801 389.65H54.9101C54.6917 389.647 54.4831 389.559 54.3296 389.403C54.1761 389.248 54.0901 389.038 54.0901 388.82C54.0901 388.603 54.1765 388.394 54.3303 388.24C54.484 388.086 54.6926 388 54.9101 388H58.2801C58.4976 388 58.7061 388.086 58.8599 388.24C59.0137 388.394 59.1001 388.603 59.1001 388.82C59.1001 389.038 59.014 389.248 58.8605 389.403C58.707 389.559 58.4985 389.647 58.2801 389.65Z" fill="#FAFAFA"/>
<path d="M102.82 394.47H92.21C91.2656 394.47 90.5 395.235 90.5 396.18V402.8C90.5 403.744 91.2656 404.51 92.21 404.51H102.82C103.764 404.51 104.53 403.744 104.53 402.8V396.18C104.53 395.235 103.764 394.47 102.82 394.47Z" fill="#E0E0E0"/>
<path d="M153.37 86.5801H85.6099C83.2793 86.5801 81.3899 88.4694 81.3899 90.8001V129.06C81.3899 131.391 83.2793 133.28 85.6099 133.28H153.37C155.701 133.28 157.59 131.391 157.59 129.06V90.8001C157.59 88.4694 155.701 86.5801 153.37 86.5801Z" fill="#EBEBEB"/>
<path d="M104.9 105.15H88.13C87.9844 105.155 87.8391 105.131 87.7029 105.079C87.5667 105.028 87.4422 104.949 87.3368 104.848C87.2315 104.748 87.1474 104.627 87.0895 104.493C87.0317 104.359 87.0012 104.215 87 104.07C87.0026 103.925 87.034 103.782 87.0924 103.649C87.1509 103.517 87.2352 103.397 87.3404 103.298C87.4456 103.198 87.5696 103.12 87.7052 103.069C87.8408 103.018 87.9852 102.994 88.13 103H104.9C105.189 103 105.466 103.115 105.671 103.319C105.875 103.523 105.99 103.801 105.99 104.09C105.982 104.374 105.864 104.643 105.66 104.841C105.457 105.039 105.184 105.15 104.9 105.15Z" fill="#FAFAFA"/>
<path d="M152.41 93.6895H135.63C135.487 93.6895 135.346 93.6613 135.214 93.6064C135.083 93.5515 134.963 93.471 134.863 93.3697C134.762 93.2683 134.683 93.1481 134.629 93.0159C134.576 92.8837 134.549 92.7422 134.55 92.5995C134.55 92.3131 134.664 92.0384 134.866 91.8359C135.069 91.6333 135.344 91.5195 135.63 91.5195H152.41C152.697 91.5195 152.971 91.6333 153.174 91.8359C153.376 92.0384 153.49 92.3131 153.49 92.5995C153.491 92.7422 153.464 92.8837 153.411 93.0159C153.357 93.1481 153.278 93.2683 153.177 93.3697C153.077 93.471 152.957 93.5515 152.826 93.6064C152.694 93.6613 152.553 93.6895 152.41 93.6895Z" fill="#FAFAFA"/>
<path d="M105.2 125.84H87.83C87.3937 125.84 87.04 126.194 87.04 126.63V127.22C87.04 127.656 87.3937 128.01 87.83 128.01H105.2C105.636 128.01 105.99 127.656 105.99 127.22V126.63C105.99 126.194 105.636 125.84 105.2 125.84Z" fill="#FAFAFA"/>
<path d="M92.54 110.51H88.13C87.9835 110.515 87.8375 110.491 87.7006 110.439C87.5637 110.386 87.4388 110.307 87.3333 110.205C87.2278 110.103 87.1439 109.981 87.0866 109.846C87.0294 109.711 86.9999 109.566 87 109.42C87.0026 109.132 87.1186 108.858 87.3228 108.656C87.5269 108.453 87.8026 108.34 88.09 108.34H92.5C92.7864 108.34 93.0611 108.454 93.2637 108.656C93.4662 108.859 93.58 109.133 93.58 109.42C93.5828 109.701 93.4757 109.973 93.2814 110.176C93.0872 110.38 92.8212 110.499 92.54 110.51Z" fill="#FAFAFA"/>
<path d="M151.51 116.84H136.53C135.586 116.84 134.82 117.605 134.82 118.55V128.3C134.82 129.244 135.586 130.01 136.53 130.01H151.51C152.454 130.01 153.22 129.244 153.22 128.3V118.55C153.22 117.605 152.454 116.84 151.51 116.84Z" fill="#E0E0E0"/>
<path d="M304.88 115.19V120.6H300.88V115.24C296.15 114.95 291.57 113.41 289.06 111.24L291.23 106.37C294.034 108.483 297.381 109.756 300.88 110.04V100.39C295.52 99.0805 289.78 97.3905 289.78 90.6405C289.78 85.7205 293.35 81.4205 300.88 80.7005V75.2305H304.88V80.5905C308.338 80.7371 311.704 81.7479 314.67 83.5305L312.67 88.4105C310.277 87.0052 307.617 86.1161 304.86 85.8005V95.5505C310.21 96.8505 316.05 98.5505 316.05 105.25C316.07 110.17 312.45 114.42 304.88 115.19ZM300.88 94.5405V86.0005C297.45 86.5305 296.01 88.2605 296.01 90.3905C296.05 92.6505 298.12 93.7205 300.92 94.5405H300.88ZM309.88 105.68C309.88 103.32 307.75 102.21 304.88 101.39V109.93C308.4 109.4 309.9 107.76 309.9 105.68H309.88Z" fill="#E0E0E0"/>
<path d="M430.12 348.29V352.41H427.12V348.32C423.52 348.1 420.02 346.92 418.12 345.27L419.77 341.55C421.909 343.161 424.461 344.132 427.13 344.35V337C423.05 336 418.67 334.68 418.67 329.57C418.67 325.82 421.39 322.57 427.13 321.99V317.84H430.13V321.92C432.767 322.035 435.335 322.805 437.6 324.16L436.09 327.88C434.252 326.801 432.208 326.119 430.09 325.88V333.31C434.17 334.31 438.62 335.59 438.62 340.71C438.65 344.46 435.89 347.7 430.12 348.29ZM427.12 332.54V326C424.51 326.41 423.41 327.73 423.41 329.35C423.39 331.11 425 331.92 427.1 332.54H427.12ZM433.96 341.04C433.96 339.24 432.35 338.39 430.14 337.76V344.28C432.8 343.87 433.94 342.62 433.94 341L433.96 341.04Z" fill="#E0E0E0"/>
<path d="M53.64 307.63C52.9533 306.904 52.4218 306.045 52.078 305.106C51.7341 304.167 51.5851 303.169 51.64 302.17C51.6044 300.781 51.9209 299.405 52.56 298.17C53.1336 297.087 54.0136 296.197 55.09 295.61C56.2199 295.038 57.4686 294.74 58.735 294.74C60.0015 294.74 61.2501 295.038 62.38 295.61C63.4574 296.199 64.34 297.088 64.92 298.17C65.5513 299.407 65.864 300.782 65.83 302.17C65.8832 303.168 65.7334 304.167 65.3896 305.105C65.0458 306.044 64.5153 306.903 63.83 307.63C62.4334 308.905 60.6109 309.612 58.72 309.612C56.8292 309.612 55.0066 308.905 53.61 307.63H53.64ZM74.42 295.12H80.87L62.64 321.81H56.19L74.42 295.12ZM60 304.71C60.6268 303.078 60.6268 301.272 60 299.64C59.896 299.408 59.7269 299.21 59.513 299.072C59.2992 298.933 59.0498 298.859 58.795 298.859C58.5402 298.859 58.2908 298.933 58.077 299.072C57.8632 299.21 57.6941 299.408 57.59 299.64C56.9632 301.272 56.9632 303.078 57.59 304.71C57.6941 304.943 57.8632 305.14 58.077 305.279C58.2908 305.418 58.5402 305.491 58.795 305.491C59.0498 305.491 59.2992 305.418 59.513 305.279C59.7269 305.14 59.896 304.943 60 304.71ZM73.25 320.21C72.5651 319.485 72.0346 318.627 71.6908 317.691C71.347 316.754 71.1971 315.757 71.25 314.76C71.213 313.372 71.526 311.996 72.16 310.76C72.7349 309.677 73.6191 308.789 74.7 308.21C75.827 307.634 77.0745 307.334 78.34 307.334C79.6056 307.334 80.8531 307.634 81.98 308.21C83.0609 308.789 83.9451 309.677 84.52 310.76C85.1575 311.995 85.4739 313.371 85.44 314.76C85.4924 315.757 85.3422 316.753 84.9984 317.69C84.6547 318.627 84.1245 319.484 83.44 320.21C82.0456 321.489 80.2222 322.199 78.33 322.199C76.4379 322.199 74.6145 321.489 73.22 320.21H73.25ZM79.56 317.29C80.2004 315.661 80.2004 313.85 79.56 312.22C79.4579 311.987 79.29 311.789 79.0769 311.649C78.8638 311.51 78.6147 311.436 78.36 311.436C78.1054 311.436 77.8563 311.51 77.6432 311.649C77.4301 311.789 77.2622 311.987 77.16 312.22C76.5196 313.85 76.5196 315.661 77.16 317.29C77.2622 317.524 77.4301 317.722 77.6432 317.861C77.8563 318.001 78.1054 318.075 78.36 318.075C78.6147 318.075 78.8638 318.001 79.0769 317.861C79.29 317.722 79.4579 317.524 79.56 317.29Z" fill="#E0E0E0"/>
<path d="M380.48 158.1C379.514 157.066 378.767 155.848 378.284 154.518C377.801 153.187 377.592 151.773 377.67 150.36C377.615 148.384 378.063 146.427 378.97 144.67C379.785 143.134 381.038 141.874 382.57 141.05C384.172 140.235 385.943 139.811 387.74 139.811C389.537 139.811 391.309 140.235 392.91 141.05C394.438 141.879 395.689 143.138 396.51 144.67C397.409 146.429 397.853 148.386 397.8 150.36C397.882 151.773 397.676 153.187 397.194 154.518C396.713 155.848 395.967 157.067 395 158.1C393.017 159.908 390.429 160.911 387.745 160.911C385.061 160.911 382.474 159.908 380.49 158.1H380.48ZM410 140.34H419.15L393.28 178.23H384.13L410 140.34ZM389.44 154C390.347 151.686 390.347 149.115 389.44 146.8C389.296 146.468 389.057 146.186 388.754 145.988C388.451 145.789 388.097 145.684 387.735 145.684C387.373 145.684 387.019 145.789 386.716 145.988C386.413 146.186 386.175 146.468 386.03 146.8C385.136 149.117 385.136 151.684 386.03 154C386.175 154.332 386.413 154.615 386.716 154.813C387.019 155.011 387.373 155.117 387.735 155.117C388.097 155.117 388.451 155.011 388.754 154.813C389.057 154.615 389.296 154.332 389.44 154ZM408.25 176C407.284 174.966 406.537 173.748 406.054 172.418C405.571 171.087 405.362 169.673 405.44 168.26C405.385 166.287 405.833 164.333 406.74 162.58C407.552 161.039 408.806 159.775 410.34 158.95C411.94 158.135 413.71 157.711 415.505 157.711C417.301 157.711 419.07 158.135 420.67 158.95C422.205 159.775 423.458 161.039 424.27 162.58C425.178 164.333 425.625 166.287 425.57 168.26C425.65 169.673 425.443 171.088 424.96 172.419C424.477 173.749 423.728 174.968 422.76 176C420.78 177.815 418.191 178.821 415.505 178.821C412.819 178.821 410.231 177.815 408.25 176ZM417.25 171.86C418.157 169.546 418.157 166.975 417.25 164.66C417.106 164.328 416.867 164.046 416.564 163.848C416.261 163.649 415.907 163.544 415.545 163.544C415.183 163.544 414.829 163.649 414.526 163.848C414.223 164.046 413.985 164.328 413.84 164.66C412.934 166.975 412.934 169.546 413.84 171.86C413.985 172.192 414.223 172.475 414.526 172.673C414.829 172.871 415.183 172.977 415.545 172.977C415.907 172.977 416.261 172.871 416.564 172.673C416.867 172.475 417.106 172.192 417.25 171.86Z" fill="#E0E0E0"/>
<path d="M250 427.56C357.083 427.56 443.89 422.492 443.89 416.24C443.89 409.988 357.083 404.92 250 404.92C142.918 404.92 56.1101 409.988 56.1101 416.24C56.1101 422.492 142.918 427.56 250 427.56Z" fill="#F5F5F5"/>
<path d="M410.5 173.94H93.26C89.7565 173.94 86.3965 175.332 83.9192 177.81C81.4418 180.287 80.05 183.647 80.05 187.15V388.15C80.05 391.655 81.4415 395.016 83.9186 397.495C86.3956 399.974 89.7556 401.368 93.26 401.37H135.37V394.93C135.37 394.021 135.731 393.148 136.375 392.505C137.018 391.862 137.89 391.5 138.8 391.5H365C365.451 391.499 365.897 391.587 366.314 391.759C366.731 391.931 367.11 392.183 367.428 392.502C367.747 392.821 368 393.2 368.172 393.616C368.344 394.033 368.431 394.48 368.43 394.93V401.37H410.5C412.236 401.37 413.954 401.028 415.558 400.364C417.161 399.699 418.618 398.725 419.844 397.498C421.071 396.27 422.044 394.813 422.707 393.209C423.371 391.605 423.711 389.886 423.71 388.15V187.15C423.711 185.415 423.371 183.697 422.707 182.094C422.044 180.49 421.071 179.034 419.844 177.807C418.617 176.58 417.16 175.607 415.557 174.943C413.954 174.28 412.235 173.939 410.5 173.94Z" fill="#263238"/>
<path opacity="0.2" d="M410.5 173.94H93.26C89.7565 173.94 86.3965 175.332 83.9192 177.81C81.4418 180.287 80.05 183.647 80.05 187.15V388.15C80.05 391.655 81.4415 395.016 83.9186 397.495C86.3956 399.974 89.7556 401.368 93.26 401.37H135.37V394.93C135.37 394.021 135.731 393.148 136.375 392.505C137.018 391.862 137.89 391.5 138.8 391.5H365C365.451 391.499 365.897 391.587 366.314 391.759C366.731 391.931 367.11 392.183 367.428 392.502C367.747 392.821 368 393.2 368.172 393.616C368.344 394.033 368.431 394.48 368.43 394.93V401.37H410.5C412.236 401.37 413.954 401.028 415.558 400.364C417.161 399.699 418.618 398.725 419.844 397.498C421.071 396.27 422.044 394.813 422.707 393.209C423.371 391.605 423.711 389.886 423.71 388.15V187.15C423.711 185.415 423.371 183.697 422.707 182.094C422.044 180.49 421.071 179.034 419.844 177.807C418.617 176.58 417.16 175.607 415.557 174.943C413.954 174.28 412.235 173.939 410.5 173.94Z" fill="white"/>
<path d="M254.66 182.591C254.66 183.14 254.497 183.678 254.192 184.135C253.886 184.592 253.452 184.949 252.944 185.159C252.436 185.369 251.877 185.424 251.338 185.317C250.798 185.21 250.303 184.945 249.914 184.556C249.526 184.168 249.261 183.672 249.154 183.133C249.046 182.594 249.101 182.035 249.312 181.527C249.522 181.019 249.878 180.585 250.336 180.279C250.793 179.974 251.33 179.811 251.88 179.811C252.246 179.809 252.608 179.88 252.946 180.019C253.283 180.159 253.59 180.363 253.849 180.622C254.107 180.88 254.312 181.187 254.451 181.525C254.59 181.863 254.661 182.225 254.66 182.591Z" fill="#3C72EB"/>
<path d="M449.68 396.431H54.0901V406.331H449.68V396.431Z" fill="#263238"/>
<path opacity="0.5" d="M449.68 396.431H54.0901V406.331H449.68V396.431Z" fill="white"/>
<path d="M54.0901 406.33L60.2101 411.23C64.2465 414.467 69.2661 416.231 74.4401 416.23H429.32C434.494 416.231 439.514 414.467 443.55 411.23L449.68 406.33H54.0901Z" fill="#263238"/>
<path opacity="0.3" d="M54.0901 406.33L60.2101 411.23C64.2465 414.467 69.2661 416.231 74.4401 416.23H429.32C434.494 416.231 439.514 414.467 443.55 411.23L449.68 406.33H54.0901Z" fill="white"/>
<path opacity="0.4" d="M213.87 396.751C213.869 397.358 213.987 397.96 214.219 398.522C214.451 399.083 214.791 399.594 215.22 400.024C215.649 400.454 216.159 400.795 216.72 401.028C217.281 401.261 217.883 401.381 218.49 401.381H285.27C285.878 401.381 286.479 401.261 287.04 401.028C287.602 400.795 288.111 400.454 288.541 400.024C288.97 399.594 289.31 399.083 289.541 398.522C289.773 397.96 289.891 397.358 289.89 396.751C289.89 396.641 289.89 396.541 289.89 396.431H213.89C213.89 396.541 213.87 396.641 213.87 396.751Z" fill="white"/>
<path d="M408.26 194.171H94.5901V372.691H408.26V194.171Z" fill="#3C72EB"/>
<g opacity="0.9">
<path d="M408.26 194.171H94.5901V372.691H408.26V194.171Z" fill="white"/>
</g>
<path d="M362.97 222.721H136.31V230.221H362.97V222.721Z" fill="#3C72EB"/>
<g opacity="0.8">
<path d="M362.97 222.721H136.31V230.221H362.97V222.721Z" fill="white"/>
</g>
<path d="M371.08 222.721H362.96V230.221H371.08V222.721Z" fill="#3C72EB"/>
<g opacity="0.5">
<path d="M371.08 222.721H362.96V230.221H371.08V222.721Z" fill="white"/>
</g>
<path d="M408.26 194.171H94.5901V202.651H408.26V194.171Z" fill="#3C72EB"/>
<path d="M385.71 198.41C385.712 198.894 385.57 199.367 385.303 199.77C385.036 200.173 384.655 200.487 384.208 200.673C383.762 200.859 383.271 200.908 382.797 200.814C382.322 200.72 381.887 200.488 381.545 200.146C381.203 199.804 380.97 199.368 380.876 198.894C380.783 198.42 380.832 197.928 381.018 197.482C381.204 197.036 381.518 196.655 381.921 196.388C382.324 196.12 382.797 195.979 383.28 195.98C383.925 195.98 384.543 196.237 384.998 196.692C385.454 197.148 385.71 197.766 385.71 198.41Z" fill="white"/>
<path d="M395.05 198.41C395.052 198.894 394.91 199.366 394.644 199.769C394.377 200.171 393.996 200.486 393.551 200.672C393.105 200.858 392.614 200.908 392.14 200.815C391.666 200.722 391.23 200.49 390.888 200.149C390.546 199.809 390.313 199.374 390.218 198.9C390.123 198.427 390.17 197.935 390.355 197.489C390.539 197.043 390.852 196.661 391.253 196.392C391.655 196.124 392.127 195.98 392.61 195.98C392.93 195.979 393.247 196.041 393.543 196.163C393.839 196.284 394.108 196.463 394.335 196.689C394.561 196.914 394.741 197.183 394.864 197.478C394.987 197.774 395.05 198.091 395.05 198.41Z" fill="white"/>
<path d="M404.38 198.411C404.384 198.894 404.243 199.368 403.976 199.771C403.71 200.174 403.328 200.489 402.882 200.674C402.435 200.86 401.944 200.908 401.47 200.812C400.996 200.716 400.561 200.482 400.221 200.137C399.881 199.793 399.652 199.356 399.562 198.881C399.472 198.405 399.527 197.914 399.718 197.47C399.909 197.026 400.228 196.649 400.634 196.387C401.041 196.125 401.516 195.991 402 196.001C402.632 196.014 403.235 196.273 403.679 196.723C404.123 197.173 404.375 197.778 404.38 198.411Z" fill="white"/>
<path d="M101.61 229.6C101.18 229.507 100.768 229.345 100.39 229.12L101.07 227.57C101.385 227.751 101.721 227.892 102.07 227.99C102.417 228.095 102.778 228.149 103.14 228.15C103.357 228.163 103.575 228.133 103.78 228.06C103.834 228.044 103.881 228.01 103.915 227.966C103.949 227.921 103.968 227.866 103.97 227.81C103.967 227.74 103.941 227.672 103.896 227.618C103.851 227.563 103.789 227.526 103.72 227.51C103.453 227.415 103.179 227.341 102.9 227.29C102.486 227.21 102.078 227.1 101.68 226.96C101.357 226.843 101.068 226.647 100.84 226.39C100.588 226.085 100.459 225.696 100.48 225.3C100.476 224.915 100.591 224.537 100.81 224.22C101.059 223.869 101.407 223.601 101.81 223.45C102.322 223.247 102.87 223.152 103.42 223.17C103.847 223.172 104.273 223.218 104.69 223.31C105.079 223.39 105.453 223.528 105.8 223.72L105.16 225.26C104.617 224.97 104.015 224.809 103.4 224.79C102.85 224.79 102.58 224.93 102.58 225.19C102.58 225.45 102.66 225.41 102.82 225.47C103.079 225.567 103.347 225.637 103.62 225.68C104.034 225.751 104.442 225.855 104.84 225.99C105.169 226.108 105.464 226.304 105.7 226.56C105.955 226.861 106.087 227.247 106.07 227.64C106.076 228.027 105.957 228.406 105.73 228.72C105.477 229.067 105.13 229.335 104.73 229.49C104.218 229.69 103.67 229.786 103.12 229.77C102.612 229.769 102.106 229.712 101.61 229.6Z" fill="#263238"/>
<path d="M108 225.001H106.15V223.341H112V225.001H110.16V229.661H108V225.001Z" fill="#263238"/>
<path d="M113.9 229.351C113.379 229.078 112.94 228.67 112.63 228.171C112.329 227.655 112.17 227.068 112.17 226.471C112.17 225.873 112.329 225.286 112.63 224.771C112.94 224.271 113.379 223.863 113.9 223.591C114.471 223.314 115.096 223.171 115.73 223.171C116.364 223.171 116.99 223.314 117.56 223.591C118.092 223.861 118.539 224.273 118.851 224.781C119.163 225.289 119.328 225.874 119.328 226.471C119.328 227.067 119.163 227.652 118.851 228.16C118.539 228.668 118.092 229.081 117.56 229.351C116.99 229.627 116.364 229.77 115.73 229.77C115.096 229.77 114.471 229.627 113.9 229.351ZM116.45 227.851C116.666 227.72 116.842 227.533 116.96 227.311C117.093 227.051 117.158 226.762 117.15 226.471C117.16 226.182 117.094 225.896 116.96 225.641C116.842 225.415 116.666 225.225 116.45 225.091C116.235 224.96 115.987 224.891 115.735 224.891C115.483 224.891 115.236 224.96 115.02 225.091C114.799 225.219 114.622 225.411 114.51 225.641C114.376 225.896 114.311 226.182 114.32 226.471C114.312 226.762 114.377 227.051 114.51 227.311C114.623 227.537 114.8 227.725 115.02 227.851C115.236 227.981 115.483 228.05 115.735 228.05C115.987 228.05 116.235 227.981 116.45 227.851Z" fill="#263238"/>
<path d="M122.78 228H122.2V229.59H120.07V223.27H123.07C123.591 223.26 124.109 223.359 124.59 223.56C125.002 223.732 125.353 224.024 125.596 224.399C125.839 224.774 125.962 225.214 125.95 225.66C125.968 226.073 125.865 226.483 125.654 226.838C125.443 227.193 125.132 227.479 124.76 227.66L126.08 229.61H123.81L122.78 228ZM123.62 225.11C123.432 225.003 123.213 224.965 123 225H122.23V226.48H123C123.234 226.497 123.466 226.426 123.65 226.28C123.725 226.213 123.784 226.129 123.822 226.035C123.86 225.942 123.876 225.841 123.87 225.74C123.88 225.629 123.863 225.517 123.819 225.414C123.775 225.311 123.707 225.22 123.62 225.15V225.11Z" fill="#263238"/>
<path d="M132 228V229.61H126.75V223.29H131.88V224.9H128.88V225.64H131.55V227.17H128.88V228H132Z" fill="#263238"/>
<path d="M379 230.211C379 230.424 378.937 230.633 378.818 230.811C378.699 230.988 378.531 231.127 378.333 231.209C378.136 231.29 377.919 231.312 377.709 231.27C377.5 231.228 377.307 231.126 377.156 230.975C377.005 230.823 376.902 230.631 376.861 230.422C376.819 230.212 376.84 229.995 376.922 229.798C377.004 229.6 377.142 229.432 377.32 229.313C377.497 229.194 377.706 229.131 377.92 229.131C378.206 229.131 378.481 229.245 378.684 229.447C378.886 229.65 379 229.924 379 230.211Z" fill="#263238"/>
<path d="M385.71 230.211C385.712 230.427 385.65 230.639 385.531 230.82C385.412 231.001 385.242 231.142 385.042 231.226C384.842 231.31 384.622 231.332 384.41 231.29C384.198 231.249 384.003 231.145 383.85 230.992C383.696 230.839 383.592 230.643 383.551 230.431C383.509 230.219 383.531 229.999 383.615 229.799C383.699 229.6 383.84 229.429 384.021 229.31C384.202 229.191 384.414 229.129 384.63 229.131C384.916 229.134 385.189 229.248 385.391 229.45C385.593 229.652 385.708 229.925 385.71 230.211Z" fill="#263238"/>
<path d="M377 222.55L376.27 220.21H373.53V221H375.72L377.78 227.68H384.97L385.61 223.26L377 222.55ZM384.41 227.1L378.28 227.03L377.12 223.14L384.91 223.71L384.41 227.1Z" fill="#263238"/>
<path d="M408.26 202.65H94.5901V218.77H408.26V202.65Z" fill="#3C72EB"/>
<g opacity="0.7">
<path d="M408.26 202.65H94.5901V218.77H408.26V202.65Z" fill="white"/>
</g>
<path d="M300.56 206.29H118.38C116.513 206.29 115 207.803 115 209.67V211.74C115 213.607 116.513 215.12 118.38 215.12H300.56C302.427 215.12 303.94 213.607 303.94 211.74V209.67C303.94 207.803 302.427 206.29 300.56 206.29Z" fill="#263238"/>
<path opacity="0.7" d="M300.56 206.29H118.38C116.513 206.29 115 207.803 115 209.67V211.74C115 213.607 116.513 215.12 118.38 215.12H300.56C302.427 215.12 303.94 213.607 303.94 211.74V209.67C303.94 207.803 302.427 206.29 300.56 206.29Z" fill="white"/>
<path d="M298.12 207.32L299.22 209.55L301.68 209.91L299.9 211.64L300.32 214.09L298.12 212.94L295.92 214.09L296.34 211.64L294.56 209.91L297.02 209.55L298.12 207.32Z" fill="#3C72EB"/>
<path d="M106.09 206.08L101.23 210.94H102.65V215.33H109.53V210.94H110.95L106.09 206.08Z" fill="#3C72EB"/>
<path d="M283.87 265.001H286.56C287.118 264.99 287.671 265.103 288.18 265.331C288.632 265.548 289.009 265.897 289.26 266.331C289.528 266.766 289.663 267.27 289.65 267.781C289.662 268.295 289.526 268.801 289.26 269.241C289 269.653 288.625 269.98 288.18 270.181C287.673 270.417 287.119 270.533 286.56 270.521H283.87V265.001ZM286.49 269.001C286.749 268.994 287 268.913 287.214 268.766C287.427 268.62 287.594 268.415 287.694 268.176C287.793 267.937 287.821 267.674 287.774 267.419C287.727 267.165 287.608 266.929 287.43 266.741C287.172 266.511 286.835 266.393 286.49 266.411H285.71V269.001H286.49Z" fill="#3C72EB"/>
<path d="M294.79 268.691H291.79C291.847 268.846 291.957 268.977 292.1 269.061C292.267 269.156 292.458 269.201 292.65 269.191C292.81 269.197 292.969 269.174 293.12 269.121C293.27 269.059 293.411 268.979 293.54 268.881L294.46 269.811C294.217 270.051 293.925 270.237 293.604 270.354C293.283 270.472 292.941 270.518 292.6 270.491C292.131 270.503 291.666 270.407 291.24 270.211C290.869 270.037 290.554 269.764 290.33 269.421C290.121 269.075 290.01 268.679 290.01 268.276C290.01 267.872 290.121 267.476 290.33 267.131C290.54 266.797 290.838 266.527 291.19 266.351C291.574 266.155 291.999 266.056 292.43 266.061C292.841 266.058 293.248 266.147 293.62 266.321C293.969 266.49 294.263 266.753 294.47 267.081C294.687 267.443 294.794 267.859 294.78 268.281C294.78 268.281 294.81 268.441 294.79 268.691ZM292 267.421C291.881 267.533 291.801 267.68 291.77 267.841H293.15C293.12 267.678 293.035 267.529 292.91 267.421C292.783 267.318 292.623 267.265 292.46 267.271C292.294 267.265 292.131 267.318 292 267.421Z" fill="#3C72EB"/>
<path d="M295.37 264.62H297.13V270.42H295.37V264.62Z" fill="#3C72EB"/>
<path d="M298 265.551C297.905 265.472 297.83 265.372 297.78 265.259C297.73 265.147 297.706 265.024 297.71 264.901C297.706 264.779 297.73 264.658 297.78 264.547C297.83 264.436 297.906 264.338 298 264.261C298.215 264.081 298.49 263.988 298.77 264.001C299.047 263.986 299.32 264.071 299.54 264.241C299.633 264.317 299.707 264.414 299.757 264.523C299.807 264.632 299.832 264.751 299.83 264.871C299.832 264.997 299.808 265.122 299.758 265.237C299.708 265.353 299.633 265.456 299.54 265.541C299.325 265.721 299.05 265.813 298.77 265.801C298.492 265.812 298.219 265.723 298 265.551ZM297.89 266.141H299.65V270.421H297.89V266.141Z" fill="#3C72EB"/>
<path d="M305.22 266.141L303.5 270.421H301.67L300 266.141H301.81L302.67 268.431L303.59 266.141H305.22Z" fill="#3C72EB"/>
<path d="M309.9 268.691H306.9C306.957 268.846 307.066 268.977 307.21 269.061C307.377 269.156 307.568 269.201 307.76 269.191C307.92 269.197 308.079 269.174 308.23 269.121C308.38 269.059 308.521 268.979 308.65 268.881L309.57 269.811C309.328 270.052 309.036 270.238 308.715 270.355C308.393 270.473 308.051 270.519 307.71 270.491C307.241 270.503 306.776 270.407 306.35 270.211C305.979 270.037 305.664 269.764 305.44 269.421C305.231 269.075 305.12 268.679 305.12 268.276C305.12 267.872 305.231 267.476 305.44 267.131C305.65 266.797 305.947 266.527 306.3 266.351C306.684 266.155 307.109 266.056 307.54 266.061C307.951 266.057 308.358 266.146 308.73 266.321C309.078 266.49 309.373 266.753 309.58 267.081C309.797 267.443 309.904 267.859 309.89 268.281C309.89 268.281 309.92 268.441 309.9 268.691ZM307.14 267.421C307.014 267.529 306.93 267.678 306.9 267.841H308.28C308.25 267.678 308.165 267.529 308.04 267.421C307.91 267.323 307.752 267.271 307.59 267.271C307.428 267.271 307.27 267.323 307.14 267.421Z" fill="#3C72EB"/>
<path d="M313.54 266.06V267.63H313.15C313.026 267.614 312.899 267.626 312.78 267.666C312.662 267.707 312.554 267.774 312.466 267.864C312.377 267.953 312.311 268.061 312.272 268.18C312.233 268.3 312.222 268.426 312.24 268.55V270.45H310.48V266.17H312.16V266.63C312.332 266.438 312.546 266.287 312.785 266.188C313.024 266.089 313.282 266.046 313.54 266.06Z" fill="#3C72EB"/>
<path d="M318.92 266.141L317.16 270.501C317.008 270.968 316.715 271.377 316.32 271.671C315.958 271.907 315.532 272.026 315.1 272.011C314.852 272.013 314.606 271.976 314.37 271.901C314.165 271.847 313.971 271.756 313.8 271.631L314.39 270.421C314.481 270.49 314.582 270.544 314.69 270.581C314.793 270.618 314.901 270.638 315.01 270.641C315.091 270.647 315.173 270.636 315.249 270.606C315.326 270.577 315.394 270.53 315.45 270.471L313.65 266.141H315.46L316.35 268.431L317.24 266.141H318.92Z" fill="#3C72EB"/>
<path d="M325.32 269.46H323.24L322.87 270.46H321L323.39 264.99H325.2L327.59 270.46H325.68L325.32 269.46ZM324.81 268.14L324.28 266.76L323.75 268.14H324.81Z" fill="#3C72EB"/>
<path d="M332.52 264.62V270.42H330.84V270.06C330.688 270.212 330.504 270.329 330.302 270.403C330.1 270.478 329.885 270.507 329.67 270.49C329.321 270.485 328.978 270.396 328.67 270.23C328.353 270.044 328.094 269.774 327.92 269.45C327.732 269.089 327.635 268.687 327.64 268.28C327.633 267.873 327.729 267.47 327.92 267.11C328.094 266.786 328.353 266.516 328.67 266.33C328.975 266.157 329.319 266.064 329.67 266.06C330.065 266.036 330.453 266.169 330.75 266.43V264.62H332.52ZM330.59 268.9C330.73 268.725 330.801 268.504 330.79 268.28C330.804 268.056 330.733 267.834 330.59 267.66C330.526 267.591 330.449 267.536 330.363 267.498C330.277 267.46 330.184 267.441 330.09 267.441C329.996 267.441 329.903 267.46 329.817 267.498C329.731 267.536 329.654 267.591 329.59 267.66C329.447 267.834 329.376 268.056 329.39 268.28C329.379 268.504 329.45 268.725 329.59 268.9C329.654 268.969 329.731 269.024 329.817 269.062C329.903 269.1 329.996 269.119 330.09 269.119C330.184 269.119 330.277 269.1 330.363 269.062C330.449 269.024 330.526 268.969 330.59 268.9Z" fill="#3C72EB"/>
<path d="M338 264.62V270.42H336.32V270.06C336.168 270.212 335.984 270.329 335.782 270.403C335.58 270.478 335.364 270.507 335.15 270.49C334.801 270.485 334.458 270.396 334.15 270.23C333.833 270.044 333.574 269.774 333.4 269.45C333.212 269.089 333.115 268.687 333.12 268.28C333.113 267.873 333.209 267.47 333.4 267.11C333.574 266.786 333.833 266.516 334.15 266.33C334.455 266.157 334.799 266.064 335.15 266.06C335.545 266.036 335.933 266.169 336.23 266.43V264.62H338ZM336.07 268.9C336.206 268.723 336.274 268.503 336.26 268.28C336.277 268.057 336.209 267.836 336.07 267.66C336.009 267.588 335.932 267.531 335.845 267.493C335.759 267.455 335.665 267.437 335.57 267.44C335.475 267.436 335.381 267.454 335.294 267.492C335.208 267.53 335.131 267.588 335.07 267.66C334.927 267.834 334.856 268.056 334.87 268.28C334.859 268.504 334.93 268.725 335.07 268.9C335.131 268.973 335.208 269.03 335.294 269.068C335.381 269.106 335.475 269.124 335.57 269.12C335.669 269.128 335.769 269.112 335.862 269.074C335.954 269.036 336.035 268.976 336.1 268.9H336.07Z" fill="#3C72EB"/>
<path d="M341.87 266.06V267.63H341.48C341.356 267.614 341.229 267.626 341.11 267.666C340.992 267.707 340.884 267.774 340.796 267.864C340.707 267.953 340.641 268.061 340.602 268.18C340.563 268.3 340.552 268.426 340.57 268.55V270.45H338.81V266.17H340.49V266.63C340.662 266.438 340.876 266.287 341.115 266.188C341.354 266.089 341.612 266.046 341.87 266.06Z" fill="#3C72EB"/>
<path d="M346.86 268.691H343.86C343.914 268.848 344.024 268.98 344.17 269.061C344.337 269.156 344.528 269.201 344.72 269.191C344.88 269.196 345.039 269.172 345.19 269.121C345.34 269.059 345.481 268.979 345.61 268.881L346.53 269.811C346.285 270.051 345.991 270.236 345.669 270.354C345.346 270.471 345.002 270.518 344.66 270.491C344.191 270.502 343.726 270.406 343.3 270.211C342.932 270.037 342.62 269.763 342.4 269.421C342.181 269.082 342.069 268.684 342.08 268.281C342.068 267.879 342.174 267.483 342.383 267.14C342.593 266.798 342.897 266.523 343.26 266.351C343.644 266.155 344.069 266.056 344.5 266.061C344.908 266.058 345.311 266.147 345.68 266.321C346.031 266.486 346.326 266.75 346.53 267.081C346.75 267.441 346.861 267.858 346.85 268.281C346.85 268.281 346.87 268.441 346.86 268.691ZM344.09 267.421C343.964 267.528 343.882 267.677 343.86 267.841H345.23C345.204 267.679 345.122 267.53 345 267.421C344.87 267.317 344.706 267.264 344.54 267.271C344.377 267.265 344.217 267.318 344.09 267.421Z" fill="#3C72EB"/>
<path d="M348 270.38C347.699 270.322 347.409 270.218 347.14 270.07L347.62 268.91C347.842 269.039 348.081 269.133 348.33 269.19C348.585 269.257 348.847 269.29 349.11 269.29C349.255 269.297 349.4 269.28 349.54 269.24C349.574 269.232 349.603 269.212 349.625 269.185C349.647 269.158 349.659 269.125 349.66 269.09C349.66 269.02 349.61 268.97 349.51 268.95C349.345 268.913 349.178 268.886 349.01 268.87C348.71 268.836 348.413 268.782 348.12 268.71C347.876 268.644 347.655 268.512 347.48 268.33C347.382 268.223 347.306 268.096 347.258 267.959C347.21 267.821 347.19 267.676 347.2 267.53C347.196 267.259 347.284 266.995 347.45 266.78C347.648 266.542 347.908 266.363 348.2 266.26C348.581 266.119 348.984 266.051 349.39 266.06C349.709 266.06 350.027 266.09 350.34 266.15C350.616 266.199 350.882 266.29 351.13 266.42L350.65 267.58C350.27 267.372 349.843 267.265 349.41 267.27C349.03 267.27 348.83 267.34 348.83 267.47C348.83 267.6 348.89 267.59 348.99 267.62L349.48 267.7C349.781 267.729 350.078 267.783 350.37 267.86C350.611 267.934 350.831 268.064 351.01 268.24C351.205 268.464 351.306 268.754 351.29 269.05C351.287 269.314 351.199 269.57 351.04 269.78C350.839 270.016 350.581 270.195 350.29 270.3C349.902 270.437 349.492 270.501 349.08 270.49C348.717 270.494 348.355 270.457 348 270.38Z" fill="#3C72EB"/>
<path d="M352.44 270.38C352.139 270.321 351.85 270.216 351.58 270.07L352.07 268.91C352.289 269.037 352.524 269.131 352.77 269.19C353.028 269.257 353.294 269.291 353.56 269.29C353.705 269.295 353.85 269.279 353.99 269.24C354.024 269.232 354.053 269.212 354.075 269.185C354.097 269.158 354.109 269.125 354.11 269.09C354.11 269.02 354.06 268.97 353.95 268.95C353.789 268.913 353.625 268.886 353.46 268.87C353.16 268.836 352.863 268.783 352.57 268.71C352.324 268.643 352.099 268.512 351.92 268.33C351.729 268.109 351.632 267.822 351.65 267.53C351.646 267.259 351.734 266.994 351.9 266.78C352.092 266.54 352.349 266.36 352.64 266.26C353.021 266.12 353.424 266.052 353.83 266.06C354.149 266.059 354.467 266.09 354.78 266.15C355.059 266.199 355.329 266.29 355.58 266.42L355.09 267.58C354.714 267.372 354.29 267.265 353.86 267.27C353.47 267.27 353.28 267.34 353.28 267.47C353.28 267.6 353.33 267.59 353.43 267.62L353.93 267.7C354.227 267.729 354.522 267.783 354.81 267.86C355.053 267.929 355.274 268.06 355.45 268.24C355.549 268.349 355.625 268.477 355.673 268.617C355.721 268.756 355.741 268.903 355.73 269.05C355.732 269.315 355.644 269.572 355.48 269.78C355.281 270.018 355.022 270.197 354.73 270.3C354.342 270.438 353.932 270.502 353.52 270.49C353.157 270.493 352.795 270.456 352.44 270.38Z" fill="#3C72EB"/>
<path d="M340.98 284.86H283.49V288.29H340.98V284.86Z" fill="#3C72EB"/>
<path d="M329.21 290.37H283.49V293.8H329.21V290.37Z" fill="#3C72EB"/>
<path d="M346.64 295.881H283.49V299.311H346.64V295.881Z" fill="#3C72EB"/>
<path d="M336.51 301.391H283.49V304.821H336.51V301.391Z" fill="#3C72EB"/>
<path d="M357.92 320.45H289.56C286.556 320.45 284.12 322.886 284.12 325.89V328.12C284.12 331.125 286.556 333.56 289.56 333.56H357.92C360.925 333.56 363.36 331.125 363.36 328.12V325.89C363.36 322.886 360.925 320.45 357.92 320.45Z" fill="#3C72EB"/>
<path d="M296.2 324.671C296.409 324.769 296.594 324.91 296.744 325.084C296.895 325.259 297.006 325.463 297.073 325.684C297.139 325.905 297.157 326.137 297.128 326.366C297.098 326.594 297.02 326.814 296.9 327.011C296.725 327.265 296.482 327.466 296.2 327.59C295.864 327.729 295.503 327.797 295.14 327.791H294.5V328.87H293V324.47H295.12C295.49 324.462 295.858 324.53 296.2 324.671ZM295.5 326.511C295.551 326.462 295.591 326.402 295.616 326.337C295.642 326.271 295.654 326.201 295.65 326.131C295.654 326.06 295.643 325.989 295.617 325.924C295.592 325.858 295.551 325.799 295.5 325.75C295.369 325.649 295.205 325.6 295.04 325.61H294.5V326.61H295C295.173 326.643 295.353 326.607 295.5 326.511Z" fill="white"/>
<path d="M300.47 325.77C300.645 325.923 300.783 326.112 300.875 326.325C300.966 326.538 301.009 326.769 301 327V328.85H299.68V328.4C299.584 328.576 299.437 328.718 299.258 328.809C299.08 328.9 298.879 328.935 298.68 328.91C298.439 328.916 298.2 328.868 297.98 328.77C297.803 328.688 297.654 328.557 297.551 328.392C297.448 328.227 297.396 328.035 297.4 327.84C297.392 327.689 297.424 327.538 297.493 327.403C297.561 327.268 297.664 327.154 297.79 327.07C298.149 326.869 298.56 326.779 298.97 326.81H299.54C299.54 326.54 299.28 326.4 298.9 326.4C298.74 326.402 298.582 326.429 298.43 326.48C298.283 326.517 298.143 326.582 298.02 326.67L297.56 325.74C297.784 325.609 298.027 325.511 298.28 325.45C298.551 325.383 298.83 325.349 299.11 325.35C299.599 325.326 300.08 325.475 300.47 325.77ZM299.35 328C299.436 327.943 299.499 327.858 299.53 327.76V327.52H299.18C298.89 327.52 298.75 327.62 298.75 327.81C298.749 327.848 298.756 327.886 298.772 327.921C298.788 327.955 298.811 327.986 298.84 328.01C298.908 328.065 298.993 328.093 299.08 328.09C299.178 328.094 299.274 328.062 299.35 328Z" fill="white"/>
<path d="M305.33 325.43L303.92 328.94C303.791 329.314 303.555 329.641 303.24 329.88C302.943 330.073 302.593 330.167 302.24 330.15C302.044 330.148 301.849 330.121 301.66 330.07C301.493 330.025 301.337 329.947 301.2 329.84L301.67 328.84C301.743 328.895 301.824 328.939 301.91 328.97C301.994 329.001 302.081 329.017 302.17 329.02C302.235 329.024 302.3 329.013 302.36 328.989C302.421 328.965 302.475 328.928 302.52 328.88L301.08 325.4H302.53L303.24 327.24L303.97 325.4L305.33 325.43Z" fill="white"/>
<path d="M311.1 325.751C311.372 326.073 311.505 326.49 311.47 326.911V328.911H310.05V327.191C310.05 326.801 309.92 326.601 309.67 326.601C309.607 326.599 309.545 326.611 309.488 326.637C309.431 326.663 309.38 326.702 309.34 326.751C309.249 326.893 309.206 327.062 309.22 327.231V328.911H307.8V327.191C307.8 326.801 307.67 326.601 307.42 326.601C307.357 326.599 307.295 326.611 307.238 326.637C307.181 326.663 307.13 326.702 307.09 326.751C306.999 326.893 306.956 327.062 306.97 327.231V328.911H305.55V325.471H306.9V325.791C307.032 325.663 307.189 325.563 307.361 325.497C307.533 325.432 307.717 325.403 307.9 325.411C308.114 325.406 308.326 325.451 308.52 325.541C308.706 325.622 308.863 325.758 308.97 325.931C309.106 325.765 309.277 325.632 309.47 325.541C309.675 325.452 309.897 325.407 310.12 325.411C310.298 325.4 310.476 325.424 310.644 325.483C310.812 325.541 310.967 325.632 311.1 325.751Z" fill="white"/>
<path d="M315.79 327.481H313.4C313.446 327.607 313.534 327.713 313.65 327.781C313.785 327.852 313.937 327.887 314.09 327.881C314.22 327.885 314.349 327.865 314.47 327.821C314.593 327.777 314.708 327.712 314.81 327.631L315.55 328.381C315.354 328.574 315.119 328.723 314.86 328.818C314.601 328.913 314.325 328.951 314.05 328.931C313.671 328.937 313.295 328.859 312.95 328.701C312.652 328.563 312.402 328.34 312.23 328.061C312.053 327.791 311.962 327.473 311.97 327.151C311.965 326.827 312.051 326.509 312.219 326.233C312.388 325.957 312.631 325.734 312.92 325.591C313.231 325.438 313.574 325.363 313.92 325.371C314.247 325.369 314.571 325.437 314.87 325.571C315.147 325.71 315.382 325.92 315.55 326.181C315.734 326.481 315.824 326.829 315.81 327.181C315.81 327.181 315.8 327.281 315.79 327.481ZM313.56 326.481C313.462 326.569 313.398 326.69 313.38 326.821H314.48C314.458 326.692 314.391 326.575 314.29 326.491C314.189 326.408 314.061 326.366 313.93 326.371C313.802 326.358 313.672 326.386 313.56 326.451V326.481Z" fill="white"/>
<path d="M319.66 325.751C319.8 325.908 319.906 326.091 319.974 326.291C320.041 326.49 320.067 326.701 320.05 326.911V328.911H318.63V327.191C318.63 326.801 318.49 326.601 318.21 326.601C318.137 326.599 318.064 326.614 317.996 326.643C317.929 326.672 317.869 326.716 317.82 326.771C317.707 326.919 317.654 327.105 317.67 327.291V328.911H316.25V325.471H317.6V325.811C317.736 325.681 317.895 325.579 318.07 325.511C318.252 325.442 318.445 325.408 318.64 325.411C319.012 325.385 319.378 325.507 319.66 325.751Z" fill="white"/>
<path d="M323.2 328.75C322.926 328.882 322.624 328.944 322.32 328.93C321.92 328.955 321.524 328.83 321.21 328.58C321.079 328.45 320.976 328.294 320.909 328.122C320.842 327.949 320.811 327.765 320.82 327.58V326.7H320.35V325.7H320.82V324.7H322.24V325.7H323V326.7H322.29V327.56C322.285 327.65 322.314 327.739 322.37 327.81C322.398 327.84 322.433 327.863 322.47 327.879C322.508 327.894 322.549 327.902 322.59 327.9C322.704 327.899 322.816 327.864 322.91 327.8L323.2 328.75Z" fill="white"/>
<path d="M329.41 328.87V326.87L328.41 328.48H327.76L326.76 326.94V328.88H325.41V324.48H326.62L328.06 326.82L329.45 324.48H330.67V328.88L329.41 328.87Z" fill="white"/>
<path d="M335.07 327.48H332.69C332.736 327.606 332.824 327.712 332.94 327.78C333.075 327.853 333.227 327.887 333.38 327.88C333.51 327.885 333.639 327.864 333.76 327.82C333.88 327.775 333.992 327.711 334.09 327.63L334.84 328.38C334.643 328.574 334.405 328.724 334.145 328.819C333.884 328.914 333.607 328.951 333.33 328.93C332.954 328.936 332.582 328.858 332.24 328.7C331.94 328.563 331.686 328.34 331.51 328.06C331.383 327.855 331.301 327.625 331.267 327.386C331.234 327.147 331.251 326.903 331.316 326.671C331.382 326.438 331.496 326.222 331.65 326.036C331.804 325.85 331.994 325.698 332.21 325.59C332.521 325.436 332.864 325.36 333.21 325.37C333.538 325.366 333.862 325.435 334.16 325.57C334.442 325.706 334.681 325.917 334.85 326.18C335.031 326.481 335.118 326.829 335.1 327.18C335.1 327.18 335.09 327.28 335.07 327.48ZM332.85 326.48C332.75 326.568 332.683 326.688 332.66 326.82H333.77C333.748 326.691 333.681 326.574 333.58 326.49C333.475 326.408 333.344 326.365 333.21 326.37C333.085 326.359 332.959 326.387 332.85 326.45V326.48Z" fill="white"/>
<path d="M338.07 328.75C337.8 328.884 337.501 328.946 337.2 328.93C336.799 328.955 336.404 328.83 336.09 328.58C335.959 328.45 335.856 328.294 335.789 328.122C335.722 327.949 335.691 327.765 335.7 327.58V326.7H335.23V325.7H335.7V324.7H337.12V325.7H337.82V326.7H337.12V327.56C337.115 327.605 337.12 327.65 337.134 327.693C337.148 327.736 337.17 327.776 337.2 327.81C337.226 327.84 337.258 327.864 337.295 327.879C337.331 327.895 337.37 327.902 337.41 327.9C337.524 327.899 337.635 327.864 337.73 327.8L338.07 328.75Z" fill="white"/>
<path d="M341.84 325.75C341.98 325.907 342.087 326.091 342.154 326.29C342.221 326.49 342.247 326.701 342.23 326.91V328.91H340.81V327.19C340.81 326.8 340.67 326.6 340.39 326.6C340.317 326.599 340.244 326.613 340.177 326.643C340.109 326.672 340.049 326.715 340 326.77C339.887 326.919 339.834 327.104 339.85 327.29V328.91H338.43V324.2H339.85V325.71C340.131 325.476 340.485 325.348 340.85 325.348C341.216 325.348 341.57 325.476 341.85 325.71L341.84 325.75Z" fill="white"/>
<path d="M343.69 328.701C343.4 328.56 343.154 328.342 342.98 328.071C342.807 327.795 342.717 327.476 342.72 327.151C342.721 326.822 342.815 326.501 342.992 326.224C343.169 325.948 343.422 325.728 343.72 325.591C344.046 325.445 344.399 325.37 344.755 325.37C345.112 325.37 345.465 325.445 345.79 325.591C346.084 325.731 346.33 325.953 346.5 326.231C346.671 326.506 346.758 326.826 346.75 327.151C346.757 327.475 346.67 327.794 346.5 328.071C346.327 328.342 346.081 328.56 345.79 328.701C345.466 328.852 345.113 328.931 344.755 328.931C344.398 328.931 344.044 328.852 343.72 328.701H343.69ZM345.12 327.651C345.235 327.51 345.292 327.331 345.28 327.151C345.294 326.969 345.236 326.79 345.12 326.651C345.071 326.593 345.009 326.547 344.94 326.516C344.871 326.485 344.796 326.468 344.72 326.468C344.644 326.468 344.57 326.485 344.501 326.516C344.432 326.547 344.37 326.593 344.32 326.651C344.204 326.79 344.147 326.969 344.16 327.151C344.149 327.331 344.206 327.51 344.32 327.651C344.372 327.704 344.435 327.746 344.503 327.775C344.572 327.804 344.646 327.819 344.72 327.819C344.795 327.819 344.869 327.804 344.937 327.775C345.006 327.746 345.068 327.704 345.12 327.651Z" fill="white"/>
<path d="M351 324.2V328.87H349.65V328.58C349.528 328.705 349.379 328.802 349.215 328.862C349.05 328.923 348.875 328.946 348.7 328.93C348.409 328.934 348.122 328.858 347.87 328.71C347.616 328.564 347.408 328.349 347.27 328.09C347.115 327.802 347.035 327.478 347.04 327.15C347.035 326.822 347.114 326.498 347.27 326.21C347.41 325.95 347.618 325.733 347.87 325.58C348.124 325.44 348.41 325.367 348.7 325.37C349.02 325.348 349.336 325.453 349.58 325.66V324.2H351ZM349.45 327.65C349.558 327.506 349.611 327.329 349.6 327.15C349.612 326.971 349.559 326.794 349.45 326.65C349.4 326.592 349.337 326.545 349.266 326.514C349.195 326.483 349.118 326.468 349.04 326.47C348.965 326.469 348.89 326.485 348.82 326.516C348.751 326.547 348.69 326.593 348.64 326.65C348.529 326.792 348.472 326.97 348.48 327.15C348.473 327.33 348.53 327.507 348.64 327.65C348.692 327.705 348.754 327.748 348.822 327.777C348.891 327.806 348.966 327.821 349.04 327.82C349.184 327.816 349.321 327.754 349.42 327.65H349.45Z" fill="white"/>
<path d="M277.13 245.04H178.66V250.06H277.13V245.04Z" fill="#3C72EB"/>
<path d="M200.27 252.021H178.66V257.041H200.27V252.021Z" fill="#3C72EB"/>
<path d="M208.35 259.011H178.66V264.031H208.35V259.011Z" fill="#3C72EB"/>
<path d="M203.18 266H178.97V271.02H203.18V266Z" fill="#3C72EB"/>
<path d="M169.56 245.04H151.35C149.202 245.04 147.46 246.782 147.46 248.93V267.14C147.46 269.288 149.202 271.03 151.35 271.03H169.56C171.709 271.03 173.45 269.288 173.45 267.14V248.93C173.45 246.782 171.709 245.04 169.56 245.04Z" fill="#3C72EB"/>
<path opacity="0.2" d="M165.06 252.41H155.84C155.282 252.41 154.83 252.862 154.83 253.42V262.64C154.83 263.198 155.282 263.65 155.84 263.65H165.06C165.618 263.65 166.07 263.198 166.07 262.64V253.42C166.07 252.862 165.618 252.41 165.06 252.41Z" fill="white"/>
<path opacity="0.2" d="M163.82 253.48H160.03C159.55 253.48 159.16 253.87 159.16 254.35V258.14C159.16 258.621 159.55 259.01 160.03 259.01H163.82C164.301 259.01 164.69 258.621 164.69 258.14V254.35C164.69 253.87 164.301 253.48 163.82 253.48Z" fill="white"/>
<path d="M134.09 252.021H124.59V261.52H134.09V252.021Z" fill="#3C72EB"/>
<path d="M125.58 257.47L128.26 260.5L133.62 253.03L127.89 258.59L125.58 257.47Z" fill="white"/>
<path d="M277.13 284.37H178.66V289.39H277.13V284.37Z" fill="#3C72EB"/>
<path d="M200.27 291.36H178.66V296.38H200.27V291.36Z" fill="#3C72EB"/>
<path d="M208.35 298.351H178.66V303.371H208.35V298.351Z" fill="#3C72EB"/>
<path d="M203.18 305.33H178.97V310.35H203.18V305.33Z" fill="#3C72EB"/>
<path d="M169.56 284.37H151.35C149.202 284.37 147.46 286.112 147.46 288.26V306.47C147.46 308.619 149.202 310.36 151.35 310.36H169.56C171.709 310.36 173.45 308.619 173.45 306.47V288.26C173.45 286.112 171.709 284.37 169.56 284.37Z" fill="#3C72EB"/>
<path opacity="0.2" d="M165.06 291.74H155.84C155.282 291.74 154.83 292.192 154.83 292.75V301.97C154.83 302.528 155.282 302.98 155.84 302.98H165.06C165.618 302.98 166.07 302.528 166.07 301.97V292.75C166.07 292.192 165.618 291.74 165.06 291.74Z" fill="white"/>
<path opacity="0.2" d="M163.82 292.82H160.03C159.55 292.82 159.16 293.21 159.16 293.69V297.48C159.16 297.961 159.55 298.35 160.03 298.35H163.82C164.301 298.35 164.69 297.961 164.69 297.48V293.69C164.69 293.21 164.301 292.82 163.82 292.82Z" fill="white"/>
<path d="M134.09 291.36H124.59V300.86H134.09V291.36Z" fill="#3C72EB"/>
<path d="M125.58 296.81L128.26 299.84L133.62 292.37L127.89 297.92L125.58 296.81Z" fill="white"/>
<path d="M277.13 323.71H178.66V328.73H277.13V323.71Z" fill="#3C72EB"/>
<path d="M200.27 330.69H178.66V335.71H200.27V330.69Z" fill="#3C72EB"/>
<path d="M208.35 337.681H178.66V342.701H208.35V337.681Z" fill="#3C72EB"/>
<path d="M203.18 344.671H178.97V349.691H203.18V344.671Z" fill="#3C72EB"/>
<path d="M169.56 323.71H151.35C149.202 323.71 147.46 325.452 147.46 327.6V345.81C147.46 347.958 149.202 349.7 151.35 349.7H169.56C171.709 349.7 173.45 347.958 173.45 345.81V327.6C173.45 325.452 171.709 323.71 169.56 323.71Z" fill="#3C72EB"/>
<path opacity="0.2" d="M165.06 331.08H155.84C155.282 331.08 154.83 331.532 154.83 332.09V341.31C154.83 341.868 155.282 342.32 155.84 342.32H165.06C165.618 342.32 166.07 341.868 166.07 341.31V332.09C166.07 331.532 165.618 331.08 165.06 331.08Z" fill="white"/>
<path opacity="0.2" d="M163.82 332.15H160.03C159.55 332.15 159.16 332.54 159.16 333.02V336.81C159.16 337.291 159.55 337.68 160.03 337.68H163.82C164.301 337.68 164.69 337.291 164.69 336.81V333.02C164.69 332.54 164.301 332.15 163.82 332.15Z" fill="white"/>
<path d="M134.09 330.69H124.59V340.19H134.09V330.69Z" fill="#3C72EB"/>
<path d="M125.58 336.14L128.26 339.17L133.62 331.7L127.89 337.26L125.58 336.14Z" fill="white"/>
<g opacity="0.2">
<path d="M266.61 88.2998H159.77V247.55H266.61V88.2998Z" fill="black"/>
</g>
<path d="M259.12 79.8496H152.28V239.1H259.12V79.8496Z" fill="#3C72EB"/>
<g opacity="0.5">
<path d="M259.12 79.8496H152.28V239.1H259.12V79.8496Z" fill="white"/>
</g>
<path d="M259.13 79.8496H152.27V90.5096H259.13V79.8496Z" fill="#3C72EB"/>
<path d="M255.68 85.13C255.688 85.7586 255.509 86.3754 255.165 86.9019C254.822 87.4285 254.33 87.841 253.751 88.0871C253.173 88.3331 252.534 88.4017 251.917 88.2839C251.299 88.1661 250.73 87.8674 250.283 87.4257C249.836 86.984 249.53 86.4193 249.404 85.8033C249.279 85.1873 249.339 84.5479 249.578 83.9663C249.816 83.3847 250.223 82.8873 250.745 82.5371C251.267 82.187 251.881 82.0001 252.51 82C253.344 81.9999 254.144 82.3284 254.738 82.9143C255.331 83.5002 255.67 84.2962 255.68 85.13Z" fill="white"/>
<path d="M240.26 227.69H172.32C170.81 227.691 169.315 227.395 167.92 226.818C166.525 226.241 165.257 225.395 164.189 224.328C163.121 223.261 162.274 221.994 161.696 220.599C161.118 219.205 160.82 217.71 160.82 216.2C160.82 214.69 161.118 213.195 161.696 211.801C162.274 210.406 163.121 209.139 164.189 208.072C165.257 207.005 166.525 206.159 167.92 205.582C169.315 205.005 170.81 204.709 172.32 204.71H240.26C241.77 204.709 243.265 205.005 244.66 205.582C246.055 206.159 247.323 207.005 248.391 208.072C249.459 209.139 250.306 210.406 250.884 211.801C251.463 213.195 251.76 214.69 251.76 216.2C251.76 217.71 251.463 219.205 250.884 220.599C250.306 221.994 249.459 223.261 248.391 224.328C247.323 225.395 246.055 226.241 244.66 226.818C243.265 227.395 241.77 227.691 240.26 227.69Z" fill="#3C72EB"/>
<path d="M170.08 220.21C169.326 219.825 168.696 219.236 168.26 218.51C167.827 217.761 167.6 216.91 167.6 216.045C167.6 215.18 167.827 214.33 168.26 213.58C168.693 212.855 169.325 212.268 170.08 211.89C170.883 211.474 171.776 211.265 172.68 211.28C173.495 211.267 174.302 211.427 175.05 211.75C175.73 212.045 176.322 212.51 176.77 213.1L174.83 214.84C174.606 214.516 174.307 214.249 173.96 214.063C173.612 213.877 173.225 213.777 172.83 213.77C172.542 213.756 172.255 213.804 171.987 213.911C171.72 214.018 171.479 214.181 171.28 214.39C170.872 214.844 170.66 215.441 170.69 216.05C170.663 216.659 170.875 217.255 171.28 217.71C171.479 217.917 171.721 218.079 171.989 218.184C172.256 218.289 172.543 218.336 172.83 218.32C173.224 218.314 173.61 218.215 173.958 218.03C174.305 217.846 174.604 217.582 174.83 217.26L176.77 218.99C176.322 219.58 175.73 220.045 175.05 220.34C174.255 220.676 173.398 220.837 172.536 220.815C171.674 220.793 170.826 220.586 170.05 220.21H170.08Z" fill="white"/>
<path d="M186.64 211.489V220.599H183.57V217.239H180.73V220.599H177.65V211.489H180.73V214.719H183.57V211.489H186.64Z" fill="white"/>
<path d="M195.7 218.289V220.599H188.12V211.489H195.53V213.809H191.14V214.869H195V217.089H191.14V218.289H195.7Z" fill="white"/>
<path d="M199 220.21C198.251 219.822 197.624 219.233 197.19 218.51C196.757 217.761 196.529 216.91 196.529 216.045C196.529 215.18 196.757 214.329 197.19 213.58C197.622 212.857 198.249 212.272 199 211.89C199.806 211.475 200.703 211.266 201.61 211.28C202.424 211.268 203.232 211.428 203.98 211.75C204.658 212.048 205.249 212.512 205.7 213.1L203.76 214.84C203.536 214.515 203.237 214.249 202.889 214.063C202.541 213.877 202.154 213.776 201.76 213.77C201.474 213.757 201.188 213.806 200.922 213.913C200.657 214.02 200.417 214.182 200.22 214.39C200.015 214.613 199.858 214.875 199.756 215.16C199.655 215.445 199.612 215.748 199.63 216.05C199.614 216.352 199.658 216.654 199.76 216.939C199.861 217.224 200.017 217.486 200.22 217.71C200.418 217.916 200.658 218.077 200.924 218.182C201.189 218.287 201.474 218.334 201.76 218.32C202.153 218.313 202.539 218.213 202.887 218.029C203.234 217.845 203.533 217.582 203.76 217.26L205.7 218.99C205.249 219.578 204.658 220.042 203.98 220.34C203.185 220.673 202.328 220.834 201.466 220.812C200.604 220.79 199.757 220.584 198.98 220.21H199Z" fill="white"/>
<path d="M210.28 217.579L209.59 218.349V220.599H206.59V211.489H209.59V214.799L212.59 211.489H215.93L212.29 215.489L216.12 220.589H212.56L210.28 217.579Z" fill="white"/>
<path d="M218.34 220.2C217.775 219.897 217.277 219.483 216.876 218.982C216.476 218.481 216.181 217.904 216.01 217.286C215.839 216.669 215.795 216.022 215.881 215.387C215.967 214.752 216.181 214.14 216.51 213.59C216.952 212.866 217.585 212.278 218.34 211.89C219.163 211.486 220.068 211.275 220.985 211.275C221.902 211.275 222.807 211.486 223.63 211.89C224.385 212.28 225.021 212.868 225.47 213.59C225.809 214.138 226.03 214.751 226.121 215.389C226.212 216.027 226.169 216.677 225.996 217.298C225.823 217.918 225.524 218.497 225.117 218.996C224.709 219.496 224.203 219.906 223.63 220.2C222.807 220.604 221.902 220.814 220.985 220.814C220.068 220.814 219.163 220.604 218.34 220.2ZM222 218C222.314 217.81 222.57 217.536 222.74 217.21C222.927 216.838 223.02 216.426 223.01 216.01C223.02 215.591 222.927 215.175 222.74 214.8C222.57 214.474 222.314 214.2 222 214.01C221.766 213.87 221.506 213.779 221.236 213.743C220.966 213.707 220.692 213.727 220.429 213.801C220.167 213.875 219.923 214.002 219.711 214.174C219.5 214.345 219.326 214.558 219.2 214.8C219.005 215.173 218.908 215.589 218.92 216.01C218.908 216.427 219.004 216.841 219.2 217.21C219.326 217.451 219.5 217.664 219.711 217.836C219.923 218.008 220.167 218.135 220.429 218.209C220.692 218.283 220.966 218.302 221.236 218.266C221.506 218.23 221.766 218.14 222 218Z" fill="white"/>
<path d="M228.34 219.68C227.937 219.259 227.625 218.759 227.423 218.212C227.222 217.665 227.136 217.082 227.17 216.5V211.5H230.24V216.42C230.197 216.933 230.323 217.446 230.6 217.88C230.722 218.026 230.875 218.142 231.048 218.219C231.221 218.297 231.41 218.335 231.6 218.33C231.79 218.337 231.979 218.3 232.152 218.222C232.326 218.144 232.479 218.027 232.6 217.88C232.877 217.446 233.003 216.933 232.96 216.42V211.5H235.96V216.5C235.994 217.082 235.908 217.665 235.706 218.212C235.505 218.759 235.193 219.259 234.79 219.68C233.857 220.411 232.705 220.809 231.52 220.809C230.334 220.809 229.183 220.411 228.25 219.68H228.34Z" fill="white"/>
<path d="M239.31 213.869H236.64V211.489H245.05V213.869H242.38V220.599H239.31V213.869Z" fill="white"/>
<path d="M174.29 121.999H170.29V118.399H183V121.999H179V132.179H174.35L174.29 121.999Z" fill="#3C72EB"/>
<path d="M185.43 131.66C184.511 131.215 183.735 130.522 183.19 129.66C182.66 128.791 182.379 127.792 182.379 126.775C182.379 125.757 182.66 124.759 183.19 123.89C183.732 123.025 184.509 122.331 185.43 121.89C186.441 121.422 187.541 121.18 188.655 121.18C189.769 121.18 190.869 121.422 191.88 121.89C192.558 122.229 193.158 122.705 193.642 123.287C194.127 123.87 194.485 124.547 194.695 125.275C194.904 126.004 194.961 126.768 194.86 127.519C194.759 128.27 194.504 128.992 194.11 129.64C193.571 130.504 192.798 131.198 191.88 131.64C190.871 132.114 189.77 132.36 188.655 132.36C187.54 132.36 186.439 132.114 185.43 131.64V131.66ZM189.91 128.36C190.256 127.912 190.43 127.355 190.4 126.79C190.433 126.23 190.259 125.678 189.91 125.24C189.748 125.066 189.552 124.928 189.335 124.833C189.117 124.739 188.882 124.69 188.645 124.69C188.408 124.69 188.173 124.739 187.955 124.833C187.738 124.928 187.542 125.066 187.38 125.24C187.031 125.678 186.856 126.23 186.89 126.79C186.86 127.355 187.034 127.912 187.38 128.36C187.54 128.536 187.735 128.677 187.953 128.773C188.171 128.869 188.407 128.919 188.645 128.919C188.883 128.919 189.119 128.869 189.336 128.773C189.554 128.677 189.75 128.536 189.91 128.36Z" fill="#3C72EB"/>
<path d="M204.24 131.81C203.39 132.231 202.447 132.427 201.5 132.38C200.244 132.468 199.001 132.078 198.02 131.29C197.589 130.864 197.257 130.348 197.046 129.78C196.835 129.212 196.751 128.604 196.8 128V125.25H195.32V122H196.8V119H201.25V122H203.45V125.25H201.25V128C201.23 128.279 201.32 128.555 201.5 128.77C201.586 128.861 201.69 128.932 201.805 128.981C201.921 129.029 202.045 129.052 202.17 129.05C202.526 129.055 202.875 128.95 203.17 128.75L204.24 131.81Z" fill="#3C72EB"/>
<path d="M214.52 122.49C215.043 122.99 215.448 123.6 215.704 124.277C215.96 124.954 216.061 125.679 216 126.4V132.19H211.87V130.77C211.592 131.311 211.156 131.754 210.621 132.042C210.085 132.329 209.474 132.447 208.87 132.38C208.119 132.405 207.373 132.255 206.69 131.94C206.133 131.676 205.661 131.26 205.33 130.74C205.02 130.228 204.861 129.639 204.87 129.04C204.846 128.564 204.946 128.09 205.16 127.664C205.374 127.238 205.694 126.875 206.09 126.61C207.218 125.985 208.503 125.7 209.79 125.79H211.58C211.44 124.95 210.76 124.53 209.58 124.53C209.079 124.53 208.58 124.604 208.1 124.75C207.641 124.881 207.208 125.091 206.82 125.37L205.4 122.44C206.097 122.028 206.852 121.724 207.64 121.54C208.494 121.33 209.371 121.223 210.25 121.22C211.779 121.127 213.291 121.577 214.52 122.49ZM211.01 129.49C211.275 129.303 211.469 129.031 211.56 128.72V127.97H210.46C209.56 127.97 209.1 128.28 209.1 128.88C209.098 128.999 209.123 129.116 209.173 129.223C209.224 129.331 209.298 129.425 209.39 129.5C209.612 129.674 209.889 129.762 210.17 129.75C210.471 129.738 210.761 129.633 211 129.45L211.01 129.49Z" fill="#3C72EB"/>
<path d="M217.94 117.58H222.39V132.19H217.94V117.58Z" fill="#3C72EB"/>
<path d="M196.57 152.64H165.27V156.08H196.57V152.64Z" fill="#3C72EB"/>
<path d="M188 144.18H165.27V147.62H188V144.18Z" fill="#263238"/>
<path d="M202.46 161.819H165.27V165.259H202.46V161.819Z" fill="#3C72EB"/>
<path d="M244.39 161.819H227.17V165.259H244.39V161.819Z" fill="#3C72EB"/>
<path d="M191.67 175.699H165.27V179.139H191.67V175.699Z" fill="#3C72EB"/>
<path d="M97.9101 193.08C94.7101 193.08 91.6401 195.97 89.7601 201.34C87.8801 206.71 89.2301 214.51 89.4901 218.19C89.7501 221.87 87.8701 227.19 87.8701 227.19C92.2201 223.64 95.1801 219.19 95.6801 213.06C96.1332 215.516 95.9822 218.045 95.2401 220.43C97.8197 218.168 99.848 215.346 101.17 212.18C103.57 206.68 103.3 198.87 103.3 198.87C103.3 198.87 101.12 193.08 97.9101 193.08Z" fill="#263238"/>
<path d="M95.6001 199.62C95.4701 202.43 96.6001 207.62 103.5 202.97C110.4 198.32 102.3 195.52 98.9901 196.18C98.116 196.277 97.3019 196.672 96.6845 197.298C96.0672 197.925 95.6843 198.744 95.6001 199.62Z" fill="#3C72EB"/>
<path d="M98.9201 199.91C98.0401 205.66 100.79 210.91 102.46 217.79C104.13 224.67 102.72 226.19 102.72 226.19C102.72 226.19 117.36 223.89 124.98 210.37C132.6 196.85 118.85 187.95 110.38 190.59C106.21 188.5 99.7901 194.31 98.9201 199.91Z" fill="#263238"/>
<path d="M134.49 232.899C134.57 233.669 134.69 234.609 134.8 235.479C134.91 236.349 135.06 237.259 135.2 238.139C135.5 239.919 135.83 241.689 136.2 243.449C136.57 245.209 137.02 246.939 137.49 248.659C137.96 250.379 138.49 252.069 139.15 253.709L139.38 254.319L139.5 254.629L139.59 254.849C139.646 254.997 139.713 255.141 139.79 255.279C139.858 255.439 139.938 255.592 140.03 255.739C140.423 256.434 140.861 257.102 141.34 257.739C142.421 259.117 143.58 260.433 144.81 261.679C147.32 264.259 150.08 266.789 152.81 269.219L150.64 272.469C147.172 270.667 143.873 268.559 140.78 266.169C139.173 264.928 137.659 263.571 136.25 262.109C135.483 261.314 134.778 260.462 134.14 259.559C133.964 259.318 133.801 259.068 133.65 258.809C133.481 258.549 133.327 258.278 133.19 257.999L132.97 257.579L132.81 257.239L132.49 256.549C130.826 252.925 129.507 249.151 128.55 245.279C128.07 243.359 127.65 241.429 127.33 239.489C127.17 238.489 127.02 237.539 126.89 236.549C126.76 235.559 126.67 234.619 126.59 233.549L134.49 232.899Z" fill="#FFB573"/>
<path d="M131.76 225.53C134.42 226.2 136.28 237.15 136.28 237.15L128.95 242.15C128.95 242.15 121.95 231.15 123.95 228.15C125.95 225.15 127.88 224.54 131.76 225.53Z" fill="#3C72EB"/>
<g opacity="0.5">
<path d="M131.76 225.53C134.42 226.2 136.28 237.15 136.28 237.15L128.95 242.15C128.95 242.15 121.95 231.15 123.95 228.15C125.95 225.15 127.88 224.54 131.76 225.53Z" fill="white"/>
</g>
<path opacity="0.2" d="M131.52 228L133.52 239L132.52 239.71V240.4C132.378 244.56 131.869 248.699 131 252.77L129.33 248.32L127.85 242.53L129.49 241.79L131.52 228Z" fill="black"/>
<path d="M154.07 269.34L159.07 271.28L153.45 274.67C153.45 274.67 149.86 272.59 149.95 269.91L150.5 269.6C151.039 269.296 151.639 269.115 152.256 269.07C152.873 269.025 153.493 269.117 154.07 269.34Z" fill="#FFB573"/>
<path d="M162.14 274.95L157.91 278.47L153.43 274.67L159.05 271.28L162.14 274.95Z" fill="#FFB573"/>
<path d="M131.76 225.529C131.76 225.529 134.83 226.609 128.67 264.469H102.47C102.91 253.799 103 247.219 97.9102 225.329C101.537 224.579 105.213 224.091 108.91 223.869C112.872 223.589 116.848 223.589 120.81 223.869C126 224.339 131.76 225.529 131.76 225.529Z" fill="#3C72EB"/>
<g opacity="0.4">
<path d="M131.76 225.529C131.76 225.529 134.83 226.609 128.67 264.469H102.47C102.91 253.799 103 247.219 97.9102 225.329C101.537 224.579 105.213 224.091 108.91 223.869C112.872 223.589 116.848 223.589 120.81 223.869C126 224.339 131.76 225.529 131.76 225.529Z" fill="white"/>
</g>
<path opacity="0.2" d="M100.8 238.78L103.24 239.49L104.08 237.71C104.08 237.71 117.68 242.41 123.6 240.15C127.42 238.69 128.77 237.22 128.77 237.22L100.05 235.11L100.8 238.78Z" fill="black"/>
<path d="M111.03 409.71H117.49L120.13 394.77H113.68L111.03 409.71Z" fill="#FFB573"/>
<path d="M118 409H110.75C110.624 408.997 110.502 409.039 110.406 409.121C110.31 409.202 110.247 409.316 110.23 409.44L109.41 415.17C109.388 415.314 109.398 415.46 109.438 415.599C109.479 415.738 109.549 415.867 109.644 415.976C109.739 416.086 109.857 416.173 109.989 416.233C110.121 416.292 110.265 416.322 110.41 416.32C112.94 416.32 114.16 416.13 117.34 416.13C119.34 416.13 124.94 416.33 127.65 416.33C130.36 416.33 130.5 413.66 129.37 413.41C124.31 412.33 120.75 410.83 119.04 409.41C118.749 409.16 118.383 409.016 118 409Z" fill="#263238"/>
<g opacity="0.2">
<path d="M120.13 394.78L118.77 402.48H112.31L113.67 394.78H120.13Z" fill="black"/>
</g>
<path d="M109 223.88C112.958 223.59 116.932 223.59 120.89 223.88L121.67 223.95C122.67 225.75 122.86 228.52 120.58 232.58C120.58 232.58 110.15 228.38 107.43 223.98C107.91 223.94 108.43 223.9 109 223.88Z" fill="#FFB573"/>
<path d="M128.67 264.47C128.67 264.47 133.76 314.17 133.34 333.85C132.9 354.31 120.17 401 120.17 401H111.45C111.45 401 118.06 355.52 117.29 335.42C116.45 313.51 109.49 264.48 109.49 264.48L128.67 264.47Z" fill="#263238"/>
<path opacity="0.3" d="M128.67 264.47C128.67 264.47 133.76 314.17 133.34 333.85C132.9 354.31 120.17 401 120.17 401H111.45C111.45 401 118.06 355.52 117.29 335.42C116.45 313.51 109.49 264.48 109.49 264.48L128.67 264.47Z" fill="#263238"/>
<path d="M110.69 401.3H120.93L121.68 398.04L110.22 397.64L110.69 401.3Z" fill="#263238"/>
<path opacity="0.2" d="M117.37 276.83C123.81 289.78 118.66 313.4 116.37 322.19C115.2 308.99 113.23 292.86 111.7 281.01C112.69 274.31 114.4 270.87 117.37 276.83Z" fill="black"/>
<path d="M54.8101 352.01L56.9901 358.08L71.8501 355.28L69.6801 349.2L54.8101 352.01Z" fill="#FFB573"/>
<path d="M58.74 358.28L58.23 351.05C58.2248 350.919 58.174 350.793 58.0865 350.694C57.999 350.596 57.8801 350.531 57.75 350.51L51.92 349.34C51.7789 349.31 51.6326 349.314 51.4935 349.352C51.3543 349.391 51.2264 349.462 51.1206 349.56C51.0147 349.658 50.9339 349.78 50.8851 349.916C50.8363 350.052 50.8208 350.197 50.84 350.34C51.06 352.87 51.3 354.09 51.52 357.27C51.66 359.27 51.84 364.83 52.03 367.54C52.22 370.25 54.93 370.54 55.09 369.43C55.84 364.43 57.09 360.98 58.42 359.37C58.6645 359.062 58.7793 358.671 58.74 358.28Z" fill="#263238"/>
<g opacity="0.2">
<path d="M71.85 355.27L64.19 356.72L62.01 350.65L69.67 349.2L71.85 355.27Z" fill="black"/>
</g>
<path d="M121.43 264.47C121.43 264.47 114.27 315.76 109.43 335.06C104.43 355.13 66.7502 356.84 66.7502 356.84L62.9102 349C62.9102 349 84.9102 343.16 94.3602 329.95C98.4702 308.33 102.24 264.47 102.24 264.47H121.43Z" fill="#263238"/>
<path opacity="0.3" d="M121.43 264.47C121.43 264.47 114.27 315.76 109.43 335.06C104.43 355.13 66.7502 356.84 66.7502 356.84L62.9102 349C62.9102 349 84.9102 343.16 94.3602 329.95C98.4702 308.33 102.24 264.47 102.24 264.47H121.43Z" fill="#263238"/>
<path d="M62.47 348.27L65.83 357.94L69.3 357.98L65.93 347.07L62.47 348.27Z" fill="#263238"/>
<path d="M57.7699 360.63C57.7698 361.197 57.9482 361.75 58.2799 362.21C58.3777 362.316 58.4971 362.399 58.63 362.454C58.7629 362.509 58.9061 362.535 59.0499 362.53C59.1297 362.531 59.2081 362.51 59.2768 362.469C59.3455 362.429 59.4019 362.37 59.4399 362.3C59.8199 361.53 58.3199 358.89 58.1499 358.59C58.1338 358.562 58.1104 358.539 58.0823 358.523C58.0541 358.507 58.0222 358.499 57.9899 358.5C57.9592 358.502 57.9298 358.513 57.9063 358.533C57.8828 358.553 57.8665 358.58 57.8599 358.61C57.7711 359.279 57.741 359.955 57.7699 360.63ZM59.1999 361.85C59.229 361.941 59.229 362.039 59.1999 362.13C59.1857 362.16 59.1627 362.184 59.1341 362.2C59.1055 362.216 59.0726 362.223 59.0399 362.22C58.9469 362.226 58.8536 362.212 58.7671 362.177C58.6805 362.143 58.6029 362.089 58.5399 362.02C58.0774 361.131 57.9428 360.108 58.1599 359.13C58.6485 359.976 58.9995 360.894 59.1999 361.85Z" fill="#3C72EB"/>
<path d="M57.8601 358.64C57.8588 358.664 57.8588 358.687 57.8601 358.71C58.2701 359.49 59.7701 361.1 60.5001 361.02C60.6701 361.02 60.8801 360.89 60.8901 360.47C60.9016 360.153 60.7865 359.843 60.5701 359.61C59.8384 359 58.9459 358.615 58.0001 358.5C57.9804 358.499 57.9606 358.502 57.9419 358.508C57.9232 358.514 57.9059 358.524 57.891 358.537C57.8761 358.55 57.864 358.566 57.8552 358.584C57.8465 358.601 57.8414 358.621 57.8401 358.64H57.8601ZM60.6001 360.33C60.6049 360.36 60.6049 360.391 60.6001 360.42C60.6001 360.7 60.4801 360.71 60.4401 360.72C60.0001 360.72 58.8301 359.67 58.3001 358.86C59.0597 358.973 59.773 359.295 60.3601 359.79C60.4973 359.939 60.5816 360.129 60.6001 360.33Z" fill="#3C72EB"/>
<path d="M120.41 410.099C120.961 410.15 121.512 410.008 121.97 409.699C122.075 409.607 122.155 409.49 122.204 409.359C122.253 409.229 122.269 409.088 122.25 408.949C122.244 408.866 122.218 408.786 122.172 408.716C122.127 408.646 122.064 408.588 121.99 408.549C121.2 408.109 118.63 409.429 118.34 409.549C118.311 409.564 118.288 409.587 118.274 409.616C118.259 409.645 118.254 409.678 118.26 409.709C118.264 409.74 118.278 409.768 118.3 409.79C118.322 409.811 118.35 409.825 118.38 409.829C119.047 409.983 119.726 410.074 120.41 410.099ZM121.56 408.759C121.657 408.754 121.754 408.775 121.84 408.819C121.873 408.831 121.9 408.853 121.918 408.882C121.937 408.911 121.944 408.945 121.94 408.979C121.956 409.069 121.949 409.161 121.919 409.247C121.889 409.332 121.838 409.409 121.77 409.469C121.38 409.819 120.32 409.879 118.89 409.649C119.722 409.2 120.625 408.899 121.56 408.759Z" fill="#3C72EB"/>
<path d="M118.41 409.87H118.47C119.24 409.53 120.76 408.14 120.64 407.4C120.64 407.23 120.49 407.02 120.07 406.97C119.917 406.954 119.763 406.969 119.617 407.016C119.47 407.062 119.335 407.139 119.22 407.24C118.628 407.937 118.277 408.807 118.22 409.72C118.214 409.747 118.217 409.775 118.227 409.8C118.238 409.825 118.257 409.846 118.28 409.86C118.3 409.871 118.321 409.877 118.344 409.879C118.366 409.881 118.389 409.878 118.41 409.87ZM119.94 407.25H120.04C120.32 407.25 120.33 407.39 120.34 407.42C120.41 407.86 119.34 408.96 118.59 409.42C118.651 408.683 118.941 407.984 119.42 407.42C119.568 407.305 119.752 407.245 119.94 407.25Z" fill="#3C72EB"/>
<path d="M110.13 210.479C110.88 214.299 111.63 221.319 108.95 223.869C108.95 223.869 109.95 227.759 117.11 227.759C124.94 227.759 120.85 223.869 120.85 223.869C116.58 222.869 116.69 219.69 117.44 216.71L110.13 210.479Z" fill="#FFB573"/>
<path opacity="0.2" d="M113.11 213L117.43 216.69C117.248 217.381 117.128 218.087 117.07 218.8C115.44 218.57 113.19 216.8 113.07 215.07C112.961 214.383 112.974 213.682 113.11 213Z" fill="black"/>
<path d="M106 203.84C107.46 210.08 108 212.75 111.68 215.44C117.29 219.49 124.63 216.33 125.07 209.79C125.46 203.9 123 194.69 116.41 193.23C114.958 192.902 113.446 192.951 112.017 193.372C110.589 193.793 109.292 194.572 108.249 195.635C107.207 196.697 106.453 198.009 106.059 199.445C105.665 200.881 105.645 202.394 106 203.84Z" fill="#FFB573"/>
<path d="M108.58 198.22C110.84 199.95 109.85 206.22 107.05 208.15C102.67 207.1 101.84 193.05 108.58 198.22Z" fill="#263238"/>
<path d="M116.47 192C119 192.44 122.21 196.2 122.89 197.73C119.09 197.03 108.62 200.27 108.62 200.27C108.62 200.27 103.94 199.75 106.57 196.14C109.2 192.53 116.47 192 116.47 192Z" fill="#263238"/>
<path d="M117 203.8C117.09 204.32 117.43 204.69 117.77 204.63C118.11 204.57 118.31 204.11 118.22 203.63C118.13 203.15 117.79 202.74 117.45 202.8C117.11 202.86 116.88 203.29 117 203.8Z" fill="#263238"/>
<path d="M122.76 202.82C122.85 203.33 123.19 203.7 123.53 203.64C123.87 203.58 124.06 203.12 123.98 202.64C123.9 202.16 123.55 201.76 123.21 201.81C122.87 201.86 122.67 202.3 122.76 202.82Z" fill="#263238"/>
<path d="M123.07 201.84L124.24 201.27C124.24 201.27 123.77 202.34 123.07 201.84Z" fill="#263238"/>
<path d="M120.5 204.05C121.154 205.155 121.959 206.165 122.89 207.05C122.661 207.281 122.383 207.46 122.077 207.572C121.772 207.684 121.445 207.728 121.12 207.7L120.5 204.05Z" fill="#ED893E"/>
<path d="M118.66 210.15C118.918 210.141 119.175 210.117 119.43 210.08C119.469 210.071 119.503 210.047 119.525 210.013C119.547 209.98 119.556 209.94 119.55 209.9C119.543 209.861 119.521 209.826 119.49 209.802C119.458 209.778 119.419 209.767 119.38 209.77C118.745 209.896 118.089 209.872 117.466 209.698C116.842 209.524 116.268 209.206 115.79 208.77C115.777 208.755 115.761 208.743 115.743 208.735C115.724 208.727 115.705 208.723 115.685 208.723C115.665 208.723 115.645 208.727 115.627 208.735C115.609 208.743 115.593 208.755 115.58 208.77C115.552 208.8 115.536 208.839 115.536 208.88C115.536 208.921 115.552 208.96 115.58 208.99C115.992 209.377 116.476 209.678 117.004 209.877C117.533 210.076 118.095 210.169 118.66 210.15Z" fill="#263238"/>
<path d="M105.28 209.91C105.903 210.98 106.924 211.76 108.12 212.08C109.71 212.48 110.47 211.08 110 209.57C109.58 208.24 108.24 206.42 106.66 206.67C106.315 206.73 105.991 206.876 105.717 207.093C105.443 207.311 105.228 207.593 105.091 207.915C104.954 208.237 104.899 208.588 104.932 208.937C104.965 209.285 105.085 209.619 105.28 209.91Z" fill="#FFB573"/>
<path d="M113.81 202.999C113.874 202.997 113.936 202.975 113.986 202.935C114.037 202.896 114.073 202.841 114.09 202.779C114.299 202.326 114.6 201.92 114.974 201.588C115.347 201.256 115.785 201.004 116.26 200.849C116.336 200.822 116.399 200.766 116.435 200.693C116.47 200.62 116.476 200.536 116.45 200.459C116.438 200.422 116.418 200.387 116.392 200.357C116.366 200.328 116.335 200.303 116.299 200.286C116.264 200.268 116.226 200.257 116.186 200.255C116.147 200.252 116.107 200.257 116.07 200.269C115.501 200.452 114.978 200.754 114.537 201.156C114.095 201.558 113.745 202.05 113.51 202.599C113.485 202.678 113.492 202.763 113.529 202.836C113.567 202.909 113.632 202.964 113.71 202.989L113.81 202.999Z" fill="#263238"/>
<path d="M123.42 199.84C123.485 199.836 123.548 199.812 123.598 199.77C123.649 199.729 123.685 199.673 123.702 199.609C123.719 199.546 123.715 199.479 123.691 199.418C123.667 199.357 123.625 199.305 123.57 199.27C123.155 199.02 122.686 198.873 122.203 198.84C121.72 198.807 121.235 198.889 120.79 199.08C120.753 199.098 120.72 199.123 120.693 199.154C120.666 199.185 120.645 199.221 120.632 199.261C120.619 199.3 120.614 199.341 120.617 199.382C120.62 199.423 120.631 199.463 120.65 199.5C120.69 199.569 120.754 199.62 120.83 199.644C120.906 199.668 120.988 199.663 121.06 199.63C121.414 199.482 121.798 199.42 122.181 199.45C122.563 199.479 122.933 199.599 123.26 199.8C123.309 199.827 123.364 199.841 123.42 199.84Z" fill="#263238"/>
<path d="M117.27 202.83L118.44 202.26C118.44 202.26 118 203.33 117.27 202.83Z" fill="#263238"/>
<path d="M102.08 262.93L101.41 265.28C101.32 265.46 101.53 265.64 101.83 265.64H128.83C129.07 265.64 129.27 265.53 129.28 265.38L129.52 263.03C129.52 262.87 129.33 262.73 129.07 262.73H102.5C102.419 262.724 102.337 262.739 102.263 262.774C102.19 262.809 102.127 262.863 102.08 262.93Z" fill="#FAFAFA"/>
<path d="M105.64 265.9H104.93C104.79 265.9 104.68 265.82 104.69 265.74L105.02 262.69C105.02 262.6 105.16 262.53 105.3 262.53H106C106.14 262.53 106.25 262.6 106.24 262.69L105.91 265.74C105.91 265.82 105.78 265.9 105.64 265.9Z" fill="#3C72EB"/>
<g opacity="0.3">
<path d="M105.64 265.9H104.93C104.79 265.9 104.68 265.82 104.69 265.74L105.02 262.69C105.02 262.6 105.16 262.53 105.3 262.53H106C106.14 262.53 106.25 262.6 106.24 262.69L105.91 265.74C105.91 265.82 105.78 265.9 105.64 265.9Z" fill="black"/>
</g>
<path d="M126.81 265.9H126.1C125.95 265.9 125.85 265.82 125.86 265.74L126.19 262.69C126.19 262.6 126.32 262.53 126.47 262.53H127.18C127.32 262.53 127.42 262.6 127.42 262.69L127.08 265.74C127.07 265.82 127 265.9 126.81 265.9Z" fill="#3C72EB"/>
<path opacity="0.3" d="M126.81 265.9H126.1C125.95 265.9 125.85 265.82 125.86 265.74L126.19 262.69C126.19 262.6 126.32 262.53 126.47 262.53H127.18C127.32 262.53 127.42 262.6 127.42 262.69L127.08 265.74C127.07 265.82 127 265.9 126.81 265.9Z" fill="black"/>
<path d="M116.22 265.9H115.51C115.37 265.9 115.26 265.82 115.27 265.74L115.61 262.69C115.61 262.6 115.74 262.53 115.88 262.53H116.59C116.73 262.53 116.84 262.6 116.83 262.69L116.5 265.74C116.49 265.82 116.37 265.9 116.22 265.9Z" fill="#3C72EB"/>
<path opacity="0.3" d="M116.22 265.9H115.51C115.37 265.9 115.26 265.82 115.27 265.74L115.61 262.69C115.61 262.6 115.74 262.53 115.88 262.53H116.59C116.73 262.53 116.84 262.6 116.83 262.69L116.5 265.74C116.49 265.82 116.37 265.9 116.22 265.9Z" fill="black"/>
<path d="M149.73 210.7L144.747 215.616C144.031 216.322 144.023 217.475 144.729 218.19L146.752 220.24C147.458 220.956 148.61 220.964 149.325 220.258L154.309 215.342C155.024 214.636 155.032 213.484 154.326 212.768L152.304 210.718C151.598 210.002 150.445 209.995 149.73 210.7Z" fill="#3C72EB"/>
<path opacity="0.4" d="M147.61 216.43L145.94 218.08C145.927 218.095 145.911 218.107 145.893 218.115C145.875 218.123 145.855 218.128 145.835 218.128C145.815 218.128 145.796 218.123 145.777 218.115C145.759 218.107 145.743 218.095 145.73 218.08C145.702 218.051 145.686 218.011 145.686 217.97C145.686 217.929 145.702 217.89 145.73 217.86L147.4 216.22C147.413 216.205 147.429 216.193 147.447 216.185C147.466 216.177 147.485 216.173 147.505 216.173C147.525 216.173 147.545 216.177 147.563 216.185C147.581 216.193 147.597 216.205 147.61 216.22C147.625 216.233 147.637 216.25 147.645 216.268C147.653 216.286 147.657 216.305 147.657 216.325C147.657 216.345 147.653 216.365 147.645 216.383C147.637 216.401 147.625 216.417 147.61 216.43Z" fill="white"/>
<path opacity="0.4" d="M151.21 210.639L149.54 212.279C149.512 212.307 149.474 212.322 149.435 212.322C149.396 212.322 149.358 212.307 149.33 212.279C149.315 212.266 149.303 212.25 149.295 212.232C149.287 212.214 149.283 212.194 149.283 212.174C149.283 212.155 149.287 212.135 149.295 212.117C149.303 212.099 149.315 212.083 149.33 212.069L151 210.419C151.013 210.405 151.029 210.393 151.048 210.384C151.066 210.376 151.085 210.372 151.105 210.372C151.125 210.372 151.145 210.376 151.163 210.384C151.181 210.393 151.197 210.405 151.21 210.419C151.238 210.449 151.254 210.489 151.254 210.529C151.254 210.57 151.238 210.61 151.21 210.639Z" fill="white"/>
<path opacity="0.4" d="M149.85 218.71L148.18 220.35C148.152 220.378 148.114 220.393 148.075 220.393C148.036 220.393 147.998 220.378 147.97 220.35C147.942 220.32 147.926 220.281 147.926 220.24C147.926 220.199 147.942 220.16 147.97 220.13L149.64 218.49C149.668 218.463 149.706 218.447 149.745 218.447C149.784 218.447 149.822 218.463 149.85 218.49C149.878 218.52 149.894 218.559 149.894 218.6C149.894 218.641 149.878 218.68 149.85 218.71Z" fill="white"/>
<path opacity="0.4" d="M146.91 218.18L146.47 218.61C146.44 218.638 146.401 218.654 146.36 218.654C146.319 218.654 146.28 218.638 146.25 218.61C146.223 218.582 146.207 218.545 146.207 218.505C146.207 218.466 146.223 218.428 146.25 218.4L146.68 217.96C146.711 217.934 146.75 217.92 146.79 217.92C146.83 217.92 146.869 217.934 146.9 217.96C146.93 217.989 146.947 218.027 146.949 218.068C146.951 218.109 146.937 218.149 146.91 218.18Z" fill="white"/>
<path opacity="0.2" d="M154.2 214.81L153.68 215.33C153.506 215.5 153.273 215.595 153.03 215.595C152.787 215.595 152.554 215.5 152.38 215.33C152.208 215.157 152.111 214.924 152.111 214.68C152.111 214.436 152.208 214.202 152.38 214.03L152.9 213.51C153.074 213.34 153.307 213.245 153.55 213.245C153.793 213.245 154.026 213.34 154.2 213.51C154.372 213.682 154.469 213.916 154.469 214.16C154.469 214.404 154.372 214.637 154.2 214.81Z" fill="black"/>
<path d="M100.75 227C102.3 227.61 104.01 228.27 105.67 228.84C107.33 229.41 109.02 230.01 110.67 230.53C113.936 231.597 117.279 232.413 120.67 232.97L121.29 233.06H121.45C121.642 233.061 121.834 233.038 122.02 232.99C122.708 232.818 123.377 232.58 124.02 232.28C125.562 231.568 127.061 230.766 128.51 229.88C131.51 228.07 134.59 226.04 137.57 224.03L140.17 226.93C137.661 229.767 134.929 232.399 132 234.8C130.464 236.057 128.836 237.197 127.13 238.21C126.161 238.794 125.136 239.279 124.07 239.66C123.381 239.899 122.666 240.057 121.94 240.13C121.71 240.13 121.5 240.13 121.25 240.13H120.73H119.98C118.98 240.08 117.98 239.95 116.98 239.84C115.98 239.73 114.98 239.56 114.08 239.36C112.16 239.02 110.29 238.55 108.44 238.05C106.59 237.55 104.77 236.97 102.97 236.35C101.17 235.73 99.4301 235.07 97.5901 234.26L100.75 227Z" fill="#FFB573"/>
<path d="M137.42 224.36L141.36 218.6L143.11 224.92C143.11 224.92 140.11 227.82 137.59 227.01L137.42 224.36Z" fill="#FFB573"/>
<path d="M146.53 216.96L147.71 222.33L143.11 224.92L141.36 218.6L146.53 216.96Z" fill="#FFB573"/>
<path d="M92.3901 235.34C94.3001 237.34 102.59 238.54 102.59 238.54L107.83 227.17C107.83 227.17 100.2 223.93 97.0701 225.65C93.9401 227.37 90.2201 233.09 92.3901 235.34Z" fill="#3C72EB"/>
<g opacity="0.5">
<path d="M92.3901 235.34C94.3001 237.34 102.59 238.54 102.59 238.54L107.83 227.17C107.83 227.17 100.2 223.93 97.0701 225.65C93.9401 227.37 90.2201 233.09 92.3901 235.34Z" fill="white"/>
</g>
<path d="M199.14 292.699L196.21 292.969C192.21 305.869 186.75 305.969 185.12 305.689C182.12 305.159 180.38 301.889 181.25 298.409C182.45 293.609 187.89 291.649 191.3 290.809C189.19 287.619 188.4 282.309 189.67 278.809C190.027 277.557 190.798 276.462 191.857 275.703C192.915 274.944 194.199 274.566 195.5 274.629C196.272 274.578 197.043 274.738 197.731 275.09C198.42 275.442 199 275.974 199.41 276.629C201.78 280.509 198.03 288.869 196.82 291.369L199.14 292.699ZM194.45 289.809C196.2 286.029 197.97 280.339 196.7 278.269C196.5 277.939 196.29 277.599 195.26 277.569C194.647 277.518 194.037 277.693 193.545 278.062C193.053 278.43 192.713 278.967 192.59 279.569C191.47 282.679 192.62 287.769 194.45 289.809ZM184.45 298.449C184.4 298.599 184.36 298.749 184.32 298.899C183.82 300.899 184.77 302.589 185.95 302.799C187.13 303.009 190.32 301.269 192.95 293.339C190.54 293.779 185.63 295.069 184.4 298.449H184.45Z" fill="#263238"/>
<path d="M303.87 299.8L283.89 355.08L185 319.35L204.91 264.25L303.87 299.8Z" fill="#3C72EB"/>
<path opacity="0.6" d="M303.87 299.8L283.89 355.08L185 319.35L204.91 264.25L303.87 299.8Z" fill="white"/>
<path d="M199.87 278.189L198.24 282.689L297.2 318.239L298.82 313.749L199.87 278.189Z" fill="#263238"/>
<path d="M287.89 344.02L286.69 347.32L187.74 311.76L188.93 308.47L287.89 344.02Z" fill="#263238"/>
<path opacity="0.2" d="M291.83 333.12L283.89 355.08L185 319.35L192.87 297.56L291.83 333.12Z" fill="black"/>
<path d="M224.7 306.999L223.7 304.749C212.33 305.279 210.7 300.979 210.44 299.609C210 297.069 212.09 294.759 215.11 294.449C219.25 294.029 222.37 297.779 224.01 300.249C225.102 298.881 226.465 297.753 228.014 296.937C229.563 296.122 231.264 295.635 233.01 295.509C234.107 295.429 235.2 295.724 236.108 296.345C237.016 296.966 237.687 297.878 238.01 298.929C238.27 299.532 238.36 300.194 238.272 300.844C238.184 301.494 237.921 302.108 237.51 302.619C235.12 305.619 227.41 305.029 225.09 304.789L224.7 306.999ZM225.7 302.449C229.19 302.759 234.22 302.529 235.49 300.929C235.7 300.669 235.91 300.409 235.63 299.589C235.498 299.088 235.184 298.653 234.75 298.369C234.316 298.084 233.793 297.971 233.28 298.049C231.76 298.178 230.288 298.644 228.97 299.412C227.652 300.18 226.522 301.231 225.66 302.489L225.7 302.449ZM215.92 296.999H215.53C213.82 297.179 212.73 298.419 212.91 299.409C213.09 300.399 215.37 302.409 222.41 302.269C221.39 300.529 219 296.999 215.92 296.999Z" fill="#263238"/>
<path d="M249.08 337.5H199.52V303.46H248.92L249.08 337.5Z" fill="#3C72EB"/>
<path opacity="0.4" d="M249.08 337.5H199.52V303.46H248.92L249.08 337.5Z" fill="white"/>
<path d="M236.42 303.46H232.39L232.55 337.5H236.58L236.42 303.46Z" fill="#263238"/>
<path d="M209.44 337.5H206.48L206.32 303.46H209.28L209.44 337.5Z" fill="#263238"/>
<path opacity="0.2" d="M219.22 337.5H199.52V303.46H219.06L219.22 337.5Z" fill="black"/>
<path d="M236.81 343.22C233.69 343.98 223.25 346.22 218.64 342.6C217.885 342.035 217.282 341.292 216.886 340.437C216.489 339.581 216.312 338.641 216.37 337.7C216.46 334.45 218.48 332.57 221.81 332.12C226.16 331.53 232.61 333.7 236.4 336.85C237.61 333.2 240.32 327.55 246.25 327.35C250.56 327.2 254.45 329.94 254.94 333.46C255.2 335.36 254.75 341.46 238.75 342.9L238.26 346.14L236.81 343.22ZM222.59 335.56C220.86 335.79 220.03 336.47 219.99 338.12C219.934 338.462 219.976 338.813 220.112 339.132C220.249 339.451 220.474 339.724 220.76 339.92C223.22 341.84 230.27 341.19 234.99 340.12C232.6 337.57 226.44 335 222.59 335.56ZM239.41 339.28C249.25 338.2 251.58 335.19 251.41 333.64C251.22 332.26 249.18 330.78 246.73 330.87C246.547 330.859 246.363 330.859 246.18 330.87C241.93 331.48 240.07 336.71 239.41 339.28Z" fill="#263238"/>
<path d="M267.884 335.123L205.449 343.542L208.527 366.365L270.962 357.946L267.884 335.123Z" fill="#3C72EB"/>
<path opacity="0.4" d="M267.884 335.123L205.449 343.542L208.527 366.365L270.962 357.946L267.884 335.123Z" fill="white"/>
<path opacity="0.2" d="M267.888 335.129L243.082 338.474L246.16 361.297L270.965 357.952L267.888 335.129Z" fill="white"/>
<path d="M226.274 340.733L221.2 341.417L224.277 364.24L229.352 363.556L226.274 340.733Z" fill="#263238"/>
<path d="M259.115 336.304L255.389 336.807L258.466 359.63L262.193 359.128L259.115 336.304Z" fill="#263238"/>
<path d="M183.93 300.239L182.5 301.479C178.15 290.829 172.64 282.479 164.12 280.089L165.55 278.859C173.67 280.999 179.34 289.269 183.93 300.239Z" fill="#263238"/>
<path opacity="0.5" d="M183.93 300.239L182.5 301.479C178.15 290.829 172.64 282.479 164.12 280.089L165.55 278.859C173.67 280.999 179.34 289.269 183.93 300.239Z" fill="white"/>
<path d="M178.36 300.34L176.36 301.76C172.24 293.44 172.74 289.17 162.48 282.76L164.43 281.34C174.69 288.23 174.69 292.49 178.36 300.34Z" fill="#263238"/>
<path opacity="0.5" d="M178.36 300.34L176.36 301.76C172.24 293.44 172.74 289.17 162.48 282.76L164.43 281.34C174.69 288.23 174.69 292.49 178.36 300.34Z" fill="white"/>
<path d="M303.33 300.3H176.48C176.07 300.299 175.665 300.402 175.305 300.599C174.944 300.796 174.639 301.08 174.417 301.425C174.195 301.771 174.063 302.167 174.034 302.576C174.005 302.986 174.079 303.396 174.25 303.77L203.68 368.39C203.905 368.873 204.279 369.271 204.747 369.525C205.215 369.779 205.753 369.875 206.28 369.8L299 356C299.543 355.918 300.042 355.656 300.419 355.258C300.796 354.859 301.028 354.346 301.08 353.8L305.77 303C305.805 302.659 305.768 302.314 305.661 301.988C305.555 301.662 305.381 301.362 305.151 301.107C304.921 300.853 304.64 300.649 304.326 300.51C304.013 300.371 303.673 300.299 303.33 300.3ZM302.99 304.3L298.53 353C298.482 353.525 298.258 354.019 297.896 354.401C297.533 354.784 297.052 355.033 296.53 355.11L207.7 368.33C207.195 368.405 206.679 368.313 206.23 368.07C205.781 367.826 205.423 367.444 205.21 366.98L177 305.09C176.836 304.732 176.765 304.339 176.792 303.947C176.819 303.554 176.944 303.175 177.156 302.844C177.368 302.512 177.66 302.239 178.005 302.05C178.35 301.861 178.737 301.761 179.13 301.76H300.63C300.96 301.756 301.287 301.821 301.59 301.951C301.893 302.081 302.165 302.274 302.388 302.517C302.612 302.759 302.782 303.046 302.887 303.358C302.993 303.67 303.031 304.002 303 304.33L302.99 304.3Z" fill="#263238"/>
<path d="M213.58 368.36H211.73L181.59 300.3H183.43L213.58 368.36Z" fill="#263238"/>
<path d="M221.88 367.05H220.04L191.21 300.3H193.06L221.88 367.05Z" fill="#263238"/>
<path d="M229.57 365.74H227.73L202.83 300.3H204.68L229.57 365.74Z" fill="#263238"/>
<path d="M237.8 364.36H235.96L213.58 300.3H215.42L237.8 364.36Z" fill="#263238"/>
<path d="M245.26 363.36H243.42L224.81 300.3H226.65L245.26 363.36Z" fill="#263238"/>
<path d="M253.68 362.13H251.84L235.34 300.3H237.19L253.68 362.13Z" fill="#263238"/>
<path d="M261.62 360.67H259.78L246.19 300.3H248.03L261.62 360.67Z" fill="#263238"/>
<path d="M269.95 359.74H268.1L257.18 300.3H259.03L269.95 359.74Z" fill="#263238"/>
<path d="M277.87 358.74H276.02L268.49 300.3H270.33L277.87 358.74Z" fill="#263238"/>
<path d="M285.79 357.28H283.94L279.52 300.3H281.37L285.79 357.28Z" fill="#263238"/>
<path d="M293.94 356.51H292.1L290.94 300.3H292.79L293.94 356.51Z" fill="#263238"/>
<path d="M303 319.68V321.52L185.2 326.83V324.98L303 319.68Z" fill="#263238"/>
<path d="M301.52 339V340.85L196.51 352.32V350.48L301.52 339Z" fill="#263238"/>
<path d="M213.58 409.6C213.584 410.912 213.198 412.195 212.471 413.288C211.744 414.38 210.709 415.231 209.498 415.734C208.286 416.237 206.952 416.369 205.666 416.112C204.379 415.856 203.198 415.223 202.272 414.294C201.345 413.365 200.716 412.182 200.464 410.894C200.211 409.607 200.347 408.274 200.853 407.064C201.36 405.853 202.215 404.821 203.309 404.098C204.403 403.374 205.688 402.992 207 403C208.746 403.008 210.418 403.707 211.651 404.943C212.884 406.18 213.577 407.854 213.58 409.6Z" fill="#3C72EB"/>
<path d="M212 409.56C211.709 410.494 211.127 411.311 210.339 411.892C209.551 412.473 208.599 412.788 207.62 412.79C206.686 412.819 205.773 412.507 205.052 411.913C204.331 411.319 203.85 410.482 203.7 409.56L201.64 397H218.46L216.46 404C216.32 404.487 216.074 404.938 215.74 405.32L212 409.56Z" fill="#263238"/>
<path opacity="0.3" d="M212 409.56C211.709 410.494 211.127 411.311 210.339 411.892C209.551 412.473 208.599 412.788 207.62 412.79C206.686 412.819 205.773 412.507 205.052 411.913C204.331 411.319 203.85 410.482 203.7 409.56L201.64 397H218.46L216.46 404C216.32 404.487 216.074 404.938 215.74 405.32L212 409.56Z" fill="white"/>
<path d="M276.89 409.6C276.886 410.911 277.271 412.193 277.997 413.284C278.722 414.376 279.755 415.227 280.965 415.731C282.175 416.235 283.507 416.368 284.793 416.115C286.079 415.861 287.26 415.231 288.188 414.305C289.115 413.379 289.747 412.198 290.003 410.913C290.259 409.627 290.127 408.295 289.625 407.084C289.123 405.874 288.273 404.839 287.183 404.112C286.092 403.385 284.811 402.998 283.5 403C281.749 403 280.069 403.695 278.83 404.933C277.59 406.17 276.893 407.849 276.89 409.6Z" fill="#3C72EB"/>
<path d="M278.46 409.56C278.755 410.494 279.339 411.311 280.128 411.891C280.917 412.472 281.87 412.787 282.85 412.79C283.784 412.819 284.697 412.507 285.418 411.913C286.139 411.319 286.62 410.482 286.77 409.56L288.83 397H272L274.05 404C274.187 404.489 274.433 404.94 274.77 405.32L278.46 409.56Z" fill="#263238"/>
<path opacity="0.3" d="M278.46 409.56C278.755 410.494 279.339 411.311 280.128 411.891C280.917 412.472 281.87 412.787 282.85 412.79C283.784 412.819 284.697 412.507 285.418 411.913C286.139 411.319 286.62 410.482 286.77 409.56L288.83 397H272L274.05 404C274.187 404.489 274.433 404.94 274.77 405.32L278.46 409.56Z" fill="white"/>
<path opacity="0.6" d="M303.33 300.3H176.48C176.07 300.299 175.665 300.402 175.305 300.599C174.944 300.796 174.639 301.08 174.417 301.425C174.195 301.771 174.063 302.167 174.034 302.576C174.005 302.986 174.079 303.396 174.25 303.77L203.68 368.39C203.905 368.873 204.279 369.271 204.747 369.525C205.215 369.779 205.753 369.875 206.28 369.8L299 356C299.543 355.918 300.042 355.656 300.419 355.258C300.796 354.859 301.028 354.346 301.08 353.8L305.77 303C305.805 302.659 305.768 302.314 305.661 301.988C305.555 301.662 305.381 301.362 305.151 301.107C304.921 300.853 304.64 300.649 304.326 300.51C304.013 300.371 303.673 300.299 303.33 300.3ZM300.65 301.76C300.977 301.76 301.301 301.828 301.6 301.96C301.9 302.092 302.168 302.286 302.388 302.528C302.608 302.77 302.776 303.055 302.879 303.365C302.983 303.676 303.021 304.004 302.99 304.33L301.58 319.74L293.19 320.12L292.82 301.76H300.65ZM186.89 326.76L193.18 326.48L203.48 349.73L197.64 350.36L186.89 326.76ZM194.99 326.4L202.34 326.07L212.14 348.78L205.24 349.53L194.99 326.4ZM273.87 342L266.87 342.76L263.3 323.28L271.45 322.92L273.87 342ZM273.24 322.83L281.24 322.47L282.68 341.03L275.68 341.8L273.24 322.83ZM265 343L257.79 343.79L253.28 323.79L261.4 323.43L265 343ZM256 344L249 344.76L243.52 324.22L251.45 323.86L256 344ZM247.23 344.95L240.04 345.74L233.82 324.66L241.72 324.3L247.23 344.95ZM238.23 345.95L231.57 346.68L224.04 325.12L231.97 324.76L238.23 345.95ZM229.8 346.88L222.64 347.66L214.23 325.56L222.23 325.2L229.8 346.88ZM220.87 347.88L213.87 348.65L204.15 326L212.46 325.62L220.87 347.88ZM212.87 350.6L219.77 366.6L213.16 367.6L206 351.28L212.87 350.6ZM214.63 350.41L221.54 349.65L227.54 365.43L221.54 366.33L214.63 350.41ZM223.31 349.46L230.42 348.68L235.84 364.19L229.29 365.19L223.31 349.46ZM232.2 348.46L238.76 347.74L243.32 363L237.63 363.85L232.2 348.46ZM240.54 347.55L247.69 346.77L251.69 361.77L245.03 362.77L240.54 347.55ZM249.48 346.55L256.39 345.8L259.71 360.58L253.47 361.51L249.48 346.55ZM258.19 345.6L265.32 344.82L268 359.33L261.51 360.33L258.19 345.6ZM267.13 344.6L274.06 343.85L276 358.14L269.87 359.06L267.13 344.6ZM275.88 343.6L282.79 342.84L283.92 357L277.76 357.92L275.88 343.6ZM284.62 342.6L291.76 341.82L292.04 355.65L285.7 356.59L284.62 342.6ZM284.48 340.77L283.04 322.33L291.35 321.96L291.72 339.96L284.48 340.77ZM293.19 321.87L301.37 321.5L299.76 339.1L293.56 339.78L293.19 321.87ZM291 301.76L291.38 320.2L282.97 320.58L281.51 301.76H291ZM279.67 301.76L281.13 320.66L273 321L270.51 301.73L279.67 301.76ZM268.67 301.76L271.16 321.11L262.91 321.48L259.29 301.76H268.67ZM257.44 301.76L261.08 321.57L252.89 321.93L248.35 301.76H257.44ZM246.51 301.76L251.08 322L243.08 322.36L237.58 301.74L246.51 301.76ZM235.72 301.76L241.24 322.46L233.29 322.82L227.08 301.76H235.72ZM225.23 301.76L231.47 322.9L223.47 323.26L215.96 301.76H225.23ZM214.08 301.76L221.62 323.34L213.62 323.7L205.28 301.76H214.08ZM203.38 301.76L211.76 323.76L203.36 324.14L193.68 301.73L203.38 301.76ZM191.84 301.76L201.54 324.25L194.18 324.58L184.07 301.76H191.84ZM179.14 301.76H182.23L192.37 324.66L186.05 324.94L177.05 305.09C176.887 304.735 176.815 304.344 176.841 303.954C176.867 303.564 176.99 303.187 177.198 302.856C177.407 302.525 177.695 302.252 178.035 302.061C178.376 301.869 178.759 301.766 179.15 301.76H179.14ZM205.21 367L198.44 352.13L204.26 351.5L211.47 367.79L207.7 368.35C207.195 368.425 206.679 368.333 206.23 368.09C205.781 367.846 205.423 367.464 205.21 367ZM298.53 353C298.482 353.525 298.258 354.019 297.896 354.401C297.533 354.784 297.052 355.033 296.53 355.11L293.91 355.5L293.63 341.75L299.63 341.1L298.53 353Z" fill="white"/>
<path d="M156.66 279.87L164.22 284.24L167.55 278.48L160 274.11C159.622 273.891 159.204 273.749 158.771 273.692C158.339 273.635 157.899 273.664 157.477 273.778C157.055 273.891 156.66 274.087 156.314 274.353C155.968 274.619 155.678 274.951 155.46 275.33C155.241 275.707 155.098 276.123 155.039 276.555C154.981 276.987 155.008 277.427 155.12 277.848C155.231 278.27 155.424 278.665 155.689 279.012C155.953 279.359 156.283 279.65 156.66 279.87Z" fill="#3C72EB"/>
<path d="M196.5 394.3V397.88H294.94V394.3H196.5Z" fill="#263238"/>
<path d="M213.281 368.836L213.83 372.374L231.41 369.649L230.861 366.112L213.281 368.836Z" fill="#263238"/>
<path d="M194.13 392.38C193.43 393.27 194.51 394.62 196.51 394.31V397.89C189.8 398.12 188.51 393.39 191.51 390L194.13 392.38Z" fill="#263238"/>
<path d="M210.51 374C211.379 373.065 212.552 372.47 213.82 372.32L213.28 368.78C211.211 369.117 209.307 370.113 207.85 371.62L210.51 374Z" fill="#263238"/>
<path d="M196.5 394.3V397.88H294.94V394.3H196.5Z" fill="#263238"/>
<path d="M213.281 368.836L213.83 372.374L231.41 369.649L230.861 366.112L213.281 368.836Z" fill="#263238"/>
<path d="M194.13 392.38C193.43 393.27 194.51 394.62 196.51 394.31V397.89C189.8 398.12 188.51 393.39 191.51 390L194.13 392.38Z" fill="#263238"/>
<path d="M210.51 374C211.379 373.065 212.552 372.47 213.82 372.32L213.28 368.78C211.211 369.117 209.307 370.113 207.85 371.62L210.51 374Z" fill="#263238"/>
<path d="M191.438 389.993L194.108 392.378L210.488 374.038L207.818 371.653L191.438 389.993Z" fill="#263238"/>
<path d="M191.438 389.993L194.108 392.378L210.488 374.038L207.818 371.653L191.438 389.993Z" fill="#263238"/>
<path opacity="0.4" d="M196.51 394.31C194.51 394.62 193.43 393.31 194.13 392.38L210.51 374C211.379 373.065 212.552 372.469 213.82 372.32L231.41 369.59L230.86 366.06L213.28 368.78C211.211 369.116 209.306 370.112 207.85 371.62L191.47 390C188.47 393.39 189.8 398.12 196.47 397.89H294.9V394.31H196.51Z" fill="white"/>
</svg>
