<svg width="500" height="500" viewBox="0 0 500 500" fill="none" xmlns="http://www.w3.org/2000/svg">
<path d="M449.9 398.49H416.78V398.74H449.9V398.49Z" fill="#EBEBEB"/>
<path d="M331.22 401.21H322.53V401.46H331.22V401.21Z" fill="#EBEBEB"/>
<path d="M415.78 389.21H396.59V389.46H415.78V389.21Z" fill="#EBEBEB"/>
<path d="M95.65 390.89H52.46V391.14H95.65V390.89Z" fill="#EBEBEB"/>
<path d="M110.89 390.89H104.56V391.14H110.89V390.89Z" fill="#EBEBEB"/>
<path d="M225.15 395.11H131.47V395.36H225.15V395.11Z" fill="#EBEBEB"/>
<path d="M238.4 337.8H45.3C43.7856 337.8 42.3332 337.198 41.2624 336.128C40.1916 335.057 39.59 333.604 39.59 332.09V60.66C39.6032 59.1543 40.2106 57.7147 41.28 56.6547C42.3494 55.5947 43.7942 54.9999 45.3 55H238.4C239.15 55 239.892 55.1477 240.585 55.4346C241.278 55.7216 241.907 56.1422 242.438 56.6724C242.968 57.2026 243.388 57.8321 243.675 58.5249C243.962 59.2176 244.11 59.9602 244.11 60.71V332.09C244.11 332.84 243.962 333.582 243.675 334.275C243.388 334.968 242.968 335.597 242.438 336.128C241.907 336.658 241.278 337.078 240.585 337.365C239.892 337.652 239.15 337.8 238.4 337.8ZM45.3 55.2C43.8527 55.2026 42.4655 55.7787 41.4421 56.8021C40.4187 57.8255 39.8426 59.2127 39.84 60.66V332.09C39.8426 333.537 40.4187 334.924 41.4421 335.948C42.4655 336.971 43.8527 337.547 45.3 337.55H238.4C239.847 337.547 241.234 336.971 242.258 335.948C243.281 334.924 243.857 333.537 243.86 332.09V60.66C243.857 59.2127 243.281 57.8255 242.258 56.8021C241.234 55.7787 239.847 55.2026 238.4 55.2H45.3Z" fill="#EBEBEB"/>
<path d="M454.7 337.8H261.6C260.086 337.8 258.633 337.198 257.562 336.128C256.491 335.057 255.89 333.604 255.89 332.09V60.66C255.903 59.1543 256.51 57.7147 257.58 56.6547C258.649 55.5947 260.094 54.9999 261.6 55H454.7C456.214 55 457.667 55.6016 458.737 56.6724C459.808 57.7433 460.41 59.1956 460.41 60.71V332.09C460.41 333.604 459.808 335.057 458.737 336.128C457.667 337.198 456.214 337.8 454.7 337.8ZM261.6 55.2C260.153 55.2026 258.765 55.7787 257.742 56.8021C256.719 57.8255 256.143 59.2127 256.14 60.66V332.09C256.143 333.537 256.719 334.924 257.742 335.948C258.765 336.971 260.153 337.547 261.6 337.55H454.7C456.147 337.547 457.534 336.971 458.558 335.948C459.581 334.924 460.157 333.537 460.16 332.09V60.66C460.157 59.2127 459.581 57.8255 458.558 56.8021C457.534 55.7787 456.147 55.2026 454.7 55.2H261.6Z" fill="#EBEBEB"/>
<path d="M500 382.4H0V382.65H500V382.4Z" fill="#EBEBEB"/>
<path d="M130.68 118.44L137.97 113.76L141.95 121.46L150.61 121.06L150.21 129.72L157.91 133.7L153.23 140.99L157.91 148.29L150.21 152.27L150.61 160.93L141.95 160.53L137.97 168.23L130.68 163.55L123.38 168.23L119.4 160.53L110.74 160.93L111.14 152.27L103.44 148.29L108.12 140.99L103.44 133.7L111.14 129.72L110.74 121.06L119.4 121.46L123.38 113.76L130.68 118.44Z" fill="#E6E6E6"/>
<path d="M127.91 152.13L119.24 143.46C118.764 142.983 118.497 142.338 118.497 141.665C118.497 140.991 118.764 140.346 119.24 139.87C119.716 139.394 120.362 139.127 121.035 139.127C121.708 139.127 122.354 139.394 122.83 139.87L127.91 144.95L138.52 134.34C138.996 133.864 139.642 133.597 140.315 133.597C140.988 133.597 141.634 133.864 142.11 134.34C142.586 134.816 142.853 135.461 142.853 136.135C142.853 136.808 142.586 137.453 142.11 137.93L127.91 152.13Z" fill="#FAFAFA"/>
<path d="M401.86 194.98L407.58 191.31L410.7 197.35L417.5 197.03L417.18 203.82L423.22 206.94L419.55 212.67L423.22 218.39L417.18 221.51L417.5 228.3L410.7 227.99L407.58 234.03L401.86 230.36L396.14 234.03L393.02 227.99L386.23 228.3L386.54 221.51L380.5 218.39L384.17 212.67L380.5 206.94L386.54 203.82L386.23 197.03L393.02 197.35L396.14 191.31L401.86 194.98Z" fill="#E6E6E6"/>
<path d="M399.69 221.4L392.89 214.6C392.521 214.226 392.313 213.721 392.313 213.195C392.313 212.669 392.521 212.165 392.89 211.79C393.265 211.418 393.772 211.209 394.3 211.209C394.828 211.209 395.335 211.418 395.71 211.79L399.71 215.79L408.03 207.47C408.405 207.098 408.912 206.889 409.44 206.889C409.968 206.889 410.475 207.098 410.85 207.47C411.223 207.845 411.432 208.352 411.432 208.88C411.432 209.409 411.223 209.916 410.85 210.29L399.69 221.4Z" fill="#FAFAFA"/>
<path d="M131.41 291L142.56 296.69C143.479 297.155 144.523 297.308 145.537 297.128C146.551 296.948 147.478 296.443 148.18 295.69L156.71 286.53C157.204 286 157.569 285.364 157.778 284.67C157.986 283.976 158.031 283.244 157.91 282.53L153.48 257.37C153.129 255.396 152.009 253.643 150.367 252.494C148.725 251.345 146.694 250.894 144.72 251.24L130.6 253.73C129.622 253.902 128.688 254.266 127.851 254.8C127.014 255.333 126.29 256.027 125.721 256.84C125.151 257.654 124.748 258.571 124.533 259.541C124.319 260.51 124.297 261.512 124.47 262.49L128.9 287.64C129.033 288.355 129.329 289.029 129.764 289.612C130.199 290.194 130.762 290.669 131.41 291ZM144.11 289C144.574 288.916 145.052 288.971 145.485 289.159C145.917 289.347 146.283 289.66 146.538 290.056C146.793 290.453 146.924 290.917 146.914 291.388C146.905 291.859 146.756 292.317 146.486 292.704C146.216 293.09 145.838 293.388 145.398 293.559C144.959 293.73 144.479 293.767 144.019 293.665C143.558 293.563 143.139 293.326 142.813 292.985C142.488 292.644 142.271 292.214 142.19 291.75C142.082 291.131 142.224 290.494 142.583 289.979C142.943 289.464 143.492 289.112 144.11 289Z" fill="#E6E6E6"/>
<path d="M131.955 283.203L153.532 279.398L153.12 277.064L131.543 280.869L131.955 283.203Z" fill="#FAFAFA"/>
<path d="M128.301 262.462L149.878 258.657L149.466 256.323L127.889 260.128L128.301 262.462Z" fill="#FAFAFA"/>
<path d="M169.52 128.14L177.2 136.38C177.831 137.056 178.665 137.509 179.576 137.67C180.487 137.83 181.426 137.69 182.25 137.27L192.25 132.15C192.838 131.852 193.349 131.422 193.741 130.892C194.134 130.363 194.397 129.749 194.51 129.1L198.51 106.48C198.821 104.706 198.416 102.881 197.383 101.405C196.35 99.9296 194.773 98.9243 193 98.6096L180.31 96.3696C178.533 96.0586 176.706 96.4651 175.228 97.5C173.751 98.5348 172.745 100.114 172.43 101.89L168.43 124.5C168.315 125.149 168.354 125.817 168.543 126.449C168.733 127.081 169.067 127.66 169.52 128.14ZM180.85 130.4C181.267 130.471 181.654 130.665 181.961 130.957C182.269 131.249 182.482 131.625 182.575 132.038C182.669 132.451 182.637 132.883 182.485 133.278C182.333 133.673 182.067 134.014 181.72 134.258C181.374 134.502 180.963 134.638 180.54 134.648C180.116 134.658 179.699 134.543 179.342 134.316C178.984 134.089 178.702 133.761 178.53 133.374C178.359 132.986 178.307 132.557 178.38 132.14C178.478 131.582 178.792 131.085 179.255 130.759C179.718 130.433 180.292 130.304 180.85 130.4Z" fill="#F0F0F0"/>
<path d="M172.387 121.733L191.788 125.154L192.158 123.057L172.757 119.636L172.387 121.733Z" fill="#FAFAFA"/>
<path d="M176.235 104.286L195.541 107.635L195.903 105.547L176.597 102.198L176.235 104.286Z" fill="#FAFAFA"/>
<path d="M355.38 103.75C353.96 101.722 351.794 100.34 349.356 99.9092C346.918 99.4779 344.409 100.032 342.38 101.45L338.38 104.22L335.6 100.22C334.177 98.1961 332.011 96.8183 329.575 96.3873C327.139 95.9563 324.631 96.5072 322.6 97.9196C320.577 99.3427 319.199 101.509 318.768 103.945C318.337 106.381 318.888 108.889 320.3 110.92L333.81 130.21L353.11 116.7C355.117 115.274 356.481 113.115 356.905 110.691C357.33 108.267 356.782 105.772 355.38 103.75Z" fill="#EBEBEB"/>
<path d="M383.12 105.55C382.776 105.056 382.338 104.634 381.831 104.31C381.324 103.985 380.758 103.764 380.165 103.659C379.572 103.554 378.964 103.567 378.377 103.698C377.789 103.828 377.233 104.074 376.74 104.42L374.8 105.78L373.44 103.84C372.742 102.846 371.679 102.169 370.484 101.957C369.288 101.745 368.057 102.016 367.06 102.71C366.067 103.411 365.392 104.477 365.182 105.674C364.972 106.871 365.245 108.103 365.94 109.1L372.55 118.54L382 111.93C382.494 111.586 382.914 111.147 383.238 110.639C383.561 110.132 383.782 109.566 383.886 108.973C383.99 108.38 383.976 107.772 383.844 107.185C383.713 106.598 383.467 106.042 383.12 105.55Z" fill="#EBEBEB"/>
<path d="M87.36 197.36C80.906 199.213 75.4519 203.553 72.1966 209.426C68.9414 215.299 68.1513 222.225 70 228.68C72.51 237.41 87.82 252.04 98.24 261.23C99.3087 262.175 100.598 262.835 101.989 263.149C103.38 263.464 104.828 263.423 106.2 263.031C107.571 262.638 108.821 261.906 109.835 260.903C110.849 259.9 111.593 258.657 112 257.29C116 243.98 121.19 223.45 118.69 214.72C117.774 211.522 116.236 208.537 114.165 205.934C112.095 203.33 109.531 201.161 106.622 199.549C103.712 197.937 100.514 196.913 97.2087 196.538C93.9036 196.162 90.557 196.442 87.36 197.36ZM97.56 232.93C95.3397 233.568 92.98 233.533 90.7795 232.83C88.5789 232.127 86.6362 230.788 85.197 228.98C83.7579 227.173 82.887 224.98 82.6945 222.678C82.502 220.376 82.9964 218.068 84.1154 216.047C85.2343 214.026 86.9275 212.382 88.9807 211.323C91.034 210.264 93.3551 209.838 95.6505 210.099C97.946 210.359 100.113 211.294 101.877 212.786C103.64 214.278 104.922 216.26 105.56 218.48C106.415 221.457 106.053 224.652 104.552 227.362C103.052 230.071 100.537 232.074 97.56 232.93Z" fill="#E0E0E0"/>
<path d="M91.3199 196.23C84.8741 198.09 79.4296 202.432 76.1823 208.302C72.9349 214.172 72.15 221.092 73.9999 227.54C76.5099 236.27 91.8199 250.91 102.24 260.1C103.313 261.042 104.606 261.698 105.999 262.008C107.392 262.317 108.841 262.27 110.212 261.872C111.583 261.473 112.831 260.735 113.841 259.726C114.85 258.718 115.59 257.471 115.99 256.1C119.99 242.79 125.18 222.27 122.68 213.53C121.759 210.334 120.216 207.351 118.141 204.751C116.066 202.152 113.498 199.987 110.586 198.38C107.673 196.773 104.473 195.756 101.167 195.388C97.8611 195.019 94.515 195.305 91.3199 196.23ZM101.52 231.8C99.2978 232.44 96.9358 232.407 94.7326 231.705C92.5295 231.002 90.5842 229.662 89.1428 227.854C87.7014 226.045 86.8287 223.85 86.6351 221.546C86.4416 219.241 86.9357 216.931 88.0552 214.908C89.1747 212.885 90.8691 211.239 92.9242 210.178C94.9793 209.118 97.3026 208.691 99.6004 208.951C101.898 209.212 104.067 210.148 105.833 211.641C107.598 213.134 108.882 215.118 109.52 217.34C109.945 218.815 110.075 220.359 109.903 221.884C109.731 223.409 109.26 224.885 108.517 226.228C107.774 227.571 106.773 228.755 105.573 229.711C104.372 230.667 102.995 231.377 101.52 231.8Z" fill="#F5F5F5"/>
<path d="M382.91 133C380.127 132.195 377.213 131.948 374.335 132.272C371.456 132.597 368.67 133.486 366.136 134.89C363.603 136.294 361.371 138.185 359.57 140.453C357.769 142.722 356.433 145.324 355.64 148.11C353.46 155.72 358.01 173.59 361.47 185.18C361.822 186.374 362.471 187.459 363.355 188.336C364.239 189.213 365.33 189.852 366.527 190.194C367.724 190.536 368.988 190.57 370.202 190.293C371.416 190.016 372.54 189.437 373.47 188.61C382.55 180.61 395.88 167.87 398.06 160.27C398.864 157.484 399.109 154.568 398.782 151.687C398.455 148.807 397.562 146.019 396.154 143.485C394.746 140.951 392.851 138.72 390.579 136.92C388.306 135.121 385.7 133.788 382.91 133ZM374 164C372.068 163.445 370.344 162.33 369.045 160.796C367.746 159.262 366.93 157.378 366.702 155.381C366.473 153.384 366.842 151.364 367.76 149.576C368.679 147.788 370.107 146.313 371.864 145.336C373.621 144.359 375.628 143.925 377.631 144.088C379.634 144.251 381.545 145.004 383.12 146.252C384.696 147.5 385.867 149.187 386.484 151.1C387.102 153.013 387.138 155.066 386.59 157C386.225 158.287 385.609 159.49 384.778 160.539C383.947 161.588 382.918 162.462 381.748 163.113C380.578 163.763 379.292 164.176 377.962 164.328C376.633 164.48 375.286 164.369 374 164Z" fill="#E0E0E0"/>
<path d="M386.36 134C383.577 133.195 380.663 132.948 377.785 133.272C374.906 133.597 372.12 134.486 369.586 135.89C367.053 137.294 364.821 139.185 363.02 141.453C361.219 143.722 359.883 146.324 359.09 149.11C356.91 156.71 361.46 174.59 364.92 186.18C365.272 187.374 365.92 188.459 366.805 189.336C367.689 190.213 368.78 190.852 369.977 191.194C371.174 191.536 372.438 191.57 373.652 191.293C374.866 191.016 375.99 190.437 376.92 189.61C385.99 181.61 399.32 168.87 401.5 161.27C402.304 158.485 402.55 155.569 402.223 152.689C401.897 149.809 401.005 147.022 399.598 144.488C398.191 141.954 396.297 139.723 394.025 137.923C391.754 136.123 389.149 134.79 386.36 134ZM377.48 165C375.547 164.447 373.821 163.333 372.521 161.8C371.22 160.266 370.403 158.382 370.173 156.384C369.943 154.387 370.311 152.366 371.229 150.578C372.147 148.789 373.575 147.312 375.332 146.335C377.089 145.357 379.096 144.922 381.1 145.085C383.104 145.248 385.015 146.001 386.591 147.249C388.167 148.497 389.338 150.185 389.955 152.098C390.573 154.012 390.609 156.065 390.06 158C389.32 160.596 387.579 162.792 385.22 164.105C382.86 165.418 380.076 165.739 377.48 165Z" fill="#F5F5F5"/>
<path d="M250 427.01C357.082 427.01 443.89 421.942 443.89 415.69C443.89 409.438 357.082 404.37 250 404.37C142.917 404.37 56.11 409.438 56.11 415.69C56.11 421.942 142.917 427.01 250 427.01Z" fill="#F5F5F5"/>
<path d="M188.5 187.87H199.2C199.73 187.86 200.257 187.963 200.744 188.171C201.232 188.38 201.67 188.69 202.029 189.08C202.388 189.47 202.66 189.932 202.828 190.436C202.995 190.939 203.054 191.472 203 192L201 214.57C200.885 215.693 200.363 216.736 199.532 217.5C198.701 218.265 197.619 218.699 196.49 218.72H185.8C185.269 218.728 184.741 218.624 184.254 218.414C183.766 218.203 183.328 217.892 182.969 217.499C182.611 217.107 182.34 216.643 182.175 216.138C182.009 215.633 181.953 215.098 182.01 214.57L184 192C184.119 190.882 184.642 189.845 185.47 189.085C186.299 188.325 187.376 187.893 188.5 187.87Z" fill="#3C72EB"/>
<path opacity="0.2" d="M308.2 183.05H324.92C325.75 183.035 326.574 183.197 327.336 183.525C328.099 183.853 328.783 184.34 329.343 184.953C329.903 185.566 330.326 186.291 330.584 187.08C330.842 187.869 330.93 188.704 330.84 189.53L328.78 213.1C328.601 214.846 327.791 216.468 326.503 217.66C325.214 218.853 323.535 219.535 321.78 219.58H305C304.171 219.593 303.348 219.43 302.587 219.101C301.825 218.772 301.142 218.285 300.584 217.673C300.025 217.06 299.603 216.335 299.345 215.547C299.088 214.758 299.001 213.924 299.09 213.1L301.15 189.53C301.331 187.775 302.147 186.147 303.446 184.953C304.745 183.759 306.436 183.082 308.2 183.05Z" fill="black"/>
<path opacity="0.2" d="M304.77 222.21H321.5C322.329 222.196 323.152 222.36 323.913 222.688C324.675 223.017 325.358 223.504 325.917 224.117C326.475 224.73 326.898 225.454 327.155 226.243C327.413 227.031 327.5 227.865 327.41 228.69L325.35 252.26C325.172 254.015 324.355 255.645 323.056 256.839C321.757 258.033 320.065 258.71 318.3 258.74H301.58C300.75 258.755 299.926 258.592 299.164 258.264C298.401 257.936 297.717 257.449 297.157 256.836C296.597 256.223 296.174 255.498 295.916 254.709C295.658 253.92 295.571 253.085 295.66 252.26L297.73 228.69C297.908 226.936 298.723 225.308 300.02 224.114C301.318 222.92 303.007 222.242 304.77 222.21Z" fill="black"/>
<path d="M218.51 138.86H311.67C314.673 138.806 317.652 139.393 320.41 140.581C323.168 141.769 325.642 143.531 327.665 145.75C329.689 147.969 331.217 150.593 332.147 153.449C333.077 156.304 333.389 159.325 333.06 162.31L313.18 389.48C312.533 395.828 309.582 401.719 304.885 406.038C300.187 410.358 294.07 412.806 287.69 412.92H194.53C191.528 412.973 188.55 412.387 185.792 411.199C183.035 410.012 180.562 408.251 178.539 406.033C176.515 403.815 174.987 401.192 174.056 398.338C173.125 395.484 172.813 392.464 173.14 389.48L193 162.31C193.645 155.956 196.598 150.06 201.3 145.738C206.001 141.416 212.125 138.969 218.51 138.86Z" fill="#3C72EB"/>
<path opacity="0.2" d="M218.51 138.86H311.67C314.673 138.806 317.652 139.393 320.41 140.581C323.168 141.769 325.642 143.531 327.665 145.75C329.689 147.969 331.217 150.593 332.147 153.449C333.077 156.304 333.389 159.325 333.06 162.31L313.18 389.48C312.533 395.828 309.582 401.719 304.885 406.038C300.187 410.358 294.07 412.806 287.69 412.92H194.53C191.528 412.973 188.55 412.387 185.792 411.199C183.035 410.012 180.562 408.251 178.539 406.033C176.515 403.815 174.987 401.192 174.056 398.338C173.125 395.484 172.813 392.464 173.14 389.48L193 162.31C193.645 155.956 196.598 150.06 201.3 145.738C206.001 141.416 212.125 138.969 218.51 138.86Z" fill="black"/>
<path d="M215.5 138.86H308.67C311.672 138.808 314.651 139.396 317.408 140.584C320.166 141.773 322.638 143.535 324.662 145.753C326.685 147.972 328.213 150.595 329.144 153.45C330.075 156.305 330.387 159.325 330.06 162.31L310.18 389.48C309.531 395.827 306.579 401.717 301.882 406.036C297.186 410.355 291.07 412.804 284.69 412.92H191.53C188.528 412.975 185.548 412.389 182.79 411.202C180.032 410.015 177.559 408.254 175.535 406.036C173.511 403.818 171.983 401.194 171.053 398.339C170.122 395.485 169.811 392.464 170.14 389.48L190 162.31C191.14 149.36 202.56 138.86 215.5 138.86Z" fill="#3C72EB"/>
<path d="M327.26 162.31L307.39 389.47C306.814 395.06 304.212 400.246 300.074 404.049C295.936 407.852 290.549 410.008 284.93 410.11H191.77C189.126 410.159 186.503 409.643 184.074 408.598C181.645 407.553 179.466 406.003 177.684 404.05C175.901 402.097 174.555 399.786 173.735 397.272C172.916 394.758 172.641 392.099 172.93 389.47L192.81 162.31C193.383 156.72 195.983 151.533 200.119 147.728C204.255 143.924 209.641 141.765 215.26 141.66H308.42C311.064 141.613 313.688 142.13 316.117 143.176C318.546 144.222 320.724 145.774 322.507 147.728C324.289 149.681 325.635 151.992 326.455 154.507C327.274 157.021 327.549 159.681 327.26 162.31Z" fill="white"/>
<g opacity="0.1">
<path d="M191.77 410.11H227.09L284.15 141.66H239.15L182.57 407.84C185.402 409.344 188.563 410.124 191.77 410.11Z" fill="black"/>
<path d="M305.75 141.66H297.19L240.12 410.11H248.69L305.75 141.66Z" fill="black"/>
</g>
<path d="M234.53 141C234.443 141.838 234.533 142.686 234.796 143.487C235.058 144.288 235.486 145.025 236.052 145.649C236.618 146.274 237.31 146.772 238.081 147.112C238.853 147.451 239.687 147.625 240.53 147.62H282.03C283.829 147.581 285.552 146.887 286.876 145.668C288.199 144.45 289.033 142.79 289.22 141H234.53Z" fill="#3C72EB"/>
<path d="M306.73 149H316.15C316.332 148.999 316.512 149.037 316.679 149.11C316.846 149.183 316.996 149.291 317.118 149.426C317.241 149.56 317.334 149.719 317.391 149.893C317.448 150.066 317.468 150.249 317.45 150.43L317.09 154.53C317.051 154.917 316.872 155.275 316.586 155.539C316.3 155.802 315.928 155.952 315.54 155.96H306.12C305.937 155.963 305.756 155.926 305.588 155.853C305.421 155.781 305.271 155.673 305.148 155.538C305.025 155.403 304.932 155.243 304.876 155.069C304.819 154.895 304.8 154.712 304.82 154.53L305.18 150.43C305.219 150.043 305.398 149.685 305.684 149.421C305.969 149.158 306.341 149.008 306.73 149Z" fill="#3C72EB"/>
<path d="M206.15 149H218.76C218.966 148.998 219.17 149.039 219.359 149.121C219.548 149.203 219.717 149.324 219.856 149.476C219.995 149.628 220.1 149.807 220.164 150.003C220.229 150.198 220.251 150.405 220.23 150.61L219.9 154.35C219.856 154.786 219.653 155.191 219.331 155.488C219.008 155.784 218.588 155.953 218.15 155.96H205.54C205.334 155.963 205.131 155.922 204.942 155.84C204.754 155.758 204.585 155.637 204.447 155.484C204.309 155.332 204.205 155.152 204.141 154.957C204.078 154.761 204.057 154.554 204.08 154.35L204.4 150.61C204.444 150.174 204.646 149.769 204.969 149.473C205.291 149.176 205.712 149.008 206.15 149Z" fill="#3C72EB"/>
<path opacity="0.4" d="M206.15 149H218.76C218.966 148.998 219.17 149.039 219.359 149.121C219.548 149.203 219.717 149.324 219.856 149.476C219.995 149.628 220.1 149.807 220.164 150.003C220.229 150.198 220.251 150.405 220.23 150.61L219.9 154.35C219.856 154.786 219.653 155.191 219.331 155.488C219.008 155.784 218.588 155.953 218.15 155.96H205.54C205.334 155.963 205.131 155.922 204.942 155.84C204.754 155.758 204.585 155.637 204.447 155.484C204.309 155.332 204.205 155.152 204.141 154.957C204.078 154.761 204.057 154.554 204.08 154.35L204.4 150.61C204.444 150.174 204.646 149.769 204.969 149.473C205.291 149.176 205.712 149.008 206.15 149Z" fill="white"/>
<path d="M304.22 150.159H305.7C305.767 150.158 305.834 150.17 305.895 150.196C305.957 150.222 306.013 150.261 306.058 150.31C306.104 150.36 306.138 150.418 306.159 150.482C306.18 150.545 306.187 150.613 306.18 150.679L305.87 154.219C305.855 154.361 305.789 154.492 305.684 154.588C305.579 154.684 305.442 154.738 305.3 154.739H303.82C303.753 154.741 303.686 154.729 303.625 154.703C303.563 154.677 303.507 154.638 303.462 154.588C303.417 154.539 303.382 154.481 303.361 154.417C303.34 154.353 303.333 154.286 303.34 154.219L303.65 150.679C303.665 150.538 303.731 150.407 303.836 150.311C303.941 150.215 304.078 150.161 304.22 150.159Z" fill="#3C72EB"/>
<path d="M314.28 150.16H315.77C315.836 150.16 315.902 150.173 315.962 150.2C316.023 150.227 316.077 150.266 316.121 150.315C316.166 150.364 316.199 150.422 316.22 150.485C316.24 150.548 316.247 150.614 316.24 150.68L315.93 154.22C315.918 154.361 315.853 154.492 315.75 154.588C315.646 154.684 315.511 154.738 315.37 154.74H313.88C313.814 154.741 313.748 154.727 313.688 154.7C313.627 154.674 313.573 154.634 313.529 154.585C313.484 154.536 313.451 154.478 313.43 154.415C313.41 154.352 313.403 154.286 313.41 154.22L313.72 150.68C313.732 150.54 313.796 150.408 313.9 150.312C314.003 150.216 314.139 150.162 314.28 150.16Z" fill="white"/>
<path d="M311.09 150.16H312.58C312.646 150.16 312.712 150.173 312.772 150.2C312.833 150.227 312.887 150.266 312.931 150.315C312.976 150.364 313.009 150.422 313.03 150.485C313.05 150.548 313.057 150.614 313.05 150.68L312.74 154.22C312.728 154.361 312.663 154.492 312.56 154.588C312.457 154.684 312.321 154.738 312.18 154.74H310.69C310.624 154.741 310.558 154.727 310.498 154.7C310.437 154.674 310.383 154.634 310.339 154.585C310.294 154.536 310.261 154.478 310.24 154.415C310.22 154.352 310.213 154.286 310.22 154.22L310.53 150.68C310.542 150.54 310.606 150.408 310.71 150.312C310.813 150.216 310.949 150.162 311.09 150.16Z" fill="white"/>
<path d="M327.83 212.939L325.83 236.169C326.809 235.981 327.701 235.483 328.375 234.748C329.049 234.013 329.468 233.081 329.57 232.089L330.85 216.999C330.952 216.067 330.697 215.13 330.137 214.377C329.577 213.624 328.753 213.111 327.83 212.939Z" fill="#3C72EB"/>
<path opacity="0.2" d="M327.83 212.939L325.83 236.169C326.809 235.981 327.701 235.483 328.375 234.748C329.049 234.013 329.468 233.081 329.57 232.089L330.85 216.999C330.952 216.067 330.697 215.13 330.137 214.377C329.577 213.624 328.753 213.111 327.83 212.939Z" fill="black"/>
<path d="M330 187.87L328 211.1C328.977 210.914 329.868 210.417 330.54 209.684C331.212 208.95 331.629 208.02 331.73 207.03L333 192C333.116 191.06 332.871 190.11 332.314 189.344C331.757 188.577 330.93 188.05 330 187.87Z" fill="#3C72EB"/>
<path opacity="0.2" d="M330 187.87L328 211.1C328.977 210.914 329.868 210.417 330.54 209.684C331.212 208.95 331.629 208.02 331.73 207.03L333 192C333.116 191.06 332.871 190.11 332.314 189.344C331.757 188.577 330.93 188.05 330 187.87Z" fill="black"/>
<path d="M405.29 240.88H385.66C384.069 240.88 382.542 241.512 381.417 242.637C380.292 243.762 379.66 245.289 379.66 246.88V258.5C379.673 260.082 380.311 261.596 381.435 262.71C382.559 263.825 384.077 264.45 385.66 264.45H391.27V268.98C391.273 269.229 391.349 269.471 391.489 269.677C391.629 269.883 391.826 270.043 392.056 270.138C392.286 270.233 392.539 270.258 392.783 270.21C393.028 270.163 393.252 270.044 393.43 269.87L398.84 264.45H405.29C406.864 264.437 408.37 263.806 409.483 262.693C410.596 261.58 411.227 260.074 411.24 258.5V246.83C411.227 245.256 410.596 243.75 409.483 242.637C408.37 241.524 406.864 240.893 405.29 240.88Z" fill="#3C72EB"/>
<path d="M400.54 246.439H391.11C391.02 245.649 390.97 245.259 390.88 244.439H385.69C385.8 244.889 385.86 245.109 385.97 245.559H389.71C389.76 245.889 389.79 246.059 389.84 246.399C390.09 248.049 390.22 248.869 390.47 250.519C390.53 250.969 390.57 251.189 390.64 251.639C390.89 253.289 391.01 254.109 391.26 255.759C391.4 256.649 391.47 257.089 391.6 257.969H402C402.1 257.519 402.15 257.299 402.26 256.849H392.41C392.36 256.419 392.33 256.199 392.28 255.759H402.99L403.99 251.639C404.1 251.189 404.15 250.969 404.27 250.519C404.67 248.869 404.88 248.049 405.27 246.399L400.54 246.439ZM391.25 247.549H394.59C394.59 248.759 394.64 249.359 394.68 250.549H391.6L391.25 247.549ZM392.1 254.689C391.95 253.479 391.88 252.879 391.74 251.689H394.74C394.74 252.889 394.79 253.489 394.83 254.689H392.1ZM398.51 254.689H395.8C395.8 253.479 395.8 252.879 395.8 251.689H398.8C398.67 252.879 398.62 253.479 398.51 254.689ZM398.89 250.559H395.81C395.81 249.359 395.81 248.759 395.81 247.559H399.15C399.05 248.759 399 249.359 398.89 250.559ZM402.21 254.689H399.51C399.66 253.479 399.73 252.879 399.89 251.689H402.89L402.21 254.689ZM403.1 250.559H400C400.16 249.359 400.23 248.759 400.38 247.559H403.72C403.48 248.759 403.35 249.359 403.1 250.559Z" fill="white"/>
<path d="M392.24 259.05C391.977 259.05 391.72 259.128 391.501 259.274C391.282 259.42 391.112 259.628 391.011 259.871C390.91 260.114 390.884 260.381 390.935 260.639C390.987 260.897 391.113 261.134 391.299 261.32C391.485 261.506 391.722 261.633 391.98 261.684C392.238 261.736 392.506 261.709 392.749 261.609C392.992 261.508 393.2 261.337 393.346 261.119C393.492 260.9 393.57 260.643 393.57 260.38C393.57 260.027 393.43 259.689 393.18 259.439C392.931 259.19 392.593 259.05 392.24 259.05Z" fill="white"/>
<path d="M401.66 261.7C402.389 261.7 402.98 261.109 402.98 260.38C402.98 259.651 402.389 259.06 401.66 259.06C400.931 259.06 400.34 259.651 400.34 260.38C400.34 261.109 400.931 261.7 401.66 261.7Z" fill="white"/>
<path d="M273.51 157.62H242.35C239.78 157.665 237.316 158.651 235.423 160.39C233.531 162.13 232.341 164.502 232.08 167.06L230.47 185.51C230.338 186.711 230.463 187.927 230.837 189.077C231.212 190.226 231.827 191.283 232.641 192.176C233.456 193.069 234.452 193.778 235.562 194.256C236.672 194.735 237.871 194.971 239.08 194.95H248L247.37 202.13C247.339 202.523 247.433 202.917 247.637 203.255C247.842 203.593 248.147 203.858 248.51 204.013C248.873 204.169 249.275 204.207 249.661 204.122C250.047 204.037 250.396 203.833 250.66 203.54L260 195H270.24C272.809 194.952 275.273 193.966 277.165 192.227C279.057 190.487 280.247 188.116 280.51 185.56L282.12 167.11C282.26 165.904 282.141 164.683 281.77 163.527C281.399 162.372 280.785 161.309 279.969 160.41C279.154 159.511 278.156 158.797 277.042 158.316C275.928 157.835 274.723 157.597 273.51 157.62Z" fill="#3C72EB"/>
<path d="M264.19 166.44H249.24L249.14 163.34H240.91C241.02 164.05 241.08 164.4 241.19 165.11H247.13C247.13 165.64 247.18 165.91 247.21 166.44C247.38 169.06 247.47 170.37 247.64 172.99C247.64 173.69 247.71 174.05 247.75 174.76C247.92 177.37 248.01 178.68 248.17 181.3C248.27 182.7 248.31 183.4 248.4 184.8H264.82L265.39 183.03H249.76V181.3H266.76C267.64 178.68 268.08 177.37 268.95 174.76L269.54 172.99C270.42 170.37 270.86 169.06 271.73 166.44H264.19ZM249.29 168.21H254.59C254.48 170.12 254.43 171.07 254.32 172.99H249.44L249.29 168.21ZM249.65 179.53L249.5 174.76H254.22C254.11 176.67 254.05 177.62 253.94 179.53H249.65ZM259.82 179.53H255.53C255.7 177.62 255.79 176.67 255.96 174.76H260.68C260.34 176.67 260.17 177.62 259.82 179.53ZM261 173H256.12C256.3 171.08 256.38 170.13 256.55 168.22H261.86C261.51 170.12 261.34 171.07 261 173ZM265.7 179.54H261.41L262.41 174.77H267.12C266.57 176.67 266.28 177.62 265.7 179.53V179.54ZM267.7 173H262.8C263.21 171.08 263.41 170.13 263.8 168.22H269.1C268.54 170.12 268.25 171.07 267.68 173H267.7Z" fill="white"/>
<path d="M249.28 186.459C248.708 186.468 248.158 186.687 247.736 187.074C247.314 187.461 247.049 187.99 246.99 188.559C246.962 188.827 246.99 189.097 247.074 189.353C247.158 189.608 247.296 189.843 247.477 190.042C247.659 190.24 247.88 190.398 248.127 190.504C248.374 190.611 248.641 190.664 248.91 190.659C249.483 190.65 250.032 190.431 250.454 190.044C250.876 189.657 251.141 189.129 251.2 188.559C251.228 188.292 251.2 188.021 251.116 187.766C251.032 187.51 250.894 187.275 250.713 187.077C250.531 186.878 250.31 186.721 250.063 186.614C249.816 186.508 249.549 186.455 249.28 186.459Z" fill="white"/>
<path d="M264.21 186.459C263.639 186.469 263.091 186.688 262.67 187.075C262.25 187.462 261.986 187.99 261.93 188.559C261.902 188.827 261.93 189.097 262.014 189.353C262.098 189.608 262.236 189.843 262.417 190.042C262.599 190.24 262.82 190.398 263.067 190.504C263.314 190.611 263.581 190.664 263.85 190.659C264.421 190.65 264.969 190.431 265.39 190.043C265.81 189.656 266.074 189.128 266.13 188.559C266.158 188.292 266.13 188.021 266.046 187.766C265.962 187.51 265.824 187.275 265.643 187.077C265.461 186.878 265.24 186.721 264.993 186.614C264.746 186.508 264.479 186.455 264.21 186.459Z" fill="white"/>
<path d="M295.9 288.18H260.27V323.81H295.9V288.18Z" fill="#3C72EB"/>
<path d="M317.77 288.18H295.89V323.81H317.77V288.18Z" fill="#3C72EB"/>
<path d="M289.09 279.239H253.46L260.27 288.179H295.89L289.09 279.239Z" fill="#3C72EB"/>
<path opacity="0.3" d="M317.77 288.18H295.89V323.81H317.77V288.18Z" fill="white"/>
<path opacity="0.4" d="M289.09 279.239H253.46L260.27 288.179H295.89L289.09 279.239Z" fill="white"/>
<path d="M302.34 279.239H324.22L317.78 288.179H295.89L302.34 279.239Z" fill="#3C72EB"/>
<path opacity="0.6" d="M295.9 288.18H260.27V323.81H295.9V288.18Z" fill="white"/>
<path opacity="0.2" d="M302.34 279.239H324.22L317.78 288.179H295.89L302.34 279.239Z" fill="white"/>
<path d="M396.15 322.93H306.35V412.73H396.15V322.93Z" fill="#3C72EB"/>
<path opacity="0.4" d="M396.15 322.93H306.35V412.73H396.15V322.93Z" fill="white"/>
<path d="M306.33 322.93H251.17V412.73H306.33V322.93Z" fill="#3C72EB"/>
<path opacity="0.6" d="M306.33 322.93H251.17V412.73H306.33V322.93Z" fill="white"/>
<path opacity="0.5" d="M268.21 322.93V347.05L270.4 348.2L272.29 346.63L275.28 348.2L278.12 346.63L280.32 348.2L282.84 346.63L284.27 347.92V322.93H268.21Z" fill="white"/>
<path opacity="0.5" d="M284.27 412.73V388.61L282.08 387.45L280.19 389.03L277.2 387.45L274.36 389.03L272.16 387.45L269.64 389.03L268.21 387.74V412.73H284.27Z" fill="white"/>
<path d="M343 359.55C343.51 361.6 343.76 362.63 344.27 364.68C344.4 365.23 344.47 365.51 344.61 366.07C345.12 368.12 345.37 369.15 345.88 371.2H359.2C359.13 371.74 359.1 372.01 359.04 372.55H346.77C346.9 373.11 346.96 373.39 347.09 373.94H360L360.42 371.2C360.73 369.15 360.89 368.12 361.2 366.07C361.29 365.51 361.33 365.23 361.41 364.68C361.72 362.63 361.88 361.6 362.19 359.55C362.26 359.13 362.29 358.92 362.35 358.5H367C367.13 357.95 367.2 357.67 367.34 357.12H360.89C360.77 358.12 360.71 358.57 360.6 359.55H343ZM360 364.68H356.18C356.18 363.18 356.24 362.43 356.29 360.93H360.44C360.22 362.43 360.14 363.18 360 364.68ZM356 369.81C356 368.31 356.07 367.56 356.11 366.07H359.81L359.36 369.81H356ZM351 366.07H354.69C354.69 367.56 354.69 368.31 354.69 369.81H351.32C351.23 368.31 351.16 367.56 351 366.07ZM350.53 360.93H354.68C354.68 362.43 354.68 363.18 354.68 364.68H350.9C350.76 363.18 350.69 362.43 350.56 360.93H350.53ZM345.93 366.07H349.63C349.81 367.56 349.91 368.31 350.1 369.81H346.73L345.93 366.07ZM344.83 360.93H349C349.18 362.43 349.28 363.18 349.46 364.68H345.64L344.83 360.93Z" fill="white"/>
<path d="M359.16 378.539C360.071 378.539 360.81 377.801 360.81 376.889C360.81 375.978 360.071 375.239 359.16 375.239C358.249 375.239 357.51 375.978 357.51 376.889C357.51 377.801 358.249 378.539 359.16 378.539Z" fill="white"/>
<path d="M347.45 378.539C348.361 378.539 349.1 377.801 349.1 376.889C349.1 375.978 348.361 375.239 347.45 375.239C346.539 375.239 345.8 375.978 345.8 376.889C345.8 377.801 346.539 378.539 347.45 378.539Z" fill="white"/>
<g opacity="0.5">
<path d="M266.59 359.55C267.1 361.6 267.35 362.63 267.86 364.68C267.99 365.23 268.06 365.51 268.2 366.07C268.71 368.12 268.96 369.15 269.47 371.2H282.79C282.72 371.74 282.69 372.01 282.63 372.55H270.38C270.51 373.11 270.57 373.39 270.7 373.94H283.57L283.99 371.2C284.3 369.15 284.46 368.12 284.77 366.07C284.85 365.51 284.9 365.23 284.98 364.68C285.29 362.63 285.45 361.6 285.76 359.55L285.92 358.5H290.58C290.71 357.95 290.78 357.67 290.92 357.12H284.47C284.35 358.12 284.29 358.57 284.18 359.55H266.59ZM283.59 364.68H279.77L279.88 360.93H284C283.83 362.43 283.74 363.18 283.57 364.68H283.59ZM279.59 369.81C279.64 368.31 279.66 367.56 279.7 366.07H283.4L282.95 369.81H279.59ZM274.64 366.07H278.33C278.33 367.56 278.33 368.31 278.33 369.81H275C274.84 368.31 274.77 367.56 274.64 366.07ZM274.16 360.93H278.32C278.32 362.43 278.32 363.18 278.32 364.68H274.5L274.16 360.93ZM269.57 366.07H273.27L273.73 369.81H270.37L269.57 366.07ZM268.47 360.93H272.63C272.81 362.43 272.91 363.18 273.09 364.68H269.27L268.47 360.93Z" fill="white"/>
<path d="M282.77 378.54C283.681 378.54 284.42 377.802 284.42 376.89C284.42 375.979 283.681 375.24 282.77 375.24C281.859 375.24 281.12 375.979 281.12 376.89C281.12 377.802 281.859 378.54 282.77 378.54Z" fill="white"/>
<path d="M271.06 378.54C271.971 378.54 272.71 377.802 272.71 376.89C272.71 375.979 271.971 375.24 271.06 375.24C270.149 375.24 269.41 375.979 269.41 376.89C269.41 377.802 270.149 378.54 271.06 378.54Z" fill="white"/>
</g>
<path d="M363.36 251.47C363.36 251.47 366.48 273.86 369.28 277.72C372.08 281.58 384.66 292.26 384.66 292.26L392.61 291.1L397.94 296.1L394.08 298.77L389.83 296.87C387.433 297.136 385.017 297.193 382.61 297.04C378.55 296.79 362.69 286.04 359.77 280.43C356.85 274.82 353.55 254.05 353.55 254.05L363.36 251.47Z" fill="#CE7A63"/>
<path d="M366 257.94L365.2 258.08C364.65 252.82 362.45 236.84 356.42 240.94C350.63 244.89 352.26 256.1 353.1 260.29L352.1 260.46L352.98 263.22L366.31 260.67L366 257.94Z" fill="#3C72EB"/>
<path opacity="0.2" d="M361 247.37L359.53 244.21L354.92 248.85L352.27 252.85C352.344 255.353 352.631 257.846 353.13 260.3L352.13 260.47L353.01 263.23L360.53 261.79C361.368 257.03 361.526 252.175 361 247.37Z" fill="black"/>
<path d="M361.46 207.189C361.46 207.189 377.36 210.629 368.91 218.189L361.91 212.079L361.46 207.189Z" fill="#263238"/>
<path d="M383.53 375.08L373.41 399.87L366.39 397.14L372.05 372.5L383.53 375.08Z" fill="#CE7A63"/>
<path opacity="0.2" d="M372.55 370.75L368.56 388.12L377.21 390.05L384.03 373.32L372.55 370.75Z" fill="black"/>
<path d="M375 399.289C376.29 402.219 377.16 404.629 382.44 407.759C383.59 408.419 381.64 411.459 378.77 410.169C374.03 408.029 375.27 407.989 371.21 406.229C367.8 404.719 365.26 403.809 362.48 402.649C362.408 402.619 362.34 402.579 362.28 402.529C362.044 402.352 361.887 402.089 361.844 401.797C361.801 401.505 361.875 401.207 362.05 400.969L366.15 395.359C366.24 395.234 366.371 395.143 366.521 395.103C366.67 395.063 366.829 395.076 366.97 395.139L373.61 397.999C374.214 398.246 374.708 398.705 375 399.289Z" fill="#263238"/>
<path d="M406.18 316.819C404.89 332.819 381.91 385.709 381.91 385.709L368.27 381.909C368.27 381.909 378.69 331.099 385.49 322.689C385.49 322.689 383.27 322.689 379.7 322.759C367.27 322.869 338.46 322.849 330.15 320.639C324.22 319.059 311.83 315.889 315.15 296.049L330.51 295.519L348.4 294.899C348.4 294.899 408 294.999 406.18 316.819Z" fill="#263238"/>
<path opacity="0.2" d="M379.7 322.76C367.27 322.87 338.46 322.85 330.15 320.64C324.22 319.06 311.83 315.89 315.15 296.05L330.51 295.52C342.6 296.95 358.4 299.34 369.17 303.97C374.41 306.22 378.05 310.28 379.12 315.06C379.488 317.61 379.682 320.183 379.7 322.76Z" fill="black"/>
<path d="M359.81 374.2L354.75 399.47L347.14 399.12L348.04 373.85L359.81 374.2Z" fill="#CE7A63"/>
<path opacity="0.2" d="M359.81 374.2L348.04 373.85L347.52 388.96L356.79 389.29L359.81 374.2Z" fill="black"/>
<path d="M355.91 400.069C357.15 403.069 357.91 405.589 363.24 408.929C364.38 409.669 362.3 412.719 359.43 411.299C354.67 408.969 355.94 408.979 351.85 407.049C348.4 405.419 345.85 404.409 343.06 403.139L342.85 403.039C342.731 402.948 342.632 402.833 342.558 402.703C342.485 402.572 342.437 402.428 342.42 402.279C342.402 402.13 342.414 401.979 342.455 401.835C342.497 401.691 342.566 401.557 342.66 401.439L347.01 395.829C347.104 395.705 347.238 395.617 347.389 395.58C347.541 395.544 347.7 395.561 347.84 395.629L354.5 398.739C355.119 398.992 355.622 399.466 355.91 400.069Z" fill="#263238"/>
<path d="M306.17 296C306.17 296 301.82 311.63 309.01 317.8C319.06 326.43 355.37 323.8 355.37 323.8C349.1 343.87 346.3 383.74 346.3 383.74H359.91C359.91 383.74 378.45 329.2 375.71 315.1C372.97 301 324.33 296.01 324.33 296.01L306.17 296Z" fill="#263238"/>
<path d="M367.06 383.49L382.5 387.38L385.65 380.77L368.69 375.96L367.06 383.49Z" fill="#3C72EB"/>
<path d="M344.95 385.68L360.7 386.49L362.33 379.56L344.95 378.75V385.68Z" fill="#3C72EB"/>
<path d="M352.17 274.39C356.17 262.6 361.17 253.63 361.75 243.58C348.06 223.82 321.29 235.5 321.29 235.5C305.09 265.9 306.17 296 306.17 296C342.98 296 345.09 295.37 345.09 295.37C345.09 295.37 345.22 290.2 352.17 274.39Z" fill="#3C72EB"/>
<path opacity="0.2" d="M339.81 234.92C340.4 238.4 341.63 244.68 343.09 245.59C345.09 246.81 348.09 245.1 348.09 245.1C348.09 245.1 350.52 248.39 353.09 246.2C354.533 244.818 355.659 243.139 356.39 241.28C355.633 242.568 354.678 243.729 353.56 244.72C350.96 246.9 348.56 243.62 348.56 243.62C348.56 243.62 345.56 245.32 343.56 244.11C342.24 243.32 340.7 238.35 339.81 234.92Z" fill="black"/>
<path d="M343.11 230.12L346.76 231.37L343.9 233.88L343.11 230.12Z" fill="#3C72EB"/>
<path opacity="0.2" d="M343.11 230.12L346.76 231.37L343.9 233.88L343.11 230.12Z" fill="black"/>
<path d="M354.71 233.879L355.71 236.879C355.71 236.879 350.49 242.339 348.99 242.399C347.49 242.459 343.09 232.129 343.09 232.129C348.9 229.499 348.36 226.609 348.36 226.609L354.71 233.879Z" fill="#CE7A63"/>
<path opacity="0.2" d="M352.81 239.67C354.35 238.26 355.73 236.83 355.73 236.83L354.73 233.83L349.08 227.3C348.34 230.19 347.62 236.13 352.81 239.67Z" fill="black"/>
<path d="M357.69 239C356.75 241.2 355.36 243.179 353.61 244.81C351 246.99 348.61 243.72 348.61 243.72C348.61 243.72 345.61 245.41 343.61 244.2C341.61 242.99 339 231.89 339 231.89L343.11 230.12L348.77 242.12L356.4 235.81L357.69 239Z" fill="#3C72EB"/>
<path d="M348.16 216.47C348.152 214.694 348.611 212.948 349.491 211.406C350.371 209.864 351.641 208.581 353.174 207.685C354.708 206.789 356.449 206.313 358.225 206.303C360 206.293 361.747 206.751 363.29 207.63C370.55 211.54 370.75 222.96 368.59 229.63C368.068 231.382 367.076 232.957 365.721 234.185C364.366 235.413 362.701 236.245 360.906 236.593C359.112 236.94 357.256 236.789 355.541 236.155C353.826 235.522 352.318 234.431 351.18 233C347.62 228.62 348.08 224.13 348.18 216.42L348.16 216.47Z" fill="#CE7A63"/>
<path d="M361.68 221.25C362.1 221.25 362.36 221.86 362.25 222.47C362.14 223.08 361.77 223.47 361.36 223.47C360.95 223.47 360.69 222.86 360.79 222.25C360.89 221.64 361.26 221.22 361.68 221.25Z" fill="#263238"/>
<path d="M368.61 222.55C369.04 222.55 369.3 223.14 369.2 223.76C369.1 224.38 368.71 224.76 368.29 224.76C367.87 224.76 367.63 224.16 367.72 223.54C367.81 222.92 368.19 222.5 368.61 222.55Z" fill="#263238"/>
<path d="M359.82 219.79C360.178 219.513 360.598 219.326 361.043 219.244C361.488 219.163 361.947 219.189 362.38 219.32C362.469 219.349 362.565 219.342 362.649 219.301C362.733 219.26 362.798 219.188 362.83 219.1C362.857 219.008 362.85 218.91 362.809 218.823C362.769 218.736 362.698 218.668 362.61 218.63C362.052 218.463 361.462 218.433 360.891 218.545C360.319 218.656 359.784 218.905 359.33 219.27C359.277 219.305 359.236 219.354 359.212 219.412C359.187 219.47 359.18 219.535 359.192 219.596C359.204 219.658 359.233 219.716 359.278 219.761C359.322 219.806 359.378 219.837 359.44 219.85C359.501 219.882 359.571 219.894 359.64 219.883C359.708 219.873 359.772 219.84 359.82 219.79Z" fill="#263238"/>
<path d="M370.36 221.74C370.441 221.688 370.499 221.607 370.521 221.514C370.543 221.421 370.529 221.322 370.48 221.24C370.196 220.728 369.795 220.29 369.311 219.962C368.826 219.633 368.271 219.424 367.69 219.35C367.613 219.352 367.539 219.38 367.479 219.429C367.419 219.477 367.378 219.545 367.36 219.62C367.348 219.666 367.346 219.715 367.353 219.762C367.36 219.81 367.377 219.856 367.402 219.897C367.427 219.938 367.46 219.973 367.5 220.001C367.539 220.029 367.583 220.049 367.63 220.06C368.099 220.131 368.545 220.31 368.934 220.582C369.322 220.855 369.643 221.213 369.87 221.63C369.897 221.682 369.937 221.727 369.985 221.761C370.034 221.794 370.091 221.814 370.15 221.82C370.226 221.814 370.299 221.786 370.36 221.74Z" fill="#263238"/>
<path d="M364.5 229.369C364.971 229.584 365.482 229.695 366 229.695C366.518 229.695 367.029 229.584 367.5 229.369C366.582 227.504 365.91 225.527 365.5 223.489L364.5 229.369Z" fill="#BA4D3C"/>
<path d="M347.68 221.46C344.68 210.56 349.53 207.72 354.77 205.76C360.01 203.8 362.92 205.68 364.59 207.52C365.11 208.1 366.15 209.84 362.79 210.07C360.755 210.148 358.718 209.991 356.72 209.6C356.321 209.53 355.91 209.571 355.532 209.72C355.155 209.868 354.825 210.117 354.58 210.44C353.42 211.96 351.58 214.8 351.58 217.28C351.65 218.223 351.512 219.17 351.177 220.055C350.842 220.939 350.317 221.74 349.64 222.4L347.68 221.46Z" fill="#263238"/>
<path d="M343.9 276.24C344.161 276.242 344.416 276.321 344.631 276.468C344.847 276.614 345.015 276.822 345.113 277.064C345.211 277.306 345.235 277.571 345.182 277.827C345.13 278.083 345.002 278.317 344.816 278.5C344.63 278.683 344.394 278.807 344.138 278.856C343.881 278.905 343.616 278.877 343.375 278.775C343.135 278.674 342.93 278.503 342.787 278.285C342.643 278.066 342.568 277.811 342.57 277.55C342.57 277.375 342.605 277.202 342.672 277.041C342.74 276.88 342.839 276.735 342.964 276.613C343.089 276.49 343.237 276.395 343.399 276.331C343.562 276.267 343.735 276.236 343.91 276.24H343.9Z" fill="#3C72EB"/>
<path d="M341 290.199C341.173 290.199 341.345 290.233 341.505 290.3C341.665 290.366 341.811 290.463 341.933 290.586C342.056 290.708 342.153 290.854 342.219 291.014C342.286 291.174 342.32 291.346 342.32 291.519C342.32 291.693 342.286 291.864 342.219 292.024C342.153 292.185 342.056 292.33 341.933 292.453C341.811 292.575 341.665 292.672 341.505 292.739C341.345 292.805 341.173 292.839 341 292.839C340.649 292.837 340.313 292.695 340.066 292.446C339.819 292.197 339.68 291.86 339.68 291.509C339.68 291.336 339.714 291.165 339.781 291.006C339.847 290.846 339.944 290.701 340.067 290.579C340.19 290.458 340.335 290.361 340.496 290.296C340.656 290.231 340.827 290.198 341 290.199Z" fill="#3C72EB"/>
<path d="M347.76 219C349.88 219.38 350.9 222.37 350.92 224.33C350.94 226.29 349.42 228.02 347.55 226.77C346.131 225.79 345.131 224.312 344.75 222.63C344.34 220.52 345.65 218.58 347.76 219Z" fill="#CE7A63"/>
<path d="M357.44 229.26C359.738 229.908 361.968 230.776 364.1 231.85C363.442 232.554 362.562 233.01 361.608 233.141C360.654 233.272 359.683 233.07 358.86 232.57C358.541 232.457 358.249 232.279 358.002 232.048C357.755 231.817 357.558 231.537 357.425 231.226C357.292 230.915 357.224 230.58 357.227 230.241C357.229 229.903 357.302 229.569 357.44 229.26Z" fill="#263238"/>
<path d="M360.51 231.999C359.591 231.509 358.541 231.323 357.51 231.469C357.826 231.976 358.29 232.374 358.84 232.609C359.758 233.102 360.809 233.287 361.84 233.139C361.532 232.625 361.065 232.225 360.51 231.999Z" fill="#A02724"/>
<path d="M357.68 229.319C357.645 229.516 357.666 229.719 357.74 229.904C357.814 230.09 357.939 230.251 358.1 230.369C359.515 231.024 360.984 231.556 362.49 231.959C362.721 232.046 362.971 232.074 363.216 232.039C363.46 232.004 363.692 231.908 363.89 231.759C361.886 230.786 359.81 229.97 357.68 229.319Z" fill="white"/>
<path d="M365.338 302.679L383.438 302.777L383.453 299.867L365.354 299.769L365.338 302.679Z" fill="#263238"/>
<path d="M366.827 302.691L343.827 302.567C343.648 302.566 343.472 302.53 343.307 302.46C343.143 302.391 342.993 302.29 342.868 302.163C342.742 302.036 342.643 301.886 342.575 301.72C342.508 301.555 342.473 301.378 342.474 301.199L342.483 299.659L366.842 299.791L366.827 302.701L366.827 302.691Z" fill="#263238"/>
<path opacity="0.3" d="M366.827 302.691L343.827 302.567C343.648 302.566 343.472 302.53 343.307 302.46C343.143 302.391 342.993 302.29 342.868 302.163C342.742 302.036 342.643 301.886 342.575 301.72C342.508 301.555 342.473 301.378 342.474 301.199L342.483 299.659L366.842 299.791L366.827 302.701L366.827 302.691Z" fill="white"/>
<path d="M360.272 301.72L363.182 301.735L363.188 300.705L360.278 300.69L360.272 301.72Z" fill="#263238"/>
<path d="M355.732 301.714L358.642 301.729L358.648 300.7L355.738 300.684L355.732 301.714Z" fill="#263238"/>
<path d="M370.28 299.82L368.35 299.81L376.05 273.59L377.98 273.6L370.28 299.82Z" fill="#263238"/>
<path opacity="0.3" d="M370.28 299.82L368.35 299.81L376.05 273.59L377.98 273.6L370.28 299.82Z" fill="white"/>
<path d="M369.57 299.82L403.54 300L411.24 273.77L377.27 273.59L369.57 299.82Z" fill="#263238"/>
<path opacity="0.6" d="M369.57 299.82L403.54 300L411.24 273.77L377.27 273.59L369.57 299.82Z" fill="white"/>
<path d="M367.91 299.81L403.27 300C403.86 300 404.34 300.66 404.34 301.46C404.34 302.26 403.85 302.91 403.25 302.91L367.89 302.72C367.3 302.72 366.82 302.06 366.82 301.26C366.82 300.46 367.31 299.81 367.91 299.81Z" fill="#263238"/>
<path opacity="0.5" d="M367.91 299.81L403.27 300C403.86 300 404.34 300.66 404.34 301.46C404.34 302.26 403.85 302.91 403.25 302.91L367.89 302.72C367.3 302.72 366.82 302.06 366.82 301.26C366.82 300.46 367.31 299.81 367.91 299.81Z" fill="white"/>
<path d="M366.82 301.26C366.82 302.06 367.3 302.71 367.89 302.72C368.48 302.73 368.97 302.07 368.98 301.27C368.99 300.47 368.5 299.81 367.91 299.81C367.32 299.81 366.83 300.46 366.82 301.26Z" fill="#263238"/>
<path opacity="0.3" d="M366.82 301.26C366.82 302.06 367.3 302.71 367.89 302.72C368.48 302.73 368.97 302.07 368.98 301.27C368.99 300.47 368.5 299.81 367.91 299.81C367.32 299.81 366.83 300.46 366.82 301.26Z" fill="white"/>
<path opacity="0.2" d="M333.43 275.53C331.8 273.29 330.07 264.99 328.86 258.13L330.43 257.83L330.06 254.99L329.24 255.14C328.67 249.78 326.45 233.66 320.44 237.14C318.69 240.54 317.15 243.96 315.81 247.34C315.691 250.719 315.98 254.1 316.67 257.41L315.67 257.59L316.59 260.46L318.72 260.06C319.99 266.68 321.84 275.06 323.56 278.38C325.82 282.74 335.56 290.02 342.08 293.56C349.41 292.26 351.08 291.34 351.08 291.34C350.87 291.064 350.699 290.761 350.57 290.44L349.39 290.61C349.39 290.61 336.34 279.54 333.43 275.53Z" fill="black"/>
<path d="M331.64 248.38C331.64 248.38 333.78 271.75 336.5 275.89C339.22 280.03 351.75 291.73 351.75 291.73L360.05 290.91L365.33 296.4L361.2 299L356.88 296.81C354.38 296.975 351.87 296.918 349.38 296.64C345.19 296.18 329.26 284.3 326.5 278.3C323.74 272.3 321.33 250.63 321.33 250.63L331.64 248.38Z" fill="#CE7A63"/>
<path d="M333.5 253.419L332.67 253.569C332.1 248.109 329.81 231.509 323.56 235.769C317.56 239.869 319.23 251.509 320.11 255.859L319.11 256.039L320.03 258.909L333.87 256.259L333.5 253.419Z" fill="#3C72EB"/>
<path d="M131.22 333.56L128.83 333.43L129.39 322.59C129.619 318.997 131.197 315.623 133.808 313.144C136.419 310.665 139.87 309.263 143.47 309.22C145.216 309.203 146.946 309.546 148.553 310.228C150.161 310.909 151.61 311.915 152.811 313.182C154.013 314.448 154.94 315.949 155.535 317.591C156.13 319.232 156.38 320.978 156.27 322.72L155.7 333.56L153.31 333.43L153.88 322.59C153.975 321.171 153.776 319.747 153.294 318.409C152.813 317.07 152.059 315.846 151.082 314.813C150.104 313.78 148.923 312.96 147.613 312.405C146.303 311.851 144.892 311.573 143.47 311.59C140.481 311.627 137.616 312.793 135.45 314.853C133.284 316.914 131.977 319.717 131.79 322.7L131.22 333.56Z" fill="#263238"/>
<path d="M182.49 328.74H111.82L109.42 412.59L119.9 410.19L130.38 412.59H184.89L182.49 328.74Z" fill="#3C72EB"/>
<path opacity="0.6" d="M182.49 328.74H111.82L109.42 412.59L119.9 410.19L130.38 412.59H184.89L182.49 328.74Z" fill="white"/>
<path d="M130.38 412.59L119.9 410.19L109.42 412.59L111.82 328.74H127.99L130.38 412.59Z" fill="#3C72EB"/>
<path opacity="0.3" d="M130.38 412.59L119.9 410.19L109.42 412.59L111.82 328.74H127.99L130.38 412.59Z" fill="white"/>
<path d="M167.53 333.56L167 322.72C166.813 319.735 165.505 316.93 163.337 314.87C161.168 312.809 158.301 311.644 155.31 311.61C153.889 311.594 152.479 311.873 151.17 312.428C149.862 312.983 148.682 313.803 147.705 314.836C146.728 315.869 145.976 317.093 145.495 318.431C145.014 319.769 144.815 321.191 144.91 322.61L145.48 333.45L143.09 333.58L142.52 322.74C142.409 320.998 142.658 319.252 143.252 317.611C143.845 315.97 144.772 314.469 145.972 313.202C147.172 311.935 148.621 310.929 150.228 310.247C151.835 309.565 153.565 309.223 155.31 309.24C158.911 309.281 162.363 310.681 164.975 313.161C167.586 315.641 169.163 319.016 169.39 322.61L169.96 333.45L167.53 333.56Z" fill="#263238"/>
<g opacity="0.2">
<path d="M167.53 333.56L167 322.72C166.813 319.735 165.505 316.93 163.337 314.87C161.168 312.809 158.301 311.644 155.31 311.61C153.889 311.594 152.479 311.873 151.17 312.428C149.862 312.983 148.682 313.803 147.705 314.836C146.728 315.869 145.976 317.093 145.495 318.431C145.014 319.769 144.815 321.191 144.91 322.61L145.48 333.45L143.09 333.58L142.52 322.74C142.409 320.998 142.658 319.252 143.252 317.611C143.845 315.97 144.772 314.469 145.972 313.202C147.172 311.935 148.621 310.929 150.228 310.247C151.835 309.565 153.565 309.223 155.31 309.24C158.911 309.281 162.363 310.681 164.975 313.161C167.586 315.641 169.163 319.016 169.39 322.61L169.96 333.45L167.53 333.56Z" fill="white"/>
</g>
<path d="M172.94 359.36H140.08C139.34 359.36 138.74 359.96 138.74 360.7V366.01C138.74 366.75 139.34 367.35 140.08 367.35H172.94C173.68 367.35 174.28 366.75 174.28 366.01V360.7C174.28 359.96 173.68 359.36 172.94 359.36Z" fill="white"/>
<path d="M98.7399 359.61L97.1299 359.52L97.5099 352.26C97.6539 349.844 98.7077 347.573 100.459 345.903C102.211 344.233 104.53 343.289 106.95 343.26C108.116 343.249 109.272 343.477 110.346 343.931C111.42 344.384 112.389 345.054 113.194 345.898C113.998 346.742 114.621 347.742 115.022 348.836C115.424 349.931 115.597 351.096 115.53 352.26L115.15 359.53L113.55 359.44L113.93 352.18C113.991 351.228 113.854 350.274 113.528 349.378C113.203 348.481 112.696 347.662 112.038 346.971C111.381 346.279 110.588 345.732 109.709 345.362C108.83 344.992 107.884 344.807 106.93 344.82C104.927 344.844 103.007 345.624 101.555 347.004C100.103 348.383 99.2259 350.261 99.0999 352.26L98.7399 359.61Z" fill="#263238"/>
<path d="M133.11 356.38H85.73L84.13 412.59L91.15 410.98L98.18 412.59H134.72L133.11 356.38Z" fill="#3C72EB"/>
<path d="M98.18 412.59L91.15 410.98L84.13 412.59L85.73 356.38H96.57L98.18 412.59Z" fill="#3C72EB"/>
<path opacity="0.2" d="M98.18 412.59L91.15 410.98L84.13 412.59L85.73 356.38H96.57L98.18 412.59Z" fill="black"/>
<path d="M123.08 359.61L122.7 352.34C122.56 350.344 121.678 348.473 120.227 347.096C118.775 345.719 116.861 344.935 114.86 344.9C113.906 344.884 112.958 345.066 112.078 345.435C111.197 345.805 110.403 346.352 109.745 347.044C109.087 347.736 108.58 348.557 108.255 349.454C107.931 350.352 107.796 351.308 107.86 352.26L108.24 359.52L106.64 359.61L106.25 352.34C106.184 351.177 106.358 350.012 106.761 348.918C107.163 347.824 107.786 346.824 108.59 345.981C109.394 345.137 110.363 344.468 111.436 344.014C112.51 343.559 113.665 343.33 114.83 343.34C117.25 343.369 119.569 344.313 121.321 345.983C123.072 347.653 124.126 349.924 124.27 352.34L124.65 359.6L123.08 359.61Z" fill="#263238"/>
<g opacity="0.2">
<path d="M123.08 359.61L122.7 352.34C122.56 350.344 121.678 348.473 120.227 347.096C118.775 345.719 116.861 344.935 114.86 344.9C113.906 344.884 112.958 345.066 112.078 345.435C111.197 345.805 110.403 346.352 109.745 347.044C109.087 347.736 108.58 348.557 108.255 349.454C107.931 350.352 107.796 351.308 107.86 352.26L108.24 359.52L106.64 359.61L106.25 352.34C106.184 351.177 106.358 350.012 106.761 348.918C107.163 347.824 107.786 346.824 108.59 345.981C109.394 345.137 110.363 344.468 111.436 344.014C112.51 343.559 113.665 343.33 114.83 343.34C117.25 343.369 119.569 344.313 121.321 345.983C123.072 347.653 124.126 349.924 124.27 352.34L124.65 359.6L123.08 359.61Z" fill="white"/>
</g>
<path d="M126.26 376.91H105.12C104.38 376.91 103.78 377.51 103.78 378.25V380.92C103.78 381.66 104.38 382.26 105.12 382.26H126.26C127 382.26 127.6 381.66 127.6 380.92V378.25C127.6 377.51 127 376.91 126.26 376.91Z" fill="white"/>
<path d="M171.68 407.1L164.07 406.31L164.45 388.53L172.06 389.32L171.68 407.1Z" fill="#B55B52"/>
<path d="M236.06 381.6L229.25 385.07L219.01 370.39L225.83 366.92L236.06 381.6Z" fill="#B55B52"/>
<path d="M227.83 384.12L234.83 379.12C234.949 379.033 235.096 378.992 235.243 379.005C235.39 379.018 235.528 379.084 235.63 379.19L240.37 384.19C240.485 384.319 240.572 384.471 240.625 384.635C240.677 384.8 240.695 384.973 240.676 385.145C240.657 385.317 240.602 385.483 240.515 385.632C240.428 385.781 240.31 385.91 240.17 386.01C237.7 387.71 236.42 388.4 233.34 390.6C231.45 391.95 228.82 394.12 226.21 395.98C223.6 397.84 221.61 395.36 222.53 394.35C226.66 389.82 226.4 387.82 227.06 385.27C227.172 384.808 227.445 384.4 227.83 384.12Z" fill="#263238"/>
<path d="M163.42 405.35L171.97 406.24C172.117 406.252 172.254 406.318 172.356 406.425C172.457 406.532 172.516 406.672 172.52 406.82L172.79 413.69C172.791 413.863 172.755 414.034 172.686 414.192C172.616 414.351 172.514 414.493 172.385 414.609C172.257 414.725 172.105 414.813 171.941 414.866C171.776 414.92 171.602 414.938 171.43 414.92C168.43 414.55 167.04 414.23 163.28 413.84C160.96 413.59 154.28 413.14 151.1 412.84C147.92 412.54 148.1 409.33 149.43 409.18C155.52 408.52 159.92 407.18 162.1 405.71C162.484 405.438 162.951 405.311 163.42 405.35Z" fill="#263238"/>
<g opacity="0.2">
<path d="M164.45 388.529L164.25 397.699L171.87 398.489L172.06 389.329L164.45 388.529Z" fill="black"/>
<path d="M225.83 366.93L219.01 370.4L224.29 377.96L231.11 374.49L225.83 366.93Z" fill="black"/>
</g>
<path d="M168.09 234.93C168.09 234.93 160.2 293.66 160 317C159.76 341.28 162.84 395.78 162.84 395.78L173.13 396.85C173.13 396.85 177.31 343.25 178.97 319.46C180.79 293.51 190.87 235.66 190.87 235.66L168.09 234.93Z" fill="#263238"/>
<path d="M173.95 397.3L161.87 396.04L161.39 392.1L174.96 393.04L173.95 397.3Z" fill="#3C72EB"/>
<path opacity="0.6" d="M181 250C172.88 265.11 178.1 293.3 180.47 303.8C182.34 288.2 185.28 269.15 187.54 255.17C186.66 247.19 184.77 243.05 181 250Z" fill="black"/>
<path d="M176.29 235.19C176.29 235.19 181.4 296.66 186.09 316.49C191.66 340.04 221.84 377.22 221.84 377.22L231.14 372.49C231.14 372.49 210.69 331.17 206.26 318.71C196.79 292.14 206.84 253.3 199.15 235.91L176.29 235.19Z" fill="#263238"/>
<path d="M232.46 372.43L220.92 378.3L217.85 375.3L231.11 367.78L232.46 372.43Z" fill="#3C72EB"/>
<path d="M225.14 387.26H225.05C224.875 387.238 224.708 387.17 224.568 387.063C224.427 386.956 224.317 386.814 224.25 386.65C224.195 386.556 224.165 386.449 224.165 386.34C224.165 386.231 224.195 386.124 224.25 386.03C224.74 385.18 227.5 385.03 227.81 385.03C227.846 385.029 227.882 385.04 227.912 385.059C227.942 385.079 227.966 385.107 227.98 385.14C228.002 385.167 228.014 385.201 228.014 385.235C228.014 385.27 228.002 385.304 227.98 385.33C227.31 386.08 226.1 387.29 225.14 387.26ZM227.39 385.42C226.29 385.5 224.82 385.76 224.56 386.2C224.535 386.243 224.522 386.291 224.522 386.34C224.522 386.389 224.535 386.438 224.56 386.48C224.604 386.589 224.677 386.684 224.77 386.756C224.863 386.828 224.973 386.875 225.09 386.89C225.61 387 226.46 386.41 227.39 385.42Z" fill="#3C72EB"/>
<path d="M227.56 385.4C226.61 385.4 224.88 384.87 224.56 384.14C224.501 384.009 224.49 383.861 224.528 383.722C224.567 383.584 224.652 383.463 224.77 383.38C224.87 383.284 224.99 383.211 225.121 383.168C225.253 383.125 225.393 383.112 225.53 383.13C226.64 383.25 227.92 385.03 227.98 385.13C227.995 385.158 228.003 385.189 228.003 385.22C228.003 385.251 227.995 385.282 227.98 385.31C227.966 385.338 227.945 385.363 227.918 385.38C227.892 385.398 227.861 385.408 227.83 385.41C227.74 385.416 227.649 385.413 227.56 385.4ZM225.43 383.49C225.352 383.484 225.273 383.494 225.199 383.519C225.125 383.545 225.057 383.586 225 383.64C224.83 383.8 224.85 383.91 224.88 383.99C225.1 384.48 226.53 384.99 227.46 385.04C227 384.47 226.14 383.56 225.46 383.49H225.43Z" fill="#3C72EB"/>
<path d="M160.43 406.38C159.772 406.372 159.137 406.139 158.63 405.72C158.518 405.599 158.438 405.453 158.396 405.295C158.354 405.136 158.352 404.969 158.39 404.81C158.408 404.71 158.45 404.617 158.513 404.539C158.575 404.46 158.657 404.398 158.75 404.36C159.75 403.95 162.61 405.81 162.93 406.03C162.962 406.048 162.988 406.077 163.002 406.111C163.017 406.145 163.019 406.184 163.01 406.22C163.002 406.257 162.982 406.291 162.953 406.316C162.924 406.341 162.888 406.356 162.85 406.36C162.046 406.442 161.236 406.449 160.43 406.38ZM159.23 404.66C159.118 404.638 159.002 404.638 158.89 404.66C158.852 404.677 158.82 404.703 158.795 404.736C158.771 404.77 158.755 404.809 158.75 404.85C158.722 404.953 158.721 405.061 158.748 405.164C158.774 405.268 158.826 405.362 158.9 405.44C159.32 405.91 160.56 406.11 162.28 406.01C161.345 405.394 160.314 404.938 159.23 404.66Z" fill="#3C72EB"/>
<path d="M162.81 406.36C162.81 406.36 162.76 406.36 162.74 406.36C161.88 405.86 160.25 404.03 160.48 403.18C160.54 402.98 160.71 402.74 161.21 402.74C161.397 402.735 161.582 402.771 161.755 402.843C161.927 402.915 162.082 403.023 162.21 403.16C163.08 404.06 163.05 406.16 163.04 406.21C163.041 406.241 163.033 406.271 163.017 406.298C163.001 406.325 162.978 406.346 162.95 406.36C162.905 406.376 162.855 406.376 162.81 406.36ZM161.32 403.08H161.21C160.88 403.08 160.85 403.2 160.83 403.25C160.7 403.76 161.78 405.17 162.65 405.83C162.662 404.958 162.407 404.103 161.92 403.38C161.761 403.214 161.549 403.108 161.32 403.08Z" fill="#3C72EB"/>
<path d="M164.81 203.71C161.978 207.493 158.805 211.008 155.33 214.21C153.492 215.935 151.481 217.466 149.33 218.78C148.063 219.557 146.697 220.163 145.27 220.58C144.367 220.841 143.43 220.969 142.49 220.96C141.928 220.954 141.369 220.89 140.82 220.77C140.54 220.7 140.24 220.61 139.96 220.51C139.631 220.395 139.313 220.251 139.01 220.08C138.303 219.698 137.686 219.17 137.2 218.53C136.828 218.057 136.521 217.536 136.29 216.98C135.948 216.175 135.715 215.327 135.6 214.46C135.424 213.118 135.374 211.762 135.45 210.41C135.617 208.02 135.951 205.644 136.45 203.3C137.366 198.78 138.616 194.335 140.19 190L144.33 191.07C143.74 195.42 143.19 199.86 142.86 204.16C142.679 206.245 142.625 208.339 142.7 210.43C142.72 211.322 142.83 212.21 143.03 213.08C143.079 213.321 143.163 213.554 143.28 213.77C143.34 213.87 143.28 213.56 142.7 213.19C142.49 213.09 142.56 213.1 142.51 213.09C142.684 213.05 142.855 212.997 143.02 212.93C143.725 212.642 144.396 212.277 145.02 211.84C146.623 210.696 148.131 209.425 149.53 208.04C151.02 206.59 152.45 205.04 153.86 203.41C155.27 201.78 156.68 200.12 157.97 198.53L164.81 203.71Z" fill="#B55B52"/>
<path d="M163.14 192.7C160.01 191.84 150.72 203.7 150.72 203.7L159.6 213.61C159.6 213.61 170.01 204.21 169.6 200C169.21 195.6 167.72 194 163.14 192.7Z" fill="#3C72EB"/>
<path d="M144.44 190L144.09 183.77L138.09 188.71C138.09 188.71 139 193.54 142.03 194.5L143.9 191.87C144.283 191.324 144.473 190.666 144.44 190Z" fill="#B55B52"/>
<path d="M140.18 178.63L135.38 183.05L138.08 188.69L144.09 183.75L140.18 178.63Z" fill="#B55B52"/>
<path d="M137.74 190.68L136.35 190.18C135.974 190.039 135.661 189.77 135.463 189.421C135.266 189.072 135.197 188.664 135.27 188.27L137.38 177.05L141.17 178.43L140 189.27C139.975 189.526 139.891 189.773 139.755 189.992C139.62 190.211 139.436 190.395 139.217 190.531C138.999 190.668 138.752 190.752 138.496 190.778C138.24 190.803 137.981 190.77 137.74 190.68Z" fill="#263238"/>
<path d="M147.73 176.43C147.97 175.78 148.2 175.14 148.41 174.5C147.556 173.123 146.413 171.95 145.06 171.06C144.56 172.29 144.06 173.58 143.57 174.91C143.08 176.24 142.64 177.55 142.24 178.82C143.849 179.006 145.48 178.842 147.02 178.34C147.26 177.71 147.5 177.08 147.73 176.43Z" fill="#263238"/>
<path d="M145.22 175.52C145.811 173.962 146.237 172.347 146.49 170.7L134.06 166.17L130.68 175.46L143.12 180C143.973 178.583 144.677 177.082 145.22 175.52Z" fill="#3C72EB"/>
<path opacity="0.6" d="M145.22 175.52C145.811 173.962 146.237 172.347 146.49 170.7L134.06 166.17L130.68 175.46L143.12 180C143.973 178.583 144.677 177.082 145.22 175.52Z" fill="white"/>
<path d="M137.29 166.48C136.73 166.27 123.29 152.48 121.79 151.89C120.29 151.3 116.66 156.78 113.98 164.14C111.3 171.5 110.46 177.94 112.09 178.54C113.72 179.14 132.77 177.13 133.34 177.33C133.91 177.53 135.43 175.33 136.52 172.33C137.61 169.33 138 166.72 137.29 166.48Z" fill="#3C72EB"/>
<path opacity="0.4" d="M137.29 166.48C136.73 166.27 123.29 152.48 121.79 151.89C120.29 151.3 116.66 156.78 113.98 164.14C111.3 171.5 110.46 177.94 112.09 178.54C113.72 179.14 132.77 177.13 133.34 177.33C133.91 177.53 135.43 175.33 136.52 172.33C137.61 169.33 138 166.72 137.29 166.48Z" fill="white"/>
<path d="M119.9 166.29C117.22 173.65 113.72 179.13 112.09 178.54C110.46 177.95 111.3 171.54 113.98 164.14C116.66 156.74 120.16 151.3 121.79 151.89C123.42 152.48 122.58 158.94 119.9 166.29Z" fill="#3C72EB"/>
<path d="M116 164.85C115.82 165.34 115.65 165.85 115.49 166.3C116.413 167.457 117.542 168.433 118.82 169.18C119.2 168.26 119.58 167.29 119.95 166.29C120.32 165.29 120.64 164.29 120.95 163.35C119.492 163.102 118 163.125 116.55 163.42C116.3 163.89 116.12 164.37 116 164.85Z" fill="#263238"/>
<path opacity="0.7" d="M116 164.85C115.82 165.34 115.65 165.85 115.49 166.3C116.413 167.457 117.542 168.433 118.82 169.18C119.2 168.26 119.58 167.29 119.95 166.29C120.32 165.29 120.64 164.29 120.95 163.35C119.492 163.102 118 163.125 116.55 163.42C116.3 163.89 116.12 164.37 116 164.85Z" fill="white"/>
<path opacity="0.2" d="M160.52 199.67C160.98 206.32 159.43 210.28 158.33 212.19L159.6 213.6C159.6 213.6 165.47 208.3 168.23 203.88C165.13 199.28 160 192.68 160.52 199.67Z" fill="black"/>
<path d="M195.48 161.85C199.65 161.85 203.03 158.47 203.03 154.3C203.03 150.13 199.65 146.75 195.48 146.75C191.31 146.75 187.93 150.13 187.93 154.3C187.93 158.47 191.31 161.85 195.48 161.85Z" fill="#263238"/>
<path d="M194.67 157.74C194.672 158.68 194.395 159.599 193.874 160.382C193.354 161.164 192.612 161.774 191.745 162.136C190.877 162.497 189.921 162.592 188.999 162.41C188.077 162.228 187.23 161.776 186.565 161.112C185.899 160.448 185.446 159.602 185.262 158.68C185.078 157.759 185.171 156.803 185.531 155.935C185.89 155.066 186.499 154.324 187.28 153.801C188.061 153.279 188.98 153 189.92 153C191.178 153 192.385 153.499 193.275 154.388C194.166 155.276 194.667 156.482 194.67 157.74Z" fill="#3C72EB"/>
<path d="M174.84 151.85C174.84 151.85 164.84 151.03 164.84 168.23C164.84 180.01 170.56 185.46 177.57 181.5C177.57 181.5 193.03 180.23 194.81 166.08C196.59 151.93 185.65 146.66 174.84 151.85Z" fill="#263238"/>
<path d="M161.1 193.16C161.1 193.16 157.55 194.7 168.1 238.95L199.1 236.7C197.66 224.12 197.1 216.35 201.23 190.02C196.825 189.44 192.383 189.179 187.94 189.24C183.229 189.24 178.524 189.574 173.86 190.24C167.85 191.26 161.1 193.16 161.1 193.16Z" fill="#3C72EB"/>
<path d="M185.38 173.49C184.82 178.09 184.54 186.49 187.93 189.24C187.93 189.24 187.03 193.92 178.61 194.54C169.36 195.21 173.85 190.26 173.85 190.26C178.85 188.69 178.41 184.95 177.28 181.5L185.38 173.49Z" fill="#B55B52"/>
<path opacity="0.2" d="M182.08 176.76L177.28 181.5C177.557 182.3 177.764 183.124 177.9 183.96C179.81 183.54 182.3 181.23 182.36 179.2C182.416 178.376 182.322 177.549 182.08 176.76Z" fill="black"/>
<path d="M190.56 165.85C188.83 173.24 188.25 176.41 183.82 179.6C177.16 184.4 168.46 180.65 167.95 172.89C167.49 165.89 170.4 154.99 178.23 153.26C179.952 152.873 181.745 152.932 183.438 153.433C185.131 153.933 186.668 154.858 187.903 156.119C189.139 157.38 190.031 158.936 190.496 160.639C190.961 162.342 190.983 164.136 190.56 165.85Z" fill="#B55B52"/>
<path d="M177.81 165.8C177.71 166.41 177.3 166.8 176.91 166.8C176.52 166.8 176.27 166.18 176.37 165.57C176.47 164.96 176.89 164.57 177.28 164.57C177.67 164.57 177.92 165.19 177.81 165.8Z" fill="#263238"/>
<path d="M170.94 164.63C170.83 165.23 170.43 165.63 170.03 165.63C169.63 165.63 169.39 165.02 169.5 164.41C169.61 163.8 170.01 163.41 170.41 163.41C170.81 163.41 171 164 170.94 164.63Z" fill="#263238"/>
<path d="M170.58 163.47L169.19 162.79C169.19 162.79 169.74 164.06 170.58 163.47Z" fill="#263238"/>
<path d="M173.36 166.08C172.582 167.378 171.63 168.562 170.53 169.6C170.804 169.873 171.133 170.083 171.496 170.216C171.858 170.349 172.245 170.401 172.63 170.37L173.36 166.08Z" fill="#A02724"/>
<path d="M191.42 173.05C190.673 174.316 189.46 175.239 188.04 175.62C186.16 176.1 185.26 174.4 185.82 172.62C186.32 171.04 187.91 168.89 189.82 169.18C190.229 169.257 190.612 169.434 190.934 169.697C191.257 169.959 191.509 170.297 191.668 170.682C191.827 171.066 191.887 171.484 191.844 171.897C191.801 172.311 191.655 172.707 191.42 173.05Z" fill="#B55B52"/>
<path d="M180.81 164.87C180.733 164.869 180.658 164.843 180.597 164.796C180.536 164.749 180.491 164.684 180.47 164.61C179.98 163.01 177.93 162.33 177.91 162.32C177.865 162.305 177.823 162.281 177.787 162.25C177.751 162.218 177.721 162.18 177.7 162.138C177.678 162.095 177.666 162.048 177.662 162.001C177.659 161.953 177.665 161.905 177.68 161.86C177.695 161.815 177.719 161.773 177.75 161.737C177.782 161.701 177.82 161.671 177.862 161.65C177.905 161.628 177.952 161.616 177.999 161.612C178.047 161.609 178.095 161.615 178.14 161.63C178.807 161.855 179.419 162.217 179.936 162.695C180.453 163.172 180.863 163.753 181.14 164.4C181.154 164.445 181.159 164.493 181.154 164.54C181.15 164.587 181.136 164.633 181.113 164.675C181.091 164.717 181.061 164.754 181.024 164.784C180.988 164.814 180.945 164.836 180.9 164.85C180.872 164.862 180.841 164.869 180.81 164.87Z" fill="#263238"/>
<path d="M169.41 161.1C169.333 161.094 169.26 161.063 169.201 161.013C169.142 160.963 169.1 160.896 169.081 160.821C169.062 160.746 169.068 160.667 169.096 160.595C169.125 160.523 169.175 160.462 169.24 160.42C169.732 160.121 170.289 159.946 170.863 159.907C171.437 159.869 172.013 159.969 172.54 160.2C172.583 160.222 172.621 160.252 172.652 160.288C172.683 160.324 172.707 160.366 172.721 160.412C172.736 160.457 172.742 160.505 172.738 160.553C172.735 160.601 172.722 160.647 172.7 160.69C172.678 160.733 172.648 160.771 172.612 160.802C172.576 160.833 172.534 160.857 172.488 160.871C172.443 160.886 172.395 160.892 172.347 160.888C172.299 160.885 172.253 160.872 172.21 160.85C171.791 160.671 171.335 160.595 170.88 160.63C170.426 160.665 169.987 160.809 169.6 161.05C169.542 161.082 169.476 161.099 169.41 161.1Z" fill="#263238"/>
<path d="M177.45 164.64L176.06 163.97C176.06 163.97 176.62 165.24 177.45 164.64Z" fill="#263238"/>
<path d="M173.23 172.26C175.774 171.731 178.362 171.45 180.96 171.42C180.37 173.17 179.19 174.63 176.26 174.74C175.896 174.79 175.525 174.765 175.171 174.665C174.818 174.566 174.488 174.394 174.204 174.161C173.919 173.928 173.686 173.639 173.518 173.312C173.351 172.985 173.253 172.627 173.23 172.26Z" fill="#263238"/>
<path d="M177.55 173.33C176.424 173.321 175.324 173.671 174.41 174.33C174.967 174.662 175.613 174.813 176.26 174.76C177.386 174.768 178.486 174.418 179.4 173.76C178.846 173.42 178.197 173.269 177.55 173.33Z" fill="#A02724"/>
<path d="M173.49 172.2C173.558 172.408 173.681 172.593 173.847 172.736C174.013 172.878 174.214 172.973 174.43 173.01C176.112 172.92 177.785 172.693 179.43 172.33C179.697 172.297 179.952 172.197 180.17 172.04C180.389 171.883 180.564 171.673 180.68 171.43C178.267 171.499 175.863 171.757 173.49 172.2Z" fill="white"/>
<path d="M169.24 160.42C171.516 159.456 173.497 157.907 174.98 155.93C174.98 155.93 174.98 161.25 177.15 160.84C179.32 160.43 176.06 155.92 176.06 155.92C176.06 155.92 181.06 158.14 182.77 162.48C184.48 166.82 186.43 171.56 190.28 170.38C194.13 169.2 193.28 156.9 187.61 153.83L179.61 152.39L177.25 152.74C176.025 152.914 174.849 153.343 173.8 154C172.218 154.97 170.975 156.405 170.24 158.11L169.24 160.42Z" fill="#263238"/>
<path d="M187.91 161.06C187.54 160.28 185.77 160.35 183.91 161.21C182.05 162.07 182.02 162.88 182.39 163.66C182.76 164.44 183.39 164.89 185.25 164.03C187.11 163.17 188.28 161.84 187.91 161.06ZM183.62 163.06C183.36 162.5 183.41 161.93 184.71 161.31C186.01 160.69 187.28 160.65 187.54 161.21C187.8 161.77 186.97 162.72 185.67 163.33C184.37 163.94 183.89 163.65 183.62 163.09V163.06Z" fill="#3C72EB"/>
<path opacity="0.2" d="M197.8 200.28L195.45 198.28L193.71 199.07C193.106 205.226 194.673 211.398 198.14 216.52C198.29 213.19 198.6 209.44 199.14 204.96C198.4 202.26 197.8 200.28 197.8 200.28Z" fill="black"/>
<path d="M229.48 224.65L228.21 224.78L227.61 219.05C227.429 217.144 227.976 215.24 229.141 213.721C230.306 212.201 232.002 211.179 233.89 210.86C234.802 210.706 235.737 210.741 236.635 210.964C237.533 211.187 238.376 211.593 239.11 212.156C239.845 212.719 240.456 213.427 240.905 214.236C241.354 215.045 241.631 215.938 241.72 216.86L242.33 222.59L241.06 222.73L240.46 216.99C240.387 216.239 240.161 215.511 239.796 214.851C239.432 214.19 238.936 213.612 238.34 213.15C237.742 212.69 237.057 212.359 236.325 212.176C235.594 211.994 234.833 211.964 234.09 212.09C232.523 212.355 231.115 213.204 230.148 214.466C229.182 215.727 228.729 217.308 228.88 218.89L229.48 224.65Z" fill="#263238"/>
<path d="M205.91 199C206.09 199.86 206.33 200.92 206.56 201.89C206.79 202.86 207.06 203.89 207.34 204.89C207.9 206.89 208.49 208.82 209.2 210.71C210.478 214.391 212.294 217.862 214.59 221.01L214.8 221.28L214.9 221.42L214.78 221.3C214.62 221.16 214.433 221.055 214.23 220.99C213.93 220.91 213.94 220.99 214.14 220.99C214.849 220.953 215.547 220.804 216.21 220.55C218.061 219.874 219.854 219.048 221.57 218.08C225.2 216.08 228.87 213.8 232.42 211.49L235.19 214.75C232.076 217.987 228.69 220.951 225.07 223.61C223.15 225.027 221.101 226.259 218.95 227.29C217.624 227.926 216.207 228.351 214.75 228.55C213.634 228.687 212.501 228.564 211.44 228.19C210.733 227.927 210.081 227.534 209.52 227.03C209.38 226.9 209.23 226.76 209.11 226.63L208.95 226.46L208.63 226.11C206.984 224.29 205.542 222.294 204.33 220.16C203.148 218.121 202.115 215.998 201.24 213.81C200.38 211.647 199.632 209.44 199 207.2C198.69 206.1 198.4 204.99 198.14 203.87C197.88 202.75 197.64 201.66 197.44 200.38L205.91 199Z" fill="#B55B52"/>
<path d="M201.22 190C204.39 190.72 209.94 202.18 209.94 202.18L197.48 210.63C197.48 210.63 192.48 202.02 193.48 197.91C194.5 193.65 197.6 189.2 201.22 190Z" fill="#3C72EB"/>
<path d="M231.9 211.44L239.14 207.44L237.62 215.07C237.62 215.07 232.94 216.56 230.62 214.34L231.9 211.44Z" fill="#B55B52"/>
<path d="M245.49 208.47L243.87 214.8L237.62 215.08L239.14 207.45L245.49 208.47Z" fill="#B55B52"/>
<path d="M248.53 221.63L247.33 215.99C246.986 214.44 246.067 213.077 244.76 212.175C243.452 211.274 241.852 210.901 240.28 211.13C239.533 211.24 238.817 211.503 238.176 211.902C237.535 212.301 236.984 212.829 236.557 213.451C236.13 214.074 235.836 214.778 235.693 215.52C235.551 216.261 235.564 217.024 235.73 217.76L236.93 223.4L235.69 223.67L234.49 218.03C234.286 217.125 234.271 216.188 234.446 215.277C234.621 214.366 234.982 213.501 235.507 212.736C236.031 211.971 236.708 211.322 237.495 210.831C238.282 210.339 239.162 210.016 240.08 209.88C241.974 209.602 243.902 210.051 245.479 211.136C247.056 212.221 248.163 213.862 248.58 215.73L249.78 221.37L248.53 221.63Z" fill="#263238"/>
<g opacity="0.3">
<path d="M248.53 221.63L247.33 215.99C246.986 214.44 246.067 213.077 244.76 212.175C243.452 211.274 241.852 210.901 240.28 211.13C239.533 211.24 238.817 211.503 238.176 211.902C237.535 212.301 236.984 212.829 236.557 213.451C236.13 214.074 235.836 214.778 235.693 215.52C235.551 216.261 235.564 217.024 235.73 217.76L236.93 223.4L235.69 223.67L234.49 218.03C234.286 217.125 234.271 216.188 234.446 215.277C234.621 214.366 234.982 213.501 235.507 212.736C236.031 211.971 236.708 211.322 237.495 210.831C238.282 210.339 239.162 210.016 240.08 209.88C241.974 209.602 243.902 210.051 245.479 211.136C247.056 212.221 248.163 213.862 248.58 215.73L249.78 221.37L248.53 221.63Z" fill="white"/>
</g>
<path d="M255.99 217.86L218.9 223.73L224.61 267.93L229.91 265.8L235.61 266.19L264.21 261.66L255.99 217.86Z" fill="#3C72EB"/>
<path opacity="0.6" d="M255.99 217.86L218.9 223.73L224.61 267.93L229.91 265.8L235.61 266.19L264.21 261.66L255.99 217.86Z" fill="white"/>
<path d="M235.61 266.19L229.91 265.8L224.61 267.93L218.9 223.73L227.38 222.39L235.61 266.19Z" fill="#3C72EB"/>
<path opacity="0.3" d="M235.61 266.19L229.91 265.8L224.61 267.93L218.9 223.73L227.38 222.39L235.61 266.19Z" fill="white"/>
<path d="M252.346 236.899L237.007 239.328C236.184 239.459 235.622 240.232 235.752 241.056L235.774 241.194C235.904 242.018 236.678 242.58 237.502 242.449L252.84 240.02C253.664 239.889 254.226 239.116 254.096 238.292L254.074 238.154C253.943 237.33 253.17 236.768 252.346 236.899Z" fill="white"/>
</svg>
