<svg width="500" height="500" viewBox="0 0 500 500" fill="none" xmlns="http://www.w3.org/2000/svg">
<path opacity="0.5" d="M401.87 158.45C401.135 158.637 400.361 158.618 399.636 158.394C398.911 158.17 398.262 157.749 397.76 157.18C397.48 156.87 397.19 156.56 396.89 156.26C396.59 155.96 396.28 155.66 395.96 155.38C395.395 154.879 394.978 154.233 394.756 153.512C394.534 152.79 394.514 152.021 394.7 151.29L396.07 146.18L379.44 141.72L378.07 146.83C377.868 147.56 377.467 148.22 376.913 148.737C376.359 149.255 375.673 149.608 374.93 149.76C374.091 149.929 373.263 150.15 372.45 150.42C371.731 150.655 370.96 150.687 370.224 150.51C369.487 150.333 368.815 149.956 368.28 149.42L364.55 145.7L352.37 157.87L356.1 161.6C356.636 162.134 357.014 162.807 357.19 163.543C357.367 164.279 357.336 165.05 357.1 165.77C356.84 166.59 356.62 167.42 356.44 168.25C356.293 168.994 355.941 169.683 355.423 170.238C354.905 170.792 354.243 171.192 353.51 171.39L348.41 172.76L352.87 189.39L358 188C358.73 187.812 359.498 187.831 360.218 188.053C360.938 188.276 361.583 188.693 362.08 189.26C362.37 189.58 362.66 189.88 362.96 190.18C363.26 190.48 363.56 190.77 363.88 191.06C364.45 191.559 364.87 192.207 365.095 192.93C365.319 193.654 365.338 194.426 365.15 195.16L363.77 200.27L380.4 204.73L381.76 199.64C381.96 198.907 382.359 198.244 382.914 197.725C383.468 197.206 384.156 196.851 384.9 196.7C385.741 196.524 386.573 196.304 387.39 196.04C388.11 195.804 388.88 195.773 389.617 195.949C390.353 196.126 391.026 196.503 391.56 197.04L395.29 200.77L407.46 188.59L403.74 184.86C403.201 184.327 402.821 183.654 402.645 182.918C402.468 182.181 402.501 181.409 402.74 180.69C403.005 179.872 403.225 179.041 403.4 178.2C403.55 177.457 403.904 176.77 404.421 176.215C404.938 175.661 405.599 175.261 406.33 175.06L411.42 173.7L407 157.08L401.87 158.45ZM389.87 183.22C387.897 185.194 385.383 186.538 382.646 187.083C379.908 187.628 377.071 187.349 374.492 186.281C371.914 185.214 369.71 183.405 368.159 181.084C366.608 178.764 365.781 176.036 365.781 173.245C365.781 170.454 366.608 167.725 368.159 165.405C369.71 163.084 371.914 161.276 374.492 160.208C377.071 159.14 379.908 158.861 382.646 159.406C385.383 159.951 387.897 161.296 389.87 163.27C392.515 165.914 394.003 169.5 394.006 173.241C394.01 176.981 392.53 180.57 389.89 183.22H389.87Z" fill="#EBEBEB"/>
<path d="M127.28 86.73C126.544 86.9175 125.771 86.8981 125.046 86.674C124.321 86.4499 123.671 86.0298 123.17 85.46C122.89 85.14 122.6 84.84 122.3 84.54C122 84.24 121.69 83.94 121.37 83.66C120.804 83.1597 120.388 82.5134 120.165 81.7919C119.943 81.0705 119.924 80.3017 120.11 79.57L121.48 74.46L104.85 70L103.48 75.1C103.277 75.827 102.876 76.4832 102.321 76.9954C101.767 77.5075 101.081 77.8553 100.34 78C99.4998 78.18 98.6798 78.4 97.8598 78.66C97.1403 78.8956 96.3695 78.9269 95.6333 78.7503C94.897 78.5738 94.2242 78.1963 93.6898 77.66L89.9998 74L77.7798 86.17L81.5098 89.9C82.0442 90.4357 82.4203 91.1085 82.5968 91.8442C82.7732 92.58 82.7431 93.3502 82.5098 94.07C82.2408 94.8828 82.0204 95.711 81.8498 96.55C81.6995 97.2931 81.3461 97.98 80.8288 98.5343C80.3116 99.0887 79.6508 99.4887 78.9198 99.69L73.8098 101.06L78.2798 117.69L83.3998 116.32C84.1315 116.134 84.9003 116.153 85.6218 116.376C86.3432 116.598 86.9896 117.015 87.4898 117.58C87.7698 117.89 88.0598 118.2 88.3598 118.5C88.6598 118.8 88.9698 119.09 89.2798 119.37C89.8496 119.872 90.2697 120.521 90.4938 121.246C90.7179 121.971 90.7373 122.744 90.5498 123.48L89.1698 128.59L105.8 133.05L107.16 127.95C107.361 127.219 107.761 126.558 108.315 126.041C108.87 125.524 109.557 125.17 110.3 125.02C111.14 124.84 111.97 124.62 112.79 124.36C113.509 124.121 114.281 124.088 115.018 124.265C115.755 124.441 116.427 124.821 116.96 125.36L120.69 129.08L132.87 116.9L129.14 113.18C128.603 112.644 128.225 111.97 128.048 111.232C127.872 110.494 127.903 109.721 128.14 109C128.41 108.188 128.63 107.359 128.8 106.52C128.951 105.776 129.306 105.088 129.825 104.533C130.344 103.979 131.007 103.58 131.74 103.38L136.83 102.02L132.37 85.39L127.28 86.73ZM115.28 111.5C113.304 113.467 110.79 114.804 108.054 115.344C105.319 115.883 102.485 115.6 99.9108 114.53C97.3363 113.46 95.1364 111.651 93.5888 109.332C92.0412 107.013 91.2153 104.288 91.2153 101.5C91.2153 98.712 92.0412 95.9866 93.5888 93.6676C95.1364 91.3486 97.3363 89.5401 99.9108 88.4702C102.485 87.4004 105.319 87.1172 108.054 87.6564C110.79 88.1957 113.304 89.5331 115.28 91.5C116.595 92.8118 117.638 94.3697 118.351 96.0848C119.063 97.7999 119.431 99.6386 119.433 101.496C119.435 103.353 119.071 105.193 118.361 106.909C117.652 108.626 116.612 110.186 115.3 111.5H115.28Z" fill="#EBEBEB"/>
<path opacity="0.5" d="M75.9999 158.34C75.7034 158.163 75.4615 157.908 75.3008 157.603C75.1402 157.298 75.0672 156.954 75.0899 156.61C75.0899 156.42 75.0899 156.23 75.0899 156.04C75.0899 155.85 75.0899 155.65 75.0899 155.46C75.067 155.118 75.1389 154.776 75.2977 154.473C75.4565 154.169 75.696 153.916 75.9899 153.74L78.0699 152.54L74.1699 145.77L72.0999 147C71.8006 147.171 71.4595 147.255 71.1149 147.243C70.7704 147.23 70.4361 147.122 70.1499 146.93C69.8299 146.72 69.4899 146.53 69.1499 146.35C68.8475 146.193 68.5942 145.956 68.4178 145.665C68.2413 145.374 68.1486 145.04 68.1499 144.7V142.31H60.3099V144.7C60.3089 145.04 60.2153 145.373 60.0391 145.663C59.8629 145.954 59.6108 146.191 59.3099 146.35C58.9599 146.53 58.6299 146.72 58.3099 146.93C58.0252 147.121 57.6927 147.229 57.3499 147.241C57.0071 147.254 56.6676 147.17 56.3699 147L54.2899 145.8L50.3899 152.57L52.4699 153.78C52.7653 153.951 53.0064 154.203 53.1656 154.505C53.3247 154.808 53.3956 155.149 53.3699 155.49C53.3699 155.68 53.3699 155.87 53.3699 156.07C53.3699 156.27 53.3699 156.45 53.3699 156.64C53.3951 156.982 53.3242 157.324 53.1652 157.628C53.0061 157.932 52.7653 158.185 52.4699 158.36L50.3899 159.56L54.2899 166.33L56.3599 165.13C56.6649 164.948 57.0156 164.858 57.3702 164.871C57.7248 164.883 58.0683 164.997 58.3599 165.2C58.6806 165.414 59.0146 165.608 59.3599 165.78C59.6608 165.938 59.9129 166.175 60.0891 166.466C60.2653 166.756 60.3589 167.09 60.3599 167.43V169.82H68.1699V167.4C68.1686 167.059 68.2613 166.725 68.4378 166.434C68.6142 166.143 68.8675 165.906 69.1699 165.75C69.514 165.575 69.8479 165.382 70.1699 165.17C70.4614 164.967 70.805 164.853 71.1596 164.841C71.5142 164.828 71.8649 164.918 72.1699 165.1L74.2399 166.3L78.1399 159.53L75.9999 158.34ZM64.2099 162.44C62.9437 162.442 61.7053 162.068 60.6515 161.366C59.5977 160.664 58.7759 159.665 58.2899 158.496C57.804 157.326 57.6758 156.039 57.9216 154.797C58.1675 153.555 58.7762 152.414 59.6709 151.518C60.5655 150.622 61.7059 150.011 62.9476 149.763C64.1894 149.516 65.4767 149.642 66.6468 150.126C67.8168 150.61 68.8169 151.43 69.5206 152.483C70.2243 153.536 70.5999 154.773 70.5999 156.04C70.5973 157.733 69.9249 159.356 68.7295 160.555C67.5342 161.754 65.913 162.432 64.2199 162.44H64.2099Z" fill="#EBEBEB"/>
<path d="M447.58 213.66C447.285 213.482 447.044 213.226 446.884 212.921C446.724 212.616 446.65 212.274 446.67 211.93C446.67 211.74 446.67 211.55 446.67 211.36C446.67 211.17 446.67 210.97 446.67 210.78C446.649 210.437 446.723 210.095 446.884 209.792C447.044 209.489 447.285 209.235 447.58 209.06L449.65 207.86L445.75 201.09L443.67 202.29C443.372 202.46 443.033 202.544 442.69 202.531C442.347 202.519 442.015 202.411 441.73 202.22C441.4 202.01 441.07 201.82 440.73 201.64C440.429 201.481 440.177 201.244 440.001 200.954C439.825 200.663 439.731 200.33 439.73 199.99V197.6H431.92V200C431.921 200.34 431.829 200.674 431.652 200.965C431.476 201.256 431.222 201.493 430.92 201.65C430.58 201.83 430.24 202.02 429.92 202.23C429.628 202.432 429.285 202.546 428.93 202.558C428.576 202.571 428.225 202.481 427.92 202.3L425.84 201.1L421.94 207.87L424.02 209.08C424.315 209.253 424.556 209.504 424.717 209.806C424.877 210.108 424.951 210.448 424.93 210.79C424.93 210.98 424.93 211.17 424.93 211.37C424.93 211.57 424.93 211.75 424.93 211.94C424.951 212.282 424.877 212.624 424.716 212.927C424.556 213.231 424.315 213.484 424.02 213.66L421.94 214.86L425.84 221.63L427.91 220.43C428.209 220.258 428.55 220.174 428.895 220.187C429.239 220.199 429.574 220.307 429.86 220.5C430.182 220.712 430.516 220.905 430.86 221.08C431.162 221.236 431.416 221.473 431.592 221.764C431.769 222.055 431.861 222.389 431.86 222.73V225.12H439.67V222.73C439.671 222.39 439.765 222.056 439.941 221.766C440.117 221.475 440.369 221.238 440.67 221.08C441.015 220.908 441.349 220.714 441.67 220.5C441.956 220.307 442.29 220.199 442.635 220.187C442.98 220.174 443.321 220.258 443.62 220.43L445.69 221.63L449.59 214.86L447.58 213.66ZM435.79 217.76C434.524 217.76 433.287 217.384 432.234 216.681C431.182 215.978 430.362 214.978 429.877 213.809C429.393 212.639 429.266 211.353 429.513 210.111C429.76 208.87 430.369 207.729 431.264 206.834C432.16 205.939 433.3 205.33 434.541 205.083C435.783 204.836 437.07 204.962 438.239 205.447C439.409 205.931 440.408 206.751 441.111 207.804C441.815 208.856 442.19 210.094 442.19 211.36C442.187 213.056 441.512 214.683 440.312 215.882C439.113 217.082 437.487 217.757 435.79 217.76Z" fill="#EBEBEB"/>
<path d="M299.65 300.89V465.59H402.84V300.89H299.65ZM393.47 408.59H309V364.16H393.45L393.47 408.59ZM393.47 353.59H309V309.14H393.45L393.47 353.59Z" fill="#DBDBDB"/>
<path d="M449.5 300.89H402.84V465.59H449.5V300.89Z" fill="#EBEBEB"/>
<path d="M329.09 309.13H309.02V353.57H329.09V309.13Z" fill="#EBEBEB"/>
<path d="M393.72 455.13H309.29V418.26H393.72V455.13ZM309.79 454.63H393.22V418.76H309.79V454.63Z" fill="#EBEBEB"/>
<path d="M359.84 426.43H343.17V432.52H359.84V426.43Z" fill="#EBEBEB"/>
<path d="M329.09 364.16H309.02V408.6H329.09V364.16Z" fill="#EBEBEB"/>
<path d="M381.92 408.6V367.63H367.8V408.6H381.92Z" fill="#A6A6A6"/>
<path d="M381.92 402.02V393.18H367.8V402.02H381.92Z" fill="#DBDBDB"/>
<path d="M381.92 386.06V380.82H367.8V386.06H381.92Z" fill="#DBDBDB"/>
<path d="M369.32 319.29H333.64V353.58H369.32V319.29Z" fill="#EBEBEB"/>
<path d="M382.88 319.29H369.32V353.58H382.88V319.29Z" fill="#C7C7C7"/>
<path d="M333.64 336.43H369.32L341.46 337.31L333.64 336.43Z" fill="#C7C7C7"/>
<path d="M369.32 349.43H333.64L361.51 350.31L369.32 349.43Z" fill="#C7C7C7"/>
<path d="M333.64 326.85H356.24L336.15 327.57L333.64 326.85Z" fill="#C7C7C7"/>
<path d="M369.32 344.38H346.72L366.81 345.11L369.32 344.38Z" fill="#C7C7C7"/>
<path d="M342.2 323.03H367.69L363.44 323.46L342.2 323.03Z" fill="#C7C7C7"/>
<path d="M337.11 340.11H362.6L358.35 340.54L337.11 340.11Z" fill="#C7C7C7"/>
<path d="M352.79 330.11H369.32L372.28 331.26L352.79 330.11Z" fill="#EBEBEB"/>
<path d="M329.09 330.11H345.62L348.58 331.26L329.09 330.11Z" fill="#EBEBEB"/>
<path d="M350.31 345.52H333.77L330.81 346.67L350.31 345.52Z" fill="#EBEBEB"/>
<path d="M369.32 341.61H382.6L385.56 342.76L369.32 341.61Z" fill="#C7C7C7"/>
<path d="M373.96 336.43H384.26L382.88 335.49L373.96 336.43Z" fill="#C7C7C7"/>
<path d="M393.47 364.89H381.92V408.6H393.47V364.89Z" fill="#EBEBEB"/>
<path d="M387.7 373.51C387.223 373.512 386.756 373.373 386.358 373.109C385.961 372.846 385.65 372.47 385.466 372.03C385.282 371.589 385.233 371.105 385.325 370.636C385.417 370.168 385.645 369.738 385.982 369.4C386.319 369.062 386.748 368.831 387.216 368.737C387.684 368.644 388.169 368.691 388.61 368.873C389.051 369.055 389.428 369.364 389.693 369.76C389.958 370.157 390.1 370.623 390.1 371.1C390.1 371.738 389.847 372.349 389.397 372.801C388.948 373.253 388.337 373.508 387.7 373.51Z" fill="white"/>
<path d="M387.7 372.48C387.427 372.482 387.159 372.402 386.931 372.252C386.702 372.102 386.524 371.887 386.418 371.635C386.312 371.383 386.283 371.105 386.335 370.837C386.387 370.568 386.518 370.321 386.711 370.127C386.903 369.933 387.149 369.801 387.417 369.747C387.685 369.693 387.963 369.72 388.216 369.824C388.469 369.928 388.685 370.105 388.837 370.332C388.989 370.559 389.07 370.826 389.07 371.1C389.07 371.464 388.926 371.813 388.669 372.072C388.413 372.331 388.064 372.477 387.7 372.48Z" fill="#A6A6A6"/>
<path d="M393.47 401.71V391.08H381.92V401.71H393.47Z" fill="white"/>
<path d="M367.8 399.57H324.09V408.66H367.8V399.57Z" fill="#C7C7C7"/>
<path d="M359.18 404.12C359.178 403.643 359.318 403.175 359.582 402.777C359.846 402.38 360.222 402.069 360.663 401.886C361.104 401.702 361.589 401.653 362.057 401.746C362.526 401.839 362.956 402.068 363.294 402.406C363.631 402.744 363.861 403.174 363.954 403.642C364.047 404.111 363.998 404.596 363.814 405.037C363.631 405.478 363.32 405.854 362.922 406.118C362.525 406.382 362.057 406.522 361.58 406.52C360.943 406.52 360.333 406.267 359.883 405.817C359.433 405.367 359.18 404.757 359.18 404.12Z" fill="white"/>
<path d="M360.21 404.12C360.208 403.847 360.288 403.578 360.438 403.35C360.589 403.122 360.805 402.943 361.057 402.837C361.31 402.732 361.588 402.704 361.857 402.757C362.125 402.809 362.372 402.941 362.566 403.135C362.759 403.328 362.891 403.575 362.944 403.844C362.997 404.112 362.969 404.391 362.863 404.643C362.757 404.896 362.579 405.111 362.35 405.262C362.122 405.413 361.854 405.492 361.58 405.49C361.4 405.49 361.222 405.455 361.056 405.386C360.89 405.317 360.738 405.216 360.611 405.089C360.484 404.962 360.383 404.811 360.314 404.645C360.245 404.478 360.21 404.3 360.21 404.12Z" fill="#A6A6A6"/>
<path d="M330.98 408.66H341.61V399.57H330.98V408.66Z" fill="white"/>
<path d="M48.8101 465.6C177.7 464.98 322.3 464.98 451.19 465.6C322.3 466.22 177.7 466.22 48.8101 465.6Z" fill="#263238"/>
<path d="M98.72 350.219C99.5616 356.065 99.2594 362.019 97.83 367.749C97.1548 370.403 96.2583 372.996 95.15 375.499C93.75 378.709 92.29 381.839 92.65 385.339C92.98 385.569 91.82 385.529 91.78 385.189C82.41 379.859 70.38 378.879 63.17 370.189C59.75 366.059 58.03 360.819 57.17 355.579C56.28 349.869 56.03 343.579 57.51 337.929C58.75 333.179 61.51 328.59 66 326.26C70.49 323.93 76.65 324.06 81.51 325.57C92 328.78 97.24 340.089 98.72 350.219Z" fill="#3C72EB"/>
<path d="M103.53 419.63C102.25 415.37 100.97 411.1 99.6602 406.85C97.0902 398.51 94.4102 390.21 91.4502 382.01C89.6835 377.09 87.8135 372.223 85.8402 367.41C86.0683 364.368 86.4555 361.341 87.0002 358.34C87.7802 354.71 88.9202 351.2 90.0002 347.64C90.0702 347.42 89.7102 347.3 89.6202 347.51C87.5202 352.41 84.7702 358.68 84.7002 364.51C82.4102 359.05 79.9702 353.67 77.3302 348.38C77.0307 343.897 77.1714 339.395 77.7502 334.94C77.7581 334.897 77.7489 334.854 77.7245 334.818C77.7001 334.782 77.6626 334.758 77.6202 334.75C77.5777 334.742 77.5339 334.751 77.4982 334.775C77.4626 334.8 77.4381 334.837 77.4302 334.88C76.6276 338.779 76.3185 342.764 76.5102 346.74C74.5102 342.74 72.3768 338.813 70.1102 334.96C69.9102 334.61 69.4302 334.96 69.6102 335.31C73.0902 342.09 76.3535 348.987 79.4002 356C75.0848 352.256 70.0959 349.368 64.7002 347.49C64.4702 347.41 64.3002 347.74 64.5302 347.84C70.4182 350.369 75.8038 353.936 80.4302 358.37C82.6368 363.51 84.7402 368.69 86.7402 373.91C80.8702 368.16 72.8402 364.38 65.0702 362.35C64.8102 362.28 64.7402 362.68 64.9902 362.76C73.9902 365.47 80.9902 370.56 87.8002 376.68C88.5935 378.793 89.3735 380.91 90.1402 383.03C93.0268 391.03 95.7835 399.113 98.4102 407.28C99.6702 411.17 100.91 415.08 102.13 418.98C103.44 423.19 104.47 427.63 106.13 431.69C106.3 432.08 106.99 431.99 106.9 431.52C105.983 427.501 104.858 423.532 103.53 419.63Z" fill="#263238"/>
<path d="M88.0001 341.999C86.3347 344.555 85.1864 347.412 84.6201 350.409C84.6201 350.489 84.7301 350.539 84.7601 350.459C85.803 347.631 87.0255 344.872 88.4201 342.199C88.5401 341.999 88.1401 341.769 88.0001 341.999Z" fill="#263238"/>
<path d="M71.25 361.55C68.6407 360.106 65.7913 359.147 62.84 358.72C62.76 358.72 62.71 358.82 62.79 358.85C64.14 359.41 65.57 359.85 66.93 360.33C68.29 360.81 69.65 361.5 71 362C71.0597 362.033 71.1301 362.041 71.1957 362.022C71.2614 362.003 71.3169 361.959 71.35 361.9C71.3832 361.84 71.3913 361.77 71.3725 361.704C71.3538 361.638 71.3097 361.583 71.25 361.55Z" fill="#263238"/>
<path d="M66.54 338.05C65.6928 337.407 64.7852 336.848 63.83 336.38C63.8143 336.37 63.7967 336.363 63.7784 336.36C63.7601 336.357 63.7413 336.358 63.7232 336.362C63.6866 336.37 63.6549 336.393 63.635 336.425C63.6151 336.457 63.6087 336.495 63.6172 336.532C63.6256 336.568 63.6482 336.6 63.68 336.62C64.5103 337.279 65.401 337.858 66.34 338.35C66.52 338.45 66.71 338.16 66.54 338.05Z" fill="#263238"/>
<path d="M130.33 382.07C123.57 384.07 116.79 385.93 110.04 387.91C109.45 388.08 98.04 366.21 102.16 354.91C105.97 344.48 114.7 336.67 125.16 333.13C129.98 331.49 135.91 330.13 141 331.24C145.53 332.24 148.73 335.95 150.2 340.24C152.2 346.03 151.54 352.93 150.45 358.84C149.564 364.385 147.26 369.608 143.76 374C140.17 378.29 135.59 380.51 130.33 382.07Z" fill="#3C72EB"/>
<path d="M140.12 361.279C135.852 363.364 131.424 365.106 126.88 366.489C123.85 367.309 120.893 368.38 118.04 369.689C120.89 363.329 124.04 357.109 127.34 350.939C131.7 349.679 136.29 347.709 139.58 344.619C139.617 344.587 139.64 344.542 139.644 344.493C139.648 344.445 139.632 344.396 139.6 344.359C139.568 344.322 139.523 344.299 139.474 344.295C139.425 344.292 139.377 344.307 139.34 344.339C135.74 346.879 131.77 348.409 127.79 350.129C128.69 348.469 129.59 346.809 130.52 345.129C130.77 344.669 130.14 344.219 129.83 344.659C126.284 349.817 123.08 355.202 120.24 360.779C119.511 355.892 119.277 350.944 119.54 346.009C119.54 345.889 119.36 345.879 119.35 346.009C118.503 351.387 118.557 356.869 119.51 362.229C117.14 366.959 114.99 371.799 113.05 376.709C112.28 373.709 111.28 370.859 110.61 367.889C109.579 363.638 109.241 359.248 109.61 354.889C109.61 354.759 109.43 354.749 109.41 354.889C108.217 362.954 109.197 371.19 112.25 378.749C111.12 381.699 110.04 384.669 109.05 387.629C103.949 402.771 100.921 418.535 100.05 434.489C100.063 434.556 100.098 434.616 100.15 434.659C100.202 434.702 100.267 434.726 100.335 434.726C100.403 434.726 100.468 434.702 100.52 434.659C100.572 434.616 100.608 434.556 100.62 434.489C102.391 418.753 105.766 403.24 110.69 388.189C112.64 382.299 114.9 376.579 117.37 370.969C121.37 369.789 125.37 368.189 129.25 366.839C133.13 365.489 136.99 363.979 140.25 361.469C140.258 361.448 140.261 361.425 140.258 361.403C140.256 361.38 140.248 361.359 140.235 361.34C140.222 361.322 140.205 361.306 140.185 361.296C140.165 361.285 140.143 361.279 140.12 361.279Z" fill="#263238"/>
<path d="M146.41 354.93C142.28 356.39 138.41 358.45 134.24 359.93C134.05 360 134.16 360.31 134.36 360.27C138.72 359.36 143.05 358.01 146.57 355.15C146.71 355.05 146.56 354.87 146.41 354.93Z" fill="#263238"/>
<path d="M112.69 346C112.69 345.79 112.42 345.66 112.35 345.88C111.22 349.69 110.44 353.73 111.54 357.62C111.549 357.652 111.567 357.68 111.594 357.7C111.62 357.72 111.652 357.731 111.685 357.731C111.718 357.731 111.75 357.72 111.777 357.7C111.803 357.68 111.822 357.652 111.83 357.62C112 353.69 111.81 349.88 112.69 346Z" fill="#263238"/>
<path d="M129.76 337.219C128.437 339.106 127.801 341.39 127.96 343.689C127.96 343.839 128.2 343.919 128.24 343.749C128.75 341.569 129.59 339.589 130.24 337.469C130.253 337.409 130.247 337.346 130.221 337.29C130.195 337.234 130.151 337.188 130.096 337.16C130.041 337.131 129.979 337.121 129.918 337.132C129.857 337.143 129.802 337.174 129.76 337.219Z" fill="#263238"/>
<path d="M50.0001 391.719C52.0001 397.999 56.6901 406.719 64.1401 406.719C68.9701 406.719 73.8301 406.189 78.6701 406.119C83.8501 406.039 89.0501 406.049 94.2201 406.359C94.6501 406.359 93.6001 390.839 81.1401 383.269C77.6501 381.149 73.3801 380.469 69.4201 379.619C64.8881 378.544 60.2365 378.056 55.5801 378.169C52.7101 378.289 50.3301 378.899 49.3101 381.829C48.2901 384.759 49.0501 388.729 50.0001 391.719Z" fill="#3C72EB"/>
<path d="M55.3601 383.86C58.3601 384.63 61.4501 385.53 64.4801 386.49C63.6993 385.615 62.8714 384.784 62.0001 384C60.7001 382.92 59.2601 382 57.8601 381.1C57.7401 381.02 57.8601 380.8 57.9701 380.86C60.9161 382.08 63.4595 384.103 65.3101 386.7C69.1001 387.92 72.8501 389.27 76.4601 390.76C78.957 391.778 81.3483 393.037 83.6001 394.52C82.8742 392.947 82.0108 391.441 81.0201 390.02C79.3601 387.88 77.1301 386.68 74.9601 385.16C74.9164 385.133 74.8849 385.091 74.8728 385.041C74.8606 384.991 74.8686 384.939 74.8951 384.895C74.9217 384.851 74.9645 384.82 75.0142 384.807C75.0639 384.795 75.1164 384.803 75.1601 384.83C77.4237 385.813 79.4567 387.259 81.1289 389.074C82.801 390.889 84.0754 393.033 84.8701 395.37C87.4688 397.227 89.8416 399.382 91.9401 401.79C100.18 411.15 106.68 423.61 106.7 436.32C106.7 436.62 106.21 436.71 106.16 436.39C104.024 423.938 98.5805 412.288 90.4001 402.66C89.8101 401.98 89.2101 401.32 88.5901 400.66C86.3323 400.355 84.0583 400.184 81.7801 400.15C79.1301 400.15 76.5001 400.54 73.8601 400.76C69.5101 401.11 64.7001 401.16 60.7701 398.97C60.6001 398.88 60.7201 398.57 60.9101 398.64C69.6601 401.83 78.8301 397.79 87.6001 399.69C83.856 396.118 79.4685 393.288 74.6701 391.35L73.8601 391.03C68.2501 391.7 62.3201 393.16 56.8601 391.34C56.8257 391.331 56.7963 391.308 56.7785 391.277C56.7606 391.246 56.7559 391.209 56.7651 391.175C56.7744 391.14 56.797 391.111 56.828 391.093C56.8589 391.075 56.8957 391.071 56.9301 391.08C62.2101 392.4 67.2801 390.74 72.4901 390.48C66.8101 388.27 61.0301 386.48 55.3301 384.31C54.8601 384.16 54.8401 383.72 55.3601 383.86Z" fill="#263238"/>
<path d="M52.89 389.379C55.5999 389.736 58.3273 389.943 61.06 389.999C61.0759 389.999 61.0912 390.006 61.1024 390.017C61.1137 390.028 61.12 390.043 61.12 390.059C61.12 390.075 61.1137 390.091 61.1024 390.102C61.0912 390.113 61.0759 390.119 61.06 390.119C58.3115 390.623 55.4814 390.441 52.82 389.589C52.69 389.549 52.75 389.359 52.89 389.379Z" fill="#263238"/>
<path d="M71.34 383.999C72.8342 384.683 74.1901 385.635 75.34 386.809C75.49 386.939 75.34 387.199 75.14 387.079C74.45 386.579 73.75 386.079 73.03 385.649C72.3407 385.274 71.6729 384.86 71.03 384.409C70.9756 384.368 70.9398 384.307 70.9304 384.24C70.921 384.172 70.9389 384.104 70.98 384.049C71.0211 383.995 71.0821 383.959 71.1496 383.95C71.2171 383.94 71.2856 383.958 71.34 383.999Z" fill="#263238"/>
<path d="M115.33 404.219C115.24 404.429 115.54 404.619 115.65 404.409C115.672 404.441 115.7 404.468 115.733 404.488C115.766 404.509 115.802 404.523 115.84 404.529C120.854 405.728 125.937 406.617 131.06 407.189C135.18 407.549 139.93 407.779 143.54 405.389C148.42 402.149 151.64 393.489 149 387.979C145.87 381.449 136.45 384.979 131.73 387.319C124.46 390.868 118.659 396.846 115.33 404.219Z" fill="#3C72EB"/>
<path d="M111.68 407.24C114.426 404.585 117.477 402.265 120.77 400.33C123.137 396.574 126.281 393.368 129.99 390.93C130.16 390.81 130.32 391.09 130.15 391.22C127.205 393.579 124.595 396.327 122.39 399.39C126.058 397.384 129.868 395.649 133.79 394.2C135.191 391.602 137.317 389.469 139.91 388.06C139.96 388.06 140.03 388.11 139.98 388.15C137.838 389.775 135.971 391.733 134.45 393.95C136.76 393.09 139.1 392.28 141.45 391.51C141.66 391.44 141.74 391.76 141.54 391.84C137.38 393.46 133.12 395.18 129 397.16C134.034 397.948 139.161 397.931 144.19 397.11C144.33 397.11 144.39 397.29 144.25 397.33C139 398.883 133.424 398.966 128.13 397.57C125.499 398.846 122.945 400.275 120.48 401.85C122.554 401.677 124.642 401.849 126.66 402.36C130.22 403.187 133.865 403.6 137.52 403.59C137.66 403.59 137.7 403.81 137.52 403.83C131.22 404.92 125.26 402.05 119.02 402.83C116.699 404.406 114.521 406.183 112.51 408.14C108.619 412.033 105.413 416.557 103.03 421.52C100.4 426.87 99.03 432.52 96.85 438.07C96.8354 438.121 96.8009 438.165 96.754 438.191C96.7071 438.218 96.6517 438.224 96.6 438.21C96.5483 438.195 96.5045 438.16 96.4782 438.114C96.452 438.067 96.4454 438.011 96.46 437.96C98.31 427 103.74 415 111.68 407.24Z" fill="#263238"/>
<path d="M130.68 392.299C131.096 391.544 131.641 390.867 132.29 390.299C132.821 389.727 133.451 389.257 134.15 388.909C134.22 388.909 134.25 388.969 134.21 389.019C133.7 389.599 132.98 390.019 132.42 390.589C131.86 391.159 131.42 391.819 130.83 392.369C130.817 392.381 130.801 392.389 130.783 392.391C130.766 392.394 130.748 392.391 130.732 392.384C130.716 392.376 130.702 392.364 130.693 392.349C130.684 392.334 130.679 392.317 130.68 392.299Z" fill="#263238"/>
<path d="M141.07 395.679C142 395.449 142.99 395.469 143.94 395.269C144.884 395.043 145.816 394.766 146.73 394.439C146.755 394.435 146.781 394.439 146.803 394.451C146.825 394.464 146.842 394.483 146.852 394.507C146.861 394.53 146.862 394.556 146.854 394.58C146.847 394.604 146.831 394.625 146.81 394.639C145.094 395.7 143.078 396.17 141.07 395.979C141.04 395.968 141.013 395.947 140.994 395.921C140.976 395.894 140.966 395.862 140.966 395.829C140.966 395.797 140.976 395.765 140.994 395.738C141.013 395.711 141.04 395.691 141.07 395.679Z" fill="#263238"/>
<path d="M85.72 424.5L86.55 433.89L89.36 465.6H114.19L117.69 433.89L118.73 424.5H85.72Z" fill="#37474F"/>
<path d="M85.72 424.5L86.55 433.89H117.69L118.73 424.5H85.72Z" fill="#263238"/>
<path d="M83.2702 429.56H121.19V421.94H83.2702V429.56Z" fill="#37474F"/>
<path d="M402.49 311.23V297.2H250V269H402.49V254.99L451.19 283.1L402.49 311.23Z" fill="#3C72EB"/>
<g opacity="0.4">
<path d="M402.49 311.23V297.2H250V269H402.49V254.99L451.19 283.1L402.49 311.23Z" fill="black"/>
</g>
<path d="M250 297.2C219.446 297.184 189.906 286.236 166.723 266.334C143.539 246.432 128.243 218.891 123.6 188.692C118.958 158.493 125.275 127.629 141.41 101.683C157.544 75.7365 182.431 56.4203 211.57 47.2279C240.708 38.0355 272.174 39.5736 300.277 51.5642C328.38 63.5548 351.264 85.2061 364.792 112.603C378.319 139.999 381.596 171.332 374.03 200.934C366.463 230.536 348.554 256.454 323.54 274C302.012 289.145 276.321 297.25 250 297.2ZM250 69.5898C227.321 69.5916 205.32 77.3257 187.628 91.5157C169.936 105.706 157.611 125.503 152.687 147.642C147.762 169.78 150.533 192.935 160.541 213.287C170.549 233.639 187.197 249.97 207.737 259.585C228.277 269.201 251.482 271.526 273.521 266.177C295.561 260.829 315.118 248.126 328.966 230.165C342.813 212.204 350.124 190.058 349.69 167.383C349.256 144.708 341.104 122.858 326.58 105.44C317.212 94.2297 305.5 85.21 292.269 79.016C279.038 72.822 264.609 69.6044 250 69.5898Z" fill="#3C72EB"/>
<path opacity="0.4" d="M250 297.2C219.446 297.184 189.906 286.236 166.723 266.334C143.539 246.432 128.243 218.891 123.6 188.692C118.958 158.493 125.275 127.629 141.41 101.683C157.544 75.7365 182.431 56.4203 211.57 47.2279C240.708 38.0355 272.174 39.5736 300.277 51.5642C328.38 63.5548 351.264 85.2061 364.792 112.603C378.319 139.999 381.596 171.332 374.03 200.934C366.463 230.536 348.554 256.454 323.54 274C302.012 289.145 276.321 297.25 250 297.2ZM250 69.5898C227.321 69.5916 205.32 77.3257 187.628 91.5157C169.936 105.706 157.611 125.503 152.687 147.642C147.762 169.78 150.533 192.935 160.541 213.287C170.549 233.639 187.197 249.97 207.737 259.585C228.277 269.201 251.482 271.526 273.521 266.177C295.561 260.829 315.118 248.126 328.966 230.165C342.813 212.204 350.124 190.058 349.69 167.383C349.256 144.708 341.104 122.858 326.58 105.44C317.212 94.2297 305.5 85.21 292.269 79.016C279.038 72.822 264.609 69.6044 250 69.5898Z" fill="black"/>
<path d="M377.91 169.3C377.913 186.098 374.606 202.732 368.179 218.251C361.751 233.77 352.33 247.871 340.451 259.749C328.573 271.626 314.471 281.047 298.951 287.473C283.432 293.899 266.798 297.204 250 297.2V269C267.865 268.982 285.396 264.162 300.759 255.044C316.122 245.927 328.752 232.847 337.327 217.174C345.902 201.502 350.106 183.813 349.5 165.958C348.893 148.103 343.499 130.74 333.881 115.685C324.263 100.631 310.775 88.438 294.828 80.3837C278.882 72.3294 261.064 68.7095 243.239 69.903C225.414 71.0964 208.238 77.0593 193.508 87.1676C178.778 97.2758 167.035 111.158 159.51 127.36L172.35 132.07L129.19 168.07L119.55 112.67L133 117.62C144.831 90.7422 165.549 68.7532 191.676 55.3454C217.803 41.9377 247.748 37.9277 276.482 43.9889C305.217 50.05 330.991 65.8132 349.476 88.6316C367.962 111.45 378.034 139.934 378 169.3H377.91Z" fill="#3C72EB"/>
<g opacity="0.3">
<path d="M377.91 169.3C377.913 186.098 374.606 202.732 368.179 218.251C361.751 233.77 352.33 247.871 340.451 259.749C328.573 271.626 314.471 281.047 298.951 287.473C283.432 293.899 266.798 297.204 250 297.2V269C267.865 268.982 285.396 264.162 300.759 255.044C316.122 245.927 328.752 232.847 337.327 217.174C345.902 201.502 350.106 183.813 349.5 165.958C348.893 148.103 343.499 130.74 333.881 115.685C324.263 100.631 310.775 88.438 294.828 80.3837C278.882 72.3294 261.064 68.7095 243.239 69.903C225.414 71.0964 208.238 77.0593 193.508 87.1676C178.778 97.2758 167.035 111.158 159.51 127.36L172.35 132.07L129.19 168.07L119.55 112.67L133 117.62C144.831 90.7422 165.549 68.7532 191.676 55.3454C217.803 41.9377 247.748 37.9277 276.482 43.9889C305.217 50.05 330.991 65.8132 349.476 88.6316C367.962 111.45 378.034 139.934 378 169.3H377.91Z" fill="black"/>
</g>
<path d="M377.91 169.3C377.913 186.098 374.606 202.731 368.179 218.251C361.751 233.77 352.33 247.871 340.451 259.748C328.573 271.626 314.471 281.046 298.952 287.472C283.432 293.898 266.798 297.204 250 297.2V269C263.178 269.132 276.251 266.65 288.463 261.699C300.676 256.748 311.786 249.424 321.15 240.153C330.515 230.881 337.949 219.845 343.023 207.683C348.096 195.521 350.709 182.473 350.709 169.295C350.709 156.117 348.096 143.069 343.023 130.907C337.949 118.745 330.515 107.709 321.15 98.4372C311.786 89.1657 300.676 81.8424 288.463 76.891C276.251 71.9395 263.178 69.458 250 69.59C245.991 69.5893 241.985 69.813 238 70.26L240.67 83.66L187.43 65.59L229.7 28.5L232.49 42.5C238.297 41.7499 244.146 41.3791 250 41.39C266.798 41.3874 283.432 44.6941 298.952 51.1212C314.472 57.5484 328.574 66.9701 340.452 78.8481C352.33 90.7262 361.752 104.828 368.179 120.348C374.606 135.868 377.913 152.502 377.91 169.3Z" fill="#3C72EB"/>
<g opacity="0.2">
<path d="M377.91 169.3C377.913 186.098 374.606 202.731 368.179 218.251C361.751 233.77 352.33 247.871 340.451 259.748C328.573 271.626 314.471 281.046 298.952 287.472C283.432 293.898 266.798 297.204 250 297.2V269C263.178 269.132 276.251 266.65 288.463 261.699C300.676 256.748 311.786 249.424 321.15 240.153C330.515 230.881 337.949 219.845 343.023 207.683C348.096 195.521 350.709 182.473 350.709 169.295C350.709 156.117 348.096 143.069 343.023 130.907C337.949 118.745 330.515 107.709 321.15 98.4372C311.786 89.1657 300.676 81.8424 288.463 76.891C276.251 71.9395 263.178 69.458 250 69.59C245.991 69.5893 241.985 69.813 238 70.26L240.67 83.66L187.43 65.59L229.7 28.5L232.49 42.5C238.297 41.7499 244.146 41.3791 250 41.39C266.798 41.3874 283.432 44.6941 298.952 51.1212C314.472 57.5484 328.574 66.9701 340.452 78.8481C352.33 90.7262 361.752 104.828 368.179 120.348C374.606 135.868 377.913 152.502 377.91 169.3Z" fill="black"/>
</g>
<path d="M377.91 169.3C377.913 186.097 374.606 202.731 368.179 218.25C361.751 233.77 352.329 247.871 340.451 259.748C328.573 271.625 314.471 281.046 298.951 287.472C283.432 293.898 266.798 297.204 250 297.2V269C268.252 269.001 286.154 263.993 301.754 254.519C317.355 245.046 330.055 231.471 338.471 215.275C346.886 199.08 350.694 180.884 349.479 162.673C348.264 144.462 342.073 126.934 331.58 112L321.09 120.76L311.46 65.3496L364.26 84.7096L353.26 93.8796C369.258 115.774 377.89 142.183 377.91 169.3Z" fill="#3C72EB"/>
<g opacity="0.1">
<path d="M377.91 169.3C377.913 186.097 374.606 202.731 368.179 218.25C361.751 233.77 352.329 247.871 340.451 259.748C328.573 271.625 314.471 281.046 298.951 287.472C283.432 293.898 266.798 297.204 250 297.2V269C268.252 269.001 286.154 263.993 301.754 254.519C317.355 245.046 330.055 231.471 338.471 215.275C346.886 199.08 350.694 180.884 349.479 162.673C348.264 144.462 342.073 126.934 331.58 112L321.09 120.76L311.46 65.3496L364.26 84.7096L353.26 93.8796C369.258 115.774 377.89 142.183 377.91 169.3Z" fill="black"/>
</g>
<path d="M379.9 227.12L366.54 222.07C356.391 244.469 340 263.468 319.331 276.793C298.663 290.118 274.592 297.203 250 297.2H48.8101V269H250C268.861 269.003 287.336 263.657 303.282 253.584C319.228 243.511 331.991 229.123 340.09 212.09L327.29 207.26L370.8 171.63L379.9 227.12Z" fill="#3C72EB"/>
<path d="M184.89 127.43C167.6 137.21 136.15 166.96 138.46 175.23C143.12 191.91 169.68 213.23 175.23 217.72C178.47 220.35 191.72 190.85 188.67 187.6C185.12 183.8 169.99 173.46 169.94 171.43C169.89 169.89 182.49 153.35 191.78 139.28C202.55 123 193.13 122.77 184.89 127.43Z" fill="#EB9481"/>
<path d="M170.92 212.87C173.31 215.76 185.43 228.01 189.56 230.67C193.69 233.33 206.15 240.11 208.5 237.15C210.85 234.19 207.37 231.91 207.37 231.91C207.37 231.91 213.08 233.91 215.18 230.75C217.28 227.59 211.74 224.19 211.74 224.19C211.74 224.19 217.74 225.84 219.63 222.51C221.52 219.18 215.35 216.72 215.35 216.72C215.35 216.72 220.79 218.49 221.17 215.1C221.63 211.01 211.24 208.88 206.9 205.6C205.9 204.86 187.98 189.1 187.98 189.1L170.92 212.87Z" fill="#EB9481"/>
<path d="M215.88 216.94C208.25 215.35 205.18 213.34 199.67 208C199.56 207.9 199.38 208 199.48 208.16C204.41 213.87 207.89 216.95 215.82 217.32C216.21 217.33 216.24 217 215.88 216.94Z" fill="#263238"/>
<path d="M212.35 224.3C204.57 221.96 201.23 219.8 195.04 214.64C194.95 214.57 194.82 214.71 194.9 214.79C200.55 220.36 204.09 223.36 212.17 224.68C212.54 224.74 212.71 224.41 212.35 224.3Z" fill="#263238"/>
<path d="M207.06 231.64C199.69 228.82 195.93 226.64 190.56 220.84C190.536 220.811 190.501 220.793 190.464 220.789C190.426 220.785 190.389 220.796 190.36 220.82C190.331 220.844 190.312 220.879 190.308 220.916C190.305 220.954 190.316 220.991 190.34 221.02C195.24 227.45 199.92 230.24 206.95 231.85C207.44 232 207.53 231.81 207.06 231.64Z" fill="#263238"/>
<path d="M184.52 185.63C184.52 185.63 194.28 185.82 198.52 186.85C202.76 187.88 217.3 197.58 215.38 200.85C212.91 205.05 203.43 201.1 199.04 198.56C199.04 198.56 193.33 208.28 185.92 206.92C178.51 205.56 184.52 185.63 184.52 185.63Z" fill="#EB9481"/>
<path d="M214.36 201.76C209.36 203.96 203.79 200.26 199.36 198.11C199.296 198.076 199.225 198.057 199.153 198.056C199.081 198.055 199.009 198.071 198.944 198.103C198.879 198.136 198.823 198.183 198.781 198.242C198.738 198.3 198.711 198.369 198.7 198.44C196.03 202.36 191.13 207.1 186.13 207.15C186.105 207.158 186.084 207.173 186.068 207.194C186.053 207.214 186.044 207.239 186.044 207.265C186.044 207.291 186.053 207.316 186.068 207.337C186.084 207.358 186.105 207.373 186.13 207.38C191.5 208.05 196.7 203.79 199.34 199.31C203.87 201.58 209.59 205.06 214.41 201.81L214.36 201.76Z" fill="#263238"/>
<path d="M187.89 183.75L167.64 214C167.64 214 135.45 184.19 137.24 173.16C139.03 162.13 167.45 136.16 182.97 127.51C198.49 118.86 199.83 127.71 192.91 139.34C185.99 150.97 170.91 171.48 171.17 172.05C171.43 172.62 187.89 183.75 187.89 183.75Z" fill="#455A64"/>
<path d="M172.84 200.11C174.68 198.38 176.49 196.61 178.29 194.84C179.16 193.99 180.04 193.14 180.88 192.26C181.72 191.38 182.78 190.42 183.61 189.41C183.67 189.34 183.61 189.25 183.52 189.31C182.46 190.08 181.52 191.02 180.52 191.87C179.52 192.72 178.7 193.47 177.79 194.29C175.92 195.98 174.04 197.68 172.2 199.41C168.52 202.9 164.95 206.47 161.41 210.1C161.396 210.106 161.383 210.116 161.374 210.129C161.364 210.141 161.358 210.156 161.355 210.171C161.352 210.187 161.353 210.202 161.357 210.218C161.362 210.233 161.369 210.246 161.38 210.258C161.391 210.269 161.404 210.278 161.419 210.284C161.433 210.289 161.449 210.291 161.465 210.289C161.48 210.287 161.495 210.282 161.508 210.273C161.521 210.265 161.532 210.253 161.54 210.24C165.36 206.93 169.14 203.58 172.84 200.11Z" fill="#263238"/>
<path d="M192.92 139.34C186 150.97 170.92 171.48 171.17 172.05C171.42 172.62 187.9 183.75 187.9 183.75L167.64 214C167.64 214 142.35 190.57 137.85 177.57L193.85 124.14C198.49 125 197.57 131.51 192.92 139.34Z" fill="#37474F"/>
<path d="M143.21 392.85C143.21 392.85 142.14 440.75 142.14 440.78C142.41 449.62 142.79 457.38 143.37 461.37C143.365 461.389 143.365 461.41 143.37 461.43C143.406 462.377 143.656 463.303 144.1 464.14L144.16 464.2C146.84 465.9 217.6 465.86 220.07 465.02C222.54 464.18 220.36 457.09 217.61 454.9C214.86 452.71 187.75 440.62 187.75 440.62L187.25 392.76L143.21 392.85Z" fill="#EB9481"/>
<path d="M142.35 431.279C142.35 431.279 142.14 440.749 142.14 440.779C142.41 449.619 142.79 457.379 143.37 461.369C143.365 461.389 143.365 461.41 143.37 461.429C143.504 462.359 143.749 463.269 144.1 464.139L144.16 464.199C146.84 465.899 217.6 465.859 220.07 465.019C222.54 464.179 220.36 457.089 217.61 454.899C214.86 452.709 187.75 440.619 187.75 440.619L187.55 430.979L142.35 431.279Z" fill="white"/>
<path d="M192.1 440.53C187.37 439.88 181.67 440.87 178.25 444.38C178.11 444.52 178.31 444.71 178.46 444.65C182.871 442.989 187.447 441.806 192.11 441.12C192.179 441.106 192.24 441.068 192.284 441.014C192.328 440.959 192.352 440.891 192.35 440.82C192.349 440.75 192.324 440.683 192.278 440.63C192.232 440.577 192.169 440.541 192.1 440.53Z" fill="#263238"/>
<path d="M195.58 442.41C190.85 441.75 185.15 442.75 181.73 446.26C181.59 446.4 181.79 446.58 181.94 446.53C186.351 444.871 190.927 443.687 195.59 443C195.659 442.986 195.721 442.949 195.765 442.894C195.808 442.84 195.832 442.771 195.831 442.701C195.83 442.631 195.804 442.564 195.758 442.51C195.712 442.457 195.649 442.422 195.58 442.41Z" fill="#263238"/>
<path d="M199.06 444.28C194.33 443.63 188.63 444.63 185.21 448.14C185.08 448.27 185.27 448.46 185.42 448.41C189.83 446.746 194.406 445.562 199.07 444.88C199.15 444.878 199.225 444.845 199.281 444.788C199.336 444.731 199.366 444.654 199.365 444.575C199.364 444.495 199.331 444.419 199.274 444.364C199.216 444.309 199.14 444.278 199.06 444.28Z" fill="#263238"/>
<path d="M220.08 465C217.61 465.84 146.86 465.89 144.17 464.18C143.17 463.54 142.52 453.24 142.17 440.76C142.17 440.63 142.17 440.5 142.17 440.37L187.81 439.83V440.6C187.81 440.6 214.9 452.7 217.66 454.89C220.42 457.08 222.55 464.2 220.08 465Z" fill="#37474F"/>
<path d="M142.13 440.38V440.78C142.52 453.26 143.13 463.57 144.13 464.2C145.34 464.97 160.69 465.39 177.27 465.54C197.11 465.71 218.7 465.48 220.04 465.03C222.51 464.2 220.32 457.09 217.58 454.9C214.84 452.71 187.73 440.62 187.73 440.62V439.85L172.5 440.03L142.13 440.38Z" fill="#3C72EB"/>
<path d="M219.28 462.28C207.35 462 159.22 461.97 147.41 462.6C147.31 462.6 147.31 462.67 147.41 462.67C159.22 463.21 207.35 462.85 219.28 462.48C219.53 462.47 219.53 462.29 219.28 462.28Z" fill="#263238"/>
<path opacity="0.1" d="M172.56 440C173.88 447.61 175.88 458.83 177.31 465.51C197.15 465.68 218.74 465.45 220.08 465C222.55 464.17 220.36 457.06 217.62 454.87C214.88 452.68 187.77 440.59 187.77 440.59V439.82L172.56 440Z" fill="black"/>
<path d="M138.73 440.2L189.91 440.69C189.91 440.69 191.2 351.42 191.43 323.63C191.68 291.89 189.88 196.63 189.88 196.63H151.61C151.61 196.63 141.34 217.63 147.21 241.23L148.83 326.23L138.73 440.2Z" fill="#263238"/>
<path d="M142.52 431.24C143.873 431.058 145.235 430.952 146.6 430.92C148.11 430.81 149.6 430.7 151.14 430.63C154.05 430.51 156.96 430.46 159.87 430.45C165.75 430.45 171.63 430.45 177.5 430.65C180.85 430.76 184.19 430.89 187.5 431.08C187.522 431.087 187.542 431.101 187.556 431.12C187.57 431.139 187.577 431.162 187.577 431.185C187.577 431.209 187.57 431.231 187.556 431.25C187.542 431.269 187.522 431.283 187.5 431.29C181.67 431.5 175.84 431.6 170.02 431.71C164.2 431.82 158.36 431.93 152.54 431.82C150.87 431.82 149.2 431.82 147.54 431.68C145.88 431.54 144.17 431.68 142.54 431.44C142.45 431.42 142.41 431.26 142.52 431.24Z" fill="#37474F"/>
<path d="M185.23 384.24C185.82 370.46 185.65 351.74 186.03 337.95C186.79 310.383 186.99 282.8 186.63 255.2C186.43 239.73 186.02 224.25 185.56 208.78C185.56 208.61 185.82 208.62 185.83 208.78C187.29 236.47 187.83 264.22 187.83 291.96C187.83 319.54 187.9 352.07 186.54 379.62C185.77 395.09 185.83 411.56 184.38 426.98C184.38 427.11 184.16 427.11 184.17 426.98C184.84 413.07 184.63 398.16 185.23 384.24Z" fill="#37474F"/>
<path d="M197.2 393.71C197.2 393.71 197.59 439.98 197.59 440.02C197.59 448.87 197.8 456.63 198.27 460.63C198.266 460.653 198.266 460.677 198.27 460.7C198.275 461.649 198.501 462.583 198.93 463.43L198.98 463.48C201.62 465.26 272.35 467.09 274.84 466.33C277.33 465.57 275.34 458.41 272.65 456.15C269.96 453.89 243.19 441.07 243.19 441.07L242.36 394.82L197.2 393.71Z" fill="#EB9481"/>
<path d="M197.51 430.52C197.51 430.52 197.59 439.98 197.59 440.02C197.59 448.87 197.8 456.63 198.27 460.63C198.266 460.653 198.266 460.676 198.27 460.7C198.38 461.633 198.601 462.549 198.93 463.43L198.98 463.48C201.62 465.26 272.35 467.09 274.84 466.33C277.33 465.57 275.34 458.41 272.65 456.15C269.96 453.89 243.19 441.07 243.19 441.07L243.24 431.43L197.51 430.52Z" fill="white"/>
<path d="M247.53 441.1C242.82 440.32 237.1 441.16 233.58 444.58C233.45 444.72 233.64 444.91 233.79 444.86C238.243 443.314 242.85 442.252 247.53 441.69C247.599 441.677 247.661 441.64 247.706 441.586C247.751 441.533 247.775 441.465 247.775 441.395C247.775 441.324 247.751 441.257 247.706 441.203C247.661 441.149 247.599 441.112 247.53 441.1Z" fill="#263238"/>
<path d="M251 443.07C246.29 442.29 240.57 443.13 237 446.55C236.87 446.68 237.06 446.88 237.21 446.82C241.681 445.28 246.304 444.22 251 443.66C251.069 443.648 251.131 443.611 251.176 443.557C251.221 443.503 251.245 443.435 251.245 443.365C251.245 443.295 251.221 443.227 251.176 443.173C251.131 443.12 251.069 443.083 251 443.07Z" fill="#263238"/>
<path d="M254.39 445C249.68 444.23 243.96 445.07 240.44 448.49C240.31 448.62 240.5 448.81 240.65 448.76C245.105 447.222 249.711 446.163 254.39 445.6C254.469 445.6 254.546 445.568 254.602 445.512C254.658 445.455 254.69 445.379 254.69 445.3C254.69 445.22 254.658 445.144 254.602 445.087C254.546 445.031 254.469 445 254.39 445Z" fill="#263238"/>
<path d="M274.85 466.33C272.36 467.1 201.63 465.26 198.99 463.48C197.99 462.82 197.64 452.48 197.59 440.02V439.63L243.24 440.3V441.07C243.24 441.07 270 453.89 272.7 456.15C275.4 458.41 277.35 465.57 274.85 466.33Z" fill="#3C72EB"/>
<path d="M274.12 463.57C262.21 462.96 214.12 461.66 202.27 461.97C202.18 461.97 202.17 462.04 202.27 462.04C214.07 462.9 262.19 463.81 274.12 463.76C274.37 463.76 274.38 463.58 274.12 463.57Z" fill="#263238"/>
<path d="M173.81 245.65C173.81 245.65 194.81 311.83 195.19 324C195.51 334.37 194.19 440.78 194.19 440.78L247.34 441.1C247.34 441.1 242.85 332.58 242 321.77C240.45 301.56 222.75 246.09 210.09 196.66H152.8C152.8 196.66 153.3 222.55 165.07 241.26C165.07 241.26 170.4 243.73 173.81 245.65Z" fill="#263238"/>
<path d="M197 431C203.14 430.82 209.51 430.64 215.65 430.8C221.79 430.96 227.85 431.04 233.93 431.4C237.38 431.61 240.83 431.72 244.27 432.06C244.29 432.067 244.307 432.08 244.32 432.097C244.332 432.114 244.339 432.134 244.339 432.155C244.339 432.176 244.332 432.197 244.32 432.214C244.307 432.231 244.29 432.244 244.27 432.25C238.13 432.61 231.97 432.54 225.82 432.48C219.67 432.42 213.63 432.36 207.54 432.08C204.09 431.92 200.64 431.75 197.2 431.51C196.84 431.46 196.64 431 197 431Z" fill="#37474F"/>
<path d="M208.63 227.85C210.53 234.17 212.13 240.59 213.82 246.97C215.51 253.35 217.24 259.83 218.93 266.27C222.21 278.72 225.44 291.19 227.93 303.83C230.439 316.519 231.861 329.399 232.18 342.33C232.46 355.5 232.18 368.7 232.1 381.88C232.02 395.06 231.9 408.37 231.67 421.62C231.67 423.27 231.6 424.92 231.54 426.56C231.54 426.592 231.527 426.622 231.505 426.645C231.482 426.667 231.452 426.68 231.42 426.68C231.388 426.68 231.357 426.667 231.335 426.645C231.312 426.622 231.3 426.592 231.3 426.56C230.95 413.38 231.13 400.18 231.18 387C231.23 373.82 231.39 360.62 231.28 347.44C231.233 334.369 230.102 321.324 227.9 308.44C225.68 295.75 222.55 283.25 219.31 270.8C217.47 263.69 215.6 256.59 213.76 249.48C211.92 242.37 209.91 235.19 208.28 227.98C208.28 227.94 208.293 227.9 208.316 227.867C208.339 227.834 208.372 227.809 208.41 227.795C208.448 227.781 208.489 227.778 208.529 227.788C208.568 227.798 208.603 227.82 208.63 227.85Z" fill="#37474F"/>
<path d="M187 246.93C184.355 246.911 181.715 246.67 179.11 246.21C176.524 245.639 173.971 244.931 171.46 244.09C168.988 243.528 166.483 243.12 163.96 242.87C161.417 242.501 158.94 241.763 156.61 240.68C156.5 240.62 156.41 240.79 156.52 240.84C158.765 242.051 161.106 243.074 163.52 243.9C166.04 244.69 168.68 244.8 171.23 245.43C173.813 246.197 176.441 246.801 179.1 247.24C181.724 247.558 184.379 247.511 186.99 247.1C187.09 247.09 187.06 246.93 187 246.93Z" fill="#37474F"/>
<path d="M190.31 299.58C189.81 297.58 189.31 295.65 188.8 293.7C187.73 289.75 186.63 285.79 185.44 281.88C183.07 274.09 180.83 266.26 178.32 258.52C176.89 254.13 175.62 249.68 173.95 245.37C173.942 245.347 173.925 245.329 173.904 245.318C173.882 245.308 173.858 245.307 173.835 245.315C173.813 245.323 173.794 245.339 173.784 245.361C173.773 245.382 173.772 245.407 173.78 245.43C174.62 249.43 175.78 253.37 176.87 257.33C177.96 261.29 179.07 265.22 180.21 269.15C182.48 276.97 184.7 284.8 187.21 292.56C187.91 294.73 188.62 296.9 189.37 299.06C190.12 301.22 190.74 303.53 191.66 305.68C191.67 305.703 191.688 305.722 191.71 305.732C191.733 305.743 191.759 305.744 191.783 305.737C191.806 305.729 191.827 305.713 191.839 305.691C191.852 305.67 191.855 305.644 191.85 305.62C191.46 303.58 190.83 301.59 190.31 299.58Z" fill="#37474F"/>
<path d="M301.58 193.47L306.64 178.38L295.4 173.61C296.014 167.651 295.464 161.629 293.78 155.88L304 149.73L297 135.47L285.67 140C281.923 135.248 277.278 131.28 272 128.32L274.84 117.06L259.77 112L255.23 122.69C249.031 121.875 242.732 122.32 236.71 124L231.11 114.64L216.86 121.72L220.94 131.82C215.774 135.709 211.491 140.647 208.37 146.31L198.43 143.81L193.36 158.91L202.92 162.97C202.069 169.493 202.632 176.123 204.57 182.41L196 187.51L203 201.76L212.68 197.85C216.748 202.968 221.862 207.158 227.68 210.14L225.15 220.2L240.24 225.26L244.54 215.14C250.834 215.747 257.187 215.066 263.21 213.14L268.88 222.63L283.15 215.55L278.75 204.65C283.465 200.774 287.361 195.998 290.21 190.6L301.58 193.47ZM243.06 191.25C238.584 189.877 234.616 187.208 231.657 183.581C228.698 179.953 226.882 175.529 226.437 170.869C225.992 166.208 226.94 161.521 229.159 157.399C231.378 153.277 234.77 149.906 238.906 147.711C243.041 145.517 247.734 144.598 252.392 145.071C257.049 145.544 261.462 147.388 265.072 150.369C268.681 153.35 271.326 157.334 272.672 161.818C274.017 166.302 274.002 171.084 272.63 175.56C271.719 178.532 270.231 181.295 268.251 183.692C266.272 186.089 263.84 188.072 261.094 189.529C258.349 190.986 255.343 191.888 252.248 192.183C249.154 192.479 246.032 192.161 243.06 191.25Z" fill="#DBDBDB"/>
<path d="M244.08 187.92C240.265 186.748 236.883 184.472 234.362 181.378C231.841 178.285 230.294 174.514 229.915 170.541C229.537 166.569 230.346 162.573 232.238 159.06C234.13 155.546 237.022 152.673 240.547 150.803C244.072 148.932 248.073 148.149 252.043 148.552C256.013 148.956 259.775 150.527 262.852 153.067C265.93 155.608 268.185 159.004 269.332 162.826C270.48 166.648 270.469 170.724 269.3 174.54C267.727 179.657 264.187 183.94 259.458 186.448C254.73 188.957 249.198 189.486 244.08 187.92ZM255.33 151.24C251.893 150.176 248.219 150.155 244.771 151.181C241.323 152.206 238.257 154.231 235.96 157C233.664 159.768 232.24 163.156 231.869 166.734C231.499 170.312 232.198 173.92 233.879 177.1C235.559 180.28 238.146 182.891 241.31 184.601C244.475 186.311 248.076 187.044 251.657 186.706C255.239 186.369 258.639 184.977 261.429 182.706C264.219 180.435 266.272 177.388 267.33 173.95C268.737 169.347 268.264 164.374 266.016 160.119C263.767 155.863 259.925 152.671 255.33 151.24Z" fill="#DBDBDB"/>
<path d="M206.84 138.48C202.98 138.85 196.6 131.67 194.7 126.69C194.57 126.35 195.52 123.07 196.48 119.03C197.05 116.58 197.63 113.84 197.98 111.29L213.4 117.36C212.052 120.414 211.082 123.621 210.51 126.91C210.48 127.263 210.48 127.617 210.51 127.97C210.515 128.027 210.515 128.083 210.51 128.14C210.53 130.17 210.57 138.11 206.84 138.48Z" fill="#EB9481"/>
<path d="M210.48 128V128.19C209.923 128.189 209.368 128.142 208.82 128.05C199.49 126.38 198.48 115.53 198.43 111.52L213.43 117.4C212.084 120.454 211.113 123.661 210.54 126.95C210.49 127.297 210.47 127.648 210.48 128Z" fill="#263238"/>
<path d="M192.55 95.3097C191.76 101.23 197.42 117 202.03 119.97C208.7 124.27 218.29 123.2 221.6 115.48C224.82 108 217.08 87.5797 212.06 85.0197C204.67 81.2497 193.72 86.5797 192.55 95.3097Z" fill="#EB9481"/>
<path d="M210.65 102.41C210.65 102.41 210.59 102.49 210.6 102.53C211 103.59 211.27 104.87 210.43 105.53C210.43 105.53 210.43 105.61 210.43 105.59C211.58 105 211.2 103.35 210.65 102.41Z" fill="#263238"/>
<path d="M209.32 101.62C207.56 102.07 208.59 105.56 210.22 105.15C211.85 104.74 210.8 101.24 209.32 101.62Z" fill="#263238"/>
<path d="M216.73 100.6C216.73 100.6 216.83 100.6 216.84 100.67C217.13 101.76 217.64 102.96 218.72 103.04C218.72 103.04 218.77 103.04 218.72 103.1C217.49 103.28 216.82 101.68 216.73 100.6Z" fill="#263238"/>
<path d="M217.36 99.1804C219.06 98.5404 220.23 101.99 218.65 102.59C217.07 103.19 215.93 99.7204 217.36 99.1804Z" fill="#263238"/>
<path d="M207.47 100.429C207.888 100.157 208.291 99.8629 208.68 99.5495C209.14 99.2095 209.55 98.9795 209.75 98.4195C209.79 98.2543 209.775 98.0803 209.706 97.9248C209.637 97.7692 209.519 97.6407 209.37 97.5595C209.048 97.4431 208.701 97.415 208.365 97.4784C208.03 97.5417 207.717 97.694 207.46 97.9195C206.87 98.2888 206.441 98.8675 206.26 99.5395C206.225 99.6949 206.236 99.8572 206.292 100.006C206.347 100.156 206.446 100.285 206.574 100.38C206.702 100.474 206.855 100.529 207.014 100.538C207.174 100.547 207.332 100.509 207.47 100.429Z" fill="#263238"/>
<path d="M218.19 97C217.694 97.0301 217.196 97.0301 216.7 97C216.174 97.0983 215.631 97.0136 215.16 96.76C215.028 96.6535 214.935 96.5067 214.896 96.3422C214.856 96.1778 214.871 96.0047 214.94 95.85C215.121 95.5621 215.376 95.3285 215.679 95.1736C215.982 95.0187 216.32 94.9484 216.66 94.97C217.371 94.8845 218.088 95.0781 218.66 95.51C218.802 95.6102 218.908 95.7531 218.964 95.9178C219.02 96.0826 219.021 96.2608 218.969 96.4267C218.917 96.5925 218.813 96.7374 218.673 96.8405C218.533 96.9435 218.364 96.9994 218.19 97Z" fill="#263238"/>
<path d="M212.41 112.59C212.75 112.76 213.11 113.04 213.51 112.95C213.911 112.823 214.282 112.615 214.6 112.34C214.6 112.34 214.67 112.34 214.66 112.34C214.57 112.6 214.411 112.831 214.199 113.007C213.988 113.183 213.732 113.298 213.46 113.34C213.223 113.349 212.989 113.287 212.788 113.162C212.587 113.038 212.427 112.856 212.33 112.64C212.29 112.61 212.37 112.56 212.41 112.59Z" fill="#263238"/>
<path d="M212.6 109C213 109.347 213.468 109.607 213.974 109.764C214.48 109.921 215.013 109.97 215.54 109.91C216 109.865 216.451 109.754 216.88 109.58L217.13 109.48L217.35 109.37C217.406 109.342 217.451 109.297 217.478 109.241C217.505 109.184 217.513 109.121 217.5 109.06C217.504 109.023 217.504 108.986 217.5 108.95V108.86C217.28 108.02 216.82 106.77 216.82 106.77C217.17 106.84 218.93 107.07 218.82 106.65C217.584 102.915 215.969 99.3157 214 95.9097C213.984 95.8924 213.963 95.8806 213.94 95.8761C213.917 95.8716 213.893 95.8745 213.872 95.8846C213.85 95.8947 213.833 95.9113 213.822 95.932C213.811 95.9527 213.806 95.9765 213.81 95.9997C214.91 99.4497 216.61 102.69 217.76 106.14C217.133 106.055 216.497 106.055 215.87 106.14C215.76 106.21 216.79 108.53 216.87 108.92C216.208 109.19 215.498 109.324 214.784 109.313C214.069 109.303 213.364 109.149 212.71 108.86C212.57 108.84 212.5 108.94 212.6 109Z" fill="#263238"/>
<path d="M216.27 109.309C215.986 110.04 215.522 110.687 214.92 111.189C214.578 111.446 214.167 111.596 213.74 111.619C212.81 111.619 212.56 110.859 212.52 110.129C212.499 109.744 212.526 109.358 212.6 108.979C213.756 109.481 215.043 109.597 216.27 109.309Z" fill="#263238"/>
<path d="M214.92 111.19C214.578 111.447 214.167 111.596 213.74 111.62C212.81 111.62 212.56 110.86 212.52 110.13C212.981 110.012 213.468 110.052 213.904 110.244C214.339 110.436 214.697 110.77 214.92 111.19Z" fill="#FF97B8"/>
<path d="M195.41 110.83C199.67 109.65 200.09 103.91 197.7 100.26C197.7 100.26 209.29 97.8099 206.7 88.7299C206.7 88.7299 211.04 91.9699 216.11 90.3299L217.71 93.0199C218.71 92.2899 218.79 88.6299 215.12 87.0799C215.12 87.0799 213.36 82.7199 209.12 81.2099C207.968 80.7593 206.71 80.6517 205.498 80.9001C204.286 81.1485 203.172 81.7423 202.29 82.6099C199.87 81.8961 197.266 82.1507 195.03 83.3199C193.871 83.9513 192.879 84.8507 192.138 85.9431C191.397 87.0356 190.928 88.2893 190.77 89.5999C190.77 89.5999 185.66 92.5999 186.1 96.8199C186.202 98.0215 186.556 99.1883 187.138 100.244C187.72 101.3 188.518 102.222 189.48 102.95C189.48 102.95 188.65 104.95 190.48 108.04C191.74 110 194.12 111.18 195.41 110.83Z" fill="#263238"/>
<path d="M206.15 88C206.488 88.6913 206.756 89.415 206.95 90.16C207.151 90.894 207.266 91.6492 207.29 92.41C207.348 93.907 206.833 95.3699 205.85 96.5C204.829 97.6205 203.553 98.4781 202.13 99C201.41 99.24 200.69 99.52 199.95 99.71C199.21 99.9 198.45 100.06 197.7 100.26C198.47 100.18 199.24 100.07 200.01 99.97C200.78 99.87 201.52 99.59 202.28 99.4C203.801 98.9094 205.176 98.0467 206.28 96.89C207.32 95.6428 207.833 94.0393 207.71 92.42C207.575 90.8377 207.038 89.3162 206.15 88Z" fill="#263238"/>
<path d="M190.78 89.5996C189.375 90.1112 188.088 90.9041 187 91.9296C185.859 92.9763 185.125 94.3935 184.93 95.9296C184.874 96.6927 184.944 97.4598 185.14 98.1996C185.302 98.9414 185.593 99.6489 186 100.29C186.779 101.591 188.023 102.548 189.48 102.97C188.151 102.374 187.055 101.359 186.36 100.08C185.673 98.8278 185.364 97.4036 185.47 95.9796C185.539 95.2831 185.736 94.6053 186.05 93.9796C186.392 93.3556 186.812 92.7777 187.3 92.2596C188.312 91.1943 189.486 90.2965 190.78 89.5996Z" fill="#263238"/>
<path d="M202.3 82.6099C203.198 81.8597 204.211 81.2587 205.3 80.8299C206.369 80.4037 207.529 80.2591 208.67 80.41C209.801 80.6155 210.863 81.1002 211.76 81.8199C212.679 82.5565 213.488 83.4221 214.16 84.3899C213.654 83.2914 212.93 82.3078 212.03 81.4999C211.116 80.6547 209.977 80.0921 208.75 79.8799C207.518 79.7102 206.263 79.9048 205.14 80.4399C204.047 80.9493 203.078 81.6896 202.3 82.6099Z" fill="#263238"/>
<path d="M213.68 91.1503C212.321 91.1699 210.969 90.9603 209.68 90.5303C209.054 90.3108 208.459 90.0116 207.91 89.6403C207.351 89.2448 206.838 88.7887 206.38 88.2803C206.677 88.9371 207.11 89.5233 207.65 90.0003C208.197 90.4489 208.825 90.7883 209.5 91.0003C210.176 91.2352 210.884 91.3634 211.6 91.3803C212.301 91.4188 213.004 91.3411 213.68 91.1503Z" fill="#263238"/>
<path d="M198.75 108C198.75 108 194.11 103.44 191.97 105.18C189.83 106.92 193.97 114.02 196.97 114.54C197.348 114.633 197.741 114.648 198.125 114.585C198.509 114.522 198.876 114.383 199.205 114.174C199.534 113.966 199.817 113.694 200.038 113.373C200.258 113.053 200.412 112.691 200.49 112.31L198.75 108Z" fill="#EB9481"/>
<path d="M193.22 107.19V107.26C195.33 107.69 196.7 109.32 197.77 111.06C197.619 110.886 197.432 110.747 197.222 110.651C197.013 110.556 196.785 110.506 196.555 110.506C196.324 110.506 196.097 110.556 195.887 110.651C195.678 110.747 195.491 110.886 195.34 111.06C195.34 111.11 195.34 111.18 195.42 111.16C195.739 110.993 196.101 110.928 196.459 110.972C196.816 111.017 197.151 111.17 197.42 111.41C197.872 111.824 198.278 112.287 198.63 112.79C198.76 112.95 199.06 112.79 198.95 112.61C198.53 110.07 195.94 106.94 193.22 107.19Z" fill="#263238"/>
<path d="M193.25 124.93L194.07 118.69L211.3 128.61L211.8 134.73L193.25 124.93Z" fill="#EBEBEB"/>
<path d="M143.57 208.5C143.7 208.72 217.38 222.2 218.19 221.59C219.32 220.73 221.89 148.43 210.52 132.02C207.72 128.02 196.87 122.28 192.87 124.16C182.51 129 175 141.86 170.3 149.27C166.8 154.77 162.02 164.36 157.49 174.27C150 190.58 143.11 207.7 143.57 208.5Z" fill="#455A64"/>
<path d="M201 144.89C206.47 163.49 216.68 192.21 228.46 197.68C234.24 200.36 265.16 193.56 274.46 191.33C278.46 190.33 266.23 163.24 261.87 163.21C257.51 163.18 239.01 168.63 236.87 167.21C234.13 165.44 224.7 150.21 214.08 137C201.62 121.49 196.57 129.78 201 144.89Z" fill="#EB9481"/>
<path d="M298.08 154C299.18 156 296.18 158.16 296.18 158.16C297.71 158.678 299.012 159.714 299.86 161.09C301.24 163.58 297.93 166.83 297.93 166.83C299.405 167.696 300.585 168.985 301.32 170.53C302.4 173.05 299.54 176.81 299.54 176.81C300.453 178.353 300.783 180.174 300.47 181.94C299.47 186.63 292.53 189.08 288.15 190.69C283.77 192.3 269.87 192.74 267.23 193.1L256.69 165.1C256.69 165.1 274.26 152.33 279.69 151.17C284.23 150.18 295.74 149.63 298.08 154Z" fill="#EB9481"/>
<path d="M296.08 158.05C290.98 157.92 285.87 159.05 280.94 160.12C280.83 160.12 280.87 160.32 280.94 160.29C285.83 159.14 291.14 159.29 296.06 158.29C296.24 158.27 296.21 158.05 296.08 158.05Z" fill="#263238"/>
<path d="M297.71 166.47C296.548 166.553 295.401 166.789 294.3 167.17C293.12 167.503 291.94 167.853 290.76 168.22C288.41 168.96 286.07 169.75 283.76 170.61C283.66 170.61 283.69 170.81 283.76 170.78C286.11 170.05 288.47 169.35 290.84 168.72C292.03 168.4 293.22 168.09 294.41 167.8C295.553 167.588 296.67 167.253 297.74 166.8C297.771 166.783 297.797 166.758 297.813 166.726C297.83 166.695 297.837 166.66 297.834 166.625C297.831 166.59 297.818 166.556 297.795 166.529C297.773 166.501 297.744 166.481 297.71 166.47Z" fill="#263238"/>
<path d="M299.44 176.81C298.402 176.898 297.387 177.166 296.44 177.6L293.24 178.66C291.1 179.35 288.97 180.04 286.81 180.66C286.7 180.66 286.74 180.86 286.81 180.83C289 180.21 291.21 179.63 293.4 178.99C294.48 178.68 295.55 178.36 296.62 177.99C297.631 177.794 298.597 177.414 299.47 176.87C299.47 176.87 299.49 176.81 299.44 176.81Z" fill="#263238"/>
<path d="M255 163.16L265.24 198C265.24 198 229.63 202.72 223.08 196.74C212 186.59 202.33 157.38 199.46 142C196.59 126.62 204.04 123.33 213.89 135.81C223.74 148.29 236.28 165.81 237.05 166.43C237.82 167.05 255 163.16 255 163.16Z" fill="#455A64"/>
<path d="M252.87 181.56C252.17 179.12 251.41 176.71 250.65 174.3C250.28 173.14 249.93 171.98 249.52 170.83C249.11 169.68 248.74 168.29 248.23 167.09C248.23 167.071 248.222 167.053 248.209 167.04C248.196 167.027 248.178 167.02 248.16 167.02C248.141 167.02 248.123 167.027 248.11 167.04C248.097 167.053 248.09 167.071 248.09 167.09C248.3 168.38 248.71 169.66 249 170.94C249.29 172.22 249.61 173.29 249.92 174.46C250.58 176.9 251.24 179.35 251.92 181.77C253.35 186.64 254.92 191.44 256.54 196.24C256.55 196.261 256.567 196.277 256.588 196.287C256.609 196.297 256.633 196.299 256.656 196.293C256.678 196.287 256.698 196.274 256.711 196.255C256.725 196.236 256.731 196.213 256.73 196.19C255.55 191.31 254.28 186.42 252.87 181.56Z" fill="#263238"/>
<path d="M219.34 192.1C216.93 189.1 209.2 174.18 204.34 158.15C203.03 153.84 201.75 149.52 200.44 145.21H200.37C200.82 147.88 201.37 150.52 202.06 153.15C201.98 152.97 201.91 152.8 201.83 152.63C201.34 151.58 200.83 150.55 200.29 149.52C200.29 149.46 200.15 149.52 200.18 149.57C200.61 150.67 201.04 151.77 201.52 152.85C201.82 153.53 202.17 154.2 202.52 154.85C202.82 155.99 203.12 157.13 203.52 158.26C213.52 188.7 218.95 191.58 219.21 192.12C219.22 192.27 219.42 192.19 219.34 192.1Z" fill="#263238"/>
<path d="M274.87 79.35C274.435 83.5186 272.85 87.4843 270.292 90.8043C267.734 94.1244 264.304 96.6681 260.384 98.1514C256.464 99.6347 252.209 99.9993 248.094 99.2044C243.979 98.4095 240.166 96.4865 237.08 93.65L225.77 95.31L231.43 85.53C230.015 82.0857 229.482 78.3424 229.88 74.64C230.505 68.6726 233.474 63.1978 238.135 59.4198C240.443 57.5492 243.097 56.1515 245.945 55.3065C248.794 54.4615 251.78 54.1857 254.735 54.495C257.69 54.8042 260.555 55.6925 263.166 57.1089C265.778 58.5254 268.085 60.4423 269.955 62.7503C271.826 65.0583 273.224 67.7122 274.069 70.5603C274.914 73.4085 275.189 76.3952 274.88 79.35H274.87Z" fill="white"/>
<path d="M274.87 79.3501C274.434 83.5171 272.856 87.4828 270.31 90.8101C269.673 91.6355 268.988 92.4235 268.26 93.1701C267.507 93.8876 266.709 94.5557 265.87 95.1701C264.2 96.4223 262.362 97.4323 260.41 98.1701C258.457 98.9329 256.407 99.4209 254.32 99.6201C253.276 99.7151 252.227 99.7352 251.18 99.6801C250.13 99.6587 249.083 99.5517 248.05 99.3601C243.878 98.593 240.003 96.6779 236.86 93.8301L237.13 93.9101L225.82 95.6501L225 95.7801L225.42 95.0501L231.05 85.2501V85.6401C229.724 82.3973 229.16 78.8935 229.401 75.3984C229.642 71.9034 230.682 68.5102 232.44 65.4801C234.176 62.467 236.58 59.8916 239.466 57.9516C242.352 56.0115 245.644 54.7583 249.09 54.2882C252.536 53.818 256.043 54.1433 259.344 55.2392C262.644 56.335 265.65 58.1723 268.13 60.6101C270.599 63.0194 272.489 65.9582 273.656 69.2045C274.824 72.4508 275.239 75.9199 274.87 79.3501ZM274.87 79.3501C275.233 75.9433 274.809 72.4987 273.63 69.2818C272.451 66.065 270.549 63.1619 268.071 60.7965C265.592 58.4311 262.603 56.6666 259.335 55.639C256.067 54.6115 252.606 54.3484 249.22 54.8701C245.866 55.3725 242.672 56.6347 239.88 58.5601C237.115 60.5003 234.805 63.0184 233.11 65.9401C231.444 68.873 230.463 72.1445 230.24 75.5101C230.033 78.8707 230.576 82.2353 231.83 85.3601L231.92 85.5701L231.81 85.7501L226.11 95.5101L225.71 94.9201L237 93.3301H237.16L237.27 93.4301C240.3 96.2631 244.061 98.1925 248.13 99.0001C249.142 99.2066 250.168 99.3336 251.2 99.3801C252.232 99.45 253.268 99.45 254.3 99.3801C256.352 99.2139 258.37 98.7663 260.3 98.0501C262.251 97.343 264.088 96.3524 265.75 95.1101C267.448 93.9052 268.949 92.4445 270.2 90.7801C272.779 87.4724 274.395 83.5172 274.87 79.3501Z" fill="#263238"/>
<path d="M249.51 89.8902L239.85 80.1102L243.09 76.9102L248.74 82.6202L260.46 64.2402L264.31 66.6902L249.51 89.8902Z" fill="#3C72EB"/>
</svg>
