<svg width="500" height="500" viewBox="0 0 500 500" fill="none" xmlns="http://www.w3.org/2000/svg">
<path d="M304.97 130.019L275.868 152.56L290.161 171.012L319.262 148.471L304.97 130.019Z" fill="#EBEBEB"/>
<path d="M305 130C304.69 132 304.33 134 304 136.06C303.67 138.12 303.29 140.06 302.91 142.06C302.53 144.06 302.12 146.23 301.72 148.31V148.5C301.35 150.34 300.99 152.17 300.62 154.01L300.56 154.27H300.29L294.69 153.95H294.49C292.377 153.83 290.26 153.697 288.14 153.55L282.05 153.1C280.05 152.91 277.97 152.76 275.93 152.54C277.93 152.54 279.93 152.6 281.93 152.63C283.93 152.66 285.93 152.73 287.93 152.8C290.17 152.88 292.42 152.973 294.68 153.08L299.74 153.31C300.08 151.66 300.42 149.99 300.74 148.31C301.2 146.097 301.673 143.897 302.16 141.71C302.6 139.71 303.04 137.78 303.5 135.83C303.96 133.88 304.46 132 305 130Z" fill="white"/>
<path d="M295 153.47C295 153.47 295 153.47 295 153.53C295 153.78 294.9 154.03 294.84 154.28C294.59 155.46 294.3 156.63 293.98 157.79C293.6 159.21 293.18 160.62 292.75 162.04C292.32 163.46 291.85 164.84 291.35 166.23C290.85 167.62 290.35 169 289.75 170.36C290.04 168.9 290.4 167.47 290.75 166.05C291.1 164.63 291.55 163.21 291.98 161.8C292.41 160.39 292.88 158.99 293.38 157.6C293.77 156.5 294.18 155.39 294.64 154.29C294.74 154.04 294.85 153.79 294.96 153.53L295 153.47Z" fill="white"/>
<path d="M318.73 147.93C317.27 148.16 315.79 148.32 314.33 148.45C312.87 148.58 311.39 148.67 309.92 148.75C308.45 148.83 306.97 148.88 305.49 148.89C304.3 148.89 303.09 148.89 301.89 148.89H301.12L301.93 148.77C303.11 148.6 304.28 148.49 305.46 148.38C306.93 148.25 308.4 148.16 309.87 148.08C311.34 148 312.81 147.96 314.29 147.95C315.77 147.94 317.25 147.84 318.73 147.93Z" fill="white"/>
<path d="M405.931 96.1744L402.473 119.257L438.877 124.71L442.335 101.628L405.931 96.1744Z" fill="#EBEBEB"/>
<path d="M442.31 101.62C440.63 102.8 438.93 103.92 437.24 105.09C435.55 106.26 433.85 107.35 432.14 108.46C430.43 109.57 428.58 110.77 426.8 111.91C426.751 111.952 426.697 111.989 426.64 112.02C425.067 113.034 423.49 114.034 421.91 115.02L421.67 115.16L421.5 114.96L417.85 110.69C417.85 110.69 417.77 110.59 417.73 110.54C416.35 108.927 414.983 107.304 413.63 105.67C412.277 104.037 410.98 102.48 409.74 101C408.47 99.3902 407.17 97.8202 405.91 96.2002C407.3 97.6302 408.64 99.1302 410 100.6C411.36 102.07 412.71 103.6 414.05 105.08C415.543 106.754 417.033 108.444 418.52 110.15L421.85 113.98C423.28 113.08 424.72 112.18 426.15 111.3C428.057 110.107 429.973 108.927 431.9 107.76C433.62 106.76 435.35 105.68 437.08 104.66C438.81 103.64 440.57 102.59 442.31 101.62Z" fill="white"/>
<path d="M418.49 110.65H418.44L417.8 111.05C416.8 111.69 415.72 112.28 414.66 112.86C413.37 113.57 412.06 114.24 410.74 114.86C409.42 115.48 408.1 116.15 406.74 116.75C405.38 117.35 404.03 117.94 402.64 118.45C403.89 117.65 405.18 116.92 406.47 116.21C407.76 115.5 409.08 114.83 410.39 114.21C411.7 113.59 413.04 112.92 414.39 112.32C415.46 111.83 416.55 111.32 417.65 110.94L418.42 110.64L418.49 110.65Z" fill="white"/>
<path d="M438.88 124C437.7 123.1 436.57 122.14 435.46 121.17C434.35 120.2 433.27 119.17 432.19 118.17C431.11 117.17 430.07 116.1 429 115C428.16 114.14 427.34 113.27 426.55 112.36C426.37 112.17 426.21 111.98 426.04 111.79C426.26 111.96 426.48 112.12 426.69 112.3C427.62 113.03 428.52 113.79 429.41 114.57C430.52 115.57 431.6 116.57 432.67 117.57C433.74 118.57 434.8 119.57 435.82 120.68C436.84 121.79 437.92 122.81 438.88 124Z" fill="white"/>
<path d="M382.917 199.647L376.318 236.033L433.692 246.439L440.291 210.053L382.917 199.647Z" fill="#EBEBEB"/>
<path d="M440.31 210.08C437.59 211.88 434.85 213.57 432.12 215.33C429.39 217.09 426.63 218.74 423.88 220.42C421.13 222.1 418.13 223.91 415.25 225.62L414.99 225.79C412.45 227.31 409.89 228.79 407.34 230.33L406.97 230.54L406.7 230.21C404.84 227.897 402.987 225.583 401.14 223.27C401.07 223.2 401.01 223.11 400.94 223.03C398.85 220.41 396.76 217.78 394.69 215.11C392.62 212.44 390.74 210.02 388.77 207.46C386.8 204.9 384.86 202.31 382.94 199.67C385.06 202.02 387.12 204.45 389.21 206.84C391.3 209.23 393.35 211.68 395.39 214.14C397.683 216.847 399.96 219.593 402.22 222.38C403.92 224.44 405.62 226.52 407.32 228.6C409.62 227.25 411.94 225.89 414.26 224.6C417.35 222.82 420.44 221.04 423.54 219.29C426.32 217.717 429.103 216.167 431.89 214.64C434.72 213.09 437.5 211.53 440.31 210.08Z" fill="white"/>
<path d="M402.15 223.22L402.07 223.27C401.73 223.47 401.38 223.68 401.07 223.87C399.41 224.816 397.743 225.72 396.07 226.58C393.99 227.64 391.88 228.64 389.76 229.58C387.64 230.52 385.51 231.49 383.35 232.38C381.19 233.27 379.01 234.13 376.78 234.87C378.78 233.66 380.86 232.57 382.94 231.51C385.02 230.45 387.14 229.45 389.25 228.51C391.36 227.57 393.52 226.59 395.68 225.7C397.4 224.99 399.15 224.3 400.91 223.7C401.32 223.55 401.73 223.41 402.15 223.28V223.22Z" fill="white"/>
<path d="M433.78 245.27C431.96 243.79 430.22 242.22 428.51 240.63C426.8 239.04 425.14 237.4 423.51 235.76C421.88 234.12 420.24 232.41 418.67 230.69C417.39 229.29 416.12 227.87 414.91 226.39L414.14 225.45L414.08 225.38L414.16 225.44L415.16 226.28C416.6 227.48 417.98 228.74 419.35 230.01C421.07 231.6 422.73 233.24 424.35 234.89C425.97 236.54 427.61 238.23 429.19 239.96C430.77 241.69 432.32 243.43 433.78 245.27Z" fill="white"/>
<path d="M359.84 266.939H255.81V410.909H359.84V266.939Z" fill="#DBDBDB"/>
<path d="M364.88 261.59H250.77V266.93H364.88V261.59Z" fill="#EBEBEB"/>
<path d="M400.78 261.59H364.89V266.93H400.78V261.59Z" fill="#DBDBDB"/>
<path d="M395.1 266.939H359.85V410.909H395.1V266.939Z" fill="#EBEBEB"/>
<path d="M348.64 333.559H267V287.439H348.62L348.64 333.559ZM267.27 333.309H348.39V287.689H267.27V333.309Z" fill="#A6A6A6"/>
<path d="M312.33 300.92H296.44V310.05H312.33V300.92Z" fill="#A6A6A6"/>
<path d="M317.15 309.49H301V301.49H317.14L317.15 309.49ZM301.26 309.24H316.9V301.73H301.26V309.24Z" fill="#A6A6A6"/>
<path d="M348.64 391.52H267V345.4H348.62L348.64 391.52ZM267.27 391.27H348.39V345.65H267.27V391.27Z" fill="#A6A6A6"/>
<path d="M312.33 358.88H296.44V368.01H312.33V358.88Z" fill="#A6A6A6"/>
<path d="M317.15 367.45H301V359.45H317.14L317.15 367.45ZM301.26 367.2H316.9V359.69H301.26V367.2Z" fill="#A6A6A6"/>
<path d="M127.369 91.7736C130.868 73.0213 118.503 54.983 99.751 51.4837C80.9987 47.9845 62.9604 60.3495 59.4611 79.1018C55.9619 97.854 68.3269 115.892 87.0792 119.392C105.831 122.891 123.87 110.526 127.369 91.7736Z" fill="#EBEBEB"/>
<path d="M112.133 114.357C127.68 104.889 132.609 84.6106 123.141 69.0632C113.673 53.5159 93.3941 48.5874 77.8467 58.0552C62.2993 67.5231 57.3709 87.8019 66.8387 103.349C76.3065 118.897 96.5853 123.825 112.133 114.357Z" fill="#DBDBDB"/>
<path d="M100.075 117.22C116.959 114.491 128.434 98.5922 125.705 81.7082C122.976 64.8241 107.077 53.349 90.1929 56.0778C73.3089 58.8065 61.8338 74.7057 64.5625 91.5898C67.2912 108.474 83.1905 119.949 100.075 117.22Z" fill="white"/>
<path opacity="0.5" d="M125.17 79.6601C111.11 88.1801 88 102.15 75.08 109.81C71.4256 106.736 68.5361 102.853 66.64 98.4701L109.36 58.8701C113.353 60.972 116.837 63.9223 119.568 67.5138C122.299 71.1053 124.211 75.2511 125.17 79.6601Z" fill="#EBEBEB"/>
<path opacity="0.5" d="M125.84 87.29C125.741 90.7121 125.064 94.0929 123.84 97.29L85.2899 115.54C83.6123 114.986 81.9862 114.287 80.4299 113.45C92.0599 106.72 113.32 94.49 125.84 87.29Z" fill="#EBEBEB"/>
<path d="M95.2899 57.5703H94.6899V62.2503H95.2899V57.5703Z" fill="#C7C7C7"/>
<path d="M80.9303 61.2449L80.4106 61.5449L82.7506 65.5979L83.2703 65.2979L80.9303 61.2449Z" fill="#C7C7C7"/>
<path d="M70.6164 71.3374L70.3164 71.8594L74.388 74.1994L74.688 73.6774L70.6164 71.3374Z" fill="#C7C7C7"/>
<path d="M71.03 85.9102H66.35V86.5102H71.03V85.9102Z" fill="#C7C7C7"/>
<path d="M74.089 97.9232L70.0369 100.265L70.337 100.784L74.3892 98.4427L74.089 97.9232Z" fill="#C7C7C7"/>
<path d="M82.7553 106.798L80.4181 110.853L80.9379 111.152L83.2751 107.098L82.7553 106.798Z" fill="#C7C7C7"/>
<path d="M95.2899 110.17H94.6899V114.85H95.2899V110.17Z" fill="#C7C7C7"/>
<path d="M107.232 106.803L106.712 107.103L109.052 111.156L109.572 110.856L107.232 106.803Z" fill="#C7C7C7"/>
<path d="M115.882 97.9267L115.582 98.4463L119.635 100.786L119.935 100.267L115.882 97.9267Z" fill="#C7C7C7"/>
<path d="M123.63 85.9102H118.95V86.5102H123.63V85.9102Z" fill="#C7C7C7"/>
<path d="M119.64 71.6414L115.587 73.9814L115.887 74.5011L119.94 72.1611L119.64 71.6414Z" fill="#C7C7C7"/>
<path d="M109.058 61.2626L106.72 65.3164L107.24 65.6162L109.578 61.5624L109.058 61.2626Z" fill="#C7C7C7"/>
<path d="M95.44 59.6897L96.45 88.2897L93.52 88.2597L94.64 59.6797L95.44 59.6897Z" fill="#C7C7C7"/>
<path d="M113.25 76.23L94.01 88.52L92.61 85.94L112.87 75.54L113.25 76.23Z" fill="#A6A6A6"/>
<path d="M96 86.21C96 86.4077 95.9413 86.6011 95.8315 86.7655C95.7216 86.93 95.5654 87.0582 95.3827 87.1338C95.2 87.2095 94.9989 87.2293 94.8049 87.1908C94.6109 87.1522 94.4327 87.0569 94.2929 86.9171C94.153 86.7772 94.0578 86.599 94.0192 86.4051C93.9806 86.2111 94.0004 86.01 94.0761 85.8273C94.1518 85.6446 94.28 85.4884 94.4444 85.3785C94.6089 85.2686 94.8022 85.21 95 85.21C95.2652 85.21 95.5196 85.3153 95.7071 85.5029C95.8946 85.6904 96 85.9447 96 86.21Z" fill="#C7C7C7"/>
<path d="M409.8 62.1602H436.28V50.9702H409.8V62.1602Z" fill="#EBEBEB"/>
<path d="M424.57 48.0498H451.05V36.8598H424.57V48.0498Z" fill="#EBEBEB"/>
<path d="M395.02 48.0498H421.5V36.8598H395.02V48.0498Z" fill="#EBEBEB"/>
<path d="M41.9499 48.0498H68.4299V36.8598H41.9499V48.0498Z" fill="#EBEBEB"/>
<path d="M56.72 359.42H83.2V348.23H56.72V359.42Z" fill="#EBEBEB"/>
<path d="M41.9499 345.31H68.4299V334.12H41.9499V345.31Z" fill="#EBEBEB"/>
<path d="M424.57 359.4H451.05V348.21H424.57V359.4Z" fill="#EBEBEB"/>
<path d="M248.43 234.95H221.95V246.14H248.43V234.95Z" fill="#EBEBEB"/>
<path d="M233.65 249.06H207.17V260.25H233.65V249.06Z" fill="#EBEBEB"/>
<path d="M164.16 460.33C230.948 460.33 285.09 453.923 285.09 446.02C285.09 438.117 230.948 431.71 164.16 431.71C97.3722 431.71 43.23 438.117 43.23 446.02C43.23 453.923 97.3722 460.33 164.16 460.33Z" fill="#EBEBEB"/>
<path d="M413 349C413.368 339.833 413.241 330.653 412.62 321.5C411.272 302.631 408.393 283.903 404.01 265.5C401.61 255.13 398.65 244.93 395.57 234.75C395.47 234.44 394.98 234.53 395.07 234.85C404.6 270.75 412.42 307.79 411.88 345.11C411.73 355.55 410.52 365.81 409.53 376.19C409.53 376.46 409.96 376.57 410.02 376.29C412 367.33 412.63 358 413 349Z" fill="#FBCF49"/>
<path d="M395.07 234.771C395.07 234.771 380.62 271.431 383.86 280.001C387.1 288.571 393.76 290.46 393.76 290.46C393.76 290.46 384.92 303.071 391.1 314.911C397.28 326.751 410.99 326.18 411.9 339.59C411.9 339.631 412.67 283.541 395.07 234.771Z" fill="#FBCF49"/>
<path d="M398.73 267.42C396.114 265.794 393.127 264.861 390.05 264.71C390.034 264.71 390.019 264.716 390.008 264.728C389.996 264.739 389.99 264.754 389.99 264.77C389.99 264.786 389.996 264.801 390.008 264.812C390.019 264.824 390.034 264.83 390.05 264.83C393.022 265.378 395.907 266.32 398.63 267.63C398.656 267.635 398.683 267.631 398.707 267.619C398.731 267.608 398.75 267.588 398.762 267.564C398.773 267.54 398.776 267.513 398.771 267.486C398.765 267.46 398.751 267.437 398.73 267.42Z" fill="#263238"/>
<path d="M400.48 306.23C398.479 305.085 396.281 304.329 394 304C393.92 304 393.91 304.11 394 304.13C396.244 304.571 398.413 305.332 400.44 306.39C400.49 306.43 400.57 306.28 400.48 306.23Z" fill="#263238"/>
<path d="M451 280.64C444.894 284.865 439.285 289.766 434.28 295.25C429.127 301.063 425.147 307.817 422.56 315.14C417.07 330.403 414.121 346.463 413.83 362.68C413.638 371.664 414.501 380.638 416.4 389.42C416.412 389.487 416.45 389.546 416.505 389.584C416.56 389.622 416.629 389.637 416.695 389.625C416.761 389.613 416.82 389.576 416.858 389.52C416.897 389.465 416.912 389.397 416.9 389.33C414.546 373.832 414.634 358.061 417.16 342.59C419.64 327.42 423.54 310.92 433.16 298.59C438.41 291.88 444.95 286.59 451.42 281.14C451.75 280.87 451.32 280.4 451 280.64Z" fill="#FBCF49"/>
<path d="M415.92 351.76C419.397 346.137 423.485 340.915 428.11 336.19C435.33 328.97 441.42 323.83 442.35 319.06C443.28 314.29 435.12 310.76 435.12 310.76C435.12 310.76 445.12 312.56 447.85 308.36C450.58 304.16 451.91 279.86 451.91 279.86C451.91 279.86 433.72 292.86 425.24 311.05C416.76 329.24 415.92 351.76 415.92 351.76Z" fill="#FBCF49"/>
<path d="M445.41 302.66C444.211 302.486 442.998 302.443 441.79 302.53C441.755 302.53 441.722 302.543 441.698 302.568C441.674 302.592 441.66 302.625 441.66 302.66C441.66 302.694 441.674 302.727 441.698 302.752C441.722 302.776 441.755 302.79 441.79 302.79C442.98 302.79 444.18 302.74 445.38 302.79C445.49 302.81 445.5 302.67 445.41 302.66Z" fill="#263238"/>
<path d="M432.32 326.23C430.398 326.275 428.499 326.658 426.71 327.36C426.71 327.36 426.71 327.45 426.71 327.44C428.56 327 430.43 326.82 432.3 326.51C432.49 326.48 432.48 326.23 432.32 326.23Z" fill="#263238"/>
<path d="M428.4 318.09C427.602 318.079 426.804 318.15 426.02 318.3C426.005 318.306 425.991 318.316 425.982 318.329C425.973 318.343 425.968 318.359 425.968 318.375C425.968 318.391 425.973 318.407 425.982 318.421C425.991 318.434 426.005 318.444 426.02 318.45C426.819 318.49 427.619 318.45 428.41 318.33C428.442 318.329 428.472 318.315 428.493 318.291C428.515 318.268 428.526 318.237 428.525 318.205C428.524 318.173 428.51 318.143 428.486 318.121C428.463 318.1 428.432 318.089 428.4 318.09Z" fill="#263238"/>
<path d="M362.6 306.43C368.52 308.45 374.193 311.134 379.51 314.43C385.024 317.938 389.806 322.482 393.59 327.81C401.557 338.897 407.658 351.213 411.65 364.27C413.873 371.499 415.246 378.963 415.74 386.51C415.74 386.566 415.718 386.619 415.678 386.658C415.639 386.698 415.586 386.72 415.53 386.72C415.474 386.72 415.421 386.698 415.381 386.658C415.342 386.619 415.32 386.566 415.32 386.51C413.65 373.422 409.938 360.677 404.32 348.74C398.81 337.04 391.84 324.59 381.19 316.85C375.39 312.63 368.88 309.85 362.38 306.95C362 306.8 362.26 306.31 362.6 306.43Z" fill="#FBCF49"/>
<path d="M407.4 355.89C403.287 352.142 398.773 348.859 393.94 346.1C386.43 341.93 380.32 339.18 378.45 335.53C376.58 331.88 382.39 327.14 382.39 327.14C382.39 327.14 374.71 330.91 371.53 328.14C368.35 325.37 361.66 306 361.66 306C361.66 306 379.38 312.3 390.45 325.08C401.52 337.86 407.4 355.89 407.4 355.89Z" fill="#FBCF49"/>
<path d="M406.48 351.9C397.62 335.26 385.79 320.21 369.59 310.28C373.823 312.998 377.794 316.105 381.45 319.56C378.153 319.379 374.866 320.069 371.92 321.56C371.86 321.56 371.92 321.68 371.92 321.66C375.05 320.483 378.377 319.919 381.72 320C381.756 320.012 381.794 320.012 381.83 320C382.41 320.55 382.98 321.1 383.54 321.66C381.826 321.736 380.123 321.964 378.45 322.34C378.4 322.34 378.45 322.41 378.45 322.41C380.223 322.076 382.026 321.925 383.83 321.96C386.789 324.967 389.58 328.135 392.19 331.45C390.998 331.285 389.785 331.374 388.63 331.71C388.54 331.71 388.56 331.86 388.63 331.85C389.891 331.7 391.164 331.68 392.43 331.79C392.92 332.41 393.43 333.02 393.88 333.65C390.264 333.429 386.635 333.783 383.13 334.7C383.08 334.7 383.13 334.79 383.13 334.78C386.767 334.067 390.481 333.825 394.18 334.06C394.63 334.66 395.06 335.28 395.5 335.88C393.343 335.832 391.189 336.081 389.1 336.62C389.087 336.625 389.076 336.634 389.068 336.646C389.06 336.658 389.056 336.671 389.056 336.685C389.056 336.699 389.06 336.713 389.068 336.725C389.076 336.736 389.087 336.745 389.1 336.75C391.272 336.273 393.5 336.098 395.72 336.23C397.633 338.857 399.463 341.524 401.21 344.23C400.273 344.063 399.31 344.122 398.4 344.4C398.35 344.4 398.4 344.48 398.4 344.47C399.402 344.398 400.41 344.449 401.4 344.62C402.98 347.08 404.5 349.557 405.96 352.05C406.26 352.27 406.6 352.12 406.48 351.9Z" fill="#263238"/>
<path d="M377.24 317.82C376.444 317.762 375.644 317.809 374.86 317.96C374.77 317.96 374.8 318.11 374.86 318.1C375.64 318.02 376.41 318.05 377.19 318.02C377.217 318.027 377.245 318.023 377.268 318.009C377.292 317.995 377.308 317.972 377.315 317.945C377.322 317.919 377.317 317.891 377.303 317.867C377.289 317.844 377.267 317.827 377.24 317.82Z" fill="#263238"/>
<path d="M430.26 410.9H390.26L395.96 369.12L397.42 358.41H423.1L424.56 369.12L430.26 410.9Z" fill="#455A64"/>
<path d="M424.56 369.12H395.96L397.42 358.41H423.1L424.56 369.12Z" fill="#263238"/>
<path d="M426.77 354.69H393.75V363.76H426.77V354.69Z" fill="#455A64"/>
<path d="M32.78 410.9L87.08 410.66L141.39 410.57L250 410.4L358.61 410.57L412.92 410.66L467.22 410.9L412.92 411.15L358.61 411.24L250 411.4L141.39 411.23L87.08 411.15L32.78 410.9Z" fill="#263238"/>
<path d="M131.72 384.67C131.72 384.67 128.88 424.02 128.88 424.05C128.88 431.76 128.94 438.52 129.32 442.05C129.315 442.07 129.315 442.09 129.32 442.11C129.316 442.936 129.508 443.752 129.88 444.49C129.88 444.49 129.88 444.49 129.88 444.54C132.17 446.11 193.76 448.21 195.88 447.54C198 446.87 196.37 440.65 194.05 438.66C191.73 436.67 168.6 425.3 168.6 425.3L171.05 386L131.72 384.67Z" fill="#D3766A"/>
<path d="M128.88 415.78V424.05C128.88 431.76 128.94 438.52 129.32 442.05C129.315 442.07 129.315 442.091 129.32 442.11C129.414 442.923 129.602 443.721 129.88 444.49C129.88 444.49 129.88 444.49 129.88 444.54C132.17 446.11 193.76 448.21 195.88 447.54C198 446.87 196.37 440.65 194.05 438.66C191.73 436.67 168.6 425.3 168.6 425.3L168.71 416.9L128.88 415.78Z" fill="white"/>
<path d="M196 447.53C193.83 448.18 132.24 446.07 130 444.53C129.12 443.95 128.9 434.95 128.95 424.08C128.95 423.97 128.95 423.86 128.95 423.74L168.7 424.66V425.33C168.7 425.33 191.91 436.68 194.25 438.68C196.59 440.68 198.16 446.88 196 447.53Z" fill="#FBCF49"/>
<path d="M195.37 445.11C185 444.5 143.1 443.02 132.8 443.21C132.72 443.21 132.72 443.26 132.8 443.27C143.07 444.1 184.97 445.27 195.36 445.27C195.58 445.28 195.59 445.13 195.37 445.11Z" fill="#263238"/>
<path d="M171.93 425.54C167.87 424.63 162.85 425.09 159.63 427.89C159.51 428 159.63 428.18 159.8 428.14C163.747 427.014 167.804 426.313 171.9 426.05C171.96 426.042 172.016 426.014 172.057 425.97C172.098 425.925 172.123 425.868 172.126 425.808C172.13 425.747 172.112 425.687 172.076 425.638C172.04 425.59 171.989 425.555 171.93 425.54Z" fill="#263238"/>
<path d="M174.82 427.41C170.76 426.51 165.74 426.97 162.52 429.77C162.4 429.88 162.52 430.06 162.69 430.02C166.637 428.894 170.694 428.193 174.79 427.93C174.859 427.934 174.927 427.911 174.978 427.865C175.03 427.819 175.061 427.754 175.065 427.685C175.069 427.617 175.045 427.549 174.999 427.497C174.953 427.446 174.889 427.414 174.82 427.41Z" fill="#263238"/>
<path d="M177.71 429.29C173.65 428.39 168.63 428.85 165.41 431.65C165.28 431.76 165.41 431.93 165.57 431.9C169.517 430.771 173.573 430.07 177.67 429.81C177.739 429.816 177.807 429.793 177.86 429.748C177.912 429.703 177.945 429.639 177.95 429.57C177.955 429.501 177.933 429.433 177.888 429.381C177.843 429.328 177.779 429.296 177.71 429.29Z" fill="#263238"/>
<path d="M126.51 425.751L169.62 424.891C169.62 424.891 174.88 347.311 173.9 321.451C172.83 293.351 160.77 209.761 160.77 209.761H124.36C124.36 209.761 133.66 293.681 133.86 321.761C134 347.841 126.51 425.751 126.51 425.751Z" fill="#37474F"/>
<path d="M153.61 209.761L131.74 285.431C129.15 249.621 124.36 209.761 124.36 209.761H153.61Z" fill="#263238"/>
<path d="M131.27 213.881L133.58 238.881L135.72 263.881C137.09 280.531 138.39 297.191 139.39 313.881C139.63 318.051 139.78 322.241 139.72 326.431C139.66 330.621 139.46 334.791 139.25 338.961C138.817 347.314 138.28 355.648 137.64 363.961C137 372.274 136.333 380.608 135.64 388.961L133.31 413.911L135.17 388.911C135.797 380.584 136.383 372.251 136.93 363.911C137.46 355.571 138.02 347.241 138.4 338.911C138.6 334.744 138.743 330.578 138.83 326.411C138.83 322.241 138.71 318.081 138.46 313.921C137.55 297.251 136.23 280.591 135.02 263.921L131.27 213.881Z" fill="#263238"/>
<path d="M167.82 417.7C161.09 417.64 163.02 417.56 156.29 417.58C153 417.58 131.35 417.66 128.29 418.21C128.277 418.215 128.266 418.224 128.258 418.236C128.25 418.248 128.246 418.261 128.246 418.275C128.246 418.289 128.25 418.303 128.258 418.315C128.266 418.326 128.277 418.335 128.29 418.34C131.37 418.82 153.01 418.34 156.29 418.34C163.02 418.2 161.08 418.17 167.81 417.94C167.826 417.941 167.841 417.938 167.856 417.933C167.871 417.928 167.885 417.919 167.896 417.909C167.908 417.898 167.917 417.885 167.924 417.871C167.931 417.857 167.934 417.841 167.935 417.825C167.936 417.81 167.933 417.794 167.928 417.779C167.922 417.764 167.914 417.751 167.903 417.739C167.893 417.727 167.88 417.718 167.866 417.711C167.851 417.705 167.836 417.701 167.82 417.7Z" fill="#263238"/>
<path d="M61.64 363.551L40.83 397.381C37.45 404.311 34.61 410.441 33.44 413.751C33.4356 413.771 33.4356 413.791 33.44 413.811C33.0847 414.557 32.9034 415.374 32.91 416.201V416.261C34.29 418.661 88.91 447.261 91.12 447.631C93.33 448.001 94.55 441.631 93.32 438.831C92.09 436.031 76.07 415.731 76.07 415.731L96.52 381.731L61.64 363.551Z" fill="#D3766A"/>
<path d="M32.9 416.201C32.8953 416.221 32.8953 416.241 32.9 416.261C34.28 418.661 88.9 447.261 91.11 447.631C93.32 448.001 94.54 441.631 93.31 438.831C92.08 436.031 76.07 415.721 76.07 415.721L79.71 409.661C70.79 404.911 54.58 396.561 44.51 391.381L40.82 397.381C37.44 404.311 34.6 410.441 33.43 413.751C33.4257 413.771 33.4257 413.791 33.43 413.811C33.0671 414.554 32.8855 415.374 32.9 416.201Z" fill="white"/>
<path d="M91.12 447.63C88.87 447.27 34.29 418.63 32.91 416.26C32.37 415.35 36.07 407.16 40.83 397.38L40.98 397.08L76.4 415.14L76.08 415.73C76.08 415.73 92.08 436.02 93.31 438.83C94.54 441.64 93.36 448 91.12 447.63Z" fill="#FBCF49"/>
<path d="M91.61 445.191C82.53 440.141 45.42 420.641 36.06 416.341C35.98 416.341 35.95 416.341 36.06 416.401C44.95 421.601 82.21 440.801 91.56 445.341C91.73 445.441 91.8 445.301 91.61 445.191Z" fill="#263238"/>
<path d="M79 417.391C75.73 414.811 71 413.051 66.89 414.181C66.73 414.181 66.8 414.451 66.89 414.471C70.9328 415.168 74.8889 416.297 78.69 417.841C78.7496 417.882 78.8232 417.898 78.8945 417.884C78.9297 417.878 78.9634 417.865 78.9935 417.845C79.0236 417.826 79.0496 417.8 79.07 417.771C79.0903 417.741 79.1046 417.708 79.1121 417.673C79.1196 417.638 79.1202 417.602 79.1137 417.566C79.1072 417.531 79.0938 417.497 79.0743 417.467C79.0547 417.437 79.0295 417.411 79 417.391Z" fill="#263238"/>
<path d="M80.77 420.33C77.5 417.76 72.77 415.99 68.66 417.12C68.5 417.17 68.57 417.39 68.66 417.42C72.706 418.112 76.6656 419.239 80.47 420.78C80.5296 420.82 80.6027 420.834 80.673 420.82C80.7433 420.806 80.8052 420.765 80.845 420.705C80.8848 420.645 80.8992 420.572 80.8851 420.502C80.8711 420.432 80.8296 420.37 80.77 420.33Z" fill="#263238"/>
<path d="M82.55 423.28C79.29 420.7 74.55 418.94 70.45 420.07C70.29 420.07 70.35 420.34 70.45 420.36C74.496 421.057 78.4555 422.187 82.26 423.73C82.3196 423.769 82.3921 423.782 82.4615 423.767C82.5309 423.752 82.5915 423.71 82.63 423.65C82.6684 423.591 82.6816 423.518 82.6666 423.449C82.6516 423.379 82.6096 423.319 82.55 423.28Z" fill="#263238"/>
<path d="M157 209.731C156.84 210.471 154.3 222.291 151.66 232.431C149.74 239.851 147.76 246.361 146.66 247.031C145.38 247.791 139.13 250.561 137.03 251.431C137.03 251.431 122.97 321.631 115.55 343.431C108.7 363.521 80.35 417.211 80.35 417.211L39.22 396.431C39.22 396.431 71.34 341.941 74.72 332.161C80 317.001 99.57 243.001 99.57 243.001C99.57 243.001 99.42 219.831 107.22 209.721L157 209.731Z" fill="#37474F"/>
<path d="M79.74 409.19C73.87 405.91 75.6 406.77 69.74 403.55C66.84 401.97 47.82 391.65 44.86 390.65C44.8 390.65 44.75 390.73 44.8 390.77C47.28 392.67 66.48 402.66 69.4 404.18C75.4 407.28 73.69 406.33 79.7 409.36C79.7171 409.355 79.7326 409.346 79.7449 409.333C79.7572 409.32 79.7658 409.304 79.7699 409.287C79.774 409.27 79.7734 409.252 79.7681 409.235C79.7629 409.218 79.7532 409.202 79.74 409.19Z" fill="#263238"/>
<path d="M110.12 236.571C111.24 236.281 112.45 236.191 113.6 236.001C114.52 235.861 115.45 235.691 116.37 235.491C118.129 235.174 119.796 234.47 121.25 233.431C122.711 232.09 123.802 230.395 124.42 228.511C124.88 227.441 125.35 226.371 125.83 225.311C126.06 224.801 126.29 224.311 126.53 223.771C126.854 223.171 127.145 222.553 127.4 221.921C127.4 221.831 127.58 221.921 127.54 221.921C127.386 222.357 127.255 222.801 127.15 223.251C126.99 223.771 126.85 224.251 126.69 224.811C126.4 225.731 126.12 226.651 125.82 227.561C125.349 229.252 124.678 230.88 123.82 232.411C122.12 235.111 119.08 236.201 116.05 236.581C115.18 236.691 114.3 236.751 113.43 236.801C112.326 236.901 111.214 236.901 110.11 236.801C110 236.851 109.94 236.611 110.12 236.571Z" fill="#263238"/>
<path d="M150 245.421C145.536 247.04 141.223 249.047 137.11 251.421C137.075 251.437 137.049 251.466 137.036 251.501C137.022 251.537 137.024 251.576 137.04 251.611C137.056 251.645 137.085 251.672 137.12 251.685C137.156 251.698 137.195 251.697 137.23 251.681C141.57 249.821 146 248.041 150.23 245.941C150.299 245.91 150.353 245.854 150.38 245.783C150.407 245.713 150.405 245.635 150.375 245.566C150.344 245.497 150.288 245.443 150.217 245.416C150.147 245.388 150.069 245.39 150 245.421Z" fill="#263238"/>
<path d="M151.3 215.681C151.3 215.531 151.02 215.491 151.02 215.681C151.025 220.523 150.781 225.363 150.29 230.181C150.09 232.421 148.29 244.781 144.41 243.881C143.77 243.731 143.41 243.091 143.33 242.111C143.345 240.831 143.52 239.557 143.85 238.321C144.28 235.731 144.62 233.141 144.85 230.521C145.297 225.655 145.243 220.756 144.69 215.901C144.682 215.874 144.666 215.85 144.643 215.833C144.621 215.816 144.593 215.806 144.565 215.806C144.537 215.806 144.509 215.816 144.487 215.833C144.464 215.85 144.448 215.874 144.44 215.901C144.552 222.647 144.158 229.393 143.26 236.081C142.77 239.291 141.15 244.081 144.51 244.631C147.87 245.181 150.15 237.031 150.57 234.811C151.642 228.493 151.888 222.062 151.3 215.681Z" fill="#263238"/>
<path d="M144.52 244.19C144.175 245.024 143.884 245.879 143.65 246.75C143.4 247.425 143.274 248.14 143.28 248.86C143.285 248.889 143.299 248.916 143.319 248.937C143.34 248.959 143.366 248.973 143.395 248.98C143.424 248.986 143.454 248.984 143.482 248.973C143.509 248.963 143.533 248.944 143.55 248.92C143.95 248.303 144.253 247.629 144.45 246.92C144.75 246.12 145.06 245.34 145.33 244.54C145.376 244.433 145.378 244.311 145.335 244.202C145.292 244.094 145.207 244.006 145.1 243.96C144.993 243.914 144.871 243.912 144.762 243.955C144.654 243.998 144.566 244.083 144.52 244.19Z" fill="#263238"/>
<path d="M50.33 389.61C56.18 378.61 62.21 367.67 68.27 356.76C71.27 351.38 74.37 346.06 77.27 340.61C79.9566 335.214 82.1359 329.58 83.78 323.78C87.3666 312 90.7733 300.17 94 288.29C97.2266 276.41 100.267 264.48 103.12 252.5C103.83 249.5 104.62 246.5 105.19 243.5C105.705 240.445 105.705 237.326 105.19 234.27C104.747 231.423 104.723 228.525 105.12 225.67C105.575 222.827 106.243 220.023 107.12 217.28C107.58 215.83 108.12 214.39 108.57 212.96C108.575 212.944 108.584 212.929 108.595 212.916C108.606 212.902 108.62 212.892 108.635 212.884C108.65 212.876 108.667 212.871 108.684 212.87C108.701 212.868 108.719 212.87 108.735 212.875C108.751 212.881 108.767 212.889 108.78 212.9C108.793 212.911 108.804 212.925 108.812 212.94C108.82 212.956 108.824 212.972 108.826 212.99C108.827 213.007 108.825 213.024 108.82 213.04C107.05 218.84 105.23 224.7 105.61 230.85C105.8 233.8 106.61 236.7 106.53 239.67C106.339 242.621 105.84 245.544 105.04 248.39C102.24 260.45 99.24 272.45 96.04 284.39C92.84 296.33 89.45 308.224 85.87 320.07C84.12 325.83 82.49 331.68 80.01 337.17C77.53 342.66 74.39 347.88 71.43 353.17C65.3166 364.044 59.13 374.867 52.87 385.64L50.46 389.72C50.41 389.78 50.28 389.69 50.33 389.61Z" fill="#263238"/>
<path d="M129.94 147.55C143.43 153.96 166.44 163.72 175.55 164.24C182.55 164.65 204.76 140.51 214.16 131.41C217.04 128.62 198.89 110.9 195.58 113.6C186.42 121.04 170.24 139.83 169.11 140.14C167.52 140.58 149.87 137 134.48 134.96C117.3 132.69 123.4 144.44 129.94 147.55Z" fill="#D3766A"/>
<path d="M174.15 134.131L193.58 154.131C193.58 154.131 182.02 166.021 176.38 165.651C170.74 165.281 144.22 157.181 130.52 148.651C116.82 140.121 121.25 132.521 134.81 134.651C148.37 136.781 168.39 140.001 169.06 139.381C170 138.611 174.15 134.131 174.15 134.131Z" fill="#DBDBDB"/>
<path d="M181 164.261C179.603 165.147 177.993 165.641 176.34 165.691C170.7 165.321 144.18 157.201 130.48 148.691C121.09 142.871 120.22 137.441 124.97 135.301L181 164.261Z" fill="#C7C7C7"/>
<path d="M172.4 133C172.58 133.49 194.67 156 194.67 156L199.81 151.41L177.06 128.23L172.4 133Z" fill="#A6A6A6"/>
<path d="M100.88 220.26C101.05 220.42 162.03 213.26 162.55 212.48C163.28 211.48 148.49 149.37 136.31 136.36C133.26 133.1 121.07 132.73 118.31 137.28C101.57 164.33 100.27 219.71 100.88 220.26Z" fill="#DBDBDB"/>
<path d="M133.81 146.23C135.92 151.68 137.75 157.23 139.47 162.8C141.19 168.37 142.69 174.02 144.13 179.68C145.57 185.34 146.72 191.07 147.75 196.82C148.78 202.57 149.53 208.36 150.01 214.18C149.52 211.3 149.17 208.41 148.6 205.55C148.03 202.69 147.6 199.81 147 196.96C145.81 191.26 144.61 185.56 143.16 179.96C141.71 174.36 140.29 168.67 138.73 163.05C137.96 160.25 137.15 157.44 136.32 154.65C135.49 151.86 134.66 149 133.81 146.23Z" fill="#263238"/>
<path d="M140.57 156.471C140.57 156.745 140.461 157.008 140.267 157.202C140.073 157.397 139.81 157.506 139.535 157.506C139.261 157.506 138.997 157.397 138.803 157.202C138.609 157.008 138.5 156.745 138.5 156.471C138.5 156.196 138.609 155.933 138.803 155.739C138.997 155.545 139.261 155.436 139.535 155.436C139.81 155.436 140.073 155.545 140.267 155.739C140.461 155.933 140.57 156.196 140.57 156.471ZM140.57 156.471C140.57 156.356 140.545 156.244 140.497 156.14C140.45 156.036 140.381 155.944 140.294 155.869C140.208 155.794 140.107 155.738 139.998 155.706C139.888 155.674 139.773 155.665 139.66 155.681C139.472 155.711 139.301 155.807 139.177 155.951C139.054 156.096 138.986 156.28 138.986 156.471C138.986 156.661 139.054 156.845 139.177 156.99C139.301 157.135 139.472 157.231 139.66 157.261C139.773 157.276 139.888 157.268 139.998 157.235C140.107 157.203 140.208 157.147 140.294 157.072C140.381 156.997 140.45 156.905 140.497 156.801C140.545 156.697 140.57 156.585 140.57 156.471Z" fill="#263238"/>
<path d="M143.91 167.63C143.909 167.831 143.848 168.028 143.733 168.194C143.619 168.36 143.457 168.487 143.269 168.559C143.081 168.632 142.875 168.645 142.679 168.599C142.483 168.553 142.306 168.448 142.17 168.299C142.035 168.15 141.947 167.964 141.92 167.764C141.892 167.565 141.925 167.361 142.015 167.181C142.104 167 142.246 166.851 142.422 166.753C142.598 166.655 142.799 166.612 143 166.63C143.249 166.653 143.481 166.768 143.65 166.953C143.818 167.138 143.911 167.38 143.91 167.63ZM143.91 167.63C143.908 167.479 143.863 167.332 143.781 167.206C143.698 167.08 143.581 166.98 143.444 166.919C143.306 166.857 143.154 166.836 143.005 166.858C142.856 166.88 142.716 166.944 142.602 167.043C142.488 167.141 142.405 167.271 142.362 167.415C142.32 167.56 142.319 167.714 142.361 167.858C142.403 168.003 142.485 168.133 142.599 168.233C142.712 168.332 142.851 168.397 143 168.42C143.113 168.436 143.228 168.427 143.338 168.395C143.447 168.362 143.548 168.307 143.634 168.232C143.721 168.157 143.79 168.064 143.837 167.961C143.885 167.857 143.91 167.744 143.91 167.63Z" fill="#263238"/>
<path d="M147.24 178.801C147.24 179.075 147.131 179.338 146.937 179.532C146.743 179.727 146.479 179.836 146.205 179.836C145.93 179.836 145.667 179.727 145.473 179.532C145.279 179.338 145.17 179.075 145.17 178.801C145.17 178.526 145.279 178.263 145.473 178.069C145.667 177.875 145.93 177.766 146.205 177.766C146.479 177.766 146.743 177.875 146.937 178.069C147.131 178.263 147.24 178.526 147.24 178.801ZM147.24 178.801C147.24 178.686 147.215 178.574 147.167 178.47C147.12 178.366 147.051 178.274 146.964 178.199C146.878 178.124 146.777 178.069 146.668 178.036C146.558 178.004 146.443 177.995 146.33 178.011C146.142 178.041 145.971 178.137 145.847 178.281C145.724 178.426 145.656 178.61 145.656 178.801C145.656 178.991 145.724 179.175 145.847 179.32C145.971 179.465 146.142 179.561 146.33 179.591C146.443 179.606 146.558 179.598 146.668 179.565C146.777 179.533 146.878 179.477 146.964 179.402C147.051 179.328 147.12 179.235 147.167 179.131C147.215 179.028 147.24 178.915 147.24 178.801Z" fill="#263238"/>
<path d="M149.67 190C149.669 190.202 149.607 190.398 149.493 190.564C149.379 190.73 149.217 190.857 149.029 190.929C148.841 191.002 148.635 191.016 148.439 190.969C148.243 190.923 148.066 190.818 147.93 190.669C147.795 190.52 147.707 190.334 147.679 190.134C147.652 189.935 147.685 189.731 147.774 189.551C147.864 189.371 148.006 189.221 148.182 189.123C148.358 189.025 148.559 188.982 148.76 189C149.009 189.023 149.241 189.138 149.41 189.323C149.578 189.508 149.671 189.75 149.67 190ZM149.67 190C149.682 189.89 149.671 189.778 149.638 189.672C149.604 189.566 149.548 189.468 149.474 189.385C149.4 189.302 149.309 189.236 149.208 189.19C149.106 189.145 148.996 189.121 148.885 189.121C148.774 189.121 148.664 189.145 148.562 189.19C148.461 189.236 148.37 189.302 148.296 189.385C148.222 189.468 148.166 189.566 148.132 189.672C148.098 189.778 148.087 189.89 148.1 190C148.087 190.111 148.098 190.223 148.132 190.329C148.166 190.435 148.222 190.532 148.296 190.615C148.37 190.698 148.461 190.765 148.562 190.81C148.664 190.855 148.774 190.879 148.885 190.879C148.996 190.879 149.106 190.855 149.208 190.81C149.309 190.765 149.4 190.698 149.474 190.615C149.548 190.532 149.604 190.435 149.638 190.329C149.671 190.223 149.682 190.111 149.67 190Z" fill="#263238"/>
<path d="M151.83 201.131C151.83 201.405 151.721 201.668 151.527 201.863C151.333 202.057 151.07 202.166 150.795 202.166C150.521 202.166 150.257 202.057 150.063 201.863C149.869 201.668 149.76 201.405 149.76 201.131C149.76 200.856 149.869 200.593 150.063 200.399C150.257 200.205 150.521 200.096 150.795 200.096C151.07 200.096 151.333 200.205 151.527 200.399C151.721 200.593 151.83 200.856 151.83 201.131ZM151.83 201.131C151.83 201.017 151.805 200.904 151.757 200.8C151.71 200.696 151.641 200.604 151.554 200.529C151.468 200.454 151.367 200.399 151.258 200.366C151.148 200.334 151.033 200.325 150.92 200.341C150.735 200.374 150.567 200.471 150.446 200.615C150.325 200.76 150.259 200.942 150.26 201.131C150.248 201.241 150.259 201.353 150.292 201.459C150.326 201.565 150.382 201.663 150.456 201.746C150.53 201.829 150.621 201.895 150.722 201.941C150.824 201.986 150.934 202.009 151.045 202.009C151.156 202.009 151.266 201.986 151.368 201.941C151.469 201.895 151.56 201.829 151.634 201.746C151.708 201.663 151.764 201.565 151.798 201.459C151.832 201.353 151.843 201.241 151.83 201.131Z" fill="#263238"/>
<path d="M153.22 212.001C153.221 212.251 153.128 212.493 152.96 212.678C152.791 212.863 152.559 212.978 152.31 213.001C152.036 213.001 151.772 212.892 151.578 212.698C151.384 212.503 151.275 212.24 151.275 211.966C151.275 211.691 151.384 211.428 151.578 211.234C151.772 211.04 152.036 210.931 152.31 210.931C152.572 210.954 152.814 211.079 152.985 211.279C153.155 211.479 153.239 211.739 153.22 212.001ZM153.22 212.001C153.22 211.887 153.195 211.774 153.148 211.671C153.1 211.568 153.031 211.476 152.944 211.402C152.858 211.328 152.756 211.273 152.647 211.242C152.537 211.211 152.423 211.203 152.31 211.221C152.128 211.256 151.964 211.354 151.846 211.497C151.729 211.641 151.664 211.82 151.664 212.006C151.664 212.191 151.729 212.371 151.846 212.514C151.964 212.657 152.128 212.755 152.31 212.791C152.423 212.806 152.538 212.798 152.648 212.765C152.757 212.733 152.858 212.677 152.944 212.602C153.031 212.528 153.1 212.435 153.147 212.331C153.195 212.228 153.22 212.115 153.22 212.001Z" fill="#263238"/>
<path d="M131.38 145.201C128.6 145.421 122.64 140.431 120.23 136.131C120.07 135.831 120.49 132.701 120.82 128.881C121.02 126.561 121.18 123.971 121.16 121.591L136.09 125.061C135.267 128.041 134.814 131.11 134.74 134.201C134.743 134.537 134.78 134.872 134.85 135.201C134.85 135.201 134.85 135.301 134.85 135.361C135.19 137.181 135.72 144.851 131.38 145.201Z" fill="#D3766A"/>
<path d="M120.88 128.211C123.93 132.681 128.59 137.021 135 136.211C135 135.821 134.92 135.501 134.88 135.281C134.876 135.227 134.876 135.174 134.88 135.121C134.804 134.793 134.767 134.457 134.77 134.121C134.842 131.031 135.292 127.961 136.11 124.981L121.19 121.521C121.19 123.741 121.05 126.071 120.88 128.211Z" fill="#263238"/>
<path d="M133.5 98.2207C133.5 98.2207 138.55 99.5307 140.09 104.221C141.63 108.911 141.24 114.221 140.86 114.481C140.48 114.741 133.5 98.2207 133.5 98.2207Z" fill="#263238"/>
<path d="M115.54 107.13C114.48 112.55 118.83 127.44 122.92 130.43C128.85 134.77 137.76 134.32 141.25 127.38C144.64 120.64 138.62 101.38 134.13 98.7C127.51 94.82 117.1 99.13 115.54 107.13Z" fill="#D3766A"/>
<path d="M130.87 114C130.87 114 130.81 114.07 130.87 114.12C131.23 115.12 131.48 116.28 130.7 116.91C131.72 116.46 131.38 114.89 130.87 114Z" fill="#263238"/>
<path d="M129.64 113.28C128.01 113.7 128.95 116.93 130.47 116.55C131.99 116.17 131 112.94 129.64 113.28Z" fill="#263238"/>
<path d="M136.74 112.091C136.74 112.091 136.84 112.091 136.85 112.151C137.11 113.151 137.58 114.281 138.58 114.351C138.58 114.351 138.58 114.401 138.58 114.411C137.44 114.571 136.83 113.091 136.74 112.091Z" fill="#263238"/>
<path d="M137.33 110.781C138.91 110.181 139.98 113.381 138.52 113.931C137.06 114.481 136 111.271 137.33 110.781Z" fill="#263238"/>
<path d="M127.93 112.18C128.321 111.931 128.698 111.661 129.06 111.37C129.49 111.05 129.86 110.85 130.06 110.37C130.097 110.217 130.083 110.056 130.02 109.911C129.957 109.767 129.848 109.647 129.71 109.57C129.413 109.464 129.093 109.437 128.782 109.494C128.472 109.55 128.181 109.687 127.94 109.89C127.396 110.237 126.998 110.77 126.82 111.39C126.798 111.53 126.815 111.674 126.869 111.804C126.924 111.935 127.014 112.048 127.13 112.13C127.245 112.212 127.381 112.261 127.523 112.269C127.664 112.278 127.805 112.248 127.93 112.18Z" fill="#263238"/>
<path d="M138.09 109.19C137.62 109.19 137.18 109.19 136.71 109.19C136.224 109.272 135.725 109.191 135.29 108.96C135.168 108.863 135.081 108.727 135.045 108.575C135.009 108.422 135.025 108.262 135.09 108.12C135.258 107.855 135.494 107.639 135.774 107.494C136.053 107.35 136.366 107.283 136.68 107.3C137.322 107.244 137.963 107.425 138.48 107.81C138.609 107.901 138.706 108.029 138.759 108.177C138.811 108.326 138.817 108.487 138.774 108.638C138.731 108.79 138.642 108.924 138.52 109.023C138.397 109.122 138.247 109.18 138.09 109.19Z" fill="#263238"/>
<path d="M132.84 120.29C133.209 120.613 133.642 120.856 134.11 121.002C134.579 121.148 135.072 121.195 135.56 121.14C135.99 121.106 136.411 121.004 136.81 120.84C136.889 120.816 136.966 120.786 137.04 120.75L137.25 120.65C137.3 120.622 137.339 120.578 137.362 120.526C137.386 120.474 137.392 120.416 137.38 120.36C137.386 120.327 137.386 120.293 137.38 120.26V120.17C137.18 119.39 136.76 118.24 136.76 118.24C137.08 118.3 138.71 118.53 138.57 118.13C137.462 114.679 136.008 111.349 134.23 108.19C134.17 108.08 134.01 108.19 134.05 108.26C135.05 111.46 136.61 114.46 137.67 117.66C137.09 117.576 136.5 117.576 135.92 117.66C135.82 117.72 136.77 119.87 136.83 120.23C136.217 120.479 135.559 120.6 134.898 120.588C134.236 120.576 133.584 120.431 132.98 120.16C132.82 120.14 132.76 120.23 132.84 120.29Z" fill="#263238"/>
<path d="M136.24 120.581C135.976 121.256 135.542 121.852 134.98 122.311C134.672 122.557 134.294 122.697 133.9 122.711C133.04 122.711 132.8 122.001 132.76 121.331C132.745 120.972 132.772 120.613 132.84 120.261C133.91 120.726 135.101 120.838 136.24 120.581Z" fill="#263238"/>
<path d="M135 122.31C134.692 122.556 134.314 122.696 133.92 122.71C133.06 122.71 132.82 122 132.78 121.33C133.206 121.227 133.655 121.268 134.056 121.445C134.457 121.622 134.789 121.926 135 122.31Z" fill="#FF99BA"/>
<path d="M120.84 115.391C121 112.191 117.94 107.791 119.02 106.071C121.36 102.341 129.36 105.931 133.79 104.691C138.22 103.451 138.79 100.321 136.97 97.0607C135.15 93.8007 131.57 92.3107 126.56 92.9707C122.216 93.6855 118.26 95.9006 115.38 99.2307C115.38 99.2307 115.97 97.2307 115.38 96.7607C114.79 96.2907 113.19 98.6107 112.75 99.5007C112.458 100.257 112.302 101.06 112.29 101.871C111.61 101.893 110.937 102.011 110.29 102.221C109.353 102.563 108.567 103.226 108.07 104.091C108.07 104.371 109.68 104.091 110.79 103.861C110.79 103.861 109.53 107.161 110.23 109.461C110.93 111.761 117.69 121.761 118.59 121.631C119.77 121.461 120.78 116.691 120.84 115.391Z" fill="#263238"/>
<path d="M111.16 103.46C111.16 103.46 111.26 103.46 111.23 103.51C110.41 104.668 109.932 106.033 109.85 107.45C109.854 109.135 110.306 110.788 111.16 112.24C112.71 115.1 114.99 117.44 117.08 119.88C117.15 119.95 117.08 120.06 116.96 119.99C114.417 117.598 112.261 114.825 110.57 111.77C109.28 109.13 109 105.75 111.16 103.46Z" fill="#263238"/>
<path d="M118.53 105.001C119.798 104.466 121.155 104.175 122.53 104.141C123.824 104.219 125.103 104.454 126.34 104.841C129.141 105.619 132.104 105.592 134.89 104.761C132.389 105.704 129.665 105.888 127.06 105.291C125.746 104.927 124.41 104.646 123.06 104.451C121.547 104.453 120.044 104.7 118.61 105.181C118.591 105.177 118.573 105.169 118.558 105.157C118.543 105.145 118.531 105.129 118.523 105.112C118.515 105.094 118.512 105.075 118.513 105.055C118.514 105.036 118.52 105.017 118.53 105.001Z" fill="#263238"/>
<path d="M117.68 97.2602C119.173 95.8938 120.858 94.7519 122.68 93.8702C124.393 92.9639 126.251 92.3616 128.17 92.0902C131.5 91.7002 135 92.8902 136.68 95.9502C137.564 97.5058 137.835 99.3353 137.44 101.08C137.44 101.104 137.43 101.127 137.414 101.144C137.397 101.161 137.374 101.17 137.35 101.17C137.326 101.17 137.303 101.161 137.286 101.144C137.269 101.127 137.26 101.104 137.26 101.08C137.546 99.4937 137.311 97.8573 136.59 96.4154C135.869 94.9735 134.701 93.8035 133.26 93.0802C130.01 91.5602 126.26 92.4402 123.19 93.8802C121.259 94.8184 119.432 95.958 117.74 97.2802C117.74 97.2802 117.67 97.2702 117.68 97.2602Z" fill="#263238"/>
<path d="M120.07 119.16C120.07 119.16 116.07 114.69 113.97 116.16C111.87 117.63 115.35 124.43 118.08 125.08C118.425 125.186 118.787 125.222 119.146 125.185C119.505 125.148 119.852 125.039 120.168 124.864C120.484 124.69 120.761 124.453 120.983 124.169C121.205 123.885 121.367 123.558 121.46 123.21L120.07 119.16Z" fill="#D3766A"/>
<path d="M115 118.11V118.18C116.92 118.69 118.1 120.27 119 121.94C118.872 121.77 118.708 121.629 118.519 121.528C118.331 121.427 118.123 121.368 117.91 121.356C117.697 121.344 117.484 121.378 117.285 121.456C117.086 121.535 116.907 121.656 116.76 121.81C116.76 121.81 116.76 121.92 116.82 121.9C117.13 121.758 117.476 121.716 117.811 121.779C118.145 121.841 118.453 122.006 118.69 122.25C119.069 122.664 119.404 123.117 119.69 123.6C119.79 123.75 120.08 123.6 119.99 123.44C119.76 121.07 117.54 118 115 118.11Z" fill="#263238"/>
<path d="M134.8 134.271L132.75 143.741L119.83 134.411L117.33 138.54C117.33 138.54 131.14 154.541 131.07 153.691L133.41 145.43L139.59 149.84L136.88 136.581L134.8 134.271Z" fill="#DBDBDB"/>
<path d="M138.62 143.21C138.1 141.03 137.62 138.83 137.02 136.68C137.02 136.61 136.87 136.59 136.86 136.68C136.79 138.88 138.86 147.18 139.16 149.2C138.9 149.01 133.48 145.36 133.44 145.44C132.86 146.79 131.13 152.81 131.04 153.34C128.85 150.81 120.56 141.64 118.09 139.34C118.02 139.28 117.91 139.34 117.97 139.44C119.97 142.17 130.97 154.54 131.12 154.44C132.081 151.575 132.892 148.661 133.55 145.71C134.55 146.54 140.08 150.71 140.04 150.42C139.696 147.993 139.222 145.587 138.62 143.21Z" fill="#263238"/>
<path d="M167.42 193.311C143.94 136.941 197.34 119.121 233.33 104.131L260.4 92.8506L270 116.001L267 123.001L245.35 132.001C211.26 146.201 185.53 155.061 196.41 181.161C207.29 207.261 231.41 194.641 265.53 180.441L292.2 169.331L301.87 192.531L298.87 199.481L276.87 208.671C240.91 223.701 190.91 249.671 167.42 193.311Z" fill="#FBCF49"/>
<g opacity="0.1">
<path d="M167.42 193.311C143.94 136.941 197.34 119.121 233.33 104.131L260.4 92.8506L270 116.001L267 123.001L245.35 132.001C211.26 146.201 185.53 155.061 196.41 181.161C207.29 207.261 231.41 194.641 265.53 180.441L292.2 169.331L301.87 192.531L298.87 199.481L276.87 208.671C240.91 223.701 190.91 249.671 167.42 193.311Z" fill="black"/>
</g>
<path d="M240.38 128.321L239.16 134.631L267.08 122.991L270.04 115.971L240.38 128.321Z" fill="#C7C7C7"/>
<path d="M272.26 204.84L271.04 211.15L298.96 199.51L301.92 192.49L272.26 204.84Z" fill="#C7C7C7"/>
<path d="M165.36 188.36C141.88 132 195.28 114.18 231.27 99.1804L258.34 87.9004L270 116L243.33 127.11C209.24 141.31 183.51 150.17 194.39 176.28C205.27 202.39 229.39 189.76 263.51 175.56L290.18 164.44L301.88 192.51L274.81 203.79C238.85 218.76 188.85 244.72 165.36 188.36Z" fill="#FBCF49"/>
<path d="M258.34 87.9004L270 116L243.33 127.11L240.33 128.35L228.63 100.29L231.22 99.2104L258.34 87.9004Z" fill="#DBDBDB"/>
<path d="M272.26 204.84L260.57 176.78L263.57 175.53L290.24 164.41L301.94 192.48L274.87 203.76L272.26 204.84Z" fill="#DBDBDB"/>
<path d="M127.85 153C132.99 159.52 145.9 182.91 148.3 183.71C150.7 184.51 166.38 178.94 168.3 178.94C172.23 178.94 186.69 202.23 183.02 203.27C179.35 204.31 147.29 215.49 138.71 211.27C128.58 206.33 119.65 171.55 116.16 155.45C113.19 141.62 117.91 140.33 127.85 153Z" fill="#D3766A"/>
<path d="M203.27 163.08C203.889 163.716 204.3 164.526 204.446 165.402C204.593 166.277 204.469 167.177 204.09 167.98C205.565 168.281 206.888 169.087 207.83 170.26C209.39 172.41 206.7 175.8 206.7 175.8C208.162 176.418 209.403 177.464 210.26 178.8C211.55 181.01 209.33 184.8 209.33 184.8C210.351 186.128 210.862 187.778 210.77 189.45C210.35 193.9 204.23 196.96 200.37 198.94C196.51 200.92 183.68 202.94 181.27 203.56L168.33 178.9C168.33 178.9 183.14 165.08 188.01 163.39C192.12 162 200.81 160.75 203.27 163.08Z" fill="#D3766A"/>
<path d="M203.71 167.671C198.98 168.131 194.65 169.971 190.21 171.551C190.195 171.563 190.185 171.579 190.18 171.597C190.175 171.615 190.176 171.635 190.182 171.652C190.189 171.67 190.201 171.685 190.217 171.696C190.232 171.706 190.251 171.712 190.27 171.711C194.66 170.081 199.27 169.341 203.76 167.891C203.789 167.884 203.815 167.866 203.83 167.841C203.846 167.816 203.852 167.785 203.845 167.756C203.838 167.727 203.82 167.701 203.795 167.685C203.77 167.669 203.739 167.664 203.71 167.671Z" fill="#263238"/>
<path d="M206.46 175.521C205.396 175.713 204.363 176.05 203.39 176.521C202.32 176.961 201.27 177.42 200.23 177.9C198.13 178.847 196.06 179.847 194.02 180.9C193.93 180.9 194.02 181.091 194.08 181.051C196.16 180.051 198.27 179.19 200.39 178.34C201.46 177.91 202.52 177.491 203.59 177.081C204.635 176.755 205.641 176.316 206.59 175.771C206.606 175.747 206.616 175.719 206.617 175.69C206.619 175.661 206.613 175.632 206.6 175.607C206.586 175.581 206.566 175.559 206.542 175.544C206.517 175.529 206.489 175.521 206.46 175.521Z" fill="#263238"/>
<path d="M209.24 184.891C208.278 185.093 207.358 185.458 206.52 185.971L203.68 187.311C201.78 188.201 199.88 189.081 197.95 189.901C197.86 189.901 197.95 190.091 198.01 190.051C200.01 189.231 201.95 188.441 203.91 187.601L206.78 186.351C207.691 186.045 208.54 185.581 209.29 184.981C209.29 184.981 209.28 184.891 209.24 184.891Z" fill="#263238"/>
<path d="M152 183.321L154.87 212.201C154.87 212.201 141.43 213.811 137.37 211.261C133.31 208.711 122.72 192.261 115.79 157.261C113.35 144.911 115.65 135.811 127.17 151.261C138.69 166.711 147.52 182.801 148.69 183.211C149.78 183.431 150.898 183.468 152 183.321Z" fill="#DBDBDB"/>
<path d="M116 160.12C116.89 163.06 117.77 165.99 118.71 168.92C119.65 171.85 120.56 174.77 121.54 177.67C123.54 183.48 125.54 189.27 127.9 194.91C129.09 197.73 130.32 200.53 131.76 203.21C133.07 205.932 134.843 208.405 137 210.52C138.186 211.395 139.599 211.909 141.07 212C142.578 212.207 144.098 212.324 145.62 212.35C148.68 212.45 151.75 212.35 154.82 212.2C151.768 212.59 148.697 212.81 145.62 212.86C144.071 212.883 142.522 212.816 140.98 212.66C140.201 212.578 139.428 212.438 138.67 212.24C138.275 212.133 137.891 211.992 137.52 211.82C137.166 211.626 136.831 211.398 136.52 211.14C135.315 210.124 134.264 208.938 133.4 207.62C132.521 206.332 131.713 204.997 130.98 203.62C129.506 200.903 128.171 198.113 126.98 195.26C124.66 189.553 122.603 183.757 120.81 177.87C119 172 117.39 166.1 116 160.12Z" fill="#263238"/>
<path d="M116 163.261L116.89 165.131L117.33 166.051C117.48 166.361 117.64 166.671 117.77 167.051C117.203 166.609 116.747 166.041 116.44 165.391C116.286 165.071 116.165 164.736 116.08 164.391C115.986 164.022 115.959 163.639 116 163.261Z" fill="#263238"/>
<path d="M130.57 155.721C132.33 158.191 134 160.721 135.67 163.231C137.34 165.741 138.98 168.291 140.67 170.821L145.57 178.451C146.39 179.711 147.21 180.981 148.12 182.161C148.328 182.461 148.565 182.739 148.83 182.991C149.11 183.201 149.435 183.341 149.78 183.401C150.522 183.509 151.278 183.482 152.01 183.321C151.29 183.597 150.52 183.716 149.75 183.671C149.343 183.641 148.948 183.514 148.6 183.301C148.288 183.059 148 182.788 147.74 182.491C146.74 181.331 145.84 180.101 144.93 178.881C143.14 176.431 141.48 173.881 139.83 171.361C138.18 168.841 136.6 166.251 135.08 163.631C133.56 161.011 132 158.401 130.57 155.721Z" fill="#263238"/>
<path d="M132.15 155.721C132.693 156.517 133.115 157.39 133.4 158.311C133.551 158.77 133.661 159.242 133.73 159.721C133.81 160.201 133.81 160.691 133.73 161.171C133.26 159.321 132.57 157.611 132.15 155.721Z" fill="#263238"/>
<path d="M150.18 181.84C150.03 182.35 154.32 213.571 154.32 213.571L161.18 212.951L156.79 180.771L150.18 181.84Z" fill="#A6A6A6"/>
<path d="M191.5 116.641C194.01 113.311 196.07 107.161 198.62 105.411C199.233 104.955 199.976 104.708 200.74 104.708C201.504 104.708 202.247 104.955 202.86 105.411C202.86 105.411 202.8 101.991 205.38 100.781C206.71 100.161 208.87 101.781 208.87 101.781C208.896 101.003 209.137 100.247 209.566 99.598C209.995 98.9486 210.595 98.4304 211.3 98.1007C213.18 97.3607 215.06 99.1007 215.06 99.1007C215.06 99.1007 216.35 96.4907 218.51 96.3407C222.89 96.0607 230.94 111.441 226.51 116.781C224.45 119.271 222.69 115.411 222.69 115.411C222.69 115.411 223.88 121.581 220.75 123.321C217.62 125.061 215.63 119.901 215.63 119.901C215.63 119.901 216.73 125.901 213.31 127.361C209.74 128.901 208.64 123.361 208.64 123.361C208.64 123.361 208.11 127.991 205.23 128.521C200.47 129.391 202.23 120.221 199.66 117.261L193.11 118.261L191.5 116.641Z" fill="#D3766A"/>
<path d="M194.74 111C192.09 114 185.89 112 182.95 114.45C178.95 117.76 186.01 120.51 193.11 118.23L198.31 115.49L194.74 111Z" fill="#D3766A"/>
<path d="M215.4 99.2208C215.4 99.2208 215.4 99.1208 215.47 99.1608C219.52 103.739 222.08 109.442 222.81 115.511C222.81 115.701 222.52 115.811 222.46 115.601C220.911 109.828 218.533 104.311 215.4 99.2208Z" fill="#263238"/>
<path d="M208.86 101.641C208.86 101.581 208.92 101.521 208.97 101.581C213.384 106.667 215.831 113.166 215.87 119.901C215.87 120.141 215.62 120.351 215.61 120.071C215.37 115.501 211.87 106.371 208.86 101.641Z" fill="#263238"/>
<path d="M208.47 123.79C208.37 117.21 206.17 111.32 203.04 105.59C203.04 105.52 203.11 105.47 203.16 105.52C205.45 107.91 207.07 111.76 208.07 114.87C209.056 117.737 209.273 120.813 208.7 123.79C208.68 123.91 208.47 123.93 208.47 123.79Z" fill="#263238"/>
<path d="M302.38 168.47L304.7 165.47C305.5 164.47 306.21 163.47 307.08 162.47C307.994 161.517 309.132 160.809 310.39 160.41C311.663 160.021 313.009 159.938 314.32 160.17C314.923 160.319 315.534 160.435 316.15 160.52C316.748 160.585 317.352 160.585 317.95 160.52C319.139 160.367 320.271 159.917 321.24 159.21C321.723 158.856 322.163 158.447 322.55 157.99L323.75 156.53C324.572 155.463 325.639 154.609 326.86 154.04C328.094 153.483 329.45 153.249 330.8 153.36C331.459 153.422 332.111 153.539 332.75 153.71C333.333 153.857 333.929 153.94 334.53 153.96C335.73 154.004 336.922 153.739 337.99 153.19C339.066 152.636 340 151.842 340.72 150.87C341.483 149.79 342.481 148.897 343.64 148.26C344.8 147.632 346.101 147.312 347.42 147.33C348.705 147.421 349.975 147.669 351.2 148.07L354.87 149.07L351.13 148.33C349.923 148.005 348.68 147.833 347.43 147.82C346.204 147.854 345.007 148.198 343.95 148.82C342.901 149.456 342.006 150.316 341.33 151.34C340.577 152.45 339.559 153.356 338.368 153.974C337.177 154.592 335.851 154.903 334.51 154.88C333.836 154.865 333.166 154.781 332.51 154.63C331.921 154.47 331.318 154.37 330.71 154.33C329.518 154.24 328.324 154.457 327.24 154.96C326.148 155.456 325.191 156.207 324.45 157.15L323.22 158.61C321.897 160.157 320.041 161.149 318.02 161.39C317.356 161.476 316.684 161.476 316.02 161.39C315.383 161.286 314.752 161.15 314.13 160.98C312.938 160.711 311.698 160.742 310.521 161.072C309.344 161.402 308.268 162.02 307.39 162.87C305.71 164.62 304.09 166.61 302.38 168.47Z" fill="#263238"/>
<path d="M305.17 178.14L307.48 175.14C308.28 174.14 308.99 173.14 309.87 172.14C310.782 171.184 311.921 170.472 313.18 170.07C314.449 169.679 315.794 169.6 317.1 169.84C317.77 169.97 318.33 170.12 318.94 170.18C319.535 170.25 320.135 170.25 320.73 170.18C322.526 169.942 324.167 169.039 325.33 167.65L326.53 166.19C327.357 165.124 328.427 164.27 329.65 163.7C330.886 163.15 332.241 162.92 333.59 163.03C334.246 163.084 334.895 163.198 335.53 163.37C336.117 163.515 336.716 163.602 337.32 163.63C338.52 163.663 339.71 163.395 340.78 162.85C341.85 162.292 342.78 161.499 343.5 160.53C344.268 159.455 345.265 158.563 346.42 157.92C347.583 157.292 348.888 156.972 350.21 156.99C351.492 157.082 352.758 157.33 353.98 157.73L357.65 158.73L353.92 157.99C352.712 157.67 351.469 157.499 350.22 157.48C348.991 157.516 347.791 157.86 346.73 158.48C345.682 159.113 344.79 159.975 344.12 161C343.367 162.111 342.349 163.017 341.159 163.637C339.968 164.257 338.642 164.57 337.3 164.55C336.626 164.531 335.956 164.444 335.3 164.29C334.711 164.133 334.108 164.033 333.5 163.99C332.312 163.905 331.122 164.122 330.04 164.62C328.948 165.116 327.991 165.867 327.25 166.81L326 168.23C325.56 168.739 325.059 169.192 324.51 169.58C323.415 170.364 322.138 170.856 320.8 171.01C320.136 171.09 319.464 171.09 318.8 171.01C318.15 170.92 317.48 170.72 316.92 170.59C315.726 170.322 314.485 170.354 313.307 170.684C312.128 171.014 311.051 171.631 310.17 172.48C308.5 174.28 306.87 176.27 305.17 178.14Z" fill="#263238"/>
<path d="M308 187.8L310.32 184.8C311.12 183.8 311.83 182.8 312.7 181.8C313.614 180.847 314.752 180.139 316.01 179.74C317.281 179.341 318.63 179.258 319.94 179.5C320.61 179.63 321.17 179.78 321.77 179.84C322.368 179.915 322.972 179.915 323.57 179.84C324.762 179.696 325.896 179.244 326.86 178.53C327.341 178.177 327.78 177.771 328.17 177.32L329.37 175.85C330.195 174.786 331.261 173.932 332.48 173.36C333.72 172.81 335.078 172.58 336.43 172.69C337.086 172.744 337.735 172.858 338.37 173.03C338.953 173.175 339.55 173.262 340.15 173.29C341.349 173.323 342.538 173.059 343.61 172.52C344.685 171.96 345.618 171.163 346.34 170.19C347.108 169.115 348.106 168.223 349.26 167.58C350.425 166.956 351.729 166.636 353.05 166.65C354.332 166.742 355.598 166.99 356.82 167.39L360.49 168.39L356.76 167.65C355.549 167.33 354.303 167.158 353.05 167.14C351.824 167.176 350.628 167.52 349.57 168.14C348.522 168.773 347.63 169.634 346.96 170.66C346.205 171.771 345.185 172.677 343.993 173.297C342.801 173.916 341.473 174.23 340.13 174.21C339.456 174.191 338.786 174.104 338.13 173.95C337.539 173.8 336.937 173.699 336.33 173.65C335.139 173.571 333.947 173.787 332.86 174.28C331.768 174.776 330.812 175.527 330.07 176.47L328.84 177.93C327.517 179.477 325.661 180.469 323.64 180.71C322.976 180.791 322.304 180.791 321.64 180.71C320.98 180.62 320.32 180.42 319.75 180.29C318.558 180.021 317.318 180.052 316.141 180.382C314.964 180.712 313.888 181.33 313.01 182.18C311.29 183.94 309.66 185.93 308 187.8Z" fill="#263238"/>
<path d="M272.23 94.3897L274.54 91.3897C275.34 90.3897 276.05 89.3897 276.93 88.3897C277.84 87.4329 278.979 86.7239 280.24 86.3297C281.509 85.9407 282.853 85.8585 284.16 86.0897C284.767 86.2394 285.381 86.3563 286 86.4397C286.595 86.5048 287.195 86.5048 287.79 86.4397C288.979 86.2871 290.111 85.8365 291.08 85.1297C291.568 84.7817 292.008 84.3716 292.39 83.9097L293.59 82.4497C294.414 81.3805 295.485 80.5263 296.71 79.9597C297.945 79.4032 299.3 79.1693 300.65 79.2797C301.306 79.3367 301.955 79.4539 302.59 79.6297C303.176 79.7766 303.776 79.8604 304.38 79.8797C305.58 79.921 306.771 79.656 307.84 79.1097C308.91 78.5515 309.84 77.7583 310.56 76.7897C311.325 75.7119 312.323 74.8199 313.48 74.1797C314.643 73.552 315.948 73.2318 317.27 73.2497C318.539 73.348 319.792 73.5998 321 73.9997L324.67 74.9997L321 74.2197C319.79 73.8947 318.543 73.7233 317.29 73.7097C316.065 73.7468 314.868 74.0906 313.81 74.7097C312.762 75.343 311.87 76.2043 311.2 77.2297C310.446 78.3396 309.428 79.2443 308.238 79.8623C307.047 80.4804 305.721 80.7922 304.38 80.7697C303.707 80.754 303.037 80.6702 302.38 80.5197C301.792 80.3583 301.189 80.2578 300.58 80.2197C299.392 80.1319 298.201 80.3487 297.12 80.8497C296.031 81.3321 295.074 82.0695 294.33 82.9997L293.1 84.4597C292.66 84.9684 292.159 85.4217 291.61 85.8097C290.516 86.5945 289.238 87.0836 287.9 87.2297C287.236 87.3198 286.564 87.3198 285.9 87.2297C285.265 87.1281 284.638 86.9878 284.02 86.8097C282.825 86.5445 281.584 86.5792 280.406 86.9107C279.228 87.2423 278.151 87.8603 277.27 88.7097C275.56 90.5397 273.93 92.5297 272.23 94.3897Z" fill="#263238"/>
<path d="M275 104.05L277.32 101.05C278.12 100.05 278.83 99.0497 279.7 98.0497C280.615 97.1056 281.748 96.4015 283 95.9997C284.273 95.6086 285.621 95.5297 286.93 95.7697C287.6 95.8997 288.16 96.0497 288.76 96.1097C289.358 96.1747 289.962 96.1747 290.56 96.1097C291.752 95.9657 292.886 95.5143 293.85 94.7997C294.333 94.4463 294.773 94.0368 295.16 93.5797L296.36 92.1197C297.185 91.0555 298.251 90.2022 299.47 89.6297C300.707 89.0826 302.061 88.849 303.41 88.9497C304.069 89.0116 304.721 89.1287 305.36 89.2997C305.943 89.4465 306.539 89.5303 307.14 89.5497C308.34 89.5941 309.532 89.3289 310.6 88.7797C311.676 88.2256 312.61 87.4319 313.33 86.4597C314.093 85.3795 315.091 84.487 316.25 83.8497C317.41 83.2219 318.711 82.9017 320.03 82.9197C321.316 83.0105 322.585 83.2591 323.81 83.6597L327.48 84.6597L323.75 83.9197C322.54 83.5946 321.293 83.4233 320.04 83.4097C318.814 83.4442 317.617 83.7882 316.56 84.4097C315.535 85.0345 314.661 85.8779 314 86.8797C313.245 87.9909 312.226 88.8966 311.033 89.5147C309.841 90.1328 308.513 90.4438 307.17 90.4197C306.496 90.4095 305.826 90.3257 305.17 90.1697C304.58 90.0147 303.978 89.9143 303.37 89.8697C302.179 89.7858 300.986 90.0024 299.9 90.4997C298.808 90.9961 297.852 91.7471 297.11 92.6897L295.88 94.1497C294.557 95.6967 292.701 96.6892 290.68 96.9297C290.016 97.0105 289.344 97.0105 288.68 96.9297C288.02 96.8397 287.36 96.6397 286.79 96.5097C285.598 96.2404 284.358 96.2721 283.181 96.6021C282.004 96.9321 280.928 97.5498 280.05 98.3997C278.35 100.2 276.72 102.19 275 104.05Z" fill="#263238"/>
<path d="M277.8 113.72L280.12 110.72C280.92 109.72 281.62 108.72 282.5 107.72C283.416 106.767 284.553 106.056 285.81 105.65C287.079 105.259 288.424 105.18 289.73 105.42C290.4 105.55 290.96 105.7 291.57 105.76C292.164 105.835 292.766 105.835 293.36 105.76C295.156 105.522 296.797 104.619 297.96 103.23L299.16 101.77C299.987 100.703 301.057 99.8496 302.28 99.2797C303.517 98.73 304.871 98.4996 306.22 98.6097C306.876 98.6635 307.525 98.7773 308.16 98.9497C308.747 99.0949 309.346 99.182 309.95 99.2097C311.149 99.2425 312.338 98.9779 313.41 98.4397C314.479 97.8757 315.409 97.0796 316.13 96.1097C316.9 95.0359 317.897 94.1448 319.05 93.4997C320.215 92.8765 321.519 92.5566 322.84 92.5697C324.122 92.6606 325.389 92.9092 326.61 93.3097L330.28 94.3097L326.55 93.5697C325.342 93.2502 324.1 93.079 322.85 93.0597C321.621 93.0956 320.421 93.4394 319.36 94.0597C318.312 94.6929 317.42 95.5543 316.75 96.5797C315.998 97.6914 314.98 98.5981 313.789 99.2179C312.599 99.8377 311.272 100.151 309.93 100.13C309.256 100.111 308.586 100.024 307.93 99.8697C307.34 99.718 306.738 99.6176 306.13 99.5697C304.942 99.4901 303.753 99.7065 302.67 100.2C301.578 100.696 300.622 101.447 299.88 102.39L298.65 103.85C298.21 104.358 297.71 104.812 297.16 105.2C296.065 105.983 294.788 106.475 293.45 106.63C292.786 106.71 292.114 106.71 291.45 106.63C290.8 106.54 290.13 106.34 289.57 106.21C288.376 105.941 287.135 105.974 285.957 106.303C284.779 106.633 283.701 107.251 282.82 108.1C281.13 109.86 279.5 111.85 277.8 113.72Z" fill="#263238"/>
<path d="M377.66 117.71L323.82 104.12L335.32 58.5803L366.55 48.2803L389.16 72.1703L377.66 117.71Z" fill="#FBCF49"/>
<path opacity="0.2" d="M377.66 117.71L323.82 104.12L335.32 58.5803L366.55 48.2803L389.16 72.1703L377.66 117.71Z" fill="black"/>
<path d="M375.51 113.46L327.74 101.41L343.21 40.0898L378.68 49.0398L388.03 63.8298L375.51 113.46Z" fill="#EBEBEB"/>
<path d="M378.68 49.04L388.03 63.83L375.73 60.72L378.68 49.04Z" fill="#DBDBDB"/>
<path d="M363.12 60.7495C364.579 61.083 365.957 61.7015 367.176 62.5694C368.395 63.4372 369.431 64.5375 370.224 65.8068C371.016 67.0761 371.55 68.4895 371.795 69.9658C372.04 71.4422 371.99 72.9523 371.65 74.4095C371.253 76.1712 370.448 77.8152 369.3 79.2095C368.4 80.1926 367.182 80.8265 365.86 80.9995C365.64 81.0026 365.421 80.9723 365.21 80.9095C364.859 80.8436 364.529 80.6937 364.249 80.4725C363.968 80.2513 363.746 79.9655 363.6 79.6395C363.383 79.1211 363.331 78.5486 363.45 77.9995L363.7 76.9195C363.061 77.4025 362.326 77.7419 361.544 77.9145C360.762 78.0871 359.952 78.0888 359.17 77.9195C357.628 77.5173 356.303 76.5292 355.478 75.1655C354.653 73.8017 354.392 72.1698 354.752 70.617C355.111 69.0641 356.063 67.7128 357.403 66.8505C358.744 65.9881 360.368 65.6828 361.93 65.9995C363.449 66.3989 364.747 67.3845 365.54 68.7399C366.333 70.0953 366.556 71.7099 366.16 73.2295L366.1 73.4795V73.6395L365 78.2095C364.935 78.4519 364.935 78.707 365 78.9495C365.06 79.0995 365.2 79.2295 365.52 79.2995L365.77 79.3595C366.641 79.257 367.439 78.8238 368 78.1495C368.997 76.9701 369.684 75.561 370 74.0495C370.436 72.1583 370.301 70.1803 369.612 68.3659C368.923 66.5514 367.712 64.982 366.131 63.8563C364.55 62.7305 362.671 62.0989 360.731 62.0414C358.791 61.984 356.877 62.5032 355.233 63.5335C353.588 64.5637 352.286 66.0586 351.491 67.8291C350.696 69.5996 350.444 71.5661 350.767 73.4798C351.09 75.3935 351.973 77.1684 353.305 78.5799C354.637 79.9914 356.358 80.9761 358.25 81.4095C359.042 81.6235 359.86 81.7245 360.68 81.7095C361.12 81.7095 361.52 81.9995 361.45 82.4495C361.462 82.554 361.451 82.6598 361.417 82.7596C361.384 82.8593 361.329 82.9505 361.256 83.0268C361.184 83.103 361.096 83.1625 360.998 83.201C360.9 83.2394 360.795 83.256 360.69 83.2495C359.073 83.2845 357.467 82.975 355.979 82.3417C354.491 81.7083 353.154 80.7656 352.059 79.576C350.963 78.3865 350.133 76.9774 349.623 75.4424C349.114 73.9074 348.937 72.2816 349.104 70.6729C349.272 69.0643 349.779 67.5096 350.594 66.1123C351.408 64.7149 352.51 63.5068 353.827 62.5682C355.145 61.6296 356.646 60.9821 358.233 60.6685C359.82 60.3549 361.455 60.3825 363.03 60.7495H363.12ZM359.55 76.1795C360.671 76.397 361.834 76.1614 362.782 75.5242C363.73 74.887 364.387 73.9001 364.61 72.7795C364.901 71.678 364.75 70.5065 364.189 69.5146C363.629 68.5227 362.703 67.7889 361.61 67.4695C360.492 67.2704 359.34 67.5197 358.404 68.1636C357.468 68.8074 356.824 69.7939 356.61 70.9095C356.302 71.9982 356.438 73.1647 356.989 74.1528C357.541 75.1409 358.462 75.8698 359.55 76.1795Z" fill="#A6A6A6"/>
<path d="M386.28 83.57L377.66 117.71L323.82 104.12L332.44 70C334.44 71.89 336.35 73.84 338.3 75.76C340.25 77.68 342.17 79.65 344.08 81.61C346.22 83.7767 348.347 85.97 350.46 88.19H350.55H350.47C352.057 89.8367 353.643 91.5033 355.23 93.19C357.41 92.48 359.59 91.77 361.77 91.08V91.01L361.84 91.07C364.747 90.13 367.66 89.2067 370.58 88.3C373.193 87.4867 375.81 86.69 378.43 85.91C381 85.09 383.64 84.29 386.28 83.57Z" fill="#FBCF49"/>
<g opacity="0.2">
<path d="M386.28 83.5695C383.72 84.5695 381.13 85.4495 378.56 86.3995C375.99 87.3495 373.4 88.2295 370.81 89.1195C368.22 90.0095 365.4 90.9695 362.69 91.8795L362.44 91.9695L355.24 94.3595L354.89 94.4695L354.64 94.2095L349.44 88.6895L349.26 88.4895C347.3 86.4095 345.354 84.3128 343.42 82.1995C341.57 80.1995 339.72 78.1995 337.89 76.1395C336.06 74.0795 334.23 72.0595 332.44 69.9795C334.44 71.8695 336.35 73.8195 338.3 75.7395C340.25 77.6595 342.17 79.6295 344.08 81.5895C346.22 83.7562 348.347 85.9495 350.46 88.1695C352.047 89.8162 353.634 91.4828 355.22 93.1695C357.4 92.4595 359.58 91.7495 361.76 91.0595C364.667 90.1195 367.58 89.1962 370.5 88.2895C373.114 87.4762 375.73 86.6795 378.35 85.8995C381 85.0895 383.64 84.2895 386.28 83.5695Z" fill="black"/>
<path d="M350.55 88.1396H350.47L349.47 88.6497C347.843 89.443 346.177 90.1896 344.47 90.8896C342.47 91.7696 340.36 92.5796 338.28 93.3796C336.2 94.1796 334.12 94.9997 332 95.6597C329.88 96.3197 327.76 97.0397 325.6 97.6597C327.6 96.6597 329.6 95.7296 331.67 94.8596C333.74 93.9896 335.79 93.1796 337.86 92.3796C339.93 91.5796 342.03 90.8296 344.15 90.1296C345.83 89.5596 347.53 89.0196 349.25 88.5396L350.45 88.2197L350.55 88.1396Z" fill="black"/>
<path d="M379.19 111.13C377.55 109.61 375.99 108 374.48 106.38C372.97 104.76 371.48 103.1 370.01 101.43C368.54 99.76 367.12 98.04 365.74 96.3C364.61 94.89 363.5 93.45 362.44 91.97C362.21 91.66 361.99 91.34 361.77 91.03V90.96L361.84 91.02L362.74 91.88C364.03 93.12 365.26 94.4 366.48 95.7C368.01 97.32 369.48 98.98 370.94 100.7C372.4 102.42 373.83 104.08 375.21 105.83C376.59 107.58 377.91 109.29 379.19 111.13Z" fill="black"/>
</g>
<path d="M451.71 201.86L408.98 214.16L398.57 178.01L416.04 158.3L441.31 165.71L451.71 201.86Z" fill="#FBCF49"/>
<path opacity="0.2" d="M451.71 201.86L408.98 214.16L398.57 178.01L416.04 158.3L441.31 165.71L451.71 201.86Z" fill="black"/>
<path d="M448.51 199.79L410.59 210.7L396.59 162.03L424.74 153.93L437.17 160.39L448.51 199.79Z" fill="#EBEBEB"/>
<path d="M424.74 153.93L437.17 160.39L427.41 163.2L424.74 153.93Z" fill="#DBDBDB"/>
<path d="M418.69 168.3C420.183 167.855 421.765 167.797 423.288 168.13C424.81 168.464 426.222 169.178 427.393 170.206C428.564 171.234 429.455 172.542 429.983 174.009C430.51 175.475 430.657 177.051 430.41 178.59C430.166 179.623 429.568 180.539 428.72 181.18C428.572 181.271 428.41 181.339 428.24 181.38C427.972 181.476 427.684 181.506 427.401 181.466C427.119 181.425 426.851 181.317 426.62 181.15C426.262 180.878 425.993 180.505 425.85 180.08L425.59 179.23C425.338 179.818 424.962 180.346 424.487 180.776C424.013 181.205 423.451 181.527 422.84 181.72C421.611 182.061 420.298 181.91 419.179 181.298C418.059 180.686 417.223 179.662 416.847 178.444C416.47 177.225 416.584 175.908 417.164 174.772C417.743 173.636 418.743 172.77 419.95 172.36C421.161 172.024 422.455 172.182 423.549 172.799C424.644 173.415 425.449 174.44 425.79 175.65L425.85 175.85V175.98L426.98 179.64C427.041 179.829 427.147 180.001 427.29 180.14C427.367 180.179 427.453 180.2 427.54 180.2C427.627 180.2 427.713 180.179 427.79 180.14L428 180.08C428.544 179.65 428.903 179.026 429 178.34C429.232 177.119 429.15 175.859 428.76 174.68C428.298 173.197 427.407 171.885 426.2 170.909C424.992 169.933 423.522 169.338 421.976 169.197C420.43 169.056 418.877 169.377 417.513 170.12C416.149 170.862 415.036 171.992 414.315 173.366C413.593 174.741 413.295 176.299 413.459 177.843C413.623 179.386 414.241 180.847 415.235 182.04C416.228 183.233 417.554 184.104 419.043 184.544C420.532 184.983 422.118 184.971 423.6 184.51C424.234 184.335 424.84 184.073 425.4 183.73C425.466 183.682 425.542 183.65 425.622 183.634C425.702 183.619 425.785 183.622 425.864 183.642C425.943 183.662 426.017 183.699 426.08 183.75C426.143 183.802 426.194 183.866 426.23 183.94C426.282 184.006 426.318 184.082 426.336 184.164C426.354 184.246 426.353 184.331 426.334 184.413C426.315 184.494 426.277 184.57 426.225 184.636C426.172 184.701 426.106 184.753 426.03 184.79C425.39 185.19 424.701 185.506 423.98 185.73C422.834 186.084 421.63 186.21 420.435 186.099C419.241 185.988 418.081 185.643 417.02 185.083C414.877 183.953 413.271 182.019 412.555 179.705C412.2 178.559 412.075 177.354 412.186 176.16C412.297 174.966 412.642 173.805 413.201 172.744C413.761 171.683 414.524 170.743 415.447 169.977C416.369 169.211 417.434 168.634 418.58 168.28L418.69 168.3ZM422.44 180.42C423.303 180.118 424.011 179.487 424.411 178.664C424.81 177.841 424.867 176.894 424.57 176.03C424.448 175.602 424.241 175.203 423.962 174.856C423.684 174.509 423.338 174.222 422.946 174.011C422.555 173.8 422.124 173.67 421.682 173.628C421.239 173.586 420.792 173.633 420.367 173.767C419.943 173.9 419.55 174.118 419.211 174.406C418.872 174.694 418.594 175.047 418.394 175.445C418.193 175.842 418.075 176.276 418.045 176.72C418.015 177.164 418.075 177.609 418.22 178.03C418.463 178.906 419.044 179.65 419.835 180.098C420.626 180.546 421.563 180.662 422.44 180.42Z" fill="#A6A6A6"/>
<path d="M443.91 174.76L451.71 201.86L409 214.16L401.2 187.06C403.33 187.57 405.45 188.14 407.57 188.69C409.69 189.24 411.82 189.81 413.93 190.4C416.29 191.04 418.64 191.71 421 192.4V192.46L426.3 193.97C427.52 192.6 428.74 191.23 429.97 189.88C429.97 189.88 429.97 189.88 429.91 189.88H430C431.64 188.06 433.283 186.246 434.93 184.44C436.41 182.833 437.9 181.226 439.4 179.62C440.89 177.94 442.38 176.33 443.91 174.76Z" fill="#FBCF49"/>
<g opacity="0.2">
<path d="M443.91 174.76C442.54 176.47 441.11 178.14 439.72 179.83C438.33 181.52 436.88 183.18 435.45 184.83C434.02 186.48 432.45 188.29 430.94 190.01L430.81 190.18L426.81 194.73L426.61 194.95L426.33 194.87L420.51 193.14L420.3 193.08C418.1 192.43 415.91 191.77 413.72 191.08C411.53 190.39 409.54 189.78 407.45 189.08C405.36 188.38 403.27 187.74 401.2 187.02C403.33 187.53 405.45 188.1 407.57 188.65C409.69 189.2 411.82 189.77 413.93 190.36C416.29 191 418.64 191.67 421 192.36L426.3 193.87C427.52 192.5 428.74 191.13 429.97 189.78C431.61 187.96 433.253 186.146 434.9 184.34C436.38 182.733 437.87 181.126 439.37 179.52C440.89 177.94 442.38 176.33 443.91 174.76Z" fill="black"/>
<path d="M421 192.33V192.39L420.5 193.15C419.68 194.36 418.84 195.55 417.96 196.71C416.9 198.14 415.79 199.53 414.68 200.93C413.57 202.33 412.42 203.67 411.24 205.01C410.06 206.35 408.86 207.67 407.59 208.93C408.59 207.42 409.59 205.93 410.67 204.55C411.75 203.17 412.84 201.72 413.95 200.34C415.06 198.96 416.22 197.58 417.4 196.24C418.33 195.18 419.29 194.11 420.29 193.09L420.99 192.38L421 192.33Z" fill="black"/>
<path d="M450.11 196.69C448.37 196.3 446.64 195.82 444.94 195.31C443.24 194.8 441.54 194.24 439.85 193.68C438.16 193.12 436.49 192.5 434.85 191.85C433.5 191.33 432.15 190.79 430.85 190.19L430 189.81C430 189.81 430 189.81 429.94 189.81H430L431 190.04C432.39 190.38 433.76 190.77 435.13 191.18C436.84 191.69 438.53 192.24 440.21 192.81C441.89 193.38 443.57 193.99 445.21 194.64C446.85 195.29 448.49 195.93 450.11 196.69Z" fill="black"/>
</g>
<path d="M255.877 78.6753L254.159 102.824L292.243 105.534L293.961 81.3851L255.877 78.6753Z" fill="#FBCF49"/>
<path opacity="0.2" d="M294 81.3995C292.36 82.7595 290.69 84.0595 289 85.3995C287.31 86.7395 285.67 88.0095 284 89.2995C282.33 90.5895 280.5 91.9795 278.75 93.2995L278.6 93.4295L274 96.9095L273.77 97.0795L273.57 96.8794L269.46 92.7595C269.408 92.7144 269.361 92.6641 269.32 92.6095C267.77 91.0595 266.22 89.4895 264.69 87.8995C263.16 86.3095 261.75 84.8994 260.29 83.3394C258.83 81.7794 257.38 80.2695 255.94 78.6895C257.49 80.0595 259 81.4995 260.53 82.9095C262.06 84.3195 263.53 85.7695 265.07 87.2195C266.75 88.8261 268.417 90.4528 270.07 92.0994L273.83 95.7794C275.23 94.7794 276.65 93.6894 278.06 92.6694C279.95 91.2894 281.83 89.9095 283.73 88.5495C285.42 87.3395 287.13 86.1295 288.83 84.9395C290.53 83.7495 292.25 82.5395 294 81.3995Z" fill="black"/>
<path opacity="0.2" d="M270.07 92.6497H270.02L269.38 93.1197C268.38 93.8497 267.38 94.5596 266.29 95.2396C265.01 96.0796 263.71 96.8696 262.4 97.6696C261.09 98.4696 259.76 99.2097 258.4 99.9397C257.04 100.67 255.7 101.39 254.3 102.03C255.53 101.1 256.8 100.24 258.07 99.4097C259.34 98.5797 260.66 97.7697 261.97 96.9797C263.28 96.1897 264.61 95.4296 265.97 94.6996C267.04 94.1096 268.13 93.5397 269.23 93.0097L270.01 92.6396L270.07 92.6497Z" fill="black"/>
<path opacity="0.2" d="M292.22 104.77C290.93 103.93 289.68 103.03 288.46 102.12C287.24 101.21 286.03 100.26 284.84 99.3C283.65 98.34 282.47 97.36 281.33 96.3C280.39 95.48 279.47 94.64 278.58 93.77L278.01 93.21H277.96H278.02C278.26 93.37 278.5 93.52 278.73 93.69C279.73 94.37 280.73 95.09 281.73 95.82C282.95 96.73 284.15 97.68 285.34 98.64C286.53 99.6 287.7 100.58 288.85 101.64C290 102.7 291.13 103.67 292.22 104.77Z" fill="black"/>
<path d="M448.079 86.0416L421.484 87.4121L422.354 104.28L448.948 102.909L448.079 86.0416Z" fill="#FBCF49"/>
<path opacity="0.2" d="M448.08 86.0498C447.08 87.1398 446.01 88.1798 444.98 89.2398C443.95 90.2998 442.9 91.3398 441.85 92.3698C440.8 93.3998 439.66 94.5198 438.56 95.5898C438.529 95.6256 438.496 95.659 438.46 95.6898L435.54 98.5098L435.39 98.6398L435.24 98.5198L432 95.9998L431.89 95.9098C430.68 94.9098 429.48 94.0098 428.28 93.0398C427.08 92.0698 425.99 91.1898 424.85 90.2598C423.71 89.3298 422.57 88.3798 421.44 87.3998C422.63 88.2298 423.8 89.0898 424.97 89.9398L428.49 92.5298C429.79 93.5298 431.09 94.5298 432.38 95.5298L435.3 97.7598C436.18 96.9198 437.07 96.0698 437.96 95.2398L441.53 91.9098C442.603 90.9231 443.68 89.9431 444.76 88.9698C445.91 87.9998 447 86.9998 448.08 86.0498Z" fill="black"/>
<path opacity="0.2" d="M432.48 95.8901L432.08 96.2601C431.45 96.8601 430.79 97.4401 430.08 97.9901C429.27 98.6901 428.43 99.3501 427.59 99.9901C426.75 100.63 425.9 101.28 425.03 101.9C424.16 102.52 423.29 103.13 422.37 103.7C423.15 102.95 423.95 102.25 424.76 101.56C425.57 100.87 426.42 100.21 427.25 99.5601C428.08 98.9101 428.95 98.2601 429.82 97.6401C430.51 97.1401 431.21 96.6401 431.93 96.1901L432.44 95.8701L432.48 95.8901Z" fill="black"/>
<path opacity="0.2" d="M448.86 102.38C447.86 101.92 446.95 101.38 446.03 100.87C445.11 100.36 444.19 99.7899 443.28 99.2299C442.37 98.6699 441.48 98.0899 440.6 97.4799C439.88 96.9999 439.17 96.4799 438.48 95.9699L438.03 95.6299L438.57 95.8999C439.33 96.2799 440.08 96.6999 440.82 97.1199C441.75 97.6499 442.66 98.1999 443.56 98.7699C444.46 99.3399 445.37 99.9099 446.25 100.51C447.13 101.11 448 101.72 448.86 102.38Z" fill="black"/>
<path d="M268.022 99.4114L256.692 111.938L276.441 129.801L287.771 117.275L268.022 99.4114Z" fill="white"/>
<path d="M276.44 129.779L266.49 121.049L256.49 112.159L256.25 111.939L256.47 111.699L267.76 99.1394L268.01 98.8594L268.29 99.1094C274.84 105.109 281.44 111.039 287.95 117.109L288.13 117.279L287.97 117.459C284.1 121.619 280.21 125.699 276.44 129.779ZM276.44 129.779C280.22 125.509 283.88 121.239 287.59 117.089V117.429C280.93 111.559 274.35 105.589 267.74 99.6694H268.27L256.9 112.159V111.709L266.63 120.709L276.44 129.779Z" fill="#C7C7C7"/>
<path opacity="0.2" d="M287.77 117.25C286.28 117.25 284.77 117.25 283.32 117.32H278.9C277.36 117.32 275.83 117.32 274.3 117.26H274.15L270.09 117.18H269.9V116.99L269.42 112.99C269.42 112.99 269.42 112.9 269.42 112.85C269.24 111.33 269.06 109.85 268.9 108.27C268.74 106.69 268.59 105.35 268.45 103.88C268.31 102.41 268.17 100.93 268.06 99.4502C268.32 100.87 268.53 102.31 268.77 103.74C269.01 105.17 269.21 106.62 269.41 108.06C269.64 109.67 269.86 111.28 270.07 112.91C270.24 114.12 270.39 115.33 270.55 116.54L274.22 116.65C275.847 116.704 277.477 116.764 279.11 116.83C280.56 116.89 282.02 116.95 283.47 117.03C284.92 117.11 286.33 117.14 287.77 117.25Z" fill="black"/>
<path opacity="0.2" d="M269.79 113.16H269.24C268.37 113.16 267.5 113.07 266.63 112.99C265.57 112.91 264.51 112.78 263.45 112.65C262.39 112.52 261.34 112.37 260.28 112.19C259.22 112.01 258.18 111.83 257.14 111.58C258.21 111.58 259.27 111.67 260.34 111.76C261.41 111.85 262.46 111.97 263.52 112.1C264.58 112.23 265.63 112.38 266.69 112.56C267.53 112.7 268.37 112.85 269.21 113.04L269.79 113.17V113.16Z" fill="black"/>
<path opacity="0.2" d="M276.75 129.34C276.4 128.34 276.1 127.34 275.83 126.27C275.56 125.2 275.3 124.2 275.05 123.16C274.8 122.12 274.59 121.08 274.39 120.03C274.23 119.18 274.08 118.32 273.97 117.46C273.97 117.27 273.92 117.09 273.9 116.91L274.08 117.48C274.35 118.3 274.59 119.12 274.81 119.94C275.09 120.94 275.34 122.01 275.58 123.05C275.82 124.09 276.05 125.13 276.24 126.18C276.43 127.23 276.63 128.27 276.75 129.34Z" fill="black"/>
<path d="M407.287 125.27L371.95 139.727L381.117 162.134L416.454 147.677L407.287 125.27Z" fill="white"/>
<path d="M416.45 147.68L398.93 155.06L381.24 162.44L380.94 162.56L380.82 162.26L371.6 139.87L371.46 139.52L371.81 139.38C383.6 134.6 395.37 129.77 407.19 125.05L407.42 124.96L407.51 125.18L416.45 147.68ZM416.45 147.68L407.06 125.37L407.38 125.5C395.64 130.42 383.85 135.22 372.09 140.08L372.3 139.59L381.41 162L380.99 161.82L398.64 154.74L416.45 147.68Z" fill="#C7C7C7"/>
<path opacity="0.2" d="M407.28 125.27C406.41 127.27 405.5 129.13 404.61 131.06C403.72 132.99 402.78 134.87 401.85 136.77C400.92 138.67 399.91 140.72 398.92 142.68C398.92 142.74 398.87 142.8 398.84 142.87C397.973 144.596 397.097 146.326 396.21 148.06L396.08 148.31L395.82 148.23L390.3 146.35L390.11 146.29C388.03 145.583 385.95 144.86 383.87 144.12C381.87 143.42 379.87 142.7 377.87 141.98C375.87 141.26 373.87 140.51 371.87 139.73C373.87 140.28 375.87 140.9 377.87 141.48C379.87 142.06 381.87 142.7 383.87 143.33C386.08 144.03 388.31 144.74 390.53 145.48L395.53 147.12C396.33 145.56 397.13 143.99 397.94 142.45C399.013 140.37 400.097 138.3 401.19 136.24C402.19 134.4 403.19 132.56 404.19 130.74C405.19 128.92 406.24 127.07 407.28 125.27Z" fill="black"/>
<path opacity="0.2" d="M390.85 146V146.05L390.49 146.75C389.91 147.86 389.29 148.95 388.65 150.02C387.88 151.34 387.06 152.63 386.24 153.92C385.42 155.21 384.57 156.47 383.68 157.73C382.79 158.99 381.9 160.22 380.94 161.42C381.63 160.04 382.38 158.71 383.16 157.42C383.94 156.13 384.75 154.81 385.57 153.52C386.39 152.23 387.25 150.96 388.13 149.71C388.83 148.71 389.55 147.71 390.31 146.71C390.48 146.48 390.66 146.26 390.84 146.04L390.85 146Z" fill="black"/>
<path opacity="0.2" d="M416.07 147C414.54 146.82 413.07 146.57 411.53 146.29C409.99 146.01 408.53 145.7 407.03 145.38C405.53 145.06 404.03 144.68 402.58 144.28C401.38 143.96 400.18 143.62 398.99 143.23L398.23 142.99H398.17H398.24L399.09 143.1C400.31 143.26 401.51 143.47 402.72 143.69C404.22 143.96 405.72 144.28 407.21 144.61C408.7 144.94 410.21 145.31 411.66 145.71C413.11 146.11 414.62 146.5 416.07 147Z" fill="black"/>
<path d="M296.294 165.853L282.888 201.922L339.766 223.063L353.172 186.994L296.294 165.853Z" fill="white"/>
<path d="M339.76 223.07L311.33 212.7L282.79 202.18L282.53 202.09L282.63 201.83L295.94 165.73L296.07 165.37L296.42 165.51L353.25 186.79L353.45 186.87L353.38 187.07L346.57 205.13L339.76 223.07ZM339.76 223.07L346.36 204.93L352.96 186.93L353.09 187.21L296.16 166.21L296.64 165.99L283.15 201.99L282.98 201.64L311.32 212.27L339.76 223.07Z" fill="#C7C7C7"/>
<path opacity="0.2" d="M353.17 186.999C350.05 188.339 346.93 189.569 343.81 190.879C340.69 192.189 337.57 193.369 334.44 194.589C331.31 195.809 327.92 197.109 324.66 198.349L324.36 198.469L315.69 201.719L315.27 201.869L315.05 201.479C313.57 198.813 312.097 196.106 310.63 193.359C310.571 193.266 310.517 193.169 310.47 193.069C308.803 190.009 307.137 186.926 305.47 183.819C303.897 180.873 302.34 177.899 300.8 174.899C299.29 171.899 297.73 168.899 296.25 165.899C298 168.689 299.66 171.559 301.36 174.379C303.06 177.199 304.72 180.099 306.36 182.989C308.2 186.189 310.03 189.419 311.85 192.679L316 199.999C318.61 198.999 321.24 198.069 323.85 197.139C327.34 195.879 330.85 194.619 334.33 193.389C337.46 192.299 340.59 191.209 343.73 190.149C346.87 189.089 350 187.999 353.17 186.999Z" fill="black"/>
<path opacity="0.2" d="M311.68 193.49H311.58L310.41 193.91C308.53 194.59 306.64 195.2 304.74 195.76C302.42 196.47 300.07 197.11 297.74 197.76C295.41 198.41 293.03 198.94 290.65 199.45C288.27 199.96 285.89 200.45 283.47 200.81C285.76 199.94 288.08 199.2 290.4 198.49C292.72 197.78 295.08 197.15 297.4 196.49C299.72 195.83 302.12 195.3 304.5 194.79C306.39 194.37 308.3 193.99 310.23 193.67L311.57 193.46L311.68 193.49Z" fill="black"/>
<path opacity="0.2" d="M340.05 221.86C338.46 220.01 336.96 218.08 335.5 216.14C334.04 214.2 332.63 212.22 331.23 210.23C329.83 208.24 328.5 206.23 327.23 204.15C326.17 202.48 325.14 200.8 324.17 199.07C323.95 198.7 323.75 198.33 323.55 197.96C323.552 197.933 323.552 197.907 323.55 197.88L323.62 197.95L324.5 198.95C325.75 200.45 326.93 201.95 328.11 203.54C329.57 205.49 330.97 207.47 332.36 209.46C333.75 211.45 335.1 213.46 336.36 215.54C337.62 217.62 338.89 219.71 340.05 221.86Z" fill="black"/>
<path d="M373.299 174.785L346.717 176.388L347.733 193.247L374.315 191.645L373.299 174.785Z" fill="#FBCF49"/>
<path opacity="0.2" d="M373.3 174.8C372.3 175.89 371.25 176.94 370.23 178.01C369.21 179.08 368.17 180.12 367.13 181.17C366.09 182.22 364.96 183.34 363.87 184.41L363.77 184.52L360.87 187.36L360.72 187.49L360.57 187.37L357.35 184.9L357.24 184.81L353.6 182C352.447 181.093 351.297 180.173 350.15 179.24C349 178.3 347.85 177.38 346.72 176.42C347.91 177.23 349.09 178.09 350.27 178.92C351.45 179.75 352.63 180.62 353.81 181.49C354.99 182.36 356.43 183.42 357.73 184.4L360.66 186.6C361.54 185.75 362.42 184.9 363.31 184.06L366.86 180.69L370.06 177.69C371.15 176.74 372.21 175.74 373.3 174.8Z" fill="black"/>
<path opacity="0.2" d="M357.79 184.76L357.4 185.14C356.76 185.75 356.11 186.33 355.45 186.89C354.64 187.59 353.81 188.26 352.98 188.89C352.15 189.52 351.3 190.2 350.44 190.83C349.58 191.46 348.7 192.07 347.79 192.64C348.56 191.89 349.36 191.18 350.16 190.49C350.96 189.8 351.8 189.12 352.63 188.49C353.46 187.86 354.32 187.18 355.18 186.55C355.87 186.05 356.57 185.55 357.28 185.08L357.79 184.76Z" fill="black"/>
<path opacity="0.2" d="M374.22 191.12C373.22 190.66 372.31 190.12 371.38 189.63C370.45 189.14 369.53 188.56 368.62 188.02C367.71 187.48 366.81 186.89 365.92 186.29C365.2 185.81 364.48 185.29 363.79 184.79L363.34 184.46L363.88 184.72C364.64 185.1 365.39 185.51 366.14 185.93C367.067 186.45 367.987 186.99 368.9 187.55C369.81 188.11 370.71 188.68 371.59 189.27C372.47 189.86 373.37 190.46 374.22 191.12Z" fill="black"/>
</svg>
