<svg width="750" height="500" viewBox="0 0 750 500" fill="none" xmlns="http://www.w3.org/2000/svg">
<path d="M632.12 129.44C632.12 129.44 529.34 24.1805 395.77 16.0505C262.2 7.92047 184.31 94.2105 147.4 145.67C110.49 197.13 18.3999 282.87 29.2599 361.38C40.1199 439.89 146.59 499.46 299.11 473.29C451.63 447.12 495.85 437.19 565.34 457.05C634.83 476.91 725.08 447.12 726.88 334.31C728.68 221.5 632.12 129.44 632.12 129.44Z" fill="#FBCF49"/>
<path opacity="0.7" d="M632.12 129.44C632.12 129.44 529.34 24.1805 395.77 16.0505C262.2 7.92047 184.31 94.2105 147.4 145.67C110.49 197.13 18.3999 282.87 29.2599 361.38C40.1199 439.89 146.59 499.46 299.11 473.29C451.63 447.12 495.85 437.19 565.34 457.05C634.83 476.91 725.08 447.12 726.88 334.31C728.68 221.5 632.12 129.44 632.12 129.44Z" fill="white"/>
<path d="M34.4199 427.31H713.74" stroke="#263238" stroke-linecap="round" stroke-linejoin="round"/>
<g opacity="0.3">
<path d="M625.14 373.841H521.04V274.181C521.04 272.574 521.679 271.032 522.815 269.896C523.952 268.759 525.493 268.121 527.1 268.121H619.1C620.707 268.121 622.249 268.759 623.385 269.896C624.522 271.032 625.16 272.574 625.16 274.181V373.841H625.14Z" fill="white" stroke="black" stroke-linecap="round" stroke-linejoin="round"/>
<path d="M625.14 281.94H521.04V274.18C521.04 272.573 521.679 271.032 522.815 269.895C523.952 268.759 525.493 268.12 527.1 268.12H619.1C620.707 268.12 622.249 268.759 623.385 269.895C624.522 271.032 625.16 272.573 625.16 274.18V281.94H625.14Z" fill="white" stroke="black" stroke-linecap="round" stroke-linejoin="round"/>
<path d="M608.41 306.42C612.933 306.42 616.6 302.753 616.6 298.23C616.6 293.707 612.933 290.04 608.41 290.04C603.887 290.04 600.22 293.707 600.22 298.23C600.22 302.753 603.887 306.42 608.41 306.42Z" fill="white" stroke="black" stroke-linecap="round" stroke-linejoin="round"/>
<path d="M603.73 319.891H616.62V316.151H603.73V319.891Z" fill="white" stroke="black" stroke-linecap="round" stroke-linejoin="round"/>
<path d="M603.73 333.471H616.62V329.731H603.73V333.471Z" fill="white" stroke="black" stroke-linecap="round" stroke-linejoin="round"/>
<path d="M603.73 347.051H616.62V343.311H603.73V347.051Z" fill="white" stroke="black" stroke-linecap="round" stroke-linejoin="round"/>
<path d="M603.73 360.48H616.62V356.74H603.73V360.48Z" fill="white" stroke="black" stroke-linecap="round" stroke-linejoin="round"/>
<path d="M528.81 309.36H592.61V288.29H528.81V309.36Z" fill="white" stroke="black" stroke-linecap="round" stroke-linejoin="round"/>
<path d="M531.86 344.48H591.19V314.82H531.86V344.48Z" fill="white" stroke="black" stroke-linecap="round" stroke-linejoin="round"/>
<path d="M591.19 344.481L570.49 332.731L559.98 335.821L543.6 322.841L532.17 330.261V344.481H591.19Z" fill="white" stroke="black" stroke-linecap="round" stroke-linejoin="round"/>
<path d="M575.43 324.39C575.43 325.308 575.703 326.206 576.213 326.969C576.723 327.732 577.448 328.327 578.297 328.678C579.145 329.029 580.079 329.12 580.979 328.94C581.879 328.76 582.706 328.317 583.355 327.667C584.003 327.018 584.444 326.19 584.622 325.289C584.8 324.388 584.707 323.455 584.354 322.607C584.001 321.76 583.405 321.036 582.641 320.527C581.876 320.018 580.978 319.748 580.06 319.75C579.451 319.75 578.848 319.87 578.286 320.103C577.724 320.337 577.213 320.679 576.783 321.11C576.353 321.541 576.012 322.052 575.78 322.615C575.548 323.178 575.429 323.781 575.43 324.39Z" fill="white" stroke="black" stroke-linecap="round" stroke-linejoin="round"/>
<path d="M573.41 350.79H529.23" stroke="black" stroke-linecap="round" stroke-linejoin="round"/>
<path d="M591.88 350.79H576.41" stroke="black" stroke-linecap="round" stroke-linejoin="round"/>
<path d="M542.77 356.681H529.23" stroke="black" stroke-linecap="round" stroke-linejoin="round"/>
<path d="M577.62 356.681H546.67" stroke="black" stroke-linecap="round" stroke-linejoin="round"/>
<path d="M591.88 356.681H580.92" stroke="black" stroke-linecap="round" stroke-linejoin="round"/>
<path d="M563.2 362.58H529.23" stroke="black" stroke-linecap="round" stroke-linejoin="round"/>
<path d="M591.88 362.58H566.8" stroke="black" stroke-linecap="round" stroke-linejoin="round"/>
<path d="M541.27 368.471H529.23" stroke="black" stroke-linecap="round" stroke-linejoin="round"/>
<path d="M583.92 368.471H544.27" stroke="black" stroke-linecap="round" stroke-linejoin="round"/>
<path d="M591.88 368.471H587.23" stroke="black" stroke-linecap="round" stroke-linejoin="round"/>
<path d="M599.38 393.271H495.32V293.611C495.32 292.003 495.959 290.462 497.095 289.325C498.232 288.189 499.773 287.551 501.38 287.551H593.38C594.987 287.551 596.529 288.189 597.665 289.325C598.802 290.462 599.44 292.003 599.44 293.611V393.271H599.38Z" fill="white" stroke="black" stroke-linecap="round" stroke-linejoin="round"/>
<path d="M599.38 301.37H495.32V293.61C495.32 292.003 495.959 290.462 497.095 289.325C498.232 288.189 499.773 287.55 501.38 287.55H593.38C594.987 287.55 596.529 288.189 597.665 289.325C598.802 290.462 599.44 292.003 599.44 293.61V301.37H599.38Z" fill="white" stroke="black" stroke-linecap="round" stroke-linejoin="round"/>
<path d="M590.245 320.766C591.967 316.584 589.972 311.797 585.79 310.075C581.607 308.352 576.821 310.347 575.098 314.529C573.376 318.712 575.371 323.499 579.553 325.221C583.736 326.943 588.522 324.949 590.245 320.766Z" fill="white" stroke="black" stroke-linecap="round" stroke-linejoin="round"/>
<path d="M578.01 339.32H590.9V335.58H578.01V339.32Z" fill="white" stroke="black" stroke-linecap="round" stroke-linejoin="round"/>
<path d="M578.01 352.9H590.9V349.16H578.01V352.9Z" fill="white" stroke="black" stroke-linecap="round" stroke-linejoin="round"/>
<path d="M578.01 366.471H590.9V362.731H578.01V366.471Z" fill="white" stroke="black" stroke-linecap="round" stroke-linejoin="round"/>
<path d="M578.01 379.91H590.9V376.17H578.01V379.91Z" fill="white" stroke="black" stroke-linecap="round" stroke-linejoin="round"/>
<path d="M503.09 328.79H566.89V307.72H503.09V328.79Z" fill="white" stroke="black" stroke-linecap="round" stroke-linejoin="round"/>
<path d="M506.14 363.91H565.47V334.24H506.14V363.91Z" fill="white" stroke="black" stroke-linecap="round" stroke-linejoin="round"/>
<path d="M565.47 363.91L544.76 352.16L534.26 355.25L517.88 342.28L506.45 349.69V363.91H565.47Z" fill="white" stroke="black" stroke-linecap="round" stroke-linejoin="round"/>
<path d="M549.71 343.82C549.708 344.739 549.979 345.637 550.488 346.402C550.997 347.167 551.722 347.763 552.57 348.115C553.418 348.468 554.352 348.56 555.253 348.382C556.154 348.203 556.982 347.761 557.631 347.111C558.281 346.462 558.723 345.634 558.901 344.733C559.08 343.832 558.988 342.898 558.635 342.05C558.283 341.202 557.686 340.477 556.922 339.968C556.157 339.459 555.259 339.188 554.34 339.19C553.112 339.19 551.935 339.678 551.066 340.547C550.198 341.415 549.71 342.592 549.71 343.82Z" fill="white" stroke="black" stroke-linecap="round" stroke-linejoin="round"/>
<path d="M547.69 370.221H503.51" stroke="black" stroke-linecap="round" stroke-linejoin="round"/>
<path d="M566.16 370.221H550.69" stroke="black" stroke-linecap="round" stroke-linejoin="round"/>
<path d="M517.05 376.12H503.51" stroke="black" stroke-linecap="round" stroke-linejoin="round"/>
<path d="M551.9 376.12H520.95" stroke="black" stroke-linecap="round" stroke-linejoin="round"/>
<path d="M566.16 376.12H555.2" stroke="black" stroke-linecap="round" stroke-linejoin="round"/>
<path d="M537.48 382.011H503.51" stroke="black" stroke-linecap="round" stroke-linejoin="round"/>
<path d="M566.16 382.011H541.08" stroke="black" stroke-linecap="round" stroke-linejoin="round"/>
<path d="M515.55 387.91H503.51" stroke="black" stroke-linecap="round" stroke-linejoin="round"/>
<path d="M558.2 387.91H518.55" stroke="black" stroke-linecap="round" stroke-linejoin="round"/>
<path d="M566.16 387.91H561.51" stroke="black" stroke-linecap="round" stroke-linejoin="round"/>
<path d="M573.67 412.69H469.6V313.03C469.6 311.423 470.239 309.882 471.375 308.745C472.512 307.609 474.053 306.97 475.66 306.97H567.66C569.267 306.97 570.809 307.609 571.945 308.745C573.082 309.882 573.72 311.423 573.72 313.03V412.69H573.67Z" fill="white" stroke="black" stroke-linecap="round" stroke-linejoin="round"/>
<path d="M573.67 320.79H469.6V313.03C469.6 311.423 470.239 309.881 471.375 308.745C472.512 307.608 474.053 306.97 475.66 306.97H567.66C569.267 306.97 570.809 307.608 571.945 308.745C573.082 309.881 573.72 311.423 573.72 313.03V320.79H573.67Z" fill="white" stroke="black" stroke-linecap="round" stroke-linejoin="round"/>
<path d="M556.97 345.29C561.493 345.29 565.16 341.623 565.16 337.1C565.16 332.577 561.493 328.91 556.97 328.91C552.447 328.91 548.78 332.577 548.78 337.1C548.78 341.623 552.447 345.29 556.97 345.29Z" fill="white" stroke="black" stroke-linecap="round" stroke-linejoin="round"/>
<path d="M552.28 358.75H565.17V355.01H552.28V358.75Z" fill="white" stroke="black" stroke-linecap="round" stroke-linejoin="round"/>
<path d="M552.28 372.33H565.17V368.59H552.28V372.33Z" fill="white" stroke="black" stroke-linecap="round" stroke-linejoin="round"/>
<path d="M552.28 385.91H565.17V382.17H552.28V385.91Z" fill="white" stroke="black" stroke-linecap="round" stroke-linejoin="round"/>
<path d="M552.28 399.341H565.17V395.601H552.28V399.341Z" fill="white" stroke="black" stroke-linecap="round" stroke-linejoin="round"/>
<path d="M477.37 348.221H541.17V327.151H477.37V348.221Z" fill="white" stroke="black" stroke-linecap="round" stroke-linejoin="round"/>
<path d="M480.42 383.341H539.75V353.681H480.42V383.341Z" fill="white" stroke="black" stroke-linecap="round" stroke-linejoin="round"/>
<path d="M539.75 383.34L519.04 371.6L508.54 374.69L492.16 361.71L480.73 369.12V383.34H539.75Z" fill="white" stroke="black" stroke-linecap="round" stroke-linejoin="round"/>
<path d="M524 363.25C523.998 364.169 524.269 365.067 524.778 365.832C525.287 366.596 526.012 367.193 526.86 367.545C527.708 367.897 528.642 367.99 529.543 367.811C530.444 367.633 531.272 367.191 531.921 366.541C532.571 365.892 533.013 365.064 533.192 364.163C533.37 363.262 533.278 362.328 532.925 361.48C532.573 360.632 531.976 359.907 531.212 359.398C530.447 358.889 529.549 358.618 528.63 358.62C527.402 358.62 526.225 359.108 525.356 359.976C524.488 360.845 524 362.022 524 363.25Z" fill="white" stroke="black" stroke-linecap="round" stroke-linejoin="round"/>
<path d="M521.97 389.65H477.79" stroke="black" stroke-linecap="round" stroke-linejoin="round"/>
<path d="M540.44 389.65H524.97" stroke="black" stroke-linecap="round" stroke-linejoin="round"/>
<path d="M491.33 395.551H477.79" stroke="black" stroke-linecap="round" stroke-linejoin="round"/>
<path d="M526.17 395.551H495.23" stroke="black" stroke-linecap="round" stroke-linejoin="round"/>
<path d="M540.44 395.551H529.48" stroke="black" stroke-linecap="round" stroke-linejoin="round"/>
<path d="M511.76 401.44H477.79" stroke="black" stroke-linecap="round" stroke-linejoin="round"/>
<path d="M540.44 401.44H515.36" stroke="black" stroke-linecap="round" stroke-linejoin="round"/>
<path d="M489.83 407.341H477.79" stroke="black" stroke-linecap="round" stroke-linejoin="round"/>
<path d="M532.48 407.341H492.83" stroke="black" stroke-linecap="round" stroke-linejoin="round"/>
<path d="M540.44 407.341H535.79" stroke="black" stroke-linecap="round" stroke-linejoin="round"/>
</g>
<g opacity="0.3">
<path d="M137.16 93.8709V83.4209L126.72 82.2609C126.158 80.0667 125.296 77.9603 124.16 76.0009L130.76 67.7609L123.37 60.3709L115.16 67.0009C113.22 65.8618 111.134 64.9906 108.96 64.4109L107.79 53.9209H97.34L96.18 64.3209C94.0126 64.8874 91.9332 65.7488 90 66.8809L81.75 60.2809L74.36 67.6809L80.93 75.8809C79.786 77.8235 78.9114 79.9127 78.33 82.0909L67.8 83.2509V93.7009L78.24 94.8609C78.8049 97.0447 79.6662 99.1409 80.8 101.091L74.21 109.331L81.6 116.721L89.81 110.151C91.7471 111.299 93.8335 112.174 96.01 112.751L97.17 123.241H107.63L108.79 112.801C110.97 112.234 113.063 111.373 115.01 110.241L123.25 116.841L130.64 109.441L124.08 101.241C125.224 99.2983 126.099 97.2091 126.68 95.0309L137.16 93.8709ZM102.48 101.001C100.015 100.991 97.6074 100.25 95.5627 98.8729C93.5179 97.4954 91.9274 95.5427 90.9922 93.2615C90.0569 90.9803 89.8188 88.473 90.3081 86.0566C90.7973 83.6401 91.9918 81.4229 93.7408 79.6852C95.4897 77.9474 97.7145 76.7671 100.134 76.2934C102.554 75.8196 105.059 76.0738 107.334 77.0236C109.61 77.9735 111.552 79.5765 112.916 81.63C114.281 83.6835 115.006 86.0954 115 88.5609C114.996 90.2002 114.669 91.8226 114.037 93.3353C113.406 94.8481 112.482 96.2214 111.319 97.3768C110.157 98.5323 108.777 99.4471 107.261 100.069C105.744 100.691 104.119 101.007 102.48 101.001Z" stroke="black" stroke-linecap="round" stroke-linejoin="round"/>
<path d="M178.24 72.8905L177.08 66.0005L170.08 66.3905C169.462 65.0075 168.658 63.7156 167.69 62.5505L171.15 56.3605L165.43 52.2905L160.73 57.5405C159.314 57.0144 157.834 56.6781 156.33 56.5405L154.4 49.7305L147.48 50.8905L147.87 57.8905C146.478 58.4963 145.176 59.2903 144 60.2505L137.8 56.8005L133.73 62.5105L139 67.2205C138.469 68.6318 138.133 70.1086 138 71.6105L131.19 73.5505L132.35 80.4605L139.35 80.0805C139.967 81.4587 140.767 82.7471 141.73 83.9105L138.28 90.1005L144 94.1705L148.71 88.9205C150.121 89.4513 151.598 89.7877 153.1 89.9205L155 96.7605L161.92 95.6105L161.53 88.6105C162.91 87.9925 164.198 87.1883 165.36 86.2205L171.55 89.6705L175.62 83.9605L170.37 79.2605C170.901 77.8458 171.237 76.3656 171.37 74.8605L178.24 72.8905ZM156.07 81.4705C154.438 81.7324 152.764 81.5051 151.261 80.8171C149.757 80.1291 148.491 79.0113 147.623 77.6047C146.754 76.1981 146.321 74.5657 146.379 72.9134C146.437 71.2611 146.983 69.663 147.948 68.3206C148.913 66.9782 150.254 65.9516 151.801 65.3704C153.349 64.7892 155.034 64.6794 156.645 65.0549C158.255 65.4303 159.717 66.2742 160.849 67.48C161.98 68.6859 162.728 70.1997 163 71.8305C163.183 72.919 163.148 74.0329 162.898 75.108C162.648 76.1831 162.188 77.198 161.543 78.0943C160.899 78.9905 160.084 79.7502 159.144 80.3297C158.205 80.9092 157.16 81.2969 156.07 81.4705Z" stroke="black" stroke-linecap="round" stroke-linejoin="round"/>
</g>
<g opacity="0.3">
<path d="M242 390.19V379.74L231.57 378.58C230.998 376.402 230.137 374.31 229.01 372.36L235.6 364.11L228.21 356.72L220 363.29C218.06 362.148 215.974 361.274 213.8 360.69L212.63 350.2H202.17L201 360.64C198.819 361.205 196.727 362.066 194.78 363.2L186.54 356.61L179.14 364L185.71 372.21C184.566 374.149 183.691 376.235 183.11 378.41L172.62 379.57V390L183.06 391.16C183.629 393.339 184.49 395.432 185.62 397.38L179 405.65L186.39 413.04L194.6 406.48C196.54 407.622 198.626 408.497 200.8 409.08L202 419.56H212.45L213.61 409.12C215.789 408.554 217.881 407.696 219.83 406.57L228.07 413.16L235.46 405.77L228.9 397.56C230.042 395.62 230.917 393.534 231.5 391.36L242 390.19ZM207.32 397.36C204.852 397.36 202.439 396.628 200.387 395.257C198.334 393.886 196.735 391.936 195.79 389.656C194.846 387.376 194.598 384.866 195.08 382.445C195.561 380.025 196.75 377.801 198.495 376.055C200.241 374.31 202.465 373.122 204.885 372.64C207.306 372.158 209.816 372.406 212.096 373.35C214.376 374.295 216.326 375.894 217.697 377.947C219.068 379.999 219.8 382.412 219.8 384.88C219.801 386.52 219.479 388.145 218.852 389.66C218.225 391.175 217.304 392.552 216.144 393.711C214.984 394.871 213.607 395.79 212.091 396.416C210.575 397.042 208.95 397.363 207.31 397.36H207.32Z" stroke="black" stroke-linecap="round" stroke-linejoin="round"/>
<path d="M283.07 369.21L281.91 362.29L274.91 362.68C274.293 361.299 273.493 360.007 272.53 358.84L275.98 352.66L270.26 348.58L265.56 353.84C264.145 353.309 262.665 352.973 261.16 352.84L259.19 346L252.27 347.16L252.66 354.16C251.279 354.777 249.987 355.577 248.82 356.54L242.64 353.09L238.56 358.8L243.82 363.51C243.289 364.921 242.953 366.398 242.82 367.9L236 369.87L237.16 376.79L244.16 376.4C244.775 377.779 245.575 379.068 246.54 380.23L243.09 386.42L248.8 390.5L253.51 385.24C254.92 385.775 256.397 386.112 257.9 386.24L259.84 393.06L266.76 391.9L266.37 384.9C267.749 384.285 269.038 383.485 270.2 382.52L276.4 386L280.48 380.29L275.22 375.58C275.755 374.167 276.092 372.686 276.22 371.18L283.07 369.21ZM260.9 377.8C259.267 378.072 257.591 377.854 256.082 377.173C254.574 376.492 253.301 375.379 252.425 373.975C251.548 372.571 251.108 370.939 251.159 369.285C251.21 367.63 251.751 366.029 252.712 364.681C253.674 363.334 255.013 362.302 256.561 361.716C258.109 361.13 259.795 361.016 261.408 361.388C263.021 361.761 264.487 362.603 265.621 363.808C266.755 365.013 267.506 366.528 267.78 368.16C268.144 370.35 267.625 372.596 266.335 374.404C265.045 376.211 263.09 377.433 260.9 377.8Z" stroke="black" stroke-linecap="round" stroke-linejoin="round"/>
</g>
<path d="M51.1998 215.8C51.1998 215.8 47.1998 226.88 38.6098 228.39C30.0198 229.9 14.9398 213.28 24.5098 204.72C34.0798 196.16 47.1698 209.76 51.1998 215.8Z" fill="#FBCF49" stroke="#263238" stroke-linecap="round" stroke-linejoin="round"/>
<path d="M64.2898 161.41C64.2898 161.41 51.6998 192.13 56.7398 207.24C61.7798 222.35 92.9998 233.43 102.06 213.79C111.12 194.15 90.9998 166.45 83.4298 160.41C75.8598 154.37 66.8098 156.38 64.2898 161.41Z" fill="#FBCF49" stroke="#263238" stroke-linecap="round" stroke-linejoin="round"/>
<path d="M137.82 174.51C137.82 174.51 116.16 194.15 113.64 213.79C111.12 233.43 125.73 240.48 140.84 237.96C155.95 235.44 163.5 197.17 159 179.54C154.5 161.91 137.82 174.51 137.82 174.51Z" fill="#FBCF49" stroke="#263238" stroke-linecap="round" stroke-linejoin="round"/>
<path d="M141.85 283.28C141.85 283.28 117.67 284.28 116.67 295.87C115.67 307.46 127.24 309.97 138.82 299.87C150.4 289.77 151.92 283.79 141.85 283.28Z" fill="#FBCF49" stroke="#263238" stroke-linecap="round" stroke-linejoin="round"/>
<path d="M81.9199 307.46C81.9199 307.46 79.3999 319.54 70.3399 324.07C61.2799 328.6 45.1599 319.07 53.7199 304.43C62.2799 289.79 77.3899 301.41 81.9199 307.46Z" fill="#FBCF49" stroke="#263238" stroke-linecap="round" stroke-linejoin="round"/>
<path d="M60.7699 269.691C60.7699 269.691 56.2299 259.611 38.6099 266.161C20.9899 272.711 13.9299 282.781 24.9999 286.311C36.0699 289.841 60.7699 269.691 60.7699 269.691Z" fill="#FBCF49" stroke="#263238" stroke-linecap="round" stroke-linejoin="round"/>
<path d="M111.13 148.82C111.13 148.82 114.13 155.87 120.19 154.36C126.25 152.85 127.74 143.79 137.31 146.31C146.88 148.83 154.94 159.9 154.94 154.87C154.94 149.84 142.85 136.74 129.26 136.74C115.67 136.74 111.63 142.28 111.13 148.82Z" fill="#FBCF49" stroke="#263238" stroke-linecap="round" stroke-linejoin="round"/>
<path d="M86.21 224.891C86.21 224.891 96.75 255.741 99 282.081C101.25 308.421 99 350.561 99 350.561" stroke="#263238" stroke-linecap="round" stroke-linejoin="round"/>
<path d="M123.09 235.42C123.09 235.42 111.09 270.79 108.09 293.42C105.09 316.05 104.32 350.61 104.32 350.61" stroke="#263238" stroke-linecap="round" stroke-linejoin="round"/>
<path d="M117.07 298.63C117.07 298.63 111.8 300.14 108.79 351.31" stroke="#263238" stroke-linecap="round" stroke-linejoin="round"/>
<path d="M81.9199 307.461C81.9199 307.461 86.9199 303.151 89.9799 312.931C93.0399 322.711 91.4799 349.801 91.4799 349.801" stroke="#263238" stroke-linecap="round" stroke-linejoin="round"/>
<path d="M94.9399 302.61C98.8799 324.67 95.2399 349.05 95.2399 349.05" stroke="#263238" stroke-linecap="round" stroke-linejoin="round"/>
<path d="M60.77 269.69C60.77 269.69 82.45 265.52 91.48 289.6C92.3796 292.02 93.1343 294.491 93.74 297" stroke="#263238" stroke-linecap="round" stroke-linejoin="round"/>
<path d="M151.27 246.36C151.27 246.36 155.8 236.29 173.42 242.83C191.04 249.37 198.1 259.45 187 263C175.9 266.55 151.27 246.36 151.27 246.36Z" fill="#FBCF49" stroke="#263238" stroke-linecap="round" stroke-linejoin="round"/>
<path d="M132 250.771C127.64 253.771 123.45 258.571 120.56 266.281C111.56 290.361 112.56 349.8 112.56 349.8" stroke="#263238" stroke-linecap="round" stroke-linejoin="round"/>
<path d="M151.27 246.36C146.181 245.638 140.992 246.329 136.27 248.36" stroke="#263238" stroke-linecap="round" stroke-linejoin="round"/>
<path d="M75 231.16C80.6524 237.994 84.9828 245.821 87.77 254.24C99.77 288.85 104.32 333.24 102.07 349.8" stroke="#263238" stroke-linecap="round" stroke-linejoin="round"/>
<path d="M51.2 215.8C51.2 215.8 61.7 217.44 72.33 228.29" stroke="#263238" stroke-linecap="round" stroke-linejoin="round"/>
<path d="M105.53 263.561C104.79 307.241 104.27 350.561 104.27 350.561" stroke="#263238" stroke-linecap="round" stroke-linejoin="round"/>
<path d="M111.13 148.82C111.13 148.82 108.79 146.63 107.28 185.76C106.7 200.96 106.11 229.24 105.62 258.12" stroke="#263238" stroke-linecap="round" stroke-linejoin="round"/>
<path d="M128.38 427.31H79.3799C77.7586 427.31 76.1951 426.707 74.9937 425.619C73.7923 424.53 73.0388 423.033 72.8799 421.42L65.8799 349.05H141.88L134.88 421.42C134.723 423.034 133.97 424.532 132.768 425.621C131.567 426.71 130.002 427.312 128.38 427.31Z" fill="white" stroke="#263238" stroke-linecap="round" stroke-linejoin="round"/>
<path d="M68.1599 372.38L68.9699 380.65H138.83L139.63 372.38H68.1599Z" fill="#263238" stroke="#263238" stroke-linecap="round" stroke-linejoin="round"/>
<path d="M137.07 398.71L137.51 394.2H70.28L70.72 398.71H137.07Z" fill="#263238" stroke="#263238" stroke-linecap="round" stroke-linejoin="round"/>
<path d="M131.36 368.62C134.685 368.62 137.38 365.925 137.38 362.6C137.38 359.275 134.685 356.58 131.36 356.58C128.035 356.58 125.34 359.275 125.34 362.6C125.34 365.925 128.035 368.62 131.36 368.62Z" fill="#263238" stroke="#263238" stroke-linecap="round" stroke-linejoin="round"/>
<path d="M77.1799 368.62C78.3666 368.62 79.5267 368.268 80.5134 367.609C81.5 366.95 82.2691 366.013 82.7232 364.916C83.1773 363.82 83.2962 362.613 83.0646 361.45C82.8331 360.286 82.2617 359.217 81.4226 358.377C80.5835 357.538 79.5144 356.967 78.3505 356.735C77.1866 356.504 75.9802 356.623 74.8838 357.077C73.7875 357.531 72.8504 358.3 72.1911 359.287C71.5318 360.273 71.1799 361.433 71.1799 362.62C71.1799 364.211 71.8121 365.738 72.9373 366.863C74.0625 367.988 75.5886 368.62 77.1799 368.62Z" fill="#263238" stroke="#263238" stroke-linecap="round" stroke-linejoin="round"/>
<path d="M89.22 362.601C89.22 363.787 89.5719 364.947 90.2312 365.934C90.8904 366.921 91.8275 367.69 92.9239 368.144C94.0202 368.598 95.2266 368.717 96.3905 368.485C97.5544 368.254 98.6235 367.682 99.4626 366.843C100.302 366.004 100.873 364.935 101.105 363.771C101.336 362.607 101.217 361.401 100.763 360.304C100.309 359.208 99.5401 358.271 98.5534 357.612C97.5667 356.952 96.4067 356.601 95.22 356.601C93.6287 356.601 92.1025 357.233 90.9773 358.358C89.8521 359.483 89.22 361.009 89.22 362.601Z" fill="#263238" stroke="#263238" stroke-linecap="round" stroke-linejoin="round"/>
<path d="M113.3 368.62C116.625 368.62 119.32 365.925 119.32 362.6C119.32 359.275 116.625 356.58 113.3 356.58C109.975 356.58 107.28 359.275 107.28 362.6C107.28 365.925 109.975 368.62 113.3 368.62Z" fill="#263238" stroke="#263238" stroke-linecap="round" stroke-linejoin="round"/>
<path d="M622.76 272.94C622.76 272.94 620.19 309.51 623.69 326.75C627.19 343.99 633.69 387.75 635.34 392.68C636.99 397.61 638.6 416.21 638.6 416.21C638.6 416.21 634.87 415.51 634.87 417.6C634.87 419.69 634.64 421.6 634.64 422.5C634.64 423.4 633.24 425.99 628.81 431.81C624.38 437.63 618.33 439.5 618.81 442.06C619.29 444.62 625.1 446.06 630.92 445.56C636.74 445.06 640.92 444.86 644.2 441.56C647.48 438.26 652.12 437.37 654.45 436.2C656.78 435.03 657.24 432.94 657.24 428.51C657.24 424.08 657.24 415.23 657.01 413.84C656.78 412.45 657.24 411.97 656.31 406.38C655.38 400.79 653 343.76 653 343.76C653 343.76 660 388.95 662.55 395.94C665.1 402.93 667.44 412.71 667.44 412.71C667.44 412.71 666.05 416.71 667.44 419.23C668.83 421.75 672.34 428.32 672.34 428.32C672.34 428.32 673.97 438.32 674.9 443.23C675.83 448.14 683.05 452.78 685.38 451.15C687.71 449.52 692.14 445.79 690.74 438.8C689.34 431.81 687.48 428.32 686.74 423.89C686 419.46 689.07 413.89 688.14 410.15C687.21 406.41 686.51 407.82 685.81 402.23C685.11 396.64 685.11 365.42 683.01 356.34C680.91 347.26 678.59 331.88 678.59 331.88C678.59 331.88 679.05 294.88 679.05 293.67C679.05 292.46 679.52 279.23 679.52 279.23C679.52 279.23 661.81 284.12 647.14 280.4C638.889 278.338 630.752 275.848 622.76 272.94Z" fill="#263238" stroke="#263238" stroke-linecap="round" stroke-linejoin="round"/>
<path d="M594.87 234.07L595.63 229.65L599.18 233.01C599.18 233.01 596.34 233.82 594.87 234.07Z" fill="white" stroke="#263238" stroke-linecap="round" stroke-linejoin="round"/>
<path d="M601.12 218.37L604.12 221.31C604.523 222.983 604.523 224.727 604.12 226.4C603.51 229.55 600.06 232.7 599.12 233.01L597.29 233.62L594.07 229.62C594.07 229.62 599.9 227.11 601.12 218.37Z" fill="white" stroke="#263238" stroke-linecap="round" stroke-linejoin="round"/>
<path d="M617.05 178.53C615.302 183.267 614.124 188.195 613.54 193.21C612.9 200.4 608.91 223.21 608.91 223.21L604.12 221.3C604.12 221.3 604.76 224.81 602.05 229.44C601.335 230.75 600.304 231.859 599.049 232.666C597.795 233.474 596.358 233.953 594.87 234.06C594.87 234.06 603.49 243.16 606.36 245.06C609.23 246.96 610.99 247.77 613.22 246.97C615.45 246.17 619.29 238.51 619.61 238.03C619.93 237.55 621.36 181.69 621.04 180.1C620.72 178.51 617.05 178.53 617.05 178.53Z" fill="white" stroke="#263238" stroke-linecap="round" stroke-linejoin="round"/>
<path d="M615 226.741C613 224.131 608.9 223.221 608.9 223.221C610.8 225.031 612.322 227.199 613.38 229.601" stroke="#263238" stroke-linecap="round" stroke-linejoin="round"/>
<path d="M595.51 214.761C595.51 214.761 591.36 211.251 588.96 210.931C586.56 210.611 582.74 211.931 579.38 211.931C576.02 211.931 573.8 210.011 573.32 211.771C572.84 213.531 575.71 216.081 577.32 216.561C578.93 217.041 582.59 216.561 583.39 216.561C584.036 216.66 584.642 216.937 585.14 217.361C585.14 217.361 583.45 221.361 582.97 222.021C582.163 222.725 581.269 223.324 580.31 223.801C580.31 223.801 572.05 220.231 572.53 221.981C573.01 223.731 577.64 227.251 580.19 228.371C582.74 229.491 588.33 230.601 591.05 231.241C593.77 231.881 595.99 232.361 597.59 230.121C599.19 227.881 602.38 225.021 602.06 220.551C602.048 219.728 601.864 218.917 601.521 218.169C601.177 217.421 600.681 216.753 600.065 216.208C599.448 215.663 598.724 215.253 597.94 215.004C597.156 214.754 596.328 214.672 595.51 214.761Z" fill="white" stroke="#263238" stroke-linecap="round" stroke-linejoin="round"/>
<path d="M588.43 225.39C587.067 223.643 585.366 222.188 583.43 221.11C580.66 219.77 577.96 219.77 578.83 221.51C580.298 223.816 581.997 225.967 583.9 227.93C584.773 229.013 585.885 229.88 587.15 230.46C588.42 231.02 589.69 230.62 589.53 228.88C589.371 227.661 588.999 226.48 588.43 225.39Z" fill="white" stroke="#263238" stroke-linecap="round" stroke-linejoin="round"/>
<path d="M590.49 225.63C590.49 225.63 583.04 222.7 582.65 224.92C582.26 227.14 584.55 226.98 587.32 228.92C590.09 230.86 592.07 231.29 592.95 231.21C593.83 231.13 594.13 229.63 594.13 229.63L590.49 225.63Z" fill="white" stroke="#263238" stroke-linecap="round" stroke-linejoin="round"/>
<path d="M597.14 227.211C597.14 227.211 590.89 221.111 590.14 223.571C589.39 226.031 593.95 230.301 595.21 230.941C596.47 231.581 597.75 229.351 598.54 228.241" fill="white"/>
<path d="M597.14 227.211C597.14 227.211 590.89 221.111 590.14 223.571C589.39 226.031 593.95 230.301 595.21 230.941C596.47 231.581 597.75 229.351 598.54 228.241" stroke="#263238" stroke-linecap="round" stroke-linejoin="round"/>
<path d="M621 266.68V277.88C621 277.88 635.62 284.72 650.61 285.47C665.6 286.22 682.12 282.82 682.12 282.82L682.31 182.82C682.31 182.82 671.87 177.5 662.19 175.98C652.51 174.46 623.66 178.83 623.66 178.83L621 266.68Z" fill="#FBCF49" stroke="#263238" stroke-linecap="round" stroke-linejoin="round"/>
<path d="M644.19 159.54C644.19 159.54 641.95 182.54 642.59 183.96C643.434 185.589 644.721 186.947 646.302 187.878C647.884 188.808 649.696 189.273 651.53 189.22C657.12 189.22 663.18 183.32 663.18 183.32L665.1 160.17C665.1 160.17 657.75 163.69 652.65 162.57C649.705 161.952 646.858 160.932 644.19 159.54Z" fill="white" stroke="#263238" stroke-linecap="round" stroke-linejoin="round"/>
<path d="M651.8 168.56L664.3 176.5L665.29 158.65L651.8 168.56Z" fill="#263238"/>
<path d="M639 140.22C639 140.22 637.41 136.55 635.81 139.42C634.21 142.29 639.48 149.64 639.48 149.64L639 140.22Z" fill="white" stroke="#263238" stroke-linecap="round" stroke-linejoin="round"/>
<path d="M669.62 140.22C669.62 140.22 671.21 136.55 672.81 139.42C674.41 142.29 668.32 150.11 668.32 150.11L669.62 140.22Z" fill="white" stroke="#263238" stroke-linecap="round" stroke-linejoin="round"/>
<path d="M639.45 142.3C639.45 142.3 637.85 136.55 637.85 134.95C637.85 133.35 640.73 133.36 640.73 133.36L639.45 142.3Z" fill="#263238"/>
<path d="M639.67 134.001C639.67 134.001 639.11 153.771 640.6 156.941C642.09 160.111 647.31 167.381 648.6 168.311C649.89 169.241 654.38 169.621 655.69 169.431C657 169.241 666.99 159.271 667.36 157.971C667.73 156.671 669.3 138.471 669.3 138.471L669.12 123.371C666.21 122.005 662.993 121.426 659.79 121.691C654.19 122.061 640.39 128.031 640.39 128.031L639.67 134.001Z" fill="white" stroke="#263238" stroke-linecap="round" stroke-linejoin="round"/>
<path d="M664.85 126.32C664.85 126.32 660.18 132.48 658.13 133.41C656.08 134.34 656.45 130.41 656.45 130.41C652.92 132.918 648.926 134.696 644.7 135.64C637.8 137.13 632.21 137.5 630.34 134.89C628.47 132.28 634.44 128.55 634.44 128.55C634.44 128.55 629.78 125.75 634.44 120.72C639.1 115.69 651.04 110.08 659.62 113.44C668.2 116.8 666.52 119.97 666.52 119.97C666.52 119.97 673.05 119.04 673.61 124.26C674.17 129.48 670.25 135.45 670.25 135.45C670.25 135.45 670.07 139.93 670.07 141.04C670.07 142.15 668.76 141.98 668.76 141.98L668.2 136.38C668.2 136.38 666.15 136.57 665.03 132.65C664.333 130.607 664.27 128.4 664.85 126.32Z" fill="#263238"/>
<path d="M649.35 152.67C650.393 153.546 651.668 154.102 653.02 154.27C654.305 154.142 655.525 153.641 656.53 152.83" stroke="#263238" stroke-linecap="round" stroke-linejoin="round"/>
<path d="M647.43 156.821C647.43 156.821 650.94 158.741 653.98 158.421C655.928 158.117 657.691 157.092 658.92 155.551" stroke="#263238" stroke-linecap="round" stroke-linejoin="round"/>
<path d="M656.53 138.63C656.53 138.63 662.59 136.87 664.53 140.22" stroke="#263238" stroke-linecap="round" stroke-linejoin="round"/>
<path d="M650 139.101C650 139.101 645.84 136.231 642.65 139.261" stroke="#263238" stroke-linecap="round" stroke-linejoin="round"/>
<path d="M648.23 142.78C648.23 143.83 647.76 144.69 647.23 144.69C646.7 144.69 646.23 143.83 646.23 142.78C646.23 141.73 646.7 140.86 647.23 140.86C647.76 140.86 648.23 141.72 648.23 142.78Z" fill="#263238"/>
<path d="M660.28 142.78C660.28 143.83 659.82 144.69 659.28 144.69C658.74 144.69 658.28 143.83 658.28 142.78C658.28 141.73 658.75 140.86 659.28 140.86C659.81 140.86 660.28 141.72 660.28 142.78Z" fill="#263238"/>
<path d="M693.56 278.161C693.56 278.161 690.87 283.281 690.56 284.621C690.25 285.961 690.56 290.541 690.29 292.971C690.02 295.401 688.01 296.201 689.35 297.271C690.69 298.341 692.85 296.201 693.35 295.271C693.85 294.341 694.56 292.451 695.23 290.971C695.9 289.491 696.71 292.181 697.12 292.971C697.53 293.761 697.25 301.851 697.39 303.191C697.53 304.531 695.77 309.521 696.31 310.461C696.85 311.401 698.06 311.401 698.6 310.061C699.244 308.69 699.961 307.354 700.75 306.061C700.75 306.061 707.88 300.141 708.55 299.201C709.22 298.261 705.73 285.471 705.46 283.321C705.19 281.171 704.65 277.801 704.65 277.801L693.56 278.161Z" fill="white" stroke="#263238" stroke-linecap="round" stroke-linejoin="round"/>
<path d="M700.83 306C701.582 304.346 702.21 302.638 702.71 300.89C702.98 299.41 703.25 297.39 703.39 296.98" fill="white"/>
<path d="M700.83 306C701.582 304.346 702.21 302.638 702.71 300.89C702.98 299.41 703.25 297.39 703.39 296.98" stroke="#263238" stroke-linecap="round" stroke-linejoin="round"/>
<path d="M702.31 304.67C702.31 304.67 705 301.67 705.31 300.37C705.62 299.07 705.85 297.37 705.85 297.37" fill="white"/>
<path d="M702.31 304.67C702.31 304.67 705 301.67 705.31 300.37C705.62 299.07 705.85 297.37 705.85 297.37" stroke="#263238" stroke-linecap="round" stroke-linejoin="round"/>
<path d="M693.35 274.141L693.56 278.141C693.56 278.141 695.45 280.141 700.29 280.571C705.13 281.001 706.75 278.681 706.75 278.681L707.07 275.231C707.07 275.231 696.36 275.361 693.35 274.141Z" fill="white" stroke="#263238" stroke-linecap="round" stroke-linejoin="round"/>
<path d="M664.3 168.631C664.3 168.631 657.59 190.181 655.36 209.171C653.13 228.161 653.76 275.571 653.76 275.571C653.76 275.571 657.12 276.691 668.61 276.571C680.1 276.451 685.53 274.821 685.53 274.821L687 227.371L695.14 238.701L693.39 274.141C693.39 274.141 695 276.281 699.13 276.691C702.33 277.014 705.56 276.551 708.54 275.341C708.54 275.341 712.06 238.341 711.9 235.511C711.74 232.681 691.79 183.801 690.2 182.201C688.61 180.601 668.81 170.551 668.81 170.551C668.81 170.551 666.53 166.561 664.3 168.631Z" fill="white" stroke="#263238" stroke-linecap="round" stroke-linejoin="round"/>
<path d="M668.77 170.55C668.77 170.55 669.25 175.66 669.25 182.2C669.194 186.58 668.86 190.952 668.25 195.29C665.942 194.741 663.531 194.796 661.25 195.45C657.73 196.57 656.94 197.84 656.94 197.84C656.94 197.84 661.88 171.84 664.28 168.63C666.68 165.42 667.49 167.84 668.77 170.55Z" fill="white" stroke="#263238" stroke-linecap="round" stroke-linejoin="round"/>
<path d="M687 227.37C687 227.37 677.27 214.76 677.91 209.49C678.55 204.22 679.5 198.49 679.5 198.49" fill="white"/>
<path d="M687 227.37C687 227.37 677.27 214.76 677.91 209.49C678.55 204.22 679.5 198.49 679.5 198.49" stroke="#263238" stroke-linecap="round" stroke-linejoin="round"/>
<path d="M642.91 168.631C642.91 168.631 641 193.851 639.24 206.141C637.48 218.431 638.6 274.301 638.6 274.301C634.211 273.823 629.879 272.912 625.67 271.581C622.414 270.537 619.219 269.311 616.1 267.911L616.73 234.071C616.73 234.071 615.46 180.131 617.05 178.531C618.64 176.931 637.48 171.531 637.48 171.531C637.48 171.531 641 168.151 642.91 168.631Z" fill="white" stroke="#263238" stroke-linecap="round" stroke-linejoin="round"/>
<path d="M637.48 171.51C637.48 171.51 635.41 178.85 633.48 185.07C632.463 188.204 631.664 191.405 631.09 194.65C631.351 194.279 631.686 193.966 632.074 193.73C632.462 193.495 632.895 193.342 633.345 193.282C633.795 193.222 634.252 193.256 634.688 193.381C635.125 193.506 635.53 193.72 635.88 194.01C637.511 195.177 639.058 196.457 640.51 197.84L643.21 168.65C642.082 168.537 640.945 168.746 639.931 169.252C638.917 169.758 638.067 170.541 637.48 171.51Z" fill="white" stroke="#263238" stroke-linecap="round" stroke-linejoin="round"/>
<path d="M585.62 85.2704L578.25 88.6404C569.299 73.776 555.921 62.0854 539.991 55.2075C524.061 48.3296 506.378 46.6094 489.422 50.2879C472.465 53.9664 457.084 62.8592 445.436 75.7196C433.788 88.5801 426.457 104.763 424.47 122H437.57C439.512 107.746 445.792 94.433 455.556 83.8679C465.321 73.3029 478.099 65.9966 492.157 62.9398C506.215 59.883 520.873 61.2236 534.143 66.7799C547.413 72.3362 558.654 81.8392 566.34 94.0004L559.56 97.1104C559.037 97.347 558.586 97.7175 558.252 98.1843C557.919 98.6511 557.714 99.1978 557.659 99.769C557.605 100.34 557.701 100.916 557.94 101.437C558.179 101.959 558.552 102.409 559.02 102.74L582.37 119.35C582.837 119.683 583.384 119.886 583.955 119.941C584.526 119.995 585.101 119.899 585.623 119.66C586.144 119.422 586.594 119.051 586.927 118.584C587.26 118.118 587.465 117.571 587.52 117L590.23 88.4704C590.268 87.9064 590.159 87.3421 589.914 86.8326C589.669 86.3232 589.296 85.8859 588.832 85.5636C588.368 85.2412 587.828 85.0448 587.265 84.9934C586.702 84.942 586.135 85.0374 585.62 85.2704Z" fill="#263238"/>
<path d="M293.58 370.489C293.58 370.489 303.02 411.079 298.91 417.749C293.54 426.469 236.32 431.749 236.32 431.749H362.49C362.49 431.749 378.3 427.319 373.55 414.599C369.87 404.769 352.22 370.509 352.22 370.509L293.58 370.489Z" fill="white" stroke="#263238" stroke-linecap="round" stroke-linejoin="round"/>
<path d="M290.82 370.489C290.82 370.489 300.89 411.419 296.15 417.749C291.41 424.079 236.32 428.919 236.32 428.919H363.08C363.08 428.919 373.74 424.609 370.78 414.579C367.82 404.549 349.46 370.489 349.46 370.489H290.82Z" fill="white" stroke="#263238" stroke-linecap="round" stroke-linejoin="round"/>
<path d="M349.46 370.489H290.82C290.82 370.489 296.82 394.739 297.36 408.789H368.59C362.82 395.289 349.46 370.489 349.46 370.489Z" fill="#263238" stroke="#263238" stroke-linecap="round" stroke-linejoin="round"/>
<path d="M362.49 429.12H236.32V431.73H362.49V429.12Z" fill="white" stroke="#263238" stroke-linecap="round" stroke-linejoin="round"/>
<path d="M506.3 88.9697H142.57C137.887 88.9697 134.09 92.7663 134.09 97.4497V366C134.09 370.683 137.887 374.48 142.57 374.48H506.3C510.983 374.48 514.78 370.683 514.78 366V97.4497C514.78 92.7663 510.983 88.9697 506.3 88.9697Z" fill="white" stroke="#263238" stroke-linecap="round" stroke-linejoin="round"/>
<path d="M497.33 88.9697H133.6C128.917 88.9697 125.12 92.7663 125.12 97.4497V366C125.12 370.683 128.917 374.48 133.6 374.48H497.33C502.013 374.48 505.81 370.683 505.81 366V97.4497C505.81 92.7663 502.013 88.9697 497.33 88.9697Z" fill="#263238" stroke="#263238" stroke-linecap="round" stroke-linejoin="round"/>
<path d="M125.12 330.11H505.8V366C505.8 368.249 504.907 370.406 503.316 371.996C501.726 373.586 499.569 374.48 497.32 374.48H133.6C131.351 374.48 129.194 373.586 127.604 371.996C126.014 370.406 125.12 368.249 125.12 366V330.1V330.11Z" fill="white" stroke="#263238" stroke-linecap="round" stroke-linejoin="round"/>
<path d="M322.48 352.3C322.48 350.915 322.07 349.562 321.301 348.411C320.531 347.26 319.438 346.362 318.159 345.833C316.88 345.303 315.472 345.164 314.115 345.434C312.757 345.704 311.509 346.371 310.53 347.35C309.552 348.329 308.885 349.576 308.615 350.934C308.345 352.292 308.483 353.7 309.013 354.979C309.543 356.258 310.44 357.351 311.591 358.12C312.742 358.889 314.096 359.3 315.48 359.3C317.337 359.3 319.117 358.562 320.43 357.25C321.743 355.937 322.48 354.156 322.48 352.3Z" fill="#263238" stroke="#263238" stroke-linecap="round" stroke-linejoin="round"/>
<path d="M494.96 97.46H134.09V322.07H494.96V97.46Z" fill="white" stroke="#263238" stroke-linecap="round" stroke-linejoin="round"/>
<path d="M494.96 97.46H488.13V322.07H494.96V97.46Z" fill="#D1D1D1" stroke="#263238" stroke-linecap="round" stroke-linejoin="round"/>
<path d="M494.96 192.239H488.13V227.279H494.96V192.239Z" fill="#B0B0B0" stroke="#263238" stroke-linecap="round" stroke-linejoin="round"/>
<path d="M494.96 97.46H134.09V115.68H494.96V97.46Z" fill="#FBCF49" stroke="#263238" stroke-linecap="round" stroke-linejoin="round"/>
<path d="M407.57 102.92H147.2V111.85H407.57V102.92Z" fill="white" stroke="#263238" stroke-linecap="round" stroke-linejoin="round"/>
<path d="M318.73 147.27H298.43V153.16H318.73V147.27Z" fill="#B0B0B0"/>
<path d="M362.28 147.27H341.98V153.16H362.28V147.27Z" fill="#B0B0B0"/>
<path d="M405.83 147.27H385.53V153.16H405.83V147.27Z" fill="#B0B0B0"/>
<path d="M449.37 147.27H429.07V153.16H449.37V147.27Z" fill="#B0B0B0"/>
<path d="M145.85 165.609H476.55" stroke="#B0B0B0" stroke-linecap="round" stroke-linejoin="round"/>
<path d="M173.606 155.381C180.257 148.73 180.257 137.947 173.606 131.297C166.955 124.646 156.173 124.646 149.522 131.297C142.871 137.947 142.871 148.73 149.522 155.381C156.173 162.032 166.955 162.032 173.606 155.381Z" fill="#FBCF49"/>
<path d="M477.2 176.41H144.54V243.2H477.2V176.41Z" fill="#FBCF49"/>
<path d="M166.08 257.62H211.34" stroke="#263238" stroke-linecap="round" stroke-linejoin="round"/>
<path d="M147.16 257.62H163" stroke="#263238" stroke-linecap="round" stroke-linejoin="round"/>
<path d="M197.47 273.33H211.34" stroke="#263238" stroke-linecap="round" stroke-linejoin="round"/>
<path d="M161.77 273.33H193.47" stroke="#263238" stroke-linecap="round" stroke-linejoin="round"/>
<path d="M147.16 273.33H158.39" stroke="#263238" stroke-linecap="round" stroke-linejoin="round"/>
<path d="M176.54 289.05H211.34" stroke="#263238" stroke-linecap="round" stroke-linejoin="round"/>
<path d="M147.16 289.05H172.85" stroke="#263238" stroke-linecap="round" stroke-linejoin="round"/>
<path d="M199 304.77H211.34" stroke="#263238" stroke-linecap="round" stroke-linejoin="round"/>
<path d="M155.31 304.77H195.93" stroke="#263238" stroke-linecap="round" stroke-linejoin="round"/>
<path d="M147.16 304.77H151.93" stroke="#263238" stroke-linecap="round" stroke-linejoin="round"/>
<path d="M353.88 257.62H399.13" stroke="#263238" stroke-linecap="round" stroke-linejoin="round"/>
<path d="M334.96 257.62H350.8" stroke="#263238" stroke-linecap="round" stroke-linejoin="round"/>
<path d="M385.26 273.33H399.13" stroke="#263238" stroke-linecap="round" stroke-linejoin="round"/>
<path d="M349.57 273.33H381.26" stroke="#263238" stroke-linecap="round" stroke-linejoin="round"/>
<path d="M334.96 273.33H346.19" stroke="#263238" stroke-linecap="round" stroke-linejoin="round"/>
<path d="M364.34 289.05H399.13" stroke="#263238" stroke-linecap="round" stroke-linejoin="round"/>
<path d="M334.96 289.05H360.65" stroke="#263238" stroke-linecap="round" stroke-linejoin="round"/>
<path d="M386.8 304.77H399.13" stroke="#263238" stroke-linecap="round" stroke-linejoin="round"/>
<path d="M343.11 304.77H383.73" stroke="#263238" stroke-linecap="round" stroke-linejoin="round"/>
<path d="M334.96 304.77H339.72" stroke="#263238" stroke-linecap="round" stroke-linejoin="round"/>
<path d="M429.67 257.62H474.92" stroke="#263238" stroke-linecap="round" stroke-linejoin="round"/>
<path d="M410.75 257.62H426.59" stroke="#263238" stroke-linecap="round" stroke-linejoin="round"/>
<path d="M461.05 273.33H474.92" stroke="#263238" stroke-linecap="round" stroke-linejoin="round"/>
<path d="M425.36 273.33H457.05" stroke="#263238" stroke-linecap="round" stroke-linejoin="round"/>
<path d="M410.75 273.33H421.97" stroke="#263238" stroke-linecap="round" stroke-linejoin="round"/>
<path d="M440.13 289.05H474.92" stroke="#263238" stroke-linecap="round" stroke-linejoin="round"/>
<path d="M410.75 289.05H436.43" stroke="#263238" stroke-linecap="round" stroke-linejoin="round"/>
<path d="M462.59 304.77H474.92" stroke="#263238" stroke-linecap="round" stroke-linejoin="round"/>
<path d="M418.9 304.77H459.51" stroke="#263238" stroke-linecap="round" stroke-linejoin="round"/>
<path d="M410.75 304.77H415.51" stroke="#263238" stroke-linecap="round" stroke-linejoin="round"/>
<path d="M327.19 254.08H220.2V307.58H327.19V254.08Z" stroke="#263238" stroke-linecap="round" stroke-linejoin="round"/>
<path d="M220.2 307.579L257.54 286.399L276.49 291.979L306.02 268.569L326.64 281.939V307.579H220.2Z" fill="#263238" stroke="#263238" stroke-linecap="round" stroke-linejoin="round"/>
<path d="M246.41 277.005C249.54 273.611 249.325 268.322 245.931 265.192C242.537 262.062 237.248 262.276 234.118 265.671C230.988 269.065 231.202 274.354 234.597 277.484C237.991 280.614 243.28 280.399 246.41 277.005Z" fill="#263238" stroke="#263238" stroke-linecap="round" stroke-linejoin="round"/>
<path d="M549.33 125.18H616.5C618.107 125.18 619.649 125.818 620.785 126.955C621.922 128.091 622.56 129.632 622.56 131.24V205.72H543.27V131.24C543.27 130.444 543.427 129.656 543.731 128.921C544.036 128.185 544.482 127.517 545.045 126.955C545.608 126.392 546.276 125.946 547.011 125.641C547.746 125.336 548.534 125.18 549.33 125.18Z" fill="white" stroke="#263238" stroke-linecap="round" stroke-linejoin="round"/>
<path d="M549.33 125.18H616.5C618.107 125.18 619.649 125.818 620.785 126.955C621.922 128.091 622.56 129.632 622.56 131.24V135.71H543.27V131.24C543.27 130.444 543.427 129.656 543.731 128.921C544.036 128.185 544.482 127.517 545.045 126.955C545.608 126.392 546.276 125.946 547.011 125.641C547.746 125.336 548.534 125.18 549.33 125.18Z" fill="#FBCF49" stroke="#263238" stroke-linecap="round" stroke-linejoin="round"/>
<path d="M562.23 148.12C562.228 149.354 561.86 150.559 561.174 151.584C560.487 152.609 559.511 153.407 558.371 153.878C557.231 154.349 555.976 154.471 554.767 154.229C553.557 153.987 552.446 153.392 551.574 152.519C550.702 151.646 550.109 150.534 549.869 149.324C549.629 148.114 549.753 146.86 550.226 145.72C550.699 144.58 551.498 143.606 552.524 142.921C553.55 142.236 554.756 141.87 555.99 141.87C556.81 141.87 557.623 142.032 558.38 142.346C559.138 142.66 559.826 143.121 560.406 143.701C560.985 144.282 561.445 144.971 561.758 145.729C562.071 146.487 562.231 147.3 562.23 148.12Z" fill="#FBCF49"/>
<path d="M559.56 161.76H549.74V164.61H559.56V161.76Z" fill="#B0B0B0"/>
<path d="M559.56 172.109H549.74V174.959H559.56V172.109Z" fill="#B0B0B0"/>
<path d="M559.56 182.449H549.74V185.299H559.56V182.449Z" fill="#B0B0B0"/>
<path d="M559.56 192.68H549.74V195.53H559.56V192.68Z" fill="#B0B0B0"/>
<path d="M616.64 140.54H568.03V156.59H616.64V140.54Z" fill="#FBCF49"/>
<path d="M614.31 160.75H569.11V183.35H614.31V160.75Z" stroke="#263238" stroke-linecap="round" stroke-linejoin="round"/>
<path d="M569.11 183.34L584.88 174.4L592.89 176.75L605.36 166.87L614.07 172.52V183.34H569.11Z" fill="#263238" stroke="#263238" stroke-linecap="round" stroke-linejoin="round"/>
<path d="M577.58 171.57C579.53 171.57 581.11 169.989 581.11 168.04C581.11 166.09 579.53 164.51 577.58 164.51C575.631 164.51 574.05 166.09 574.05 168.04C574.05 169.989 575.631 171.57 577.58 171.57Z" fill="#263238" stroke="#263238" stroke-linecap="round" stroke-linejoin="round"/>
<path d="M582.65 188.149H616.31" stroke="#263238" stroke-linecap="round" stroke-linejoin="round"/>
<path d="M568.58 188.149H580.36" stroke="#263238" stroke-linecap="round" stroke-linejoin="round"/>
<path d="M606 192.649H616.31" stroke="#263238" stroke-linecap="round" stroke-linejoin="round"/>
<path d="M579.45 192.649H603.02" stroke="#263238" stroke-linecap="round" stroke-linejoin="round"/>
<path d="M568.58 192.649H576.93" stroke="#263238" stroke-linecap="round" stroke-linejoin="round"/>
<path d="M590.43 197.14H616.31" stroke="#263238" stroke-linecap="round" stroke-linejoin="round"/>
<path d="M568.58 197.14H587.69" stroke="#263238" stroke-linecap="round" stroke-linejoin="round"/>
<path d="M607.14 201.63H616.31" stroke="#263238" stroke-linecap="round" stroke-linejoin="round"/>
<path d="M574.64 201.63H604.85" stroke="#263238" stroke-linecap="round" stroke-linejoin="round"/>
<path d="M568.58 201.63H572.13" stroke="#263238" stroke-linecap="round" stroke-linejoin="round"/>
</svg>
