<svg width="500" height="500" viewBox="0 0 500 500" fill="none" xmlns="http://www.w3.org/2000/svg">
<g clip-path="url(#clip0_127_3254)">
<path d="M292.38 140.57H369C369 140.57 365.19 135.57 361 134.99C361 134.99 352.83 110.66 339.15 110.49C326.43 110.33 321.33 125.49 321.33 125.49C321.33 125.49 315.44 118.71 309.81 121.81C304.18 124.91 300.99 133.81 300.99 133.81C300.99 133.81 294.68 137.16 292.38 140.57Z" fill="#EBEBEB"/>
<path d="M113.32 119.329H165.38C165.38 119.329 162.79 115.959 159.93 115.539C159.93 115.539 154.38 99.0193 145.09 98.8993C136.45 98.7893 132.99 109.059 132.99 109.059C132.99 109.059 128.99 104.449 125.17 106.559C121.35 108.669 119.17 114.699 119.17 114.699C119.17 114.699 114.88 116.999 113.32 119.329Z" fill="#EBEBEB"/>
<path d="M141.9 160.999H45C45 160.999 45 154.809 58.35 153.599C58.35 153.599 70.54 126.529 89.16 130.159C100.75 132.429 106.67 148.339 106.67 148.339C106.67 148.339 115.43 135.819 122.44 138.239C129.45 140.659 133.58 153.999 133.58 153.999C133.58 153.999 140.8 157.449 141.9 160.999Z" fill="#EBEBEB"/>
<path d="M437.88 67.6795H372C372 67.6795 378.22 61.8895 381 61.8895C383.78 61.8895 391.83 42.4595 402.14 43.2895C412.45 44.1195 417.92 58.5895 417.92 58.5895C417.92 58.5895 430.4 54.6595 437.88 67.6795Z" fill="#EBEBEB"/>
<path d="M455 172.09H420.72C420.72 172.09 423.96 169.09 425.4 169.09C426.84 169.09 431.04 158.98 436.4 159.41C441.76 159.84 444.62 167.41 444.62 167.41C444.62 167.41 451.14 165.31 455 172.09Z" fill="#EBEBEB"/>
<path d="M292.38 202.57H236C236 202.57 238.8 198.92 241.89 198.47C241.89 198.47 247.89 180.58 257.96 180.47C267.31 180.35 271.06 191.47 271.06 191.47C271.06 191.47 275.39 186.47 279.53 188.76C283.67 191.05 286.02 197.57 286.02 197.57C286.02 197.57 290.69 200.06 292.38 202.57Z" fill="#EBEBEB"/>
<path d="M40 261.51C40 261.51 119.79 225.68 178.07 225.68C235.07 225.68 312.5 243.78 333.53 247.84C388.76 258.49 459.86 261.51 459.86 261.51H40Z" fill="#DBDBDB"/>
<path d="M459.88 261.51C459.88 261.51 416.38 237.51 367.25 237.51C332.95 237.51 283.72 247.18 237.36 252.62C219.7 254.69 127.81 261.53 127.81 261.53L459.88 261.51Z" fill="#C7C7C7"/>
<path d="M328.7 239.08C328.7 239.08 334.76 252.57 324.84 252.57C314.92 252.57 321.35 238.62 321.35 238.62C321.35 238.62 319.05 237.62 321.72 230.08C324.39 222.54 325.57 222.55 326.67 222.55C328.07 222.55 329.37 225.81 328.42 230.81C328.42 230.81 331.91 237.06 328.7 239.08Z" fill="#DBDBDB"/>
<path d="M323.96 261.519L324.92 241.189L325.87 261.519H323.96Z" fill="#A6A6A6"/>
<path d="M324.53 249.72L328.13 245.51L325.3 250.27L324.53 249.72Z" fill="#A6A6A6"/>
<path d="M51.1999 237.25C51.1999 237.25 57.7499 251.85 47.0299 251.85C36.3099 251.85 43.2499 236.75 43.2499 236.75C43.2499 236.75 40.7699 235.66 43.6499 227.52C46.5299 219.38 47.8199 219.38 49.0099 219.38C50.5199 219.38 51.9299 222.9 50.8999 228.32C50.8999 228.32 54.6699 235.07 51.1999 237.25Z" fill="#C7C7C7"/>
<path d="M46.0801 261.519L47.1101 239.539L48.1401 261.519H46.0801Z" fill="#A6A6A6"/>
<path d="M46.6899 248.76L50.5899 244.21L47.5299 249.36L46.6899 248.76Z" fill="#A6A6A6"/>
<path d="M192.66 238.449C192.66 238.449 195.76 237.219 198.23 241.509C200.7 245.799 197.59 248.809 195.07 247.079C195.07 247.079 193.07 251.219 189.16 250.239C188.087 250.038 187.09 249.544 186.28 248.812C185.47 248.079 184.878 247.137 184.57 246.089C184.57 246.089 181.07 246.339 180.97 243.729C180.87 241.119 183.43 238.789 183.43 238.789C183.43 238.789 183.58 232.279 187.82 232.329C192.06 232.379 192.66 238.449 192.66 238.449Z" fill="#EBEBEB"/>
<path d="M189.77 261.519L188.88 242.149L188 261.519H189.77Z" fill="#A6A6A6"/>
<path d="M189.26 249.189L191.87 243.989L188.5 248.739L189.26 249.189Z" fill="#A6A6A6"/>
<path d="M448.18 239.08C448.18 239.08 442.11 252.57 452.03 252.57C461.95 252.57 455.52 238.62 455.52 238.62C455.52 238.62 457.82 237.62 455.15 230.08C452.48 222.54 451.3 222.55 450.2 222.55C448.8 222.55 447.5 225.81 448.45 230.81C448.45 230.81 445 237.06 448.18 239.08Z" fill="#DBDBDB"/>
<path d="M452.91 261.519L451.96 241.189L451 261.519H452.91Z" fill="#A6A6A6"/>
<path d="M452.35 249.72L448.74 245.51L451.57 250.27L452.35 249.72Z" fill="#A6A6A6"/>
<path d="M442.68 238.449C442.68 238.449 445.79 237.219 448.26 241.509C450.73 245.799 447.62 248.809 445.1 247.079C445.1 247.079 443.1 251.219 439.18 250.239C438.108 250.038 437.113 249.543 436.304 248.811C435.496 248.078 434.906 247.136 434.6 246.089C434.6 246.089 431.09 246.339 431 243.729C430.91 241.119 433.46 238.789 433.46 238.789C433.46 238.789 433.61 232.279 437.85 232.329C442.09 232.379 442.68 238.449 442.68 238.449Z" fill="#EBEBEB"/>
<path d="M439.8 261.519L438.91 242.149L438.02 261.519H439.8Z" fill="#A6A6A6"/>
<path d="M439.29 249.189L441.9 243.989L438.53 248.739L439.29 249.189Z" fill="#A6A6A6"/>
<path d="M64.8499 231.45C64.8499 231.45 68.8499 229.85 72.0899 235.45C75.3299 241.05 71.2599 244.93 67.9899 242.69C67.9899 242.69 65.4299 248.07 60.2999 246.79C55.1699 245.51 54.2999 241.41 54.2999 241.41C54.2999 241.41 49.7599 241.73 49.6299 238.33C49.4999 234.93 52.8299 231.93 52.8299 231.93C52.8299 231.93 53.0199 223.47 58.5299 223.53C64.0399 223.59 64.8499 231.45 64.8499 231.45Z" fill="#EBEBEB"/>
<path d="M61.1 261.41L59.9501 236.25L58.8 261.41H61.1Z" fill="#A6A6A6"/>
<path d="M60.44 245.409L63.83 238.649L59.46 244.809L60.44 245.409Z" fill="#A6A6A6"/>
<path d="M394.01 444.02C430.394 444.02 459.89 439.48 459.89 433.88C459.89 428.28 430.394 423.74 394.01 423.74C357.625 423.74 328.13 428.28 328.13 433.88C328.13 439.48 357.625 444.02 394.01 444.02Z" fill="#EBEBEB"/>
<path d="M40.02 261.52L92.51 261.28L145.01 261.19L250 261.03L354.99 261.19L407.49 261.28L459.98 261.52L407.49 261.77L354.99 261.86L250 262.02L145.01 261.86L92.51 261.77L40.02 261.52Z" fill="#263238"/>
<path d="M444.28 311L305.77 330.52C302.998 330.94 300.363 332.006 298.079 333.633C295.795 335.259 293.925 337.399 292.621 339.881C291.316 342.363 290.614 345.117 290.571 347.921C290.527 350.724 291.143 353.499 292.37 356.02L357.51 500.02H122.62L169.39 393.92C170.601 391.43 171.216 388.692 171.189 385.923C171.161 383.155 170.49 380.43 169.23 377.964C167.969 375.499 166.154 373.36 163.925 371.716C161.697 370.071 159.118 368.967 156.39 368.49L55.72 348.94V334.71L187.58 333.61C190.914 333.585 194.175 332.628 196.994 330.847C199.812 329.066 202.077 326.531 203.53 323.53L233.85 270.53H246.27L260.45 290.22C264.83 295.93 269.86 300.41 276.81 300.3L444.28 297.89V311Z" fill="#455A64"/>
<path d="M240.74 278.801H239.37L239.71 270.521H240.41L240.74 278.801Z" fill="#EBEBEB"/>
<path d="M242.21 315.06H237.89L239.1 285.58H241.02L242.21 315.06Z" fill="#EBEBEB"/>
<path d="M244.7 376.93H235.36L235.48 374.05L237.39 327.36H242.7L244.58 374.05L244.7 376.93Z" fill="#EBEBEB"/>
<path d="M247.84 454.81H232.19L232.43 448.82L234.56 396.58H245.49L247.6 448.82L247.84 454.81Z" fill="#EBEBEB"/>
<path d="M249.66 500.001H230.34L231 483.921H249.01L249.66 500.001Z" fill="#EBEBEB"/>
<path d="M55.72 340.061L64.1 340.411L63.29 342.071L55.72 341.551V340.061Z" fill="#EBEBEB"/>
<path d="M70.2299 340.671L91.5099 341.571L90.3599 343.941L69.4199 342.501L70.2299 340.671Z" fill="#EBEBEB"/>
<path d="M99.4698 341.91L126.34 343.05L124.75 346.32L98.3398 344.49L99.4698 341.91Z" fill="#EBEBEB"/>
<path d="M167.39 344.781L165.48 349.131L137.9 347.231L139.49 343.601L167.39 344.781Z" fill="#EBEBEB"/>
<path d="M324.06 307.98L325.94 311.06L294.19 312.7L292.04 309.17L324.06 307.98Z" fill="#EBEBEB"/>
<path d="M372.87 306.15L374.34 308.56L340.55 310.3L338.61 307.43L372.86 306.15H372.87Z" fill="#EBEBEB"/>
<path d="M413.34 304.641L414.46 306.481L384.5 308.031L382.98 305.781L413.33 304.641H413.34Z" fill="#EBEBEB"/>
<path d="M444.28 303.49V304.94L422.45 306.07L421.3 304.35L444.28 303.49Z" fill="#EBEBEB"/>
<path d="M224.8 270.52H255.2L240 261.73L224.8 270.52Z" fill="#455A64"/>
<path d="M55.72 357.76V327.36L40.02 339.56L55.72 357.76Z" fill="#455A64"/>
<path d="M444.28 320.15V289.75L459.98 301.95L444.28 320.15Z" fill="#455A64"/>
<path d="M201.59 60.9105L190.81 73.7905L157.27 83.5405V62.3205L190.81 51.7305L201.59 60.9105Z" fill="#455A64"/>
<path d="M190.81 51.7307L187.52 51.1807L154.91 61.3807L155.29 83.5407H157.27V62.3207L190.81 51.7307Z" fill="#37474F"/>
<path d="M228.47 103.39L217.18 113.45L156.73 110.44L157.79 89.25L218.24 92.25L228.47 103.39Z" fill="#FBCF49"/>
<path d="M218.24 92.25L221.22 94.02L230.86 104.33L218.24 115.47L157.16 112.27L156.73 110.44L217.18 113.45L228.47 103.39L218.24 92.25Z" fill="#FBCF49"/>
<path opacity="0.1" d="M218.24 92.25L221.22 94.02L230.86 104.33L218.24 115.47L157.16 112.27L156.73 110.44L217.18 113.45L228.47 103.39L218.24 92.25Z" fill="black"/>
<path d="M82.99 89.1907L94.59 98.9007L154.91 94.0807L153.21 72.9307L92.88 77.7507L82.99 89.1907Z" fill="#263238"/>
<path d="M82.99 89.1904L94.59 98.9004L154.91 94.0804L154.68 97.7404L95.63 102.39L84.43 93.1904L82.99 89.1904Z" fill="#37474F"/>
<path d="M162.64 309.87H146.09L149.94 42.3703C149.99 38.9903 151.87 36.2803 154.17 36.2803H154.55C156.86 36.2803 158.74 38.9903 158.78 42.3703L162.64 309.87Z" fill="#FBCF49"/>
<path opacity="0.4" d="M162.64 309.87H146.09L149.94 42.3703C149.99 38.9903 151.87 36.2803 154.17 36.2803H154.55C156.86 36.2803 158.74 38.9903 158.78 42.3703L162.64 309.87Z" fill="black"/>
<g style="mix-blend-mode:multiply" opacity="0.3">
<path d="M152.88 46.5703C152.54 56.3836 152.273 66.197 152.08 76.0103C151.86 85.8303 151.69 95.6503 151.65 105.47C151.61 115.29 151.65 125.1 151.9 134.91L152.16 142.27L152.56 149.62C152.73 152.06 152.96 154.5 153.16 156.95C153.36 159.4 153.57 161.85 153.65 164.31C153.885 174.138 153.615 183.971 152.84 193.77C152.19 203.57 151.38 213.35 150.76 223.15C149.51 242.73 149.04 262.42 150.92 281.99C149.932 272.215 149.438 262.396 149.44 252.57C149.44 242.75 149.84 232.93 150.44 223.13C151.04 213.33 151.81 203.54 152.44 193.74C153.185 183.956 153.425 174.14 153.16 164.33C153.08 161.88 152.89 159.44 152.67 157C152.45 154.56 152.25 152.1 152.08 149.65L151.71 142.29L151.47 134.93C151.24 125.1 151.23 115.28 151.31 105.46C151.46 85.8203 152 66.1903 152.88 46.5703Z" fill="black"/>
<path d="M153.54 40.9102C153.82 44.8202 154.06 48.7302 154.29 52.6402L154.85 64.3802C155.19 72.2135 155.45 80.0435 155.63 87.8702C155.74 95.7102 155.78 103.55 155.63 111.38C155.48 119.21 155.19 127.06 154.36 134.85L154.76 128.99L155.01 123.12C155.12 121.12 155.13 119.21 155.19 117.25C155.25 115.29 155.28 113.34 155.29 111.38C155.4 103.55 155.29 95.7102 155.13 87.8802C154.97 80.0502 154.8 72.2202 154.52 64.3902L154.05 52.6502C153.9 48.7402 153.74 44.8202 153.54 40.9102Z" fill="black"/>
<path d="M151.55 253.44C152.16 249.64 152.69 245.82 153.2 242C153.71 238.18 154.2 234.36 154.66 230.53C155.57 222.88 156.3 215.21 156.79 207.53C157.1 203.69 157.25 199.84 157.45 195.99C157.65 192.14 157.68 188.29 157.59 184.44V181.55C157.59 180.55 157.51 179.63 157.46 178.67L157.32 175.78C157.32 174.78 157.23 173.86 157.11 172.9C156.91 170.99 156.76 169.07 156.53 167.16L155.53 161.46C157.122 169.023 157.923 176.731 157.92 184.46C158.04 188.31 157.92 192.17 157.92 196.03C157.92 199.89 157.63 203.74 157.34 207.58C156.79 215.28 156 222.95 155.04 230.58C154.08 238.21 152.93 245.86 151.55 253.44Z" fill="black"/>
<path d="M157.47 122.23C156.97 126.77 156.53 131.317 156.15 135.87C155.78 140.43 155.45 144.99 155.42 149.55C155.352 151.818 155.516 154.086 155.91 156.32C155.995 156.853 156.178 157.365 156.45 157.83C156.63 158.03 156.67 158.05 156.84 157.89C157.011 157.695 157.146 157.472 157.24 157.23C157.629 156.174 157.901 155.077 158.05 153.96C158.365 151.705 158.476 149.426 158.38 147.15C158.317 144.868 158.012 142.599 157.47 140.38C158.68 144.82 159.003 149.456 158.42 154.02C158.3 155.176 158.034 156.311 157.63 157.4C157.524 157.696 157.361 157.968 157.15 158.2C157.081 158.28 156.995 158.342 156.897 158.382C156.8 158.422 156.695 158.439 156.59 158.43C156.392 158.384 156.217 158.267 156.1 158.1C155.786 157.585 155.572 157.015 155.47 156.42C155.052 154.152 154.871 151.846 154.93 149.54C154.93 144.96 155.32 140.39 155.76 135.84C156.2 131.29 156.78 126.75 157.47 122.23Z" fill="black"/>
<path d="M158.61 220.42C157.76 229.63 156.83 238.83 155.61 248.01C155.3 250.3 154.99 252.6 154.61 254.88C154.23 257.16 153.74 259.43 153.41 261.71C152.701 266.27 152.42 270.887 152.57 275.5C152.636 277.795 152.92 280.079 153.42 282.32C153.653 283.423 154.102 284.47 154.74 285.4C155.04 285.835 155.5 286.133 156.02 286.23C156.5 286.36 156.82 285.89 157.02 285.39C157.447 284.335 157.732 283.229 157.87 282.1C158.04 280.96 158.15 279.81 158.22 278.67C158.37 276.37 158.4 274.05 158.33 271.75C158.274 269.444 158.057 267.145 157.68 264.87C157.582 264.305 157.448 263.748 157.28 263.2C157.17 262.667 156.894 262.184 156.49 261.82C156.382 261.779 156.263 261.776 156.152 261.81C156.042 261.845 155.946 261.915 155.88 262.01C155.7 262.217 155.558 262.454 155.46 262.71C155.255 263.241 155.101 263.79 155 264.35C154.608 266.625 154.44 268.932 154.5 271.24C154.5 272.39 154.57 273.55 154.69 274.7C154.747 275.274 154.834 275.845 154.95 276.41C155.029 276.983 155.238 277.53 155.56 278.01C155.227 277.536 155.008 276.992 154.92 276.42C154.793 275.852 154.696 275.278 154.63 274.7C154.48 273.56 154.41 272.4 154.37 271.24C154.267 268.92 154.394 266.595 154.75 264.3C154.852 263.723 155.01 263.157 155.22 262.61C155.326 262.325 155.482 262.061 155.68 261.83C155.787 261.69 155.937 261.589 156.106 261.543C156.276 261.496 156.456 261.505 156.62 261.57C157.096 261.967 157.424 262.513 157.55 263.12C157.731 263.676 157.871 264.244 157.97 264.82C158.368 267.107 158.602 269.419 158.67 271.74C158.76 274.05 158.75 276.37 158.61 278.69C158.54 279.85 158.44 281.01 158.27 282.16C158.14 283.329 157.854 284.476 157.42 285.57C157.295 285.862 157.119 286.13 156.9 286.36C156.775 286.489 156.621 286.585 156.45 286.64C156.279 286.679 156.101 286.679 155.93 286.64C155.293 286.525 154.727 286.166 154.35 285.64C153.666 284.662 153.183 283.557 152.93 282.39C152.395 280.121 152.106 277.801 152.07 275.47C151.951 270.828 152.259 266.185 152.99 261.6C153.35 259.31 153.89 257.06 154.23 254.78C154.57 252.5 154.94 250.21 155.23 247.92C156.53 238.8 157.6 229.61 158.61 220.42Z" fill="black"/>
<path d="M150.55 309.87C150.25 306.577 149.976 303.284 149.73 299.99L149.05 290.09L148.48 280.19C148.3 276.857 148.156 273.554 148.05 270.28C148.35 273.574 148.62 276.87 148.86 280.17L149.55 290.06L150.12 299.96C150.29 303.26 150.43 306.57 150.55 309.87Z" fill="black"/>
<path d="M154.91 309.87C155.632 307.228 155.896 304.481 155.69 301.75C155.506 299.035 154.767 296.387 153.52 293.97C152.246 291.508 151.327 288.879 150.79 286.16C150.197 283.473 149.783 280.751 149.55 278.01C149.914 280.729 150.425 283.426 151.08 286.09C151.687 288.757 152.641 291.332 153.92 293.75C155.25 296.216 156.005 298.951 156.13 301.75C156.272 304.511 155.857 307.272 154.91 309.87Z" fill="black"/>
<path d="M158.61 229.521C158.19 236.241 158.1 242.981 158.33 249.701C158.434 253.047 158.718 256.385 159.18 259.701C159.74 263.011 160.26 266.351 160.61 269.701C160.991 273.054 161.198 276.425 161.23 279.8C161.307 283.189 160.971 286.574 160.23 289.881C159.269 293.102 158.639 296.412 158.35 299.761C158.023 303.107 157.886 306.469 157.94 309.83C157.493 303.103 158.145 296.348 159.87 289.83C160.561 286.544 160.853 283.187 160.74 279.83C160.67 276.48 160.5 273.12 160.17 269.83C159.84 266.54 159.38 263.16 158.84 259.83C158.39 256.487 158.12 253.123 158.03 249.751C157.861 243.002 158.055 236.249 158.61 229.521Z" fill="black"/>
<path d="M155.53 36.4502C155.903 40.4969 156.236 44.5469 156.53 48.6002C156.8 52.6602 157.02 56.7102 157.23 60.7702C157.44 64.8302 157.55 68.8902 157.62 72.9502C157.69 77.0102 157.68 81.0902 157.33 85.1402C157.42 83.1402 157.42 81.0802 157.33 79.0502C157.24 77.0202 157.27 75.0002 157.2 73.0002C157.06 68.9402 156.893 64.8835 156.7 60.8302L155.53 36.4502Z" fill="black"/>
</g>
<path d="M110.78 261.53H70.5701C70.5701 261.53 70.6701 255.53 74.6201 253.95C75.6919 253.485 76.886 253.38 78.0222 253.653C79.1585 253.925 80.1755 254.559 80.9201 255.46C80.9201 255.46 82.5301 244.46 89.9201 244.46C97.3101 244.46 100.79 254 100.79 254C101.415 253.094 102.292 252.39 103.312 251.976C104.331 251.562 105.45 251.456 106.53 251.67C110.62 252.15 110.78 261.53 110.78 261.53Z" fill="#37474F"/>
<path d="M160 312.93H119.8C119.8 312.93 119.89 306.93 123.8 305.36C124.873 304.892 126.069 304.787 127.207 305.059C128.346 305.332 129.365 305.967 130.11 306.87C130.11 306.87 131.72 295.87 139.11 295.87C146.5 295.87 150 305.36 150 305.36C150.625 304.454 151.501 303.751 152.521 303.336C153.541 302.922 154.66 302.816 155.74 303.03C159.86 303.56 160 312.93 160 312.93Z" fill="#37474F"/>
<path d="M460 261.53C460 261.53 458.77 255.77 456.31 254.89C453.85 254.01 452.31 256.58 452.31 256.58C452.31 256.58 451.73 251.09 448.24 249.44C444.75 247.79 442.13 251.17 442.13 251.17C442.13 251.17 439.45 244.17 434.67 244.17C429.89 244.17 427.47 254.38 427.47 254.38C427.47 254.38 424.64 251.38 421.75 253.05C418.86 254.72 418.85 261.51 418.85 261.51L460 261.53Z" fill="#37474F"/>
<path d="M77.78 261.53H40.71C40.71 261.53 41.93 256.3 44.39 255.93C45.1315 255.862 45.8761 256.024 46.5221 256.395C47.1682 256.765 47.6842 257.326 48 258C48 258 47.89 250.71 52.48 249.47C57.07 248.23 60.92 254.67 60.92 254.67C60.92 254.67 63.8 251 67.72 251.23C71.64 251.46 72.64 257.54 72.64 257.54C72.64 257.54 76.2 255.41 77.78 261.53Z" fill="#455A64"/>
<path d="M190.06 312.93H153C153 312.93 154.22 307.71 156.68 307.34C157.418 307.272 158.158 307.432 158.802 307.799C159.446 308.165 159.962 308.721 160.28 309.39C160.28 309.39 160.17 302.1 164.76 300.86C169.35 299.62 173.2 306.06 173.2 306.06C173.2 306.06 176.08 302.39 180 302.62C183.92 302.85 184.92 308.92 184.92 308.92C184.92 308.92 188.48 306.82 190.06 312.93Z" fill="#455A64"/>
<path d="M421.53 261.53H398.75C398.75 261.53 398.81 258.14 401.05 257.24C401.657 256.977 402.333 256.918 402.977 257.071C403.62 257.224 404.197 257.582 404.62 258.09C404.62 258.09 405.53 251.86 409.7 251.86C413.87 251.86 415.87 257.24 415.87 257.24C416.224 256.727 416.72 256.328 417.297 256.092C417.874 255.855 418.508 255.792 419.12 255.91C421.44 256.22 421.53 261.53 421.53 261.53Z" fill="#455A64"/>
<path d="M111.17 261.53H134C134 261.53 134 258.14 131.71 257.24C131.105 256.967 130.426 256.902 129.78 257.056C129.134 257.21 128.557 257.573 128.14 258.09C128.14 258.09 127.23 251.86 123.05 251.86C118.87 251.86 116.88 257.24 116.88 257.24C116.528 256.725 116.032 256.324 115.454 256.088C114.877 255.851 114.242 255.79 113.63 255.91C111.27 256.22 111.17 261.53 111.17 261.53Z" fill="#455A64"/>
<path d="M409.35 174.58C412.14 174.92 414.81 170.35 415.79 167.07C415.87 166.81 415.27 164.43 414.65 161.48C414.28 159.69 413.91 157.69 413.7 155.84L402.41 160C403.33 162.246 403.972 164.597 404.32 167C404.345 167.253 404.345 167.507 404.32 167.76C404.32 167.76 404.32 167.84 404.32 167.89C404.25 169.29 406.65 174.24 409.35 174.58Z" fill="#AD6359"/>
<path d="M404.32 167.701V167.821C404.718 167.835 405.117 167.812 405.51 167.751C411.79 166.911 412.9 159.071 413.09 156.061L402.41 160.001C403.33 162.247 403.972 164.598 404.32 167.001C404.341 167.233 404.341 167.468 404.32 167.701Z" fill="#263238"/>
<path d="M418.29 140.74C419.53 145.74 416.85 157.95 413.18 160.94C407.86 165.26 399.52 165.26 395.95 158.94C392.48 152.82 396.06 137.42 400.12 134.75C406.11 130.82 416.46 133.35 418.29 140.74Z" fill="#AD6359"/>
<path d="M396.77 141.79C396.77 141.79 396.41 144.79 398.31 145.73C398.46 145.81 404.25 160.42 414.75 159.62C414.75 159.62 422.89 150.94 421.12 142.75C419.98 137.45 416.43 135.85 416.43 135.85C416.43 135.85 409.24 129 400.57 132C391.9 135 393.58 141.3 396.77 141.79Z" fill="#263238"/>
<path d="M421.16 168.79C434.73 177.4 458.93 202.73 456.73 209.32C452.29 222.61 434.47 240.32 429.79 243.77C427.07 245.77 407.04 227.77 409.63 225.25C412.63 222.33 431.32 206.6 431.45 204.97C431.54 203.72 422.04 189.84 415.11 178.08C407.07 164.45 414.69 164.69 421.16 168.79Z" fill="#AD6359"/>
<path d="M412.48 223.601C412.48 223.601 403.59 228.711 397.93 232.321C394.77 234.321 389.66 238.321 388.02 240.821C385.57 244.621 377.72 262.091 381.91 264.081C385.71 265.881 390.55 250.021 390.55 250.021C390.55 250.021 384.25 265.601 389.22 266.931C394.19 268.261 397.22 249.611 397.22 249.611C397.22 249.611 391.12 265.761 396.46 266.321C400.46 266.751 404.24 250.011 404.24 250.011C404.24 250.011 399.08 263.931 403.24 264.551C407.81 265.231 412.24 250.001 412.24 250.001C423.01 249.801 429.62 245.851 431.89 240.461C432.36 239.381 412.48 223.601 412.48 223.601Z" fill="#AD6359"/>
<path d="M392.38 244.49C391.57 246.3 390.74 248.12 390.1 249.98C389.46 251.84 388.88 253.75 388.42 255.66C387.756 258.158 387.387 260.726 387.32 263.31C387.78 258.74 389.98 252.01 390.62 250.14C391.26 248.27 391.81 246.38 392.45 244.52C392.47 244.47 392.4 244.45 392.38 244.49Z" fill="#263238"/>
<path d="M399.17 246.69C398.24 249.04 397.23 251.33 396.4 253.69C395.57 256.05 395.01 258.4 394.4 260.82C394.35 261.01 394.47 260.97 394.53 260.82C395.28 258.42 396.16 256.26 396.94 253.87C397.72 251.48 398.41 249.06 399.27 246.71C399.24 246.67 399.18 246.66 399.17 246.69Z" fill="#263238"/>
<path d="M405.33 247.53C403.819 251.093 402.68 254.803 401.93 258.6C401.93 258.79 402.03 258.73 402.09 258.54C403.15 254.84 403.96 251.93 405.45 247.54C405.48 247.52 405.36 247.46 405.33 247.53Z" fill="#263238"/>
<path d="M414.11 220.801L433.87 243.311C433.87 243.311 458.79 216.691 457.8 207.701C456.81 198.711 434.9 176.521 422.71 168.931C410.52 161.341 409.08 168.411 414.19 178.091C419.3 187.771 430.69 204.971 430.43 205.421C430.17 205.871 414.11 220.801 414.11 220.801Z" fill="#FBCF49"/>
<path d="M420.3 215.16C419.812 215.625 419.422 216.183 419.15 216.8C419.765 216.524 420.321 216.134 420.79 215.65C421.268 215.176 421.657 214.62 421.94 214.01C421.323 214.281 420.766 214.672 420.3 215.16ZM445.86 201.93C445.379 202.401 444.989 202.957 444.71 203.57C445.328 203.299 445.885 202.908 446.35 202.42C446.834 201.949 447.227 201.393 447.51 200.78C446.892 201.054 446.331 201.444 445.86 201.93ZM434.05 177.67C433.852 177.941 433.685 178.233 433.55 178.54C433.869 178.406 434.172 178.235 434.45 178.03L434.05 177.67ZM435.19 192.67C434.722 192.185 434.166 191.795 433.55 191.52C433.829 192.133 434.219 192.689 434.7 193.16C435.169 193.644 435.726 194.034 436.34 194.31C436.065 193.692 435.675 193.132 435.19 192.66V192.67ZM445.31 215.17C444.839 214.684 444.279 214.294 443.66 214.02C443.939 214.633 444.329 215.189 444.81 215.66C445.281 216.146 445.842 216.536 446.46 216.81C446.183 216.193 445.793 215.634 445.31 215.16V215.17ZM423.47 169.65C422.999 169.164 422.439 168.774 421.82 168.5C422.104 169.113 422.497 169.669 422.98 170.14C423.448 170.625 424.005 171.015 424.62 171.29C424.343 170.673 423.953 170.114 423.47 169.64V169.65ZM434.63 238.32C434.159 237.84 433.603 237.45 432.99 237.17C433.565 238.398 434.552 239.385 435.78 239.96C435.498 239.346 435.109 238.787 434.63 238.31V238.32ZM434.38 221.94C433.697 221.926 433.018 222.045 432.38 222.29C433.658 222.743 435.053 222.743 436.33 222.29C435.709 222.049 435.047 221.926 434.38 221.93V221.94ZM457.75 207.33C457.145 207.108 456.505 207 455.86 207.01C455.178 207.002 454.5 207.121 453.86 207.36C454.5 207.599 455.178 207.718 455.86 207.71C456.504 207.71 457.143 207.602 457.75 207.39H457.82L457.75 207.33ZM442.34 185.58L442.16 185.64L442.52 185.77L442.34 185.58ZM433.45 205.38C433.201 206.017 433.082 206.697 433.1 207.38C433.086 208.063 433.205 208.742 433.45 209.38C433.903 208.102 433.903 206.708 433.45 205.43V205.38ZM423.22 182.79C422.754 184.065 422.754 185.465 423.22 186.74C423.46 186.101 423.578 185.423 423.57 184.74C423.58 184.07 423.461 183.405 423.22 182.78V182.79Z" fill="white"/>
<path opacity="0.1" d="M414.11 220.801L433.87 243.311C433.87 243.311 458.79 216.691 457.8 207.701C456.81 198.711 434.9 176.521 422.71 168.931C410.52 161.341 409.08 168.411 414.19 178.091C419.3 187.771 430.69 204.971 430.43 205.421C430.17 205.871 414.11 220.801 414.11 220.801Z" fill="black"/>
<path d="M427.93 228C426.51 226.52 425.12 225 423.74 223.51C423.07 222.79 422.4 222.07 421.74 221.32C421.08 220.57 420.28 219.75 419.65 218.91C419.644 218.905 419.639 218.898 419.636 218.891C419.632 218.884 419.63 218.876 419.63 218.868C419.63 218.861 419.631 218.853 419.633 218.845C419.636 218.838 419.64 218.831 419.645 218.825C419.65 218.819 419.657 218.814 419.664 218.811C419.671 218.807 419.679 218.805 419.687 218.805C419.694 218.804 419.702 218.805 419.71 218.808C419.717 218.811 419.724 218.815 419.73 218.82C420.55 219.49 421.28 220.3 422.06 221.02C422.84 221.74 423.46 222.39 424.16 223.08C425.61 224.53 427.06 225.98 428.47 227.46C431.31 230.46 434.05 233.46 436.76 236.53C436.82 236.61 436.76 236.71 436.65 236.64C433.69 233.84 430.78 231 427.93 228Z" fill="#263238"/>
<path d="M443.94 372.53C443.94 372.53 444.94 410.25 444.94 410.27C444.94 417.27 444.77 423.35 444.4 426.51V426.56C444.392 427.307 444.214 428.042 443.88 428.71C441.81 430.11 386.1 431.56 384.14 430.95C382.18 430.34 383.74 424.72 385.86 422.95C387.98 421.18 409 411.1 409 411.1L408.39 373.41L443.94 372.53Z" fill="#AD6359"/>
<path d="M445 402.79C445 402.79 444.94 410.25 444.94 410.27C444.94 417.27 444.77 423.35 444.4 426.51V426.56C444.304 427.293 444.13 428.014 443.88 428.71C441.81 430.11 386.1 431.56 384.14 430.95C382.18 430.34 383.74 424.72 385.86 422.95C387.98 421.18 409 411.1 409 411.1V403.51L445 402.79Z" fill="white"/>
<path d="M405.56 411.12C409.27 410.51 413.78 411.17 416.56 413.87C416.67 413.97 416.56 414.12 416.4 414.08C412.894 412.862 409.266 412.027 405.58 411.59C405.526 411.582 405.476 411.554 405.439 411.513C405.402 411.472 405.381 411.419 405.378 411.363C405.376 411.308 405.393 411.254 405.426 411.209C405.459 411.165 405.507 411.134 405.56 411.12Z" fill="#263238"/>
<path d="M402.86 412.67C406.57 412.06 411.08 412.72 413.86 415.42C413.97 415.52 413.86 415.67 413.7 415.63C410.191 414.422 406.564 413.587 402.88 413.14C402.825 413.131 402.775 413.104 402.739 413.063C402.702 413.021 402.68 412.969 402.678 412.913C402.676 412.858 402.692 412.803 402.726 412.759C402.759 412.715 402.806 412.683 402.86 412.67Z" fill="#263238"/>
<path d="M400.16 414.221C403.87 413.611 408.38 414.281 411.16 416.971C411.26 417.071 411.16 417.221 410.99 417.181C407.485 415.972 403.861 415.138 400.18 414.691C400.126 414.682 400.076 414.655 400.039 414.613C400.002 414.572 399.981 414.519 399.978 414.464C399.976 414.408 399.993 414.354 400.026 414.31C400.059 414.265 400.107 414.234 400.16 414.221Z" fill="#263238"/>
<path d="M384.05 431.001C386.05 431.611 441.71 430.161 443.8 428.761C444.6 428.241 444.86 420.111 444.9 410.281C444.9 410.181 444.9 410.081 444.9 409.971L408.96 410.501V411.111C408.96 411.111 387.9 421.191 385.77 423.001C383.64 424.811 382.08 430.401 384.05 431.001Z" fill="#37474F"/>
<path d="M444.9 410V410.32C444.9 420.14 444.6 428.32 443.8 428.79C443 429.26 430.8 430.07 417.73 430.54C402.12 431.09 385.11 431.37 384.04 431.04C382.04 430.44 383.66 424.8 385.77 423.04C387.88 421.28 409 411.1 409 411.1V410.5L421 410.32L444.9 410Z" fill="#FBCF49"/>
<path d="M384.62 428.82C394 428.34 431.9 427.32 441.21 427.56C441.29 427.56 441.29 427.61 441.21 427.62C431.92 428.29 394.02 429.01 384.62 428.97C384.43 429 384.42 428.83 384.62 428.82Z" fill="#263238"/>
<path opacity="0.1" d="M420.93 410.32C420.05 416.32 418.72 425.21 417.73 430.5C402.12 431.05 385.11 431.33 384.04 431C382.04 430.4 383.66 424.76 385.77 423C387.88 421.24 409 411.1 409 411.1V410.5L420.93 410.32Z" fill="black"/>
<path d="M448.14 410.48L407.83 410.86C407.83 410.86 405.54 345.22 405.37 323.34C405.17 298.34 406.58 223.34 406.58 223.34H436.72C436.72 223.34 444.81 239.87 440.19 258.47L438.91 325.37L448.14 410.48Z" fill="#263238"/>
<path d="M445.15 403.42C444.086 403.278 443.014 403.191 441.94 403.16C440.75 403.08 439.56 402.99 438.37 402.94C436.07 402.84 433.78 402.8 431.49 402.79C426.86 402.79 422.23 402.79 417.6 402.96C414.97 403.04 412.34 403.14 409.71 403.29C409.693 403.296 409.677 403.308 409.667 403.323C409.656 403.338 409.65 403.356 409.65 403.375C409.65 403.394 409.656 403.412 409.667 403.427C409.677 403.442 409.693 403.454 409.71 403.46C414.3 403.62 418.89 403.7 423.48 403.78C428.07 403.86 432.66 403.96 437.24 403.87C438.56 403.87 439.88 403.87 441.19 403.76C442.5 403.65 443.85 403.76 445.13 403.57C445.21 403.56 445.24 403.43 445.15 403.42Z" fill="#37474F"/>
<path d="M410.73 367.191C410.26 356.341 409.91 345.471 409.62 334.621C409.02 312.901 408.864 291.174 409.15 269.441C409.3 257.251 409.63 245.071 409.99 232.881C409.99 232.741 409.78 232.751 409.77 232.881C408.62 254.691 408.18 276.551 408.16 298.391C408.14 320.231 408.58 341.851 409.66 363.551C410.26 375.731 411 387.921 412.15 400.061C412.15 400.161 412.32 400.161 412.31 400.061C411.82 389.101 411.2 378.151 410.73 367.191Z" fill="#37474F"/>
<path d="M400.82 378.53C400.82 378.53 400.51 414.97 400.51 415C400.51 422 400.35 428.08 399.98 431.23C399.985 431.25 399.985 431.271 399.98 431.29C399.972 432.037 399.794 432.772 399.46 433.44C397.38 434.84 341.67 436.29 339.71 435.68C337.75 435.07 339.32 429.45 341.43 427.68C343.54 425.91 364.64 415.81 364.64 415.81L365.29 379.38L400.82 378.53Z" fill="#AD6359"/>
<path d="M400.58 407.521C400.58 407.521 400.51 414.971 400.51 415.001C400.51 422.001 400.35 428.081 399.98 431.231C399.985 431.25 399.985 431.271 399.98 431.291C399.889 432.025 399.715 432.746 399.46 433.441C397.38 434.841 341.67 436.291 339.71 435.681C337.75 435.071 339.32 429.451 341.43 427.681C343.54 425.911 364.64 415.811 364.64 415.811V408.211L400.58 407.521Z" fill="white"/>
<path d="M361.18 415.85C364.89 415.24 369.4 415.85 372.18 418.6C372.29 418.7 372.18 418.85 372.02 418.81C368.514 417.591 364.886 416.756 361.2 416.32C361.146 416.311 361.096 416.284 361.059 416.243C361.022 416.201 361.001 416.148 360.998 416.093C360.996 416.038 361.013 415.983 361.046 415.939C361.079 415.895 361.127 415.863 361.18 415.85Z" fill="#263238"/>
<path d="M358.48 417.401C362.19 416.791 366.69 417.451 369.48 420.151C369.59 420.251 369.48 420.401 369.32 420.361C365.814 419.142 362.186 418.307 358.5 417.871C358.446 417.862 358.396 417.835 358.359 417.793C358.322 417.752 358.3 417.699 358.298 417.644C358.296 417.588 358.313 417.534 358.346 417.49C358.379 417.445 358.426 417.414 358.48 417.401Z" fill="#263238"/>
<path d="M355.77 419C359.48 418.39 363.99 419.05 366.77 421.75C366.88 421.85 366.77 422 366.61 421.96C363.101 420.751 359.475 419.916 355.79 419.47C355.736 419.461 355.686 419.434 355.649 419.393C355.612 419.351 355.59 419.299 355.588 419.243C355.586 419.188 355.603 419.134 355.636 419.089C355.669 419.045 355.716 419.013 355.77 419Z" fill="#263238"/>
<path d="M339.66 435.72C341.66 436.33 397.33 434.88 399.41 433.48C400.21 432.96 400.47 424.83 400.51 415V414.69L364.56 415.22V415.83C364.56 415.83 343.48 425.92 341.35 427.71C339.22 429.5 337.7 435.13 339.66 435.72Z" fill="#FBCF49"/>
<path d="M340.23 433.55C349.62 433.07 387.51 432.05 396.82 432.29C396.9 432.29 396.9 432.29 396.82 432.35C387.52 433.02 349.62 433.74 340.23 433.7C340 433.7 340 433.56 340.23 433.55Z" fill="#263238"/>
<path d="M419.24 261.921C419.24 261.921 402.7 314.051 402.4 323.631C402.15 331.791 403.19 415.631 403.19 415.631L361.33 415.881C361.33 415.881 364.86 330.411 365.52 321.881C366.74 305.971 380.68 262.271 390.65 223.351H435.79C435.79 223.351 435.39 243.731 426.12 258.481C426.12 258.471 421.93 260.411 419.24 261.921Z" fill="#263238"/>
<path d="M401 407.88C396.16 407.74 391.15 407.6 386.31 407.72C381.47 407.84 376.7 407.91 371.91 408.2C369.19 408.36 366.48 408.45 363.77 408.72C363.755 408.726 363.742 408.736 363.733 408.75C363.723 408.763 363.718 408.779 363.718 408.795C363.718 408.812 363.723 408.828 363.733 408.841C363.742 408.854 363.755 408.865 363.77 408.87C368.61 409.15 373.46 409.09 378.3 409.05C383.14 409.01 387.9 408.95 392.7 408.73C395.42 408.61 398.13 408.47 400.84 408.28C401.1 408.26 401.26 407.89 401 407.88Z" fill="#37474F"/>
<path d="M391.81 247.9C390.32 252.9 389.06 257.9 387.73 262.96C386.4 268.02 385.04 273.09 383.73 278.16C381.15 287.96 378.6 297.78 376.67 307.74C374.69 317.733 373.57 327.877 373.32 338.06C373.1 348.44 373.32 358.83 373.39 369.21C373.46 379.59 373.54 390.08 373.72 400.51C373.72 401.81 373.78 403.11 373.82 404.4C373.82 404.427 373.831 404.452 373.849 404.471C373.868 404.49 373.893 404.5 373.92 404.5C373.947 404.5 373.972 404.49 373.991 404.471C374.009 404.452 374.02 404.427 374.02 404.4C374.29 394.02 374.15 383.62 374.11 373.24C374.07 362.86 373.94 352.47 374.03 342.09C374.07 331.785 374.96 321.5 376.69 311.34C378.44 301.34 380.9 291.5 383.46 281.69C384.91 276.1 386.38 270.5 387.83 264.91C389.28 259.32 390.83 253.65 392.14 247.97C392.16 247.78 391.87 247.71 391.81 247.9Z" fill="#37474F"/>
<path d="M408.88 262.93C410.966 262.916 413.047 262.725 415.1 262.36C417.129 261.913 419.132 261.355 421.1 260.69C423.047 260.232 425.021 259.898 427.01 259.69C429.015 259.401 430.966 258.818 432.8 257.96C432.88 257.96 432.96 258.05 432.87 258.09C431.093 259.052 429.236 259.858 427.32 260.5C425.32 261.13 423.26 261.21 421.25 261.7C419.216 262.306 417.145 262.784 415.05 263.13C412.985 263.382 410.896 263.348 408.84 263.03C408.78 263.05 408.81 262.93 408.88 262.93Z" fill="#37474F"/>
<path d="M406.24 304.391C406.64 302.851 407.01 301.301 407.43 299.761C408.28 296.651 409.14 293.541 410.08 290.451C411.95 284.321 413.71 278.151 415.69 272.051C416.81 268.601 417.82 265.051 419.13 261.701C419.13 261.621 419.28 261.701 419.27 261.701C418.6 264.861 417.67 267.961 416.83 271.081C415.99 274.201 415.1 277.291 414.2 280.391C412.41 286.551 410.66 292.721 408.71 298.831C408.17 300.541 407.61 302.251 407.01 303.941C406.41 305.631 405.94 307.471 405.21 309.161C405.21 309.251 405.05 309.211 405.06 309.111C405.34 307.541 405.84 306.001 406.24 304.391Z" fill="#37474F"/>
<path d="M388.19 207.84L384.12 229.64C384.12 229.64 432.38 230.31 443.72 229.51C443.72 229.51 431.87 183.35 419.72 170.12C413.62 163.5 406.47 164 401.9 168.63C400.71 169.8 386.94 188 385.49 195C384.22 201.09 388.19 207.84 388.19 207.84Z" fill="#FBCF49"/>
<path d="M428.65 184.82C429.81 187.36 430.91 189.93 431.98 192.51C431.81 191.73 431.62 190.95 431.41 190.19C431.41 190.07 431.54 190.04 431.58 190.14C431.999 191.275 432.291 192.452 432.45 193.65C435.869 202.038 438.791 210.619 441.2 219.35C441.65 221 442.11 222.65 442.49 224.35C442.87 226.05 443.4 227.8 443.63 229.56C443.625 229.576 443.614 229.589 443.601 229.598C443.588 229.607 443.572 229.612 443.555 229.612C443.539 229.612 443.523 229.607 443.51 229.598C443.496 229.589 443.486 229.576 443.48 229.56C442.92 228.1 442.54 226.56 442.11 225.04C441.68 223.52 441.26 222.15 440.83 220.71C439.95 217.71 439.06 214.82 438.14 211.88C436.31 206.08 434.3 200.34 432.26 194.62C431.09 191.34 429.8 188.11 428.53 184.87C428.51 184.8 428.62 184.76 428.65 184.82Z" fill="#263238"/>
<path d="M420.3 215.16C419.812 215.625 419.421 216.183 419.15 216.8C419.765 216.524 420.321 216.134 420.79 215.65C421.267 215.176 421.657 214.621 421.94 214.01C421.323 214.281 420.765 214.672 420.3 215.16ZM405.5 168.85C405.012 169.315 404.621 169.873 404.35 170.49C405.578 169.916 406.565 168.928 407.14 167.7C406.523 167.971 405.965 168.362 405.5 168.85ZM391.5 209.76C391.012 210.225 390.621 210.783 390.35 211.4C390.967 211.129 391.525 210.738 391.99 210.25C392.474 209.781 392.864 209.225 393.14 208.61C392.516 208.879 391.951 209.27 391.48 209.76H391.5ZM394.77 222C394.296 221.517 393.737 221.127 393.12 220.85C393.398 221.463 393.788 222.02 394.27 222.49C394.741 222.976 395.301 223.367 395.92 223.64C395.637 223.03 395.247 222.475 394.77 222ZM410.56 191.87C410.092 191.385 409.535 190.995 408.92 190.72C409.195 191.335 409.585 191.892 410.07 192.36C410.539 192.844 411.096 193.234 411.71 193.51C411.431 192.906 411.041 192.36 410.56 191.9V191.87ZM434.38 221.87C433.697 221.856 433.018 221.975 432.38 222.22C433.658 222.673 435.052 222.673 436.33 222.22C435.704 222.003 435.042 221.904 434.38 221.93V221.87ZM422.52 198.43C421.838 198.422 421.159 198.541 420.52 198.78C421.159 199.02 421.838 199.138 422.52 199.13C423.203 199.144 423.882 199.025 424.52 198.78C423.877 198.561 423.199 198.463 422.52 198.49V198.43ZM396.78 195.59C396.097 195.582 395.419 195.7 394.78 195.94C396.055 196.407 397.455 196.407 398.73 195.94C398.104 195.723 397.442 195.624 396.78 195.65V195.59ZM408.92 221.52C408.237 221.511 407.559 221.63 406.92 221.87C407.559 222.111 408.237 222.229 408.92 222.22C409.603 222.233 410.282 222.114 410.92 221.87C410.277 221.651 409.599 221.553 408.92 221.58V221.52ZM410.92 177.52C410.238 177.512 409.559 177.631 408.92 177.87C410.195 178.337 411.595 178.337 412.87 177.87C412.235 177.665 411.567 177.577 410.9 177.61L410.92 177.52ZM397.82 179.28C397.354 180.556 397.354 181.955 397.82 183.23C398.059 182.591 398.178 181.913 398.17 181.23C398.16 180.593 398.034 179.963 397.8 179.37L397.82 179.28ZM420.91 228.82C420.782 229.142 420.692 229.478 420.64 229.82H421.18C421.116 229.508 421.018 229.203 420.89 228.91L420.91 228.82ZM407.64 205.28C407.187 206.558 407.187 207.952 407.64 209.23C407.886 208.593 408.004 207.913 407.99 207.23C407.984 206.593 407.858 205.962 407.62 205.37L407.64 205.28ZM433.47 205.28C433.221 205.917 433.102 206.597 433.12 207.28C433.106 207.963 433.225 208.643 433.47 209.28C433.923 208.002 433.923 206.608 433.47 205.33V205.28ZM423.24 182.69C422.774 183.966 422.774 185.365 423.24 186.64C423.479 186.001 423.598 185.323 423.59 184.64C423.58 184.003 423.455 183.373 423.22 182.78L423.24 182.69Z" fill="white"/>
<path d="M396.5 176.39C389.34 186.9 382.74 200.18 374.07 215.04C364.4 231.62 356.16 248.79 354.15 252.4C351.56 257.03 380.32 259.69 381.6 256.28C382.43 254.1 389.14 237.58 395.23 222.49C401.32 207.4 404.64 190.49 407.05 179.65C409.84 167.15 401.77 168.65 396.5 176.39Z" fill="#AD6359"/>
<path d="M358 244.84C358 244.84 357 246.43 352.7 254.56C349.75 260.18 346.14 275.77 357.83 289.26C362.31 294.43 367.89 293.55 364.19 287.35C361.59 282.99 359.41 280.19 358.96 278.52C358.96 278.52 366.24 281.27 369.96 278.75C373.227 276.544 376.335 274.112 379.26 271.47C378.901 270.824 378.501 270.203 378.06 269.61C378.06 269.61 382.9 262.52 381.54 256.28L358 244.84Z" fill="#AD6359"/>
<path d="M350.78 260.38C351.55 263.61 353.3 270.45 356.68 275.55C360.43 281.21 369.18 291.1 373.32 288.29C376.37 286.23 373.32 282.16 373.32 282.16C373.32 282.16 377.8 285.48 380.14 283.02C382.27 280.78 379.76 277.77 379.76 277.77C379.76 277.77 382.82 279.32 384.46 276.77C386.46 273.69 379.69 270.95 378.99 266.11C378.87 265 350.78 260.38 350.78 260.38Z" fill="#AD6359"/>
<path d="M362 270.59C364.473 275.503 368.388 279.543 373.22 282.17C373.34 282.23 373.46 282.17 373.35 282.09C369.128 278.717 365.333 274.842 362.05 270.55C362.05 270.55 362 270.56 362 270.59Z" fill="#263238"/>
<path d="M367.82 267C369.13 269.42 374.03 275.33 379.71 277.89C379.84 277.95 379.95 277.89 379.84 277.8C375.443 274.652 371.417 271.016 367.84 266.96C367.84 266.96 367.8 266.94 367.82 267Z" fill="#263238"/>
<path d="M356.18 243.92L384.86 255.49C384.86 255.49 395.78 228.17 399.23 218.72C402.68 209.27 406.93 185.58 408.01 176.92C409.09 168.26 403 167.65 397 175C391 182.35 376.46 210 375.81 210.71C375.16 211.42 356.18 243.92 356.18 243.92Z" fill="#FBCF49"/>
<path d="M397.8 179.371C397.334 180.646 397.334 182.045 397.8 183.321C398.04 182.681 398.158 182.003 398.15 181.321C398.157 180.654 398.039 179.993 397.8 179.371ZM381.58 215.801C381.331 216.437 381.212 217.117 381.23 217.801C381.217 218.484 381.336 219.163 381.58 219.801C382.033 218.523 382.033 217.128 381.58 215.851V215.801ZM396.78 195.651C396.098 195.642 395.419 195.761 394.78 196.001C396.056 196.467 397.455 196.467 398.73 196.001C398.108 195.763 397.447 195.644 396.78 195.651ZM381.58 230.191C380.898 230.174 380.219 230.29 379.58 230.531C380.218 230.775 380.897 230.894 381.58 230.881C382.264 230.899 382.944 230.78 383.58 230.531C382.942 230.289 382.263 230.174 381.58 230.191ZM385.34 251.361C385.678 251.496 386.03 251.59 386.39 251.641C386.47 251.451 386.55 251.261 386.62 251.061C386.18 251.092 385.748 251.194 385.34 251.361ZM366.83 247.151C366.193 247.141 365.56 247.246 364.96 247.461H364.85C365.085 247.558 365.33 247.629 365.58 247.671C365.982 247.75 366.391 247.79 366.8 247.791C367.483 247.808 368.162 247.693 368.8 247.451C368.17 247.221 367.5 247.119 366.83 247.151ZM381.83 203.321C381.442 202.928 381.001 202.591 380.52 202.321L380.38 202.561C380.653 203.019 380.99 203.437 381.38 203.801C381.842 204.297 382.391 204.703 383 205.001C382.721 204.369 382.32 203.798 381.82 203.321H381.83ZM394.77 222.001C394.297 221.518 393.737 221.128 393.12 220.851C393.399 221.464 393.789 222.02 394.27 222.491C394.741 222.977 395.301 223.367 395.92 223.641C395.637 223.03 395.248 222.475 394.77 222.001ZM370 235.521C369.535 235.033 368.978 234.642 368.36 234.371C368.631 234.988 369.022 235.545 369.51 236.011C369.979 236.494 370.536 236.884 371.15 237.161C370.874 236.546 370.484 235.99 370 235.521ZM391.45 209.761C390.962 210.226 390.571 210.783 390.3 211.401C390.918 211.129 391.475 210.739 391.94 210.251C392.424 209.782 392.814 209.225 393.09 208.611C392.484 208.885 391.937 209.276 391.48 209.761H391.45ZM380.53 242.231C380.042 242.696 379.651 243.253 379.38 243.871C380.608 243.296 381.596 242.309 382.17 241.081C381.564 241.355 381.017 241.746 380.56 242.231H380.53ZM358.7 240.291C358.219 240.761 357.829 241.317 357.55 241.931C358.168 241.659 358.725 241.269 359.19 240.781C359.674 240.309 360.067 239.754 360.35 239.141C359.742 239.418 359.192 239.808 358.73 240.291H358.7ZM370 222.001C369.523 222.475 369.134 223.03 368.85 223.641C369.468 223.369 370.025 222.979 370.49 222.491C370.978 222.023 371.372 221.466 371.65 220.851C371.036 221.131 370.477 221.521 370 222.001ZM404.69 169.891C404.578 170.072 404.481 170.263 404.4 170.461C404.713 170.327 405.009 170.155 405.28 169.951C405.069 169.917 404.854 169.907 404.64 169.921L404.69 169.891Z" fill="white"/>
<path d="M373 244.35C371.11 243.57 369.23 242.75 367.35 241.92C366.45 241.53 365.55 241.14 364.66 240.72C363.77 240.3 362.66 239.87 361.77 239.35C361.71 239.35 361.77 239.22 361.77 239.24C362.77 239.52 363.77 239.96 364.77 240.31C365.77 240.66 366.61 241 367.52 241.36C369.43 242.1 371.34 242.84 373.23 243.63C377.02 245.21 380.74 246.88 384.46 248.63C384.55 248.63 384.46 248.81 384.41 248.77C380.66 247.35 376.83 245.91 373 244.35Z" fill="#263238"/>
<path d="M392.67 235.761C393.96 231.761 395.34 227.871 396.75 223.951C397.43 221.951 398.18 220.041 398.9 218.091C399.652 216.166 400.267 214.191 400.74 212.181C401.83 208.181 402.68 204.101 403.59 200.051L406.31 187.851C405.78 191.991 405.1 196.101 404.31 200.201C403.52 204.301 402.69 208.381 401.67 212.431C401.142 214.474 400.474 216.479 399.67 218.431C398.91 220.371 398.18 222.321 397.38 224.241C395.91 228.091 394.34 232.001 392.67 235.761Z" fill="#263238"/>
<path d="M404.62 197.83C405.076 195.821 405.864 193.901 406.95 192.15C406.725 193.153 406.41 194.134 406.01 195.08C405.636 196.039 405.17 196.96 404.62 197.83Z" fill="#263238"/>
<path d="M412.83 133.67C413.83 133.77 417.94 133.2 420.83 136.92C423.53 140.45 424.68 151.31 425.29 153.66C425.9 156.01 429.02 156.31 429.81 159.05C430.49 161.4 428.81 162.31 428.64 164.05C428.53 165.4 429.93 167.39 428.74 169.41C427.67 171.25 425.69 170.9 424.52 171.5C423.35 172.1 422.66 174.85 420.52 175.64C418.38 176.43 416.35 174.46 415.18 174.5C414.01 174.54 412.71 178.14 408.9 177.91C405.09 177.68 403.9 174.48 402.34 173.91C400.78 173.34 396.83 174.48 394.99 172.56C393.15 170.64 392.78 168.02 391.99 167.07C391.2 166.12 389.47 166.32 388.41 164.07C387.35 161.82 389.41 160.4 389.66 158.46C389.83 157.1 388.61 155.89 389.41 153.81C390.51 150.95 393.99 151.49 395.25 148.55C396.25 146.25 398.17 136.28 404.12 133.71C408.11 131.93 412.83 133.67 412.83 133.67Z" fill="#263238"/>
<path d="M425.12 153.101C425.364 153.596 425.725 154.025 426.17 154.351L427.43 155.351C428.289 155.988 429.044 156.754 429.67 157.621C429.957 158.036 430.143 158.512 430.216 159.012C430.289 159.511 430.246 160.02 430.09 160.501C429.91 160.985 429.653 161.437 429.33 161.841C428.955 162.278 428.648 162.77 428.42 163.301C428.285 163.902 428.352 164.531 428.61 165.091C428.8 165.621 429 166.091 429.16 166.621C429.359 167.096 429.461 167.606 429.461 168.121C429.461 168.636 429.359 169.145 429.16 169.621C428.949 170.069 428.598 170.438 428.16 170.671C427.682 170.878 427.171 171 426.65 171.031C426.11 171.031 425.57 171.031 425.02 171.091C424.466 171.056 423.915 171.192 423.44 171.481C423.937 171.263 424.484 171.186 425.02 171.261C425.56 171.261 426.1 171.341 426.66 171.331C427.229 171.341 427.794 171.236 428.32 171.021C428.869 170.785 429.321 170.368 429.6 169.841C429.859 169.32 430.006 168.752 430.031 168.171C430.057 167.591 429.962 167.012 429.75 166.471C429.6 165.931 429.39 165.421 429.22 164.921C429.021 164.483 428.965 163.992 429.06 163.521C429.37 162.641 430.33 161.841 430.68 160.711C430.86 160.149 430.902 159.552 430.803 158.971C430.704 158.39 430.466 157.841 430.11 157.371C429.416 156.5 428.59 155.744 427.66 155.131L426.32 154.201C425.846 153.924 425.437 153.549 425.12 153.101Z" fill="#263238"/>
<path d="M398.57 139.42C397.666 141.153 396.868 142.94 396.18 144.77C395.79 145.66 395.43 146.56 394.98 147.4C394.775 147.817 394.523 148.209 394.23 148.57C394.17 148.655 394.095 148.73 394.01 148.79C393.931 148.86 393.844 148.921 393.75 148.97C393.55 149.08 393.33 149.18 393.11 149.28C392.205 149.669 391.321 150.103 390.46 150.58C389.552 151.077 388.819 151.842 388.36 152.77C388.147 153.25 388.054 153.776 388.09 154.3C388.158 154.809 388.321 155.301 388.57 155.75C389.108 156.564 389.45 157.492 389.57 158.46C389.578 157.471 389.341 156.495 388.88 155.62C388.676 155.2 388.554 154.745 388.52 154.28C388.508 153.827 388.615 153.379 388.83 152.98C389.284 152.17 389.961 151.507 390.78 151.07C391.633 150.613 392.511 150.206 393.41 149.85C393.63 149.74 393.86 149.63 394.08 149.5C394.321 149.359 394.534 149.176 394.71 148.96C395.028 148.558 395.299 148.122 395.52 147.66C395.958 146.779 396.339 145.87 396.66 144.94L397.61 142.17C397.879 141.236 398.2 140.318 398.57 139.42Z" fill="#263238"/>
<path d="M390.93 166.4C391.287 166.997 391.515 167.661 391.6 168.35C391.76 169.03 391.92 169.71 392.12 170.35C392.306 171.042 392.564 171.713 392.89 172.35C393.22 173.023 393.711 173.604 394.32 174.04C395.641 174.721 397.172 174.871 398.6 174.46C399.3 174.31 399.97 174.13 400.6 174.01C401.274 173.85 401.976 173.85 402.65 174.01C401.989 173.739 401.268 173.649 400.56 173.75C399.85 173.81 399.16 173.94 398.48 174.02C397.175 174.311 395.81 174.149 394.61 173.56C394.085 173.178 393.657 172.678 393.36 172.1C393.032 171.503 392.751 170.881 392.52 170.24C392.27 169.59 392.06 168.93 391.84 168.24C391.72 167.91 391.6 167.58 391.46 167.24C391.357 166.92 391.175 166.631 390.93 166.4Z" fill="#263238"/>
<path d="M424.69 175.571C425.12 175.211 423.37 169.321 421.83 168.261C420.29 167.201 410.56 167.101 409.42 168.961C408.28 170.821 409.8 176.771 410.5 176.881C411.2 176.991 413.06 176.881 413.42 176.421C413.78 175.961 412.72 172.281 413.27 171.611C413.98 170.731 419.49 170.831 420.01 171.401C420.53 171.971 421.12 175.291 421.22 175.501C421.32 175.711 424 176.151 424.69 175.571Z" fill="#FBCF49"/>
<path d="M396.19 228.321C398.19 232.411 405.4 237.791 409.68 238.591C413.96 239.391 442.33 243.501 446.96 237.591C451.18 232.211 443.55 193.211 435.59 180.771C434.987 179.786 434.258 178.885 433.42 178.091L433.25 177.941C425.63 171.541 410.25 174.741 408.35 175.261C406.18 175.915 404.194 177.07 402.552 178.634C400.91 180.197 399.659 182.125 398.9 184.261C396.68 190.001 394.14 224.241 396.19 228.321Z" fill="#455A64"/>
<path d="M412.37 226C412.78 228.86 417.22 235.65 422.51 237.4C427.8 239.15 446.96 237.6 451.29 233.89C451.877 233.194 452.227 232.329 452.29 231.42C453.8 222.83 448.72 196.72 442.72 188.75C442.186 187.985 441.507 187.332 440.72 186.83C439.831 186.322 438.897 185.897 437.93 185.56C432.551 183.796 426.802 183.475 421.26 184.63C417.91 185.39 415.17 186.78 413.9 188.83C410.73 194 412 223.12 412.37 226Z" fill="#FBCF49"/>
<path opacity="0.1" d="M412.37 226C412.78 228.86 417.22 235.65 422.51 237.4C427.8 239.15 446.96 237.6 451.29 233.89C451.877 233.194 452.228 232.328 452.29 231.42C448.852 233.371 445.016 234.516 441.07 234.77C438.212 234.985 435.341 234.945 432.49 234.65C429.621 234.512 426.849 233.57 424.49 231.93C420.14 228.53 418.68 222.12 418.14 216.77C417.71 210.887 417.851 204.976 418.56 199.12C418.962 194.206 419.884 189.349 421.31 184.63C417.96 185.39 415.22 186.78 413.95 188.83C410.73 194 412 223.12 412.37 226Z" fill="black"/>
<path d="M416.08 214.541H417.38C417.11 208.541 417.09 192.211 420.11 189.081C423.13 185.951 434.41 185.691 439.11 187.221C440.378 187.628 441.607 188.151 442.78 188.781C442.248 188.014 441.568 187.361 440.78 186.861C439.896 186.35 438.965 185.925 438 185.591C432.3 184.381 422.23 185.011 419.17 188.181C415.15 192.291 416 213.641 416.08 214.541Z" fill="#263238"/>
<path d="M400.78 209.21L402.08 209.27C403.23 185.06 404.39 184.19 409.25 180.51L409.42 180.38C414.16 176.79 425.24 177.38 429.56 178.23C431.711 178.653 433.753 179.511 435.56 180.75C434.958 179.765 434.228 178.864 433.39 178.07C432.234 177.569 431.027 177.197 429.79 176.96C426.79 176.37 414.24 175.07 408.61 179.34L408.44 179.47C403.34 183.35 402 184.4 400.78 209.21Z" fill="#263238"/>
<path d="M392.72 227.55C393.39 230.72 400.72 237.12 404.3 238.55C405.03 238.84 411.16 240.17 411.48 237.7C411.48 237.54 411.48 237.37 411.48 237.2C412.1 230.72 409.61 216.62 408.98 214.72C408.24 212.48 401.35 208.16 397.22 207.23C396.492 207.015 395.72 206.991 394.98 207.16C392 208.13 392.3 225.55 392.72 227.55Z" fill="#37474F"/>
</g>
<defs>
<clipPath id="clip0_127_3254">
<rect width="500" height="500" fill="white"/>
</clipPath>
</defs>
</svg>
