<svg width="500" height="500" viewBox="0 0 500 500" fill="none" xmlns="http://www.w3.org/2000/svg">
<path d="M129 192.49C130.435 191.624 131.979 190.952 133.59 190.49L134.53 185.95L142.2 185.82L143.3 190.32C144.927 190.724 146.494 191.339 147.96 192.15L151.83 189.61L157.35 194.94L154.95 198.94C155.816 200.375 156.489 201.919 156.95 203.53L161.49 204.47L161.62 212.14L157.12 213.24C156.726 214.87 156.11 216.438 155.29 217.9L157.83 221.77L152.5 227.29L148.5 224.89C147.069 225.756 145.528 226.429 143.92 226.89L142.97 231.43L135.3 231.56L134.2 227.06C132.574 226.666 131.009 226.05 129.55 225.23L125.67 227.77L120.15 222.44L122.56 218.44C121.69 217.011 121.017 215.47 120.56 213.86L116 212.9L115.87 205.23L120.37 204.13C120.774 202.507 121.389 200.943 122.2 199.48L119.66 195.6L124.99 190.08L128.99 192.49H129ZM133.09 202.7C131.958 203.871 131.199 205.35 130.908 206.952C130.617 208.554 130.808 210.206 131.456 211.7C132.104 213.193 133.181 214.461 134.55 215.342C135.919 216.224 137.519 216.679 139.147 216.651C140.775 216.623 142.358 216.113 143.696 215.185C145.034 214.257 146.066 212.953 146.663 211.438C147.259 209.924 147.393 208.266 147.047 206.675C146.702 205.084 145.892 203.631 144.72 202.5C143.149 200.985 141.041 200.155 138.859 200.193C136.676 200.23 134.598 201.132 133.08 202.7H133.09Z" fill="#E0E0E0"/>
<path d="M61.6401 267.05H46.3201V314.91H61.6401V267.05Z" fill="#F5F5F5"/>
<path d="M84.52 277.979H69.2V314.909H84.52V277.979Z" fill="#F5F5F5"/>
<path d="M105.7 292.979H90.3801V314.909H105.7V292.979Z" fill="#F5F5F5"/>
<path d="M437.28 402.17C437.279 397.445 436.008 392.807 433.602 388.74C431.196 384.673 427.742 381.327 423.602 379.051C419.461 376.775 414.785 375.653 410.062 375.801C405.339 375.949 400.742 377.363 396.753 379.894C392.763 382.426 389.525 385.982 387.379 390.192C385.233 394.401 384.256 399.11 384.551 403.826C384.847 408.542 386.402 413.092 389.057 417.001C391.711 420.911 395.366 424.036 399.64 426.05V432.71H422.77C422.77 432.71 422.91 428.97 422.97 425.63C427.28 423.411 430.895 420.048 433.42 415.91C435.944 411.771 437.279 407.018 437.28 402.17Z" fill="#F5F5F5"/>
<path d="M421 437H401.13C400.934 437 400.741 436.961 400.56 436.886C400.379 436.811 400.215 436.702 400.077 436.563C399.938 436.425 399.828 436.261 399.754 436.08C399.679 435.899 399.64 435.705 399.64 435.51C399.64 435.314 399.679 435.12 399.754 434.939C399.828 434.759 399.938 434.594 400.077 434.456C400.215 434.318 400.379 434.208 400.56 434.133C400.741 434.058 400.934 434.02 401.13 434.02H421C421.395 434.02 421.774 434.177 422.054 434.456C422.333 434.735 422.49 435.114 422.49 435.51C422.49 435.905 422.333 436.284 422.054 436.563C421.774 436.843 421.395 437 421 437Z" fill="#E0E0E0"/>
<path d="M421 438.29H401.13C400.732 438.29 400.351 438.448 400.069 438.729C399.788 439.011 399.63 439.392 399.63 439.79C399.63 440.188 399.788 440.569 400.069 440.851C400.351 441.132 400.732 441.29 401.13 441.29H403.31L406.21 446.8C406.374 447.105 406.618 447.359 406.916 447.535C407.214 447.712 407.554 447.803 407.9 447.8H415C415.348 447.804 415.69 447.713 415.989 447.536C416.289 447.36 416.535 447.106 416.7 446.8L419.51 441.31H421C421.398 441.31 421.779 441.152 422.061 440.871C422.342 440.589 422.5 440.208 422.5 439.81C422.5 439.412 422.342 439.031 422.061 438.749C421.779 438.468 421.398 438.31 421 438.31V438.29Z" fill="#E0E0E0"/>
<path d="M416.33 447.23C416.33 447.23 415.81 447.05 414.97 446.81C412.768 446.172 410.422 446.239 408.26 447C407.822 447.189 407.375 447.356 406.92 447.5C407.294 447.188 407.72 446.948 408.18 446.79C409.263 446.341 410.419 446.093 411.59 446.06C412.763 446.022 413.933 446.202 415.04 446.59C415.506 446.721 415.943 446.938 416.33 447.23Z" fill="#FAFAFA"/>
<path d="M419.55 441.34C419.55 441.43 415.96 441.5 411.55 441.5C407.14 441.5 403.55 441.43 403.55 441.34C403.55 441.25 407.14 441.18 411.55 441.18C415.96 441.18 419.55 441.25 419.55 441.34Z" fill="#FAFAFA"/>
<path d="M418.31 443.69C417.668 443.822 417.015 443.889 416.36 443.89C415.15 443.97 413.47 444.04 411.62 444.07C409.77 444.1 408.09 444.07 406.88 444.07C406.21 444.087 405.54 444.037 404.88 443.92C405.544 443.841 406.212 443.814 406.88 443.84L411.62 443.78L416.35 443.7C417.003 443.653 417.657 443.65 418.31 443.69Z" fill="#FAFAFA"/>
<path d="M433.23 394.229C433.47 394.648 433.649 395.1 433.76 395.569C434.144 396.819 434.412 398.101 434.56 399.399C435.078 403.731 434.396 408.121 432.589 412.091C430.781 416.06 427.917 419.457 424.31 421.909C423.232 422.651 422.087 423.291 420.89 423.819C420.459 424.04 420.002 424.205 419.53 424.309C419.53 424.189 421.41 423.469 424.05 421.549C427.506 419.061 430.253 415.713 432.017 411.837C433.782 407.96 434.503 403.69 434.11 399.449C433.906 397.696 433.612 395.953 433.23 394.229Z" fill="white"/>
<path d="M416.07 381.39C415.54 379.58 413.45 378.39 410.9 378.34C406.675 378.694 402.578 379.971 398.9 382.08C396.41 383.545 394.247 385.505 392.544 387.839C390.842 390.173 389.635 392.832 389 395.65C388.718 396.691 388.681 397.782 388.89 398.84C389.005 399.39 389.258 399.901 389.626 400.327C389.993 400.752 390.462 401.076 390.99 401.27C391.514 401.393 392.059 401.39 392.581 401.259C393.103 401.129 393.586 400.875 393.99 400.52C394.791 399.799 395.449 398.934 395.93 397.97C397.006 395.761 398.205 393.615 399.52 391.54C400.836 389.423 402.911 387.888 405.32 387.25C406.9 386.9 408.32 386.87 409.92 386.53C411.92 386.1 413.16 386.14 414.54 385.28C415.106 384.816 415.544 384.215 415.812 383.534C416.08 382.853 416.169 382.115 416.07 381.39Z" fill="white"/>
<path d="M394.27 407.16C394.27 407.754 394.094 408.334 393.764 408.827C393.435 409.32 392.966 409.705 392.418 409.932C391.87 410.159 391.267 410.218 390.685 410.103C390.103 409.987 389.568 409.701 389.149 409.281C388.729 408.862 388.443 408.327 388.328 407.745C388.212 407.163 388.271 406.56 388.498 406.012C388.725 405.464 389.11 404.995 389.603 404.666C390.097 404.336 390.677 404.16 391.27 404.16C392.066 404.16 392.829 404.476 393.391 405.039C393.954 405.601 394.27 406.365 394.27 407.16Z" fill="white"/>
<path d="M419.07 432.79C419.07 432.79 419 432.44 418.91 431.79C418.82 431.14 418.68 430.04 418.53 428.79C418.2 426.11 417.75 422.37 417.2 417.79C416.96 415.45 416.57 412.95 416.37 410.16C416.34 409.405 416.61 408.668 417.12 408.11C417.396 407.806 417.774 407.612 418.183 407.566C418.591 407.52 419.003 407.625 419.34 407.86C419.958 408.358 420.362 409.074 420.47 409.86C420.556 410.653 420.453 411.455 420.17 412.2C419.562 413.743 418.374 414.985 416.86 415.66C416.07 416.02 415.208 416.193 414.341 416.165C413.474 416.137 412.625 415.91 411.86 415.5C410.281 414.663 409.083 413.253 408.51 411.56C408.203 410.699 408.093 409.78 408.19 408.87C408.251 408.394 408.423 407.939 408.69 407.54C408.837 407.331 409.029 407.158 409.253 407.033C409.476 406.908 409.725 406.836 409.98 406.82C410.234 406.82 410.484 406.873 410.717 406.974C410.949 407.076 411.158 407.224 411.33 407.41C411.666 407.742 411.935 408.136 412.12 408.57C412.457 409.412 412.624 410.313 412.61 411.22C412.654 412.108 412.515 412.995 412.2 413.826C411.885 414.658 411.401 415.415 410.78 416.05C410.169 416.671 409.397 417.109 408.55 417.314C407.704 417.519 406.817 417.483 405.99 417.21C404.498 416.565 403.268 415.434 402.5 414C402.112 413.325 401.803 412.607 401.58 411.86C401.32 411.127 401.237 410.342 401.34 409.57C401.406 409.167 401.595 408.793 401.88 408.5C402.045 408.355 402.251 408.264 402.469 408.241C402.688 408.218 402.908 408.263 403.1 408.37C403.661 408.864 404.017 409.548 404.1 410.29C404.816 412.755 405.288 415.284 405.51 417.84C405.834 421.536 405.642 425.258 404.94 428.9C404.697 430.232 404.363 431.545 403.94 432.83C403.94 432.83 404 432.47 404.17 431.83C404.34 431.19 404.56 430.17 404.79 428.88C405.428 425.25 405.57 421.549 405.21 417.88C404.973 415.353 404.49 412.855 403.77 410.42C403.58 409.77 403.4 409.04 402.89 408.73C402.768 408.662 402.627 408.632 402.487 408.647C402.348 408.661 402.216 408.718 402.11 408.81C401.886 409.047 401.743 409.348 401.7 409.67C401.609 410.376 401.691 411.094 401.94 411.76C402.155 412.479 402.454 413.171 402.83 413.82C403.548 415.19 404.713 416.273 406.13 416.89C406.884 417.133 407.69 417.161 408.459 416.97C409.228 416.78 409.928 416.378 410.48 415.81C411.057 415.217 411.505 414.511 411.795 413.737C412.086 412.963 412.214 412.136 412.17 411.31C412.18 410.462 412.024 409.619 411.71 408.83C411.39 408.09 410.76 407.33 410 407.35C409.24 407.37 408.73 408.21 408.63 409.02C408.55 409.859 408.652 410.705 408.93 411.5C409.47 413.084 410.593 414.404 412.07 415.19C412.77 415.567 413.547 415.778 414.341 415.806C415.136 415.833 415.926 415.677 416.65 415.35C418.32 415.7 419.3 413.82 419.75 412.14C420.014 411.456 420.113 410.72 420.04 409.99C419.951 409.292 419.592 408.657 419.04 408.22C418.779 408.037 418.459 407.955 418.142 407.992C417.825 408.029 417.532 408.182 417.32 408.42C416.88 408.911 416.647 409.552 416.67 410.21C416.86 412.9 417.22 415.48 417.45 417.79C417.94 422.38 418.34 426.12 418.63 428.79C418.75 430.03 418.85 431.03 418.93 431.79C419.06 432.43 419.07 432.79 419.07 432.79Z" fill="#E0E0E0"/>
<path d="M423 66.9396L434.67 68.0796C434.67 68.0796 435.62 58.2796 445.82 59.0796C447.79 59.1987 449.673 59.9295 451.207 61.17C452.742 62.4104 453.851 64.0987 454.38 65.9996C454.847 67.5889 454.931 69.2659 454.627 70.8941C454.323 72.5224 453.639 74.0558 452.63 75.3696C450.33 78.4396 445.63 81.3096 437.94 79.1596L435.41 105.16L447 106.28L448.5 90.8696C448.5 90.8696 465 88.2596 466.78 70.4296C468.44 53.3596 452.92 47.8496 444.96 47.0796C440 46.5896 424.78 46.3396 423 66.9396Z" fill="#F5F5F5"/>
<path d="M434.859 110.565L433.794 121.503L445.499 122.642L446.564 111.704L434.859 110.565Z" fill="#F5F5F5"/>
<path d="M418.35 66.49L430 67.63C430 67.63 431 57.83 441.16 58.63C443.127 58.7527 445.008 59.4849 446.54 60.725C448.072 61.965 449.18 63.6515 449.71 65.55C450.186 67.1374 450.28 68.8151 449.982 70.4455C449.685 72.0759 449.006 73.6128 448 74.93C445.7 78 441.08 80.54 433.35 78.39L430.79 104.7L442.33 105.82L443.83 90.41C443.83 90.41 460.39 87.8 462.12 70C463.78 52.94 448.87 47.49 442.32 46.85C437.31 46.33 420.13 45.88 418.35 66.49Z" fill="#EBEBEB"/>
<path d="M430.191 110.109L429.126 121.047L440.831 122.186L441.895 111.248L430.191 110.109Z" fill="#EBEBEB"/>
<path d="M248.06 38.8503C249.53 38.0488 251.101 37.4468 252.73 37.0603L253.88 32.5703L261.55 32.7903L262.45 37.3303C264.051 37.7941 265.584 38.4665 267.01 39.3303L271 37.0003L276.27 42.5703L273.69 46.4203C274.488 47.8909 275.087 49.4614 275.47 51.0903L280 52.2503L279.79 59.9203L275.24 60.8203C274.779 62.4223 274.106 63.9558 273.24 65.3803L275.6 69.3803L270 74.6403L266.15 72.0603C264.68 72.8604 263.109 73.4591 261.48 73.8403L260.33 78.3403L252.67 78.1203L251.77 73.5703C250.162 73.1175 248.624 72.4445 247.2 71.5703L243.2 73.9403L237.93 68.3703L240.51 64.5203C239.707 63.0474 239.105 61.4733 238.72 59.8403L234.23 58.7003L234.44 51.0303L238.99 50.1303C239.451 48.5283 240.124 46.9949 240.99 45.5703L238.63 41.5703L244.2 36.3003L248.05 38.8803L248.06 38.8503ZM251.68 49.2403C250.497 50.3589 249.673 51.8032 249.311 53.3905C248.949 54.9778 249.066 56.6368 249.647 58.1575C250.228 59.6783 251.247 60.9926 252.575 61.9341C253.904 62.8756 255.481 63.402 257.109 63.4468C258.736 63.4916 260.34 63.0527 261.718 62.1856C263.096 61.3186 264.186 60.0624 264.85 58.5758C265.513 57.0893 265.721 55.4393 265.447 53.8345C265.173 52.2297 264.43 50.7423 263.31 49.5603C261.81 47.9764 259.742 47.053 257.561 46.993C255.38 46.933 253.265 47.7413 251.68 49.2403Z" fill="#E0E0E0"/>
<path d="M202.81 33.1699C203.829 32.5543 204.925 32.0768 206.07 31.7499L206.74 28.5199L212.21 28.4199L212.99 31.6299C214.149 31.916 215.265 32.3531 216.31 32.9299L219.07 31.1199L223 34.9199L221.29 37.7399C221.903 38.7604 222.38 39.8563 222.71 40.9999L225.94 41.6699L226.03 47.1299L222.83 47.9199C222.545 49.0773 222.104 50.1908 221.52 51.2299L223.33 53.9999L219.54 57.9299L216.72 56.2199C215.699 56.838 214.599 57.3156 213.45 57.6399L212.78 60.8699L207.32 60.9699L206.53 57.7599C205.37 57.4783 204.253 57.041 203.21 56.4599L200.45 58.2699L196.52 54.4699L198.24 51.6499C197.62 50.6331 197.142 49.5362 196.82 48.3899L193.58 47.7099L193.49 42.2499L196.69 41.4599C196.98 40.3039 197.42 39.191 198 38.1499L196.19 35.3899L200 31.4599L202.83 33.1699H202.81ZM205.72 40.4499C204.915 41.2838 204.375 42.3379 204.168 43.4788C203.962 44.6197 204.099 45.7961 204.562 46.8591C205.024 47.9222 205.792 48.8242 206.767 49.4509C207.743 50.0776 208.882 50.4009 210.041 50.3799C211.2 50.3589 212.327 49.9945 213.279 49.3329C214.231 48.6713 214.966 47.7421 215.39 46.663C215.813 45.5839 215.908 44.4033 215.66 43.2706C215.413 42.138 214.835 41.1041 214 40.2999C213.447 39.7654 212.794 39.3452 212.078 39.0634C211.362 38.7816 210.598 38.6437 209.829 38.6577C209.06 38.6716 208.301 38.8371 207.596 39.1446C206.891 39.4521 206.253 39.8957 205.72 40.4499Z" fill="#F5F5F5"/>
<path d="M294 191.32C295.021 190.709 296.117 190.231 297.26 189.9L297.94 186.67L303.4 186.58L304.19 189.78C305.348 190.065 306.461 190.506 307.5 191.09L310.26 189.28L314.19 193.07L312.48 195.89C313.094 196.913 313.572 198.013 313.9 199.16L317.13 199.83L317.23 205.3L314.02 206.08C313.734 207.239 313.297 208.355 312.72 209.4L314.53 212.16L310.73 216.09L307.91 214.38C306.888 214.994 305.788 215.469 304.64 215.79L303.97 219.03L298.51 219.12L297.72 215.92C296.564 215.63 295.451 215.19 294.41 214.61L291.65 216.42L287.72 212.63L289.43 209.81C288.812 208.789 288.335 207.689 288.01 206.54L284.78 205.87L284.68 200.4L287.89 199.62C288.172 198.46 288.609 197.343 289.19 196.3L287.38 193.54L291.18 189.61L294 191.32ZM296.91 198.6C296.106 199.435 295.568 200.489 295.363 201.629C295.158 202.77 295.295 203.945 295.758 205.007C296.221 206.07 296.989 206.971 297.964 207.597C298.939 208.223 300.078 208.546 301.236 208.525C302.395 208.504 303.521 208.14 304.473 207.479C305.425 206.818 306.159 205.89 306.583 204.812C307.007 203.733 307.103 202.553 306.856 201.421C306.61 200.289 306.034 199.255 305.2 198.45C304.645 197.908 303.988 197.481 303.267 197.195C302.546 196.908 301.775 196.768 300.999 196.782C300.223 196.796 299.458 196.964 298.747 197.276C298.037 197.588 297.395 198.038 296.86 198.6H296.91Z" fill="#F5F5F5"/>
<path d="M461.82 468.66C461.82 468.81 366.98 468.92 250.01 468.92C133.04 468.92 38.1799 468.81 38.1799 468.66C38.1799 468.51 133 468.4 250 468.4C367 468.4 461.82 468.52 461.82 468.66Z" fill="#263238"/>
<path d="M45.9502 429.87L53.5902 468.51L93.3102 468.48L101.7 430.51L45.9502 429.87Z" fill="#FBCF49"/>
<path d="M41.3901 424V429.39C41.3914 429.823 41.4781 430.252 41.6452 430.652C41.8122 431.052 42.0564 431.415 42.3638 431.721C42.6711 432.026 43.0356 432.268 43.4365 432.433C43.8374 432.597 44.2668 432.681 44.7001 432.68H102.2C102.633 432.681 103.062 432.597 103.462 432.432C103.863 432.268 104.226 432.026 104.533 431.72C104.84 431.414 105.083 431.051 105.249 430.651C105.415 430.252 105.5 429.823 105.5 429.39V424C105.5 423.204 105.184 422.441 104.621 421.879C104.059 421.316 103.296 421 102.5 421H44.3801C43.5862 421.003 42.8257 421.32 42.2653 421.882C41.7048 422.445 41.3901 423.206 41.3901 424Z" fill="#FBCF49"/>
<g opacity="0.4">
<path d="M46.3801 432.67L46.8501 435.34L99.9101 439.1L101.25 432.67H46.3801Z" fill="black"/>
</g>
<path d="M96.4001 451.09C96.4001 451.23 86.1201 451.35 73.4001 451.35C60.6801 451.35 50.4001 451.23 50.4001 451.09C50.4001 450.95 60.6701 450.83 73.4001 450.83C86.1301 450.83 96.4001 450.94 96.4001 451.09Z" fill="white"/>
<path d="M96.7 454.3C96.7 454.44 86.43 454.56 73.7 454.56C60.97 454.56 50.76 454.44 50.76 454.3C50.76 454.16 61.08 454 73.75 454C86.42 454 96.7 454.15 96.7 454.3Z" fill="white"/>
<path d="M50.0501 421.05C50.0501 421.05 27.6901 395.39 30.1801 394.46C32.6701 393.53 52.5301 407.76 52.5301 407.76C52.5301 407.76 35.4601 369.76 38.8701 366.94C42.2801 364.12 60.2901 400.64 60.2901 400.64C60.2901 400.64 57.5001 347.46 60.2901 346.85C63.0801 346.24 73.2901 400.03 73.2901 400.03C73.2901 400.03 88.5101 350.86 92.8501 350.86C97.1901 350.86 88.2001 398.17 88.2001 398.17C88.2001 398.17 106.2 367.87 109 371.89C111.8 375.91 96.2701 408.68 96.2701 408.68C96.2701 408.68 119 389.82 119.9 392.3C120.8 394.78 95.3801 421.05 95.3801 421.05H50.0501Z" fill="#455A64"/>
<path d="M46.93 382.4C47.08 382.33 51.05 390.8 55.78 401.31C60.51 411.82 64.24 420.4 64.08 420.47C63.92 420.54 59.96 412.07 55.23 401.56C50.5 391.05 46.77 382.47 46.93 382.4Z" fill="#263238"/>
<path d="M65 387.13C65.17 387.13 65.8301 394.58 66.4701 403.8C67.1101 413.02 67.4701 420.49 67.3301 420.5C67.1901 420.51 66.5001 413.06 65.8601 403.84C65.2201 394.62 64.82 387.14 65 387.13Z" fill="#263238"/>
<path d="M89.9 363.31C89.8809 363.517 89.8373 363.722 89.77 363.92C89.63 364.37 89.47 364.92 89.27 365.61C88.81 367.16 88.17 369.25 87.41 371.8C85.83 377.03 83.71 384.28 81.55 392.33C79.39 400.38 77.61 407.71 76.36 413.03L74.88 419.33C74.71 420.02 74.57 420.58 74.46 421.04C74.4237 421.244 74.3598 421.442 74.27 421.63C74.2703 421.421 74.2938 421.213 74.34 421.01C74.42 420.55 74.52 420.01 74.65 419.28C74.92 417.78 75.36 415.61 75.94 412.94C77.08 407.59 78.8 400.23 80.94 392.17C83.08 384.11 85.29 376.88 86.94 371.68C87.78 369.07 88.49 366.98 89 365.53L89.6 363.88C89.6734 363.677 89.7743 363.485 89.9 363.31Z" fill="#263238"/>
<path d="M100.67 390.73C100.81 390.82 96.44 397.3 90.92 405.2C85.4 413.1 80.81 419.42 80.67 419.32C80.53 419.22 84.9 412.74 90.42 404.85C95.94 396.96 100.53 390.63 100.67 390.73Z" fill="#263238"/>
<path d="M57.5902 420.51C56.862 420.142 56.1889 419.675 55.5902 419.12C54.0997 417.892 52.6775 416.584 51.3302 415.2C49.9778 413.829 48.7025 412.383 47.5102 410.87C46.9652 410.275 46.5134 409.601 46.1702 408.87C46.3102 408.76 48.6302 411.56 51.7702 414.76C54.9102 417.96 57.7102 420.37 57.5902 420.51Z" fill="#263238"/>
<path d="M71.17 410.31C71.34 410.31 71.69 412.67 71.96 415.6C72.23 418.53 72.31 420.94 72.14 420.95C71.97 420.96 71.62 418.6 71.35 415.66C71.08 412.72 71 410.33 71.17 410.31Z" fill="#263238"/>
<path d="M45.56 71.4095C46.6626 65.7852 48.9216 60.4512 52.1938 55.7457C55.4659 51.0402 59.6799 47.0657 64.5686 44.0742C69.4573 41.0827 74.9142 39.1393 80.5934 38.3673C86.2725 37.5953 92.0501 38.0115 97.56 39.5895C119.92 46.0295 132.76 70.4995 125.33 92.5895C122.945 99.7125 118.653 106.045 112.92 110.9C112.722 111.071 112.515 111.231 112.3 111.38H112.24C102.604 118.109 90.8334 121.07 79.16 119.7C75.377 119.252 71.6863 118.22 68.22 116.64C59.9777 112.662 53.2844 106.067 49.1851 97.8847C45.0857 89.7022 43.811 80.3927 45.56 71.4095Z" fill="white"/>
<path d="M45.5601 71.4097C45.5601 71.4097 45.5601 71.6297 45.4801 72.0697C45.4001 72.5097 45.3301 73.1697 45.2101 74.0097C44.9077 76.5043 44.8174 79.0199 44.9401 81.5297C45.2116 85.4964 46.0293 89.4066 47.3701 93.1497C49.1615 98.108 51.8761 102.682 55.3701 106.63C56.3573 107.75 57.4126 108.809 58.5301 109.8C59.676 110.871 60.8848 111.873 62.1501 112.8C62.7801 113.28 63.4801 113.68 64.1501 114.13L65.1501 114.79C65.5001 115 65.8701 115.18 66.2301 115.38L68.4501 116.54C69.2101 116.89 70.0001 117.22 70.8001 117.54C77.7364 119.926 85.1646 120.515 92.3901 119.25C96.2876 118.591 100.089 117.456 103.71 115.87C105.583 115.061 107.403 114.136 109.16 113.1C110.05 112.58 110.92 112.02 111.79 111.45C112.644 110.854 113.443 110.185 114.18 109.45C120.575 103.522 124.883 95.6858 126.46 87.1097C127.3 82.7912 127.398 78.3612 126.75 74.0097C126.45 71.8838 125.998 69.7818 125.4 67.7197C125.04 66.7197 124.69 65.7197 124.34 64.7197C124.17 64.2197 123.967 63.7319 123.73 63.2597L123.07 61.8297C121.32 58.1007 119.01 54.661 116.22 51.6297L115.22 50.4997L114.12 49.4997C113.37 48.8397 112.68 48.1197 111.91 47.4997C110.395 46.2713 108.794 45.1519 107.12 44.1497C100.844 40.3455 93.649 38.3262 86.3101 38.3097C84.6393 38.2901 82.969 38.3803 81.3101 38.5797C80.4956 38.6503 79.687 38.7772 78.8901 38.9597L76.5201 39.4097C75.0001 39.8697 73.5201 40.2597 72.0501 40.7797L69.9501 41.6397C69.2608 41.8908 68.5922 42.195 67.9501 42.5497C63.2291 44.8817 58.9888 48.0806 55.4501 51.9797C54.0306 53.6012 52.7337 55.3259 51.5701 57.1397L50.7701 58.3697C50.4853 58.7264 50.2279 59.1042 50.0001 59.4997L48.8301 61.8097C48.6501 62.1797 48.4601 62.5297 48.3001 62.8797L47.9001 63.8797L47.1801 65.7797C46.7918 66.7547 46.4776 67.7575 46.2401 68.7797C46.0101 69.5997 45.8401 70.2297 45.7201 70.6697C45.6001 71.1097 45.5301 71.3197 45.5301 71.3197C45.5301 71.3197 45.5301 71.0897 45.6701 70.6597L46.1301 68.7497C46.3554 67.7092 46.6562 66.6865 47.0301 65.6897L47.7301 63.7697C47.8601 63.4297 47.9901 63.0797 48.1201 62.7097C48.2501 62.3397 48.4701 62.0097 48.6501 61.6397L49.8001 59.2997C49.9974 58.8786 50.2281 58.474 50.4901 58.0897L51.2801 56.8497C52.4355 55.0139 53.7293 53.2688 55.1501 51.6297C58.6978 47.6784 62.959 44.4317 67.7101 42.0597C68.354 41.7029 69.0223 41.3921 69.7101 41.1297L71.8201 40.2597C73.2701 39.7297 74.8201 39.3297 76.3301 38.8597L78.7201 38.3997C79.5278 38.2162 80.346 38.0826 81.1701 37.9997C90.263 36.9389 99.4522 38.8998 107.32 43.5797C109.014 44.5917 110.634 45.7211 112.17 46.9597C112.95 47.5697 113.65 48.2997 114.41 48.9597L115.52 49.9597L116.52 51.0997C119.345 54.1668 121.685 57.6468 123.46 61.4197L124.13 62.8697C124.372 63.3477 124.579 63.8423 124.75 64.3497C125.1 65.3497 125.46 66.3497 125.82 67.3497C126.43 69.4372 126.888 71.5661 127.19 73.7197C127.906 78.1736 127.841 82.7179 127 87.1497C125.405 95.8381 121.041 103.777 114.56 109.78C113.799 110.516 112.976 111.185 112.1 111.78C111.22 112.36 110.35 112.93 109.44 113.44C104.218 116.52 98.4769 118.621 92.5001 119.64C85.1931 120.898 77.6866 120.285 70.6801 117.86C69.8701 117.56 69.0701 117.23 68.3001 116.86L66.0001 115.7C65.6401 115.5 65.2601 115.32 64.9101 115.11L63.9101 114.43C63.2301 113.98 62.5201 113.57 61.9101 113.09C60.6412 112.159 59.426 111.157 58.2701 110.09C57.1487 109.082 56.09 108.007 55.1001 106.87C51.5899 102.881 48.8745 98.258 47.1001 93.2497C45.7766 89.4745 44.9857 85.5333 44.7501 81.5397C44.6443 79.021 44.7614 76.4978 45.1001 73.9997C45.2401 73.1597 45.3501 72.5197 45.4301 72.0597C45.5101 71.5997 45.5601 71.4097 45.5601 71.4097Z" fill="#263238"/>
<path d="M117.62 119.65C117.68 119.65 117.62 119.02 117.94 117.95C118.365 116.442 119.275 115.117 120.53 114.18C121.448 113.499 122.521 113.058 123.653 112.896C124.784 112.734 125.938 112.855 127.01 113.25C128.276 113.708 129.374 114.537 130.16 115.63C131.007 116.791 131.463 118.192 131.463 119.63C131.463 121.067 131.007 122.468 130.16 123.63C129.626 124.362 128.952 124.982 128.176 125.452C127.401 125.923 126.54 126.234 125.643 126.369C124.746 126.504 123.832 126.459 122.952 126.238C122.073 126.017 121.246 125.623 120.52 125.08C119.266 124.146 118.355 122.824 117.93 121.32C117.64 120.25 117.67 119.61 117.61 119.62C117.586 119.769 117.586 119.921 117.61 120.07C117.609 120.507 117.66 120.944 117.76 121.37C118.121 122.961 119.027 124.375 120.32 125.37C121.716 126.445 123.453 126.98 125.212 126.874C126.971 126.769 128.632 126.031 129.89 124.797C131.147 123.563 131.916 121.915 132.054 120.159C132.192 118.402 131.69 116.655 130.64 115.24C129.786 114.064 128.593 113.177 127.22 112.7C126.07 112.288 124.835 112.173 123.629 112.365C122.423 112.557 121.285 113.051 120.32 113.8C119.027 114.794 118.121 116.209 117.76 117.8C117.66 118.226 117.609 118.662 117.61 119.1C117.58 119.282 117.583 119.468 117.62 119.65Z" fill="#263238"/>
<path d="M77.51 79.0005C77.508 79.7437 77.2858 80.4697 76.8714 81.0867C76.4571 81.7037 75.8692 82.1841 75.182 82.4671C74.4947 82.7502 73.739 82.8232 73.0103 82.677C72.2816 82.5308 71.6126 82.1719 71.0877 81.6457C70.5629 81.1194 70.2058 80.4494 70.0615 79.7203C69.9172 78.9912 69.9923 78.2357 70.2772 77.5493C70.562 76.8628 71.044 76.2762 71.6621 75.8634C72.2802 75.4507 73.0067 75.2305 73.75 75.2305C74.2446 75.2305 74.7343 75.328 75.1912 75.5176C75.648 75.7072 76.063 75.9851 76.4122 76.3353C76.7615 76.6855 77.0383 77.1012 77.2266 77.5585C77.415 78.0158 77.5113 78.5059 77.51 79.0005Z" fill="#263238"/>
<path d="M89.8901 79.0005C89.8901 79.7461 89.669 80.475 89.2547 81.095C88.8405 81.7149 88.2517 82.1982 87.5628 82.4835C86.8739 82.7688 86.1159 82.8435 85.3846 82.698C84.6533 82.5526 83.9816 82.1935 83.4543 81.6663C82.9271 81.139 82.568 80.4673 82.4225 79.736C82.2771 79.0047 82.3517 78.2466 82.6371 77.5578C82.9224 76.8689 83.4056 76.2801 84.0256 75.8658C84.6456 75.4516 85.3745 75.2305 86.1201 75.2305C86.6156 75.2292 87.1064 75.3258 87.5644 75.5148C88.0224 75.7038 88.4385 75.9814 88.7888 76.3317C89.1392 76.6821 89.4168 77.0982 89.6058 77.5562C89.7948 78.0142 89.8914 78.505 89.8901 79.0005Z" fill="#263238"/>
<path d="M102.26 79.0005C102.26 79.7461 102.039 80.475 101.625 81.095C101.21 81.7149 100.622 82.1982 99.9327 82.4835C99.2438 82.7688 98.4858 82.8435 97.7545 82.698C97.0232 82.5526 96.3514 82.1935 95.8242 81.6663C95.2969 81.139 94.9379 80.4673 94.7924 79.736C94.6469 79.0047 94.7216 78.2466 95.0069 77.5578C95.2923 76.8689 95.7755 76.2801 96.3955 75.8658C97.0154 75.4516 97.7443 75.2305 98.49 75.2305C98.9854 75.2292 99.4763 75.3258 99.9342 75.5148C100.392 75.7038 100.808 75.9814 101.159 76.3317C101.509 76.6821 101.787 77.0982 101.976 77.5562C102.165 78.0142 102.261 78.505 102.26 79.0005Z" fill="#263238"/>
<path d="M460.73 304.46H366.44C360.967 304.46 356.53 308.897 356.53 314.37V341.49C356.53 346.963 360.967 351.4 366.44 351.4H460.73C466.203 351.4 470.64 346.963 470.64 341.49V314.37C470.64 308.897 466.203 304.46 460.73 304.46Z" fill="white"/>
<path d="M460.73 351.4C461.748 351.349 462.756 351.171 463.73 350.87C465.131 350.407 466.409 349.634 467.47 348.609C468.531 347.584 469.348 346.334 469.86 344.95C470.224 344.008 470.427 343.01 470.46 342C470.51 340.95 470.46 339.81 470.46 338.64C470.46 336.294 470.46 333.747 470.46 331C470.46 328.254 470.46 325.327 470.46 322.22C470.46 320.66 470.46 319.07 470.46 317.42C470.524 315.751 470.454 314.079 470.25 312.42C469.884 310.679 469.05 309.071 467.838 307.769C466.625 306.466 465.081 305.52 463.37 305.03C461.505 304.656 459.598 304.535 457.7 304.67H451.7H425.79H366.42C365.15 304.669 363.892 304.919 362.719 305.405C361.545 305.891 360.48 306.605 359.583 307.504C358.686 308.404 357.976 309.472 357.493 310.647C357.011 311.821 356.765 313.08 356.77 314.35C356.77 319.477 356.77 324.527 356.77 329.5V340.5C356.708 341.678 356.826 342.858 357.12 344C357.754 346.247 359.173 348.192 361.12 349.48C362.063 350.112 363.114 350.566 364.22 350.82C365.324 351.051 366.453 351.142 367.58 351.09L416.07 351.15L448.76 351.23L457.65 351.28H448.76L416.07 351.37L367.58 351.42C366.416 351.475 365.25 351.381 364.11 351.14C362.947 350.875 361.843 350.401 360.85 349.74C358.812 348.382 357.329 346.339 356.67 343.98C356.363 342.796 356.239 341.572 356.3 340.35C356.3 339.14 356.3 337.93 356.3 336.71V314.4C356.296 313.062 356.556 311.736 357.066 310.499C357.575 309.262 358.323 308.137 359.268 307.19C360.213 306.242 361.335 305.49 362.571 304.977C363.807 304.464 365.132 304.2 366.47 304.2H425.84H451.75H460.64C461.611 304.202 462.576 304.337 463.51 304.6C465.288 305.11 466.893 306.098 468.15 307.455C469.407 308.812 470.268 310.488 470.64 312.3C470.795 313.151 470.862 314.016 470.84 314.88V317.37C470.84 319.02 470.84 320.61 470.84 322.17C470.84 325.277 470.84 328.204 470.84 330.95C470.84 333.697 470.84 336.244 470.84 338.59C470.84 339.77 470.84 340.88 470.84 341.96C470.79 342.988 470.574 344.001 470.2 344.96C469.576 346.583 468.543 348.016 467.2 349.12C466.221 349.923 465.098 350.531 463.89 350.91C463.152 351.137 462.39 351.277 461.62 351.33C461 351.41 460.73 351.4 460.73 351.4Z" fill="#263238"/>
<path d="M450.89 331H398.64C397.709 331 396.816 330.63 396.158 329.972C395.5 329.314 395.13 328.421 395.13 327.49C395.133 326.561 395.504 325.671 396.162 325.015C396.82 324.359 397.711 323.99 398.64 323.99H450.89C451.819 323.99 452.711 324.359 453.369 325.015C454.026 325.671 454.397 326.561 454.4 327.49C454.4 328.421 454.03 329.314 453.372 329.972C452.714 330.63 451.821 331 450.89 331Z" fill="#E0E0E0"/>
<path d="M383.6 319.8H377.63C374.791 319.8 372.49 322.101 372.49 324.94V330.91C372.49 333.749 374.791 336.05 377.63 336.05H383.6C386.439 336.05 388.74 333.749 388.74 330.91V324.94C388.74 322.101 386.439 319.8 383.6 319.8Z" fill="#FBCF49"/>
<path d="M375 328.16L376.64 326.53L379.8 329.33L385.07 324.04L386.59 325.68L379.56 332.49L375 328.16Z" fill="white"/>
<path d="M448.03 185.81H334.43C330.084 185.81 326.56 189.333 326.56 193.68V263.23C326.56 267.576 330.084 271.1 334.43 271.1H448.03C452.377 271.1 455.9 267.576 455.9 263.23V193.68C455.9 189.333 452.377 185.81 448.03 185.81Z" fill="white"/>
<path d="M448 271.109C448.09 271.103 448.18 271.103 448.27 271.109C448.535 271.099 448.799 271.072 449.06 271.029C450.102 270.899 451.105 270.548 452 269.999C453.46 269.116 454.593 267.782 455.23 266.199C456.06 264.329 455.71 261.919 455.77 259.309C455.77 248.779 455.77 233.559 455.69 214.759C455.69 210.059 455.69 205.129 455.69 199.999V196.109C455.748 194.804 455.695 193.496 455.53 192.199C455.26 190.9 454.657 189.692 453.78 188.695C452.904 187.698 451.784 186.945 450.53 186.509C449.216 186.114 447.839 185.968 446.47 186.079H415.34H334.43C332.688 186.094 331.002 186.692 329.64 187.779C328.295 188.875 327.361 190.394 326.99 192.089C326.837 192.944 326.78 193.812 326.82 194.679V223.229C326.82 236.759 326.82 249.809 326.82 262.229C326.695 263.741 326.971 265.259 327.62 266.629C328.289 267.962 329.331 269.07 330.62 269.819C331.893 270.558 333.349 270.922 334.82 270.869H356.41H387.18L431.72 270.959L443.83 271.009H446.98H448.06C448.06 271.009 447.69 271.009 446.98 271.009H443.83H431.72L387.18 271.089H356.41H339.27H334.82C333.266 271.145 331.728 270.764 330.38 269.989C329.011 269.196 327.905 268.017 327.2 266.599C326.523 265.162 326.23 263.574 326.35 261.989C326.35 249.549 326.35 236.499 326.35 222.989V194.669C326.306 193.765 326.367 192.86 326.53 191.969C326.925 190.153 327.928 188.526 329.374 187.359C330.82 186.191 332.622 185.553 334.48 185.549H415.39H446.52C447.937 185.442 449.361 185.598 450.72 186.009C452.042 186.469 453.222 187.263 454.146 188.315C455.07 189.366 455.705 190.639 455.99 192.009C456.157 193.336 456.21 194.674 456.15 196.009V199.999C456.15 205.129 456.15 210.059 456.15 214.759C456.15 233.559 456.09 248.759 456.07 259.309C456.07 260.619 456.07 261.869 456.07 263.029C456.094 264.135 455.894 265.234 455.48 266.259C454.827 267.868 453.659 269.214 452.16 270.089C451.246 270.639 450.221 270.98 449.16 271.089C448.775 271.127 448.387 271.134 448 271.109Z" fill="#263238"/>
<path d="M405.64 235.34H405.63C403.681 235.34 402.1 236.92 402.1 238.87V251.56C402.1 253.509 403.681 255.09 405.63 255.09H405.64C407.59 255.09 409.17 253.509 409.17 251.56V238.87C409.17 236.92 407.59 235.34 405.64 235.34Z" fill="#FBCF49"/>
<path d="M346.61 232.479H346.6C344.651 232.479 343.07 234.06 343.07 236.009V251.559C343.07 253.509 344.651 255.089 346.6 255.089H346.61C348.56 255.089 350.14 253.509 350.14 251.559V236.009C350.14 234.06 348.56 232.479 346.61 232.479Z" fill="#FBCF49"/>
<path d="M361.37 227.77H361.36C359.411 227.77 357.83 229.35 357.83 231.3V251.57C357.83 253.519 359.411 255.1 361.36 255.1H361.37C363.32 255.1 364.9 253.519 364.9 251.57V231.3C364.9 229.35 363.32 227.77 361.37 227.77Z" fill="#FBCF49"/>
<path d="M376.12 229.26H376.11C374.161 229.26 372.58 230.84 372.58 232.79V251.56C372.58 253.509 374.161 255.09 376.11 255.09H376.12C378.07 255.09 379.65 253.509 379.65 251.56V232.79C379.65 230.84 378.07 229.26 376.12 229.26Z" fill="#FBCF49"/>
<path d="M390.88 220.53H390.87C388.921 220.53 387.34 222.111 387.34 224.06V251.56C387.34 253.51 388.921 255.09 390.87 255.09H390.88C392.83 255.09 394.41 253.51 394.41 251.56V224.06C394.41 222.111 392.83 220.53 390.88 220.53Z" fill="#FBCF49"/>
<path d="M420.4 220.7H420.39C418.441 220.7 416.86 222.281 416.86 224.23V251.57C416.86 253.52 418.441 255.1 420.39 255.1H420.4C422.35 255.1 423.93 253.52 423.93 251.57V224.23C423.93 222.281 422.35 220.7 420.4 220.7Z" fill="#FBCF49"/>
<path d="M435.15 232C434.686 232 434.226 232.092 433.797 232.27C433.368 232.448 432.978 232.709 432.65 233.037C432.323 233.366 432.063 233.757 431.886 234.186C431.709 234.615 431.619 235.076 431.62 235.54V251.54C431.62 252.476 431.992 253.374 432.654 254.036C433.316 254.698 434.214 255.07 435.15 255.07C436.086 255.07 436.984 254.698 437.646 254.036C438.308 253.374 438.68 252.476 438.68 251.54V235.54C438.681 235.076 438.591 234.615 438.414 234.186C438.238 233.757 437.978 233.366 437.65 233.037C437.322 232.709 436.932 232.448 436.503 232.27C436.074 232.092 435.615 232 435.15 232Z" fill="#FBCF49"/>
<path d="M371.47 199.62H344.19C342.577 199.62 341.27 200.927 341.27 202.54V203.17C341.27 204.783 342.577 206.09 344.19 206.09H371.47C373.083 206.09 374.39 204.783 374.39 203.17V202.54C374.39 200.927 373.083 199.62 371.47 199.62Z" fill="#E0E0E0"/>
<path d="M43.5101 166.84H120.65C122.077 166.84 123.445 167.407 124.454 168.416C125.463 169.425 126.03 170.793 126.03 172.22V240.77C126.03 241.977 125.551 243.134 124.697 243.987C123.844 244.84 122.687 245.32 121.48 245.32H42.6901C41.4834 245.32 40.3261 244.84 39.4728 243.987C38.6195 243.134 38.1401 241.977 38.1401 240.77V172.22C38.1401 170.795 38.7056 169.428 39.7124 168.419C40.7191 167.41 42.085 166.842 43.5101 166.84Z" fill="white"/>
<path d="M43.5101 166.84H120.65C122.077 166.84 123.445 167.407 124.454 168.416C125.463 169.425 126.03 170.793 126.03 172.22V184.73H38.1401V172.22C38.1401 170.795 38.7056 169.428 39.7124 168.419C40.7191 167.41 42.085 166.842 43.5101 166.84Z" fill="#E0E0E0"/>
<path d="M52.5301 176.73C52.5163 177.36 52.317 177.971 51.9571 178.488C51.5972 179.005 51.0928 179.404 50.507 179.636C49.9212 179.867 49.2801 179.921 48.664 179.79C48.0479 179.658 47.4843 179.348 47.0438 178.898C46.6032 178.448 46.3053 177.878 46.1874 177.259C46.0695 176.64 46.1368 176 46.381 175.42C46.6251 174.839 47.0351 174.343 47.5598 173.995C48.0844 173.646 48.7002 173.46 49.3301 173.46C49.7551 173.464 50.1752 173.552 50.5662 173.718C50.9573 173.885 51.3116 174.127 51.6089 174.431C51.9062 174.734 52.1406 175.094 52.2986 175.489C52.4567 175.883 52.5354 176.305 52.5301 176.73Z" fill="white"/>
<path d="M62.3602 176.73C62.3464 177.36 62.1471 177.971 61.7872 178.488C61.4273 179.005 60.9228 179.404 60.337 179.636C59.7512 179.867 59.1101 179.921 58.4941 179.79C57.878 179.658 57.3144 179.348 56.8739 178.898C56.4333 178.448 56.1354 177.878 56.0175 177.259C55.8996 176.64 55.9669 176 56.211 175.42C56.4552 174.839 56.8652 174.343 57.3898 173.995C57.9145 173.646 58.5303 173.46 59.1602 173.46C59.5852 173.464 60.0053 173.552 60.3963 173.718C60.7874 173.885 61.1417 174.127 61.439 174.431C61.7362 174.734 61.9706 175.094 62.1287 175.489C62.2868 175.883 62.3655 176.305 62.3602 176.73Z" fill="white"/>
<path d="M72.19 176.73C72.1762 177.36 71.9769 177.971 71.617 178.488C71.2571 179.005 70.7527 179.404 70.1669 179.636C69.5811 179.867 68.94 179.921 68.3239 179.79C67.7079 179.658 67.1442 179.348 66.7037 178.898C66.2631 178.448 65.9652 177.878 65.8473 177.259C65.7294 176.64 65.7968 176 66.0409 175.42C66.285 174.839 66.6951 174.343 67.2197 173.995C67.7443 173.646 68.3601 173.46 68.99 173.46C69.415 173.464 69.8351 173.552 70.2261 173.718C70.6172 173.885 70.9715 174.127 71.2688 174.431C71.5661 174.734 71.8005 175.094 71.9585 175.489C72.1166 175.883 72.1953 176.305 72.19 176.73Z" fill="white"/>
<path d="M104.3 193.42H59.8601C56.8391 193.42 54.3901 195.869 54.3901 198.89V230.72C54.3901 233.741 56.8391 236.19 59.8601 236.19H104.3C107.321 236.19 109.77 233.741 109.77 230.72V198.89C109.77 195.869 107.321 193.42 104.3 193.42Z" fill="#FBCF49"/>
<path d="M75.8701 214.379V207.809C75.8765 207.446 75.9768 207.09 76.1614 206.776C76.346 206.462 76.6085 206.202 76.9235 206.02C77.2385 205.838 77.5953 205.74 77.9591 205.736C78.323 205.733 78.6816 205.823 79.0001 205.999L84.6901 209.279L90.3701 212.569C90.6924 212.753 90.9603 213.018 91.1466 213.339C91.333 213.659 91.4312 214.024 91.4312 214.394C91.4312 214.765 91.333 215.129 91.1466 215.45C90.9603 215.77 90.6924 216.036 90.3701 216.219L84.6901 219.499L79.0001 222.779C78.6834 222.951 78.3281 223.04 77.9677 223.036C77.6073 223.033 77.2538 222.937 76.9405 222.759C76.6272 222.581 76.3645 222.326 76.1772 222.018C75.9899 221.71 75.8842 221.36 75.8701 220.999V214.379Z" fill="white"/>
<path d="M121.48 245.32C121.48 245.32 121.76 245.32 122.3 245.22C123.1 245.058 123.843 244.685 124.45 244.14C124.941 243.699 125.33 243.157 125.589 242.551C125.848 241.944 125.971 241.289 125.95 240.63C125.95 239.05 125.95 237.23 125.95 235.18C125.95 226.96 125.9 215.1 125.87 200.44C125.87 193.1 125.87 185.07 125.87 176.44V173.18C125.906 172.637 125.906 172.092 125.87 171.55C125.808 171.022 125.659 170.509 125.43 170.03C125.086 169.294 124.572 168.65 123.93 168.151C123.289 167.652 122.538 167.312 121.74 167.16C121.188 167.075 120.629 167.042 120.07 167.06H105.79H75.3601H44.7901C44.1226 167.039 43.4545 167.063 42.7901 167.13C42.1314 167.225 41.4985 167.451 40.9284 167.795C40.3583 168.138 39.8625 168.592 39.4701 169.13C39.0707 169.657 38.7816 170.259 38.6201 170.9C38.4664 171.554 38.4091 172.228 38.4501 172.9V181.13C38.4501 186.583 38.4501 191.95 38.4501 197.23C38.4501 207.78 38.4501 217.96 38.4501 227.66C38.4501 230.08 38.4501 232.48 38.4501 234.84V240.1C38.4161 240.656 38.4598 241.215 38.5801 241.76C38.835 242.826 39.4902 243.753 40.4101 244.35C40.859 244.649 41.3615 244.86 41.8901 244.97C42.426 245.051 42.9685 245.081 43.5101 245.06H50.0001H74.0001L108.74 245.14L118.18 245.19H108.74L74.0001 245.51H50.0001H43.4301C42.8548 245.54 42.278 245.506 41.7101 245.41C41.1296 245.29 40.5767 245.063 40.0801 244.74C39.081 244.068 38.3679 243.049 38.0801 241.88C37.9545 241.299 37.9074 240.703 37.9401 240.11V227.7C37.9401 218 37.9401 207.82 37.9401 197.27V172.94C37.9013 172.225 37.9619 171.508 38.1201 170.81C38.3964 169.743 38.9794 168.78 39.7969 168.041C40.6145 167.301 41.6307 166.818 42.7201 166.65C43.428 166.582 44.1393 166.559 44.8501 166.58H120C120.586 166.562 121.171 166.599 121.75 166.69C122.33 166.807 122.889 167.009 123.41 167.29C124.441 167.863 125.264 168.749 125.76 169.82C126.008 170.344 126.17 170.904 126.24 171.48C126.275 172.039 126.275 172.6 126.24 173.16V176.42C126.24 185.04 126.24 193.07 126.24 200.42C126.24 215.08 126.18 226.94 126.16 235.16C126.16 237.16 126.16 239.03 126.16 240.61C126.173 241.288 126.037 241.961 125.763 242.581C125.488 243.201 125.081 243.753 124.57 244.2C123.944 244.747 123.179 245.11 122.36 245.25C122.154 245.27 121.946 245.27 121.74 245.25C121.657 245.283 121.569 245.307 121.48 245.32Z" fill="#263238"/>
<path d="M297.12 75.79H396.12C397.547 75.79 398.915 76.3569 399.924 77.3658C400.933 78.3748 401.5 79.7432 401.5 81.17V149.17C401.5 149.768 401.382 150.359 401.154 150.911C400.925 151.463 400.59 151.965 400.167 152.387C399.745 152.81 399.243 153.145 398.691 153.374C398.139 153.602 397.548 153.72 396.95 153.72H296.3C295.702 153.72 295.111 153.602 294.559 153.374C294.007 153.145 293.505 152.81 293.083 152.387C292.66 151.965 292.325 151.463 292.096 150.911C291.868 150.359 291.75 149.768 291.75 149.17V81.17C291.75 79.7449 292.315 78.378 293.322 77.3693C294.329 76.3607 295.695 75.7927 297.12 75.79Z" fill="white"/>
<path d="M297.12 75.79H396.12C397.547 75.79 398.915 76.3569 399.924 77.3658C400.933 78.3748 401.5 79.7432 401.5 81.17V93.59H291.74V81.16C291.743 79.7349 292.311 78.3691 293.319 77.3623C294.328 76.3555 295.695 75.79 297.12 75.79Z" fill="#E0E0E0"/>
<path d="M306.35 85.6201C306.35 86.2629 306.159 86.8913 305.802 87.4257C305.445 87.9602 304.938 88.3767 304.344 88.6227C303.75 88.8687 303.096 88.9331 302.466 88.8077C301.836 88.6823 301.257 88.3727 300.802 87.9182C300.347 87.4637 300.038 86.8846 299.913 86.2542C299.787 85.6237 299.852 84.9703 300.097 84.3764C300.343 83.7825 300.76 83.275 301.295 82.9178C301.829 82.5607 302.457 82.3701 303.1 82.3701C303.962 82.3701 304.789 82.7125 305.398 83.322C306.008 83.9315 306.35 84.7582 306.35 85.6201Z" fill="white"/>
<path d="M316.32 85.6201C316.32 86.2629 316.129 86.8913 315.772 87.4257C315.415 87.9602 314.908 88.3768 314.314 88.6227C313.72 88.8687 313.066 88.9331 312.436 88.8077C311.806 88.6823 311.227 88.3727 310.772 87.9182C310.317 87.4637 310.008 86.8846 309.883 86.2542C309.757 85.6237 309.821 84.9703 310.067 84.3764C310.313 83.7826 310.73 83.275 311.264 82.9179C311.799 82.5607 312.427 82.3701 313.07 82.3701C313.497 82.3688 313.92 82.452 314.315 82.6148C314.71 82.7777 315.069 83.017 315.371 83.3191C315.673 83.6211 315.913 83.9799 316.075 84.3748C316.238 84.7698 316.321 85.193 316.32 85.6201Z" fill="white"/>
<path d="M326.29 85.6201C326.29 86.2633 326.099 86.8921 325.742 87.4268C325.384 87.9614 324.876 88.378 324.281 88.6237C323.687 88.8694 323.033 88.9331 322.402 88.8069C321.772 88.6807 321.193 88.3702 320.738 87.9147C320.284 87.4591 319.976 86.8791 319.851 86.248C319.727 85.6169 319.793 84.9631 320.04 84.3695C320.288 83.7758 320.706 83.2689 321.242 82.913C321.777 82.5571 322.407 82.3682 323.05 82.3701C323.476 82.3701 323.898 82.4543 324.292 82.6177C324.686 82.7812 325.044 83.0207 325.345 83.3226C325.646 83.6246 325.884 83.9829 326.046 84.3772C326.209 84.7714 326.291 85.1938 326.29 85.6201Z" fill="white"/>
<path d="M337.23 103.609H305.56C303.356 103.609 301.57 105.396 301.57 107.599V139.269C301.57 141.473 303.356 143.259 305.56 143.259H337.23C339.434 143.259 341.22 141.473 341.22 139.269V107.599C341.22 105.396 339.434 103.609 337.23 103.609Z" fill="#FBCF49"/>
<path d="M390 111.79H353.26C352.993 111.79 352.729 111.737 352.483 111.633C352.237 111.53 352.014 111.378 351.828 111.187C351.642 110.996 351.495 110.769 351.398 110.521C351.3 110.273 351.253 110.007 351.26 109.74C351.26 109.21 351.471 108.701 351.846 108.326C352.221 107.951 352.73 107.74 353.26 107.74H390C390.535 107.74 391.049 107.949 391.432 108.323C391.815 108.697 392.037 109.205 392.05 109.74C392.05 110.284 391.834 110.805 391.45 111.19C391.065 111.574 390.544 111.79 390 111.79Z" fill="#E0E0E0"/>
<path d="M390 121.16H353.26C352.73 121.16 352.221 120.949 351.846 120.574C351.471 120.199 351.26 119.691 351.26 119.16C351.26 118.63 351.471 118.121 351.846 117.746C352.221 117.371 352.73 117.16 353.26 117.16H390C390.535 117.16 391.049 117.369 391.432 117.743C391.815 118.116 392.037 118.625 392.05 119.16C392.037 119.695 391.815 120.204 391.432 120.578C391.049 120.951 390.535 121.16 390 121.16Z" fill="#E0E0E0"/>
<path d="M390 130.529H353.26C352.993 130.53 352.729 130.476 352.483 130.373C352.237 130.269 352.014 130.117 351.828 129.926C351.642 129.735 351.495 129.509 351.398 129.26C351.3 129.012 351.253 128.746 351.26 128.479C351.26 127.949 351.471 127.44 351.846 127.065C352.221 126.69 352.73 126.479 353.26 126.479H390C390.535 126.479 391.049 126.688 391.432 127.062C391.815 127.436 392.037 127.945 392.05 128.479C392.05 129.023 391.834 129.545 391.45 129.929C391.065 130.314 390.544 130.529 390 130.529Z" fill="#E0E0E0"/>
<path d="M372 139.9H353.26C352.993 139.9 352.729 139.846 352.483 139.743C352.237 139.639 352.014 139.487 351.828 139.296C351.642 139.105 351.495 138.879 351.398 138.63C351.3 138.382 351.253 138.116 351.26 137.85C351.26 137.319 351.471 136.81 351.846 136.435C352.221 136.06 352.73 135.85 353.26 135.85H372C372.531 135.85 373.039 136.06 373.414 136.435C373.789 136.81 374 137.319 374 137.85C374.007 138.116 373.96 138.382 373.863 138.63C373.765 138.879 373.619 139.105 373.432 139.296C373.246 139.487 373.023 139.639 372.777 139.743C372.531 139.846 372.267 139.9 372 139.9Z" fill="#E0E0E0"/>
<path d="M397 153.68C397.312 153.653 397.622 153.609 397.93 153.55C398.832 153.348 399.652 152.878 400.28 152.2C400.737 151.7 401.078 151.106 401.28 150.46C401.473 149.665 401.541 148.845 401.48 148.03C401.48 146.243 401.48 144.186 401.48 141.86C401.48 132.57 401.43 119.14 401.4 102.56C401.4 98.4098 401.4 94.0598 401.4 89.5598C401.4 87.2865 401.4 84.9765 401.4 82.6298C401.512 81.4711 401.376 80.3017 401 79.1998C400.666 78.3876 400.127 77.6754 399.437 77.1323C398.747 76.5892 397.928 76.2335 397.06 76.0998C396.46 76.0258 395.854 76.0024 395.25 76.0298H298.68C297.903 76.0041 297.125 76.0241 296.35 76.0898C295.22 76.256 294.178 76.795 293.39 77.6213C292.602 78.4475 292.113 79.5135 292 80.6498C292 81.3798 292 82.1998 292 82.9698V110.5C292 122.44 292 133.96 292 144.93C292.17 147.59 291.33 150.69 293.51 152.4C293.99 152.817 294.557 153.121 295.17 153.29C295.796 153.43 296.439 153.484 297.08 153.45H316.08H343.23L382.53 153.54H393.21H395.99H396.94C396.94 153.54 396.62 153.54 395.99 153.54H393.21L382.53 153.59L343.23 153.67H316.08H300.96H297.04C296.369 153.704 295.696 153.647 295.04 153.5C294.36 153.308 293.731 152.966 293.2 152.5C292.662 152.038 292.233 151.464 291.943 150.817C291.652 150.171 291.508 149.468 291.52 148.76C291.52 147.4 291.52 146.04 291.52 144.67C291.52 133.67 291.52 122.18 291.52 110.24V92.2898C291.52 89.1998 291.52 86.0998 291.52 82.9698C291.52 82.1798 291.52 81.4298 291.52 80.5998C291.649 79.3575 292.186 78.193 293.048 77.2883C293.909 76.3837 295.046 75.7899 296.28 75.5998C297.081 75.5223 297.886 75.4989 298.69 75.5298H333.27H367.69H395.16C395.788 75.5021 396.417 75.5289 397.04 75.6098C397.982 75.7595 398.87 76.1503 399.616 76.7443C400.363 77.3383 400.943 78.1153 401.3 78.9998C401.535 79.5731 401.674 80.1813 401.71 80.7998C401.71 81.4198 401.71 81.9898 401.71 82.5898C401.71 84.9365 401.71 87.2465 401.71 89.5198C401.71 94.0398 401.71 98.3898 401.71 102.52C401.71 119.1 401.64 132.52 401.62 141.82C401.62 144.14 401.62 146.196 401.62 147.99C401.678 148.82 401.604 149.653 401.4 150.46C401.182 151.119 400.824 151.723 400.35 152.23C399.7 152.914 398.855 153.381 397.93 153.57C397.626 153.648 397.314 153.685 397 153.68Z" fill="#263238"/>
<g opacity="0.3">
<path d="M301.57 132V139.4C301.57 140.418 301.975 141.395 302.695 142.115C303.415 142.835 304.392 143.24 305.41 143.24H337.31C338.347 143.24 339.342 142.828 340.075 142.095C340.808 141.361 341.22 140.367 341.22 139.33V127.44L332 118.85C331.75 118.618 331.456 118.439 331.136 118.323C330.816 118.207 330.475 118.157 330.135 118.174C329.795 118.192 329.461 118.278 329.155 118.426C328.848 118.575 328.575 118.784 328.35 119.04L321.12 127.33L314 124C313.365 123.701 312.656 123.594 311.961 123.694C311.266 123.793 310.616 124.094 310.09 124.56L301.57 132Z" fill="black"/>
</g>
<g opacity="0.3">
<path d="M319.51 117.7C321.487 117.7 323.09 116.097 323.09 114.12C323.09 112.143 321.487 110.54 319.51 110.54C317.533 110.54 315.93 112.143 315.93 114.12C315.93 116.097 317.533 117.7 319.51 117.7Z" fill="black"/>
</g>
<path d="M167.68 204.45C170.35 202.15 174.14 201.51 176.86 199.27C179.58 197.03 180.86 193.42 181.06 189.9C181.075 186.373 180.559 182.864 179.53 179.49L208.62 216C206.31 220 203.82 224.08 200.2 227C196.58 229.92 191.56 231.47 187.2 229.89C182.84 228.31 179.88 222.89 181.89 218.74C177.98 222.37 171.19 222.44 167.38 218.74C163.57 215.04 163.63 207.93 167.68 204.45Z" fill="#263238"/>
<path d="M251.74 97.7803C258.79 102.94 259.96 108.07 260.24 110.78C260.32 111.59 260.18 112.61 259.41 112.86C259.025 112.947 258.624 112.912 258.26 112.76L234.66 105.59" fill="#263238"/>
<path d="M186.53 189.84C181.23 180.32 175.94 170.71 172.35 160.42C168.76 150.13 166.91 139.03 168.66 128.27C168.92 126.63 171.73 115.49 173.38 115.33C174.55 115.22 173.46 125.33 174.24 126.2C181.69 134.66 185.46 145.86 186.74 157.06C187.895 167.96 187.824 178.955 186.53 189.84Z" fill="#263238"/>
<path d="M197.74 247.7L177.44 149.24C171.29 122.6 181.67 96.8096 208.44 91.3996L210.95 91.0496C223.11 89.3198 235.476 92.2335 245.585 99.2106C255.694 106.188 262.804 116.716 265.5 128.7C270.7 151.82 276.16 177.43 277.78 190C281.14 216 255.78 223.74 255.78 223.74C255.78 223.74 260.53 250 261.94 257.57L222.69 262.57L213.24 263.42L197.74 247.7Z" fill="#FFBF9D"/>
<path d="M255.77 223.74C255.77 223.74 239.53 227.03 220.53 218.54C220.53 218.54 231.43 236.92 257.02 230.9L255.77 223.74Z" fill="#FF9A6C"/>
<path d="M260.75 154C260.899 154.959 260.67 155.939 260.11 156.732C259.55 157.525 258.704 158.069 257.75 158.25C257.283 158.355 256.8 158.366 256.329 158.281C255.859 158.197 255.41 158.019 255.009 157.758C254.608 157.497 254.263 157.158 253.996 156.761C253.728 156.365 253.542 155.919 253.45 155.45C253.303 154.49 253.533 153.51 254.092 152.716C254.652 151.922 255.496 151.375 256.45 151.19C256.917 151.085 257.401 151.074 257.872 151.16C258.343 151.245 258.793 151.424 259.194 151.686C259.595 151.948 259.939 152.288 260.206 152.685C260.474 153.083 260.658 153.53 260.75 154Z" fill="#263238"/>
<path d="M261.63 141C261.24 141.55 258.14 139.87 254.15 140.45C250.16 141.03 247.52 143.45 247.01 143.01C246.77 142.82 247.11 141.88 248.26 140.77C249.819 139.33 251.785 138.407 253.89 138.13C255.945 137.822 258.045 138.172 259.89 139.13C261.29 139.89 261.83 140.7 261.63 141Z" fill="#263238"/>
<path d="M226.35 158.88C226.497 159.839 226.266 160.817 225.707 161.61C225.147 162.402 224.303 162.947 223.35 163.13C222.883 163.234 222.4 163.243 221.929 163.157C221.458 163.071 221.009 162.892 220.608 162.631C220.208 162.369 219.863 162.03 219.596 161.633C219.328 161.236 219.143 160.79 219.05 160.32C218.907 159.354 219.146 158.371 219.715 157.578C220.284 156.785 221.139 156.244 222.1 156.07C222.564 155.974 223.042 155.97 223.507 156.06C223.972 156.149 224.415 156.329 224.81 156.59C225.205 156.852 225.544 157.188 225.809 157.581C226.073 157.974 226.257 158.416 226.35 158.88Z" fill="#263238"/>
<path d="M222.64 147.43C222.25 147.98 219.14 146.3 215.15 146.87C211.16 147.44 208.52 149.87 208.02 149.43C207.77 149.25 208.11 148.31 209.26 147.2C210.819 145.758 212.785 144.832 214.89 144.55C216.945 144.239 219.046 144.589 220.89 145.55C222.29 146.36 222.83 147.18 222.64 147.43Z" fill="#263238"/>
<path d="M241.31 176.07C241.26 175.84 243.68 175.07 247.62 173.98C248.62 173.73 249.56 173.39 249.62 172.67C249.68 171.95 249.17 170.86 248.51 169.75L244.39 162.41C238.64 151.95 234.32 143.3 234.74 143.07C235.16 142.84 240.17 151.13 245.93 161.59L249.93 168.99C250.48 170.09 251.33 171.31 251.03 172.91C250.932 173.291 250.748 173.644 250.494 173.944C250.239 174.244 249.92 174.482 249.56 174.64C249.02 174.875 248.452 175.039 247.87 175.13C243.86 175.92 241.35 176.29 241.31 176.07Z" fill="#263238"/>
<path d="M222.16 134.76C221.76 135.86 217.74 135.33 213.01 135.9C208.28 136.47 204.45 137.76 203.82 136.77C203.54 136.3 204.21 135.27 205.75 134.21C207.812 132.904 210.146 132.087 212.573 131.822C214.999 131.557 217.454 131.851 219.75 132.68C221.46 133.38 222.33 134.24 222.16 134.76Z" fill="#263238"/>
<path d="M261.23 134.41C260.55 135.41 257.16 135.02 253.23 135.59C249.3 136.16 246.12 137.33 245.23 136.5C244.82 136.09 245.23 135.1 246.51 134.02C248.34 132.675 250.481 131.816 252.734 131.522C254.986 131.228 257.276 131.51 259.39 132.34C260.93 133.05 261.53 133.91 261.23 134.41Z" fill="#263238"/>
<path d="M182.29 168.17C181.82 168.04 163.7 165.42 166.78 183.1C169.86 200.78 187 194 186.92 193.52C186.84 193.04 182.29 168.17 182.29 168.17Z" fill="#FFBF9D"/>
<path d="M180.35 187.77C180.27 187.72 180.08 188.04 179.6 188.37C178.923 188.81 178.101 188.968 177.31 188.81C175.31 188.46 173.23 185.76 172.59 182.59C172.287 181.081 172.318 179.525 172.68 178.03C172.753 177.45 172.964 176.896 173.297 176.416C173.629 175.935 174.073 175.542 174.59 175.27C174.93 175.102 175.319 175.062 175.687 175.157C176.054 175.253 176.375 175.477 176.59 175.79C176.92 176.25 176.86 176.62 176.96 176.63C177.06 176.64 177.29 176.27 177.02 175.56C176.847 175.134 176.533 174.781 176.13 174.56C175.58 174.276 174.94 174.222 174.35 174.41C173 174.74 172 176.21 171.61 177.71C171.129 179.371 171.06 181.125 171.41 182.82C172.14 186.36 174.55 189.38 177.23 189.67C177.731 189.72 178.237 189.656 178.71 189.483C179.183 189.31 179.61 189.032 179.96 188.67C180.4 188.2 180.42 187.79 180.35 187.77Z" fill="#FF9A6C"/>
<path d="M248.74 101.56C251.31 99.4601 241.04 91.7801 233.43 89.8901C221.94 87.0001 205.2 87.0001 195.92 91.6001C184.76 97.1101 176.05 104.76 172.11 116.6C168.17 128.44 168.24 141.3 170.83 153.47C171.62 157.19 172.72 161.01 175.29 163.8C178.47 167.25 182.35 168.53 184.44 174.26C185.12 176.14 185.65 178.12 187.26 179.31C191.12 182.15 194.48 178.2 195.7 174.63C198.31 167 197.23 158.63 196.11 150.69C195.32 145.01 194.49 139.22 191.91 134.11C190.51 131.33 188.61 128.8 187.37 125.94C186.13 123.08 185.59 119.68 187 116.94C187.333 116.336 187.722 115.763 188.16 115.23C190.227 112.629 192.95 110.625 196.049 109.424C199.147 108.224 202.51 107.87 205.79 108.4C216.37 110.09 234.31 112.22 238.12 108.04C243.61 102.04 244.55 98.5701 244.55 98.5701L248.74 101.56Z" fill="#263238"/>
<path d="M229.32 180.81C229.92 180.66 230.69 184.71 234.7 186.93C238.71 189.15 242.93 187.93 243.07 188.45C243.17 188.69 242.26 189.45 240.44 189.81C238.081 190.305 235.623 189.951 233.5 188.81C231.465 187.704 229.941 185.85 229.25 183.64C228.77 181.93 229 180.84 229.32 180.81Z" fill="#263238"/>
<path d="M169.9 169.68C169.51 169.44 169 169.47 168.63 169.22C144.14 153.22 157.2 131.07 156.39 125.14C155.26 116.92 147.39 129.02 144.21 118.51C139.93 104.59 153.99 95.73 171.53 86.19C178.88 82.19 197.92 77.89 215.39 78.33C230.98 78.73 242.94 87.55 250.12 94.71C250.12 94.71 253.93 95.77 255.06 97.17C258.59 101.58 257.76 103.81 257.76 103.81C257.76 103.81 221.44 92.66 197.76 120.4C174.08 148.14 182.76 166.74 175.43 168.33L169.9 169.68Z" fill="#455A64"/>
<path d="M179.88 97.1699C179.451 97.4947 179 97.7888 178.53 98.0499C178.08 98.3199 177.53 98.6499 176.94 99.0499C176.35 99.4499 175.62 99.9099 174.94 100.48C173.185 101.757 171.514 103.146 169.94 104.64C168.036 106.483 166.268 108.462 164.65 110.56C163.059 112.676 161.625 114.905 160.36 117.23C159.338 119.137 158.439 121.108 157.67 123.13C157.31 123.99 157.08 124.79 156.84 125.48C156.6 126.17 156.42 126.78 156.28 127.28C156.159 127.807 155.992 128.322 155.78 128.82C155.842 128.284 155.943 127.752 156.08 127.23C156.19 126.72 156.34 126.1 156.56 125.4C156.78 124.7 156.99 123.87 157.33 123C158.054 120.939 158.926 118.934 159.94 117C162.422 112.247 165.691 107.95 169.61 104.29C171.208 102.799 172.909 101.422 174.7 100.17C175.45 99.6199 176.18 99.1699 176.8 98.7999C177.42 98.4299 177.98 98.0899 178.45 97.7999C178.907 97.5484 179.386 97.3375 179.88 97.1699Z" fill="#263238"/>
<path d="M251.1 95.0004C250.988 94.9936 250.877 94.9734 250.77 94.9404L249.77 94.7404C248.93 94.5404 247.69 94.3004 246.09 93.9904C244.49 93.6804 242.52 93.3904 240.21 93.1804C237.606 92.9121 234.987 92.8152 232.37 92.8904C225.553 93.0673 218.813 94.3821 212.43 96.7804C208.683 98.1834 205.074 99.9309 201.65 102C197.964 104.244 194.516 106.858 191.36 109.8C188.212 112.753 185.386 116.032 182.93 119.58C180.681 122.914 178.746 126.449 177.15 130.14C174.513 136.43 172.613 143.004 171.49 149.73C170.49 155.47 170.05 160.17 169.77 163.41C169.64 165.01 169.54 166.27 169.47 167.16C169.47 167.56 169.4 167.88 169.38 168.16C169.391 168.27 169.391 168.381 169.38 168.49C169.362 168.381 169.362 168.27 169.38 168.16C169.38 167.91 169.38 167.59 169.38 167.16C169.38 166.3 169.47 165.04 169.58 163.41C169.81 160.15 170.19 155.41 171.15 149.67C172.224 142.918 174.09 136.316 176.71 130C178.3 126.274 180.242 122.708 182.51 119.35C184.978 115.762 187.824 112.45 191 109.47C197.153 103.717 204.4 99.2586 212.31 96.3604C218.75 93.9652 225.55 92.677 232.42 92.5504C235.049 92.4989 237.678 92.6225 240.29 92.9204C242.6 93.1604 244.57 93.5204 246.18 93.8204C247.79 94.1204 249.01 94.4404 249.84 94.6704L250.78 94.9204C250.89 94.9321 250.997 94.9591 251.1 95.0004Z" fill="#263238"/>
<path d="M179.65 158.87C178.092 159.469 176.387 159.57 174.77 159.16C173.122 158.926 171.585 158.197 170.36 157.07C171.813 157.731 173.322 158.259 174.87 158.65C176.453 158.868 178.053 158.941 179.65 158.87Z" fill="#263238"/>
<path d="M186.07 141.52C185.441 141.622 184.799 141.598 184.18 141.45C182.668 141.204 181.208 140.707 179.86 139.98C178.508 139.259 177.285 138.319 176.24 137.2C175.778 136.766 175.404 136.246 175.14 135.67C178.019 138.797 181.871 140.859 186.07 141.52Z" fill="#263238"/>
<path d="M198.52 119.31C197.232 117.788 195.838 116.357 194.35 115.03C192.759 113.835 191.088 112.749 189.35 111.78C191.335 112.291 193.169 113.268 194.7 114.63C196.331 115.86 197.641 117.466 198.52 119.31Z" fill="#263238"/>
<path d="M213.05 108.36C212.292 106.703 211.44 105.091 210.5 103.53C209.416 102.069 208.254 100.667 207.02 99.3301C210.131 101.419 212.288 104.655 213.02 108.33L213.05 108.36Z" fill="#263238"/>
<path d="M236.83 102.39C236.758 100.573 236.359 98.7846 235.65 97.1102C234.795 95.5086 233.649 94.0807 232.27 92.9002C232.27 92.8402 232.89 93.0902 233.69 93.7402C234.711 94.6054 235.537 95.676 236.116 96.8821C236.695 98.0882 237.013 99.4029 237.05 100.74C237.111 101.3 237.035 101.866 236.83 102.39Z" fill="#263238"/>
<path d="M252 103.2C251.982 101.785 251.878 100.372 251.69 98.9697C251.322 97.6113 250.874 96.2757 250.35 94.9697C251.273 96.1042 251.906 97.4466 252.193 98.8806C252.481 100.315 252.414 101.797 252 103.2Z" fill="#263238"/>
<path d="M229.31 262.65C229.26 262.65 229.31 261.87 229.26 260.45C229.173 258.46 228.905 256.482 228.46 254.54C227.783 251.659 226.867 248.839 225.72 246.11C224.46 243.01 222.85 239.69 221.26 236.11C219.781 232.946 218.547 229.673 217.57 226.32V226.13L217.74 226.04C219.865 224.937 221.735 223.401 223.23 221.53L223.33 221.4L223.48 221.48C225.042 222.34 226.797 222.788 228.58 222.78H228.67V222.86C229.262 223.911 229.963 224.896 230.76 225.8C231.31 226.44 231.64 226.8 231.62 226.8C231.6 226.8 231.52 226.74 231.35 226.6C231.18 226.46 230.94 226.23 230.65 225.93C229.792 225.054 229.043 224.077 228.42 223.02L228.55 223.1C226.705 223.151 224.878 222.72 223.25 221.85H223.5C221.997 223.796 220.094 225.395 217.92 226.54L218.04 226.26C219.04 229.578 220.277 232.819 221.74 235.96C223.33 239.49 224.93 242.82 226.17 245.96C227.31 248.719 228.2 251.573 228.83 254.49C229.247 256.463 229.462 258.474 229.47 260.49C229.474 261.038 229.451 261.585 229.4 262.13C229.395 262.307 229.365 262.482 229.31 262.65Z" fill="#FF9A6C"/>
<path d="M149.67 265.17L190.43 240.7C190.43 240.7 222.05 261.53 242.68 253.89C256.61 248.74 256.61 229.89 256.61 229.89L296.66 230.03L332.11 338.57L341.18 468.46H163.79L156.64 316L149.67 265.17Z" fill="#FBCF49"/>
<g opacity="0.3">
<path d="M162.15 436.61C174.54 447.11 190.73 452.26 206.88 453.93C223.03 455.6 239.31 454.02 255.47 452.45C283.37 449.73 311.84 450.45 339.74 447.77C338.95 440.77 338.25 423.39 337.46 416.42L162.15 429V436.61Z" fill="black"/>
</g>
<path d="M147.62 384.13C147.62 384.13 143.78 382.28 141.88 384.2C140.564 385.636 139.459 387.252 138.6 389C138.6 389 132.43 387.15 129.87 392.27C129.87 392.27 125.26 395.18 127.99 400.9C127.99 400.9 123.06 407.78 126.99 413.73C127.429 414.443 127.972 415.086 128.6 415.64C128.6 415.64 130.45 422.81 132.92 424.01C135.39 425.21 144.21 427.9 144.51 423.86C144.81 419.82 143.23 420.19 143.23 420.19C143.23 420.19 153.66 425.84 158.28 430C162.9 434.16 175.04 440.32 182.53 440.3C190.02 440.28 186.82 424.18 186.82 424.18L147.62 384.13Z" fill="#FFBF9D"/>
<path d="M314.8 307.8C314.31 310.25 313.91 323.47 313.91 323.47L322.56 378.18C305.49 381.72 221.56 398.74 221.56 398.74L213.73 440C213.73 440 345.73 437.56 360.45 423.84C375.17 410.12 367.7 354.62 367.7 349.23C367.7 343.84 364.07 308.17 364.07 308.17L314.8 307.8Z" fill="#FFBF9D"/>
<path d="M131.28 401.75C131.742 401.886 132.19 402.063 132.62 402.28L136.2 403.91L141.48 406.38L143 407.1L143.79 407.47C144.124 407.599 144.401 407.844 144.57 408.16C144.615 408.261 144.638 408.37 144.638 408.48C144.638 408.59 144.615 408.699 144.57 408.8C144.484 408.984 144.345 409.137 144.17 409.24C143.865 409.418 143.522 409.521 143.17 409.54C142.534 409.628 141.891 409.652 141.25 409.61C138.66 409.44 136.36 408.61 134.25 408.27C133.262 408.049 132.238 408.049 131.25 408.27C130.831 408.382 130.439 408.576 130.096 408.84C129.753 409.104 129.465 409.434 129.25 409.81C128.641 410.947 128.371 412.234 128.47 413.52C128.504 413.999 128.504 414.481 128.47 414.96C128.344 414.493 128.27 414.013 128.25 413.53C128.08 412.192 128.313 410.834 128.92 409.63C129.145 409.207 129.452 408.833 129.823 408.529C130.194 408.225 130.621 407.998 131.08 407.86C132.13 407.619 133.22 407.619 134.27 407.86C136.46 408.19 138.77 409 141.27 409.16C141.877 409.201 142.487 409.18 143.09 409.1C143.66 409.1 144.24 408.75 144.09 408.43C143.94 408.11 143.26 407.88 142.77 407.62L141.26 406.88L136 404.24L132.49 402.47C132.064 402.269 131.659 402.028 131.28 401.75Z" fill="#FF9A6C"/>
<path d="M147.82 398.74C146.965 398.326 146.134 397.865 145.33 397.36C141.336 395.131 136.995 393.59 132.49 392.8C131.548 392.682 130.613 392.512 129.69 392.29C130.646 392.221 131.607 392.271 132.55 392.44C134.844 392.737 137.1 393.277 139.28 394.05C141.458 394.823 143.547 395.829 145.51 397.05C146.351 397.509 147.127 398.078 147.82 398.74Z" fill="#FF9A6C"/>
<path d="M146.8 391.63C145.408 391.228 144.051 390.716 142.74 390.1C141.799 389.727 140.829 389.432 139.84 389.22C139.417 389.178 139.001 389.088 138.6 388.95C138.6 388.88 139.09 388.78 139.9 388.85C140.93 388.963 141.94 389.219 142.9 389.61C144.297 390.077 145.612 390.759 146.8 391.63Z" fill="#FF9A6C"/>
<path d="M144.1 420.62C143.497 420.708 142.883 420.681 142.29 420.54C140.853 420.298 139.447 419.895 138.1 419.34C136.754 418.803 135.441 418.185 134.17 417.49C133.614 417.233 133.098 416.897 132.64 416.49C132.72 416.33 135.18 417.55 138.29 418.82C139.615 419.351 140.975 419.792 142.36 420.14C142.953 420.247 143.535 420.408 144.1 420.62Z" fill="#FF9A6C"/>
<path d="M137.23 418.47C137.36 418.47 137.12 419.47 136.23 420.34C135.34 421.21 134.33 421.34 134.3 421.22C134.27 421.1 135.09 420.71 135.88 419.96C136.67 419.21 137.09 418.41 137.23 418.47Z" fill="#FF9A6C"/>
<path d="M295.57 230C295.57 230 326.75 228.73 342.65 250.63C358.06 271.87 370.16 316 370.16 316L310.63 323.93L301.81 266.53L295.57 230Z" fill="#FBCF49"/>
<path d="M345.72 403.24C345.62 403.24 345.21 401.29 343.98 398.32C343.651 397.508 343.28 396.714 342.87 395.94C342.46 395.09 341.93 394.23 341.39 393.32C340.156 391.378 338.751 389.55 337.19 387.86C335.6 386.194 333.867 384.672 332.01 383.31C331.13 382.71 330.31 382.12 329.48 381.67C328.736 381.206 327.969 380.782 327.18 380.4C324.29 378.98 322.35 378.45 322.39 378.34C322.853 378.414 323.308 378.531 323.75 378.69C324.283 378.837 324.807 379.013 325.32 379.22C325.92 379.46 326.61 379.7 327.32 380.07C328.128 380.433 328.916 380.841 329.68 381.29C330.53 381.74 331.37 382.29 332.26 382.92C336.104 385.605 339.346 389.062 341.78 393.07C342.31 394 342.84 394.88 343.23 395.75C343.631 396.54 343.988 397.351 344.3 398.18C344.62 398.93 344.82 399.64 345.02 400.26C345.22 400.88 345.35 401.41 345.45 401.85C345.591 402.302 345.682 402.768 345.72 403.24Z" fill="#FF9A6C"/>
<path d="M301.81 266.51C301.81 266.51 301.94 266.77 302.15 267.26C302.36 267.75 302.67 268.54 303.05 269.46C303.78 271.38 304.75 274.19 305.75 277.73C308.233 286.98 310.2 296.361 311.64 305.83C313.43 316.9 314.7 326.97 315.64 334.26C316.08 337.86 316.44 340.8 316.64 342.89C316.75 343.89 316.84 344.66 316.9 345.24C316.946 345.51 316.967 345.785 316.96 346.06C316.882 345.795 316.828 345.524 316.8 345.25L316.44 342.92C316.15 340.83 315.73 337.92 315.23 334.3C314.23 327.03 312.9 316.97 311.11 305.91C309.32 294.85 307.33 284.91 305.38 277.83C304.44 274.29 303.52 271.46 302.85 269.53L302.04 267.3C301.941 267.044 301.864 266.779 301.81 266.51Z" fill="#263238"/>
<path d="M195.93 275.82L189.86 340.21L180.56 323.81L132.64 329.51C133.13 331.96 150.19 391.88 157.54 408.51C164.89 425.14 185.45 454.74 208.47 444.11C231.49 433.48 230 349.76 230 340.21C230 330.66 225.39 273.7 225.39 273.7" fill="#FFBF9D"/>
<path d="M225.41 273.7C225.41 273.7 225.46 274.1 225.53 274.88C225.6 275.66 225.7 276.83 225.83 278.35C226.08 281.41 226.45 285.91 226.93 291.69C227.41 297.47 227.93 304.58 228.55 312.81C228.843 316.93 229.15 321.327 229.47 326C229.76 330.67 230.13 335.61 230.2 340.81C230.29 351.21 230.2 362.6 229.46 374.81C228.849 387.815 227.278 400.757 224.76 413.53C223.42 420.467 221.227 427.212 218.23 433.61C216.668 436.942 214.447 439.922 211.7 442.37C210.976 442.964 210.2 443.489 209.38 443.94C208.549 444.369 207.694 444.75 206.82 445.08C205.95 445.43 205.04 445.66 204.14 445.93C203.224 446.154 202.296 446.324 201.36 446.44C199.474 446.675 197.566 446.675 195.68 446.44C193.784 446.182 191.921 445.727 190.12 445.08C186.512 443.712 183.139 441.793 180.12 439.39C174.02 434.411 168.765 428.478 164.56 421.82C162.163 418.172 160.022 414.363 158.15 410.42C156.32 406.49 154.83 402.42 153.42 398.42C150.6 390.42 148.06 382.42 145.62 374.58C143.18 366.74 140.88 359.07 138.68 351.58C136.48 344.09 134.33 336.75 132.43 329.58L132.37 329.33H132.63L180.55 323.66H180.68L180.75 323.77L190 340.12L189.66 340.2C191.58 320.2 193.12 304.13 194.19 293.02C194.73 287.48 195.19 283.18 195.44 280.26C195.59 278.81 195.7 277.7 195.78 276.94C195.86 276.18 195.91 275.82 195.91 275.82C195.91 275.82 195.91 276.2 195.83 276.95C195.75 277.7 195.67 278.81 195.54 280.26C195.28 283.19 194.89 287.49 194.39 293.04C193.39 304.15 191.87 320.25 190.02 340.23V340.8L189.73 340.3L180.41 323.91L180.61 324.01L132.7 329.74L132.9 329.46C134.79 336.59 136.96 343.94 139.16 351.46C141.36 358.98 143.68 366.66 146.16 374.46C148.64 382.26 151.16 390.26 153.96 398.27C155.37 402.27 156.86 406.27 158.67 410.21C160.518 414.131 162.633 417.92 165 421.55C169.167 428.159 174.374 434.051 180.42 439C183.398 441.374 186.728 443.27 190.29 444.62C192.056 445.25 193.882 445.695 195.74 445.95C197.586 446.18 199.454 446.18 201.3 445.95C202.212 445.837 203.116 445.674 204.01 445.46C204.89 445.19 205.79 444.96 206.64 444.63C207.493 444.307 208.328 443.937 209.14 443.52C209.928 443.078 210.677 442.569 211.38 442C214.071 439.595 216.248 436.669 217.78 433.4C220.765 427.044 222.951 420.343 224.29 413.45C226.809 400.694 228.383 387.768 229 374.78C229.72 362.59 229.87 351.2 229.8 340.78C229.75 335.59 229.38 330.65 229.11 325.98C228.84 321.31 228.5 316.91 228.23 312.79C227.63 304.56 227.12 297.47 226.69 291.67C226.26 285.87 225.93 281.38 225.69 278.32C225.58 276.8 225.49 275.64 225.44 274.85C225.39 274.06 225.41 273.7 225.41 273.7Z" fill="#FF9A6C"/>
<path d="M189.72 338.54C189.728 338.798 189.711 339.056 189.67 339.31C189.6 339.8 189.57 340.55 189.39 341.48C188.953 344.14 188.284 346.757 187.39 349.3C186.055 353.067 184.43 356.724 182.53 360.24C180.43 364.24 177.89 368.47 175.26 372.94C172.758 377.119 170.501 381.44 168.5 385.88C166.874 389.502 165.627 393.282 164.78 397.16C164.222 399.79 163.933 402.471 163.92 405.16C163.92 406.11 163.97 406.84 163.97 407.34C163.99 407.596 163.99 407.854 163.97 408.11C163.907 407.861 163.874 407.606 163.87 407.35C163.87 406.85 163.71 406.11 163.72 405.16C163.66 402.476 163.895 399.793 164.42 397.16C165.219 393.24 166.439 389.418 168.06 385.76C170.04 381.292 172.295 376.95 174.81 372.76C177.44 368.28 179.99 364.05 182.11 360.09C184.007 356.579 185.641 352.932 187 349.18C187.92 346.664 188.639 344.08 189.15 341.45C189.36 340.52 189.43 339.79 189.52 339.29C189.565 339.035 189.632 338.784 189.72 338.54Z" fill="#FF9A6C"/>
<path d="M149.67 265.17C148.36 265.43 125.88 275.82 126.03 310.45C126.15 336.3 133.08 361.1 133.08 361.1L187.24 335.6L149.67 265.17Z" fill="#FBCF49"/>
<path d="M225.41 273.7C225.41 273.7 231.79 267.11 231.79 258.5C231.61 252.623 230.493 246.813 228.48 241.29C228.48 241.29 227.41 232.29 226.73 228.74L229.64 223.25C229.64 223.25 237.58 226.73 238.9 221.6L234.23 215.2C233.183 213.769 231.686 212.73 229.98 212.25L222.98 210.25C221.758 209.905 220.476 209.831 219.222 210.031C217.969 210.231 216.774 210.702 215.72 211.41L207.46 217L212.59 206.41L221.2 204.59C221.2 204.59 233.44 209.88 235.76 202.93L225.5 196.93L205.97 197.27C205.97 197.27 201.5 202.73 200.51 204.38C199.52 206.03 196.29 211.73 196.29 211.73L191.4 199.09C191.4 199.09 191.55 191.02 191.4 184.3C191.19 176.88 186.83 174.4 182.4 176.88C181.96 177.12 179.97 196.99 180.96 201.63C181.95 206.27 190.5 240.7 190.5 240.7C190.5 240.7 193.5 248.54 194.65 250.85C196.321 254.272 197.157 258.042 197.09 261.85C197.29 265.51 195.9 276.85 195.9 276.85" fill="#FFBF9D"/>
<path d="M195.83 276.91C195.83 276.91 195.83 276.69 195.83 276.27C195.83 275.85 195.94 275.19 196.03 274.37C196.2 272.7 196.46 270.23 196.69 267.02C196.849 265.241 196.902 263.455 196.85 261.67C196.844 259.541 196.588 257.42 196.09 255.35C195.818 254.206 195.453 253.085 195 252C194.48 250.9 193.91 249.74 193.41 248.53C192.41 246.1 191.41 243.53 190.32 240.77C188.91 235.06 187.32 228.77 185.69 221.96C184.85 218.547 183.983 215.02 183.09 211.38C182.64 209.55 182.19 207.7 181.72 205.82C181.49 204.87 181.26 203.93 181.03 202.97C180.91 202.49 180.78 202.02 180.68 201.53C180.58 201.04 180.55 200.53 180.51 200.02C180.381 195.91 180.504 191.795 180.88 187.7C181.04 185.6 181.22 183.48 181.45 181.33C181.57 180.26 181.69 179.19 181.86 178.1C181.86 177.83 181.94 177.56 182 177.28C181.996 177.21 181.996 177.14 182 177.07V176.96V176.89L182.08 176.77C182.11 176.722 182.156 176.687 182.21 176.67H182.31L182.5 176.58C183.001 176.318 183.531 176.117 184.08 175.98C185.208 175.676 186.405 175.746 187.49 176.18C188.563 176.659 189.459 177.464 190.05 178.48C191.15 180.528 191.669 182.838 191.55 185.16C191.55 189.747 191.55 194.413 191.55 199.16V199.06C193.1 203.06 194.76 207.35 196.44 211.71H195.97L200.25 204.28C201.91 201.82 203.8 199.55 205.68 197.21L205.75 197.12H206L209.66 197.05L225.53 196.79H225.61H225.67L235.93 202.79L236.11 202.9L236 203C235.778 203.696 235.41 204.336 234.92 204.878C234.43 205.42 233.83 205.85 233.16 206.14C231.839 206.65 230.421 206.855 229.01 206.74C226.286 206.528 223.615 205.877 221.1 204.81H221.25L212.64 206.63L212.81 206.5L207.67 217.09L207.32 216.78L215.76 211.14C217.19 210.233 218.847 209.748 220.54 209.74C221.367 209.744 222.191 209.855 222.99 210.07L225.29 210.72L229.82 212C231.353 212.389 232.742 213.212 233.82 214.37C235.72 216.79 237.37 219.19 239.08 221.49L239.14 221.57V221.67C238.902 222.624 238.303 223.448 237.47 223.97C236.648 224.434 235.712 224.656 234.77 224.61C232.988 224.548 231.234 224.151 229.6 223.44L229.84 223.36C228.84 225.36 227.84 227.1 226.93 228.84V228.72C227.71 233.21 228.18 237.41 228.65 241.29C230.315 245.88 231.377 250.667 231.81 255.53C232.015 257.498 231.972 259.483 231.68 261.44C231.403 263.063 230.943 264.65 230.31 266.17C229.441 268.248 228.312 270.207 226.95 272C226.48 272.61 226.11 273.05 225.85 273.34C225.721 273.488 225.584 273.628 225.44 273.76L225.81 273.31C226.07 273.02 226.42 272.56 226.88 271.95C228.202 270.141 229.303 268.18 230.16 266.11C230.769 264.592 231.212 263.013 231.48 261.4C231.748 259.461 231.778 257.496 231.57 255.55C231.105 250.719 230.026 245.968 228.36 241.41C227.87 237.53 227.36 233.33 226.59 228.87V228.81V228.75L229.49 223.26L229.57 223.11L229.73 223.18C231.316 223.849 233.01 224.229 234.73 224.3C235.598 224.336 236.46 224.132 237.22 223.71C237.963 223.236 238.496 222.495 238.71 221.64V221.82C237 219.53 235.3 217.08 233.46 214.74C232.439 213.643 231.123 212.865 229.67 212.5L225.14 211.23C223.647 210.705 222.089 210.385 220.51 210.28C218.902 210.289 217.329 210.75 215.97 211.61L207.56 217.26L206.83 217.75L207.21 216.96L212.34 206.36V206.25H212.46L221.06 204.42H221.14H221.22C223.701 205.427 226.328 206.028 229 206.2C230.332 206.312 231.672 206.121 232.92 205.64C233.524 205.378 234.065 204.99 234.506 204.502C234.948 204.014 235.28 203.437 235.48 202.81L235.59 203.12L225.33 197.12H225.46L209.59 197.39L205.93 197.46L206.13 197.36C204.27 199.68 202.35 201.99 200.74 204.36C199.29 206.89 197.86 209.36 196.47 211.78L196.2 212.25L196.01 211.74L191.13 199.1V199.05C191.13 194.31 191.13 189.643 191.13 185.05C191.252 182.813 190.757 180.585 189.7 178.61C189.167 177.677 188.351 176.938 187.37 176.5C186.383 176.106 185.295 176.043 184.27 176.32C183.752 176.445 183.252 176.633 182.78 176.88L182.6 176.97H182.51C182.59 177.15 182.35 176.73 182.42 176.85C182.49 176.97 182.53 176.99 182.53 176.97V177.05C182.525 177.113 182.525 177.177 182.53 177.24C182.47 177.5 182.43 177.77 182.39 178.03C182.23 179.1 182.11 180.18 181.99 181.25C181.75 183.38 181.56 185.5 181.4 187.6C181.029 191.672 180.898 195.763 181.01 199.85C181.036 200.336 181.092 200.821 181.18 201.3C181.27 201.78 181.4 202.3 181.51 202.74C181.75 203.74 181.98 204.64 182.21 205.58C182.656 207.473 183.106 209.327 183.56 211.14C184.44 214.793 185.296 218.323 186.13 221.73C187.78 228.53 189.31 234.83 190.69 240.55C191.69 243.29 192.69 245.89 193.69 248.31C194.19 249.53 194.74 250.66 195.27 251.79C195.752 252.893 196.143 254.033 196.44 255.2C196.932 257.287 197.177 259.425 197.17 261.57C197.21 263.366 197.143 265.162 196.97 266.95C196.7 270.15 196.42 272.62 196.22 274.29C196.113 275.11 196.033 275.74 195.98 276.18C195.87 276.7 195.83 276.91 195.83 276.91Z" fill="#FF9A6C"/>
<path d="M227.81 212.53C227.055 212.705 226.325 212.978 225.64 213.34C224.069 214.387 222.578 215.551 221.18 216.82C219.46 218.24 217.89 219.5 216.74 220.39C216.146 220.917 215.495 221.377 214.8 221.76C215.302 221.147 215.873 220.594 216.5 220.11C217.59 219.11 219.13 217.84 220.85 216.41C222.269 215.121 223.817 213.982 225.47 213.01C226.167 212.576 226.998 212.405 227.81 212.53Z" fill="#FF9A6C"/>
<path d="M171.88 291C172.02 290.95 175.64 300.93 179.97 313.29C184.3 325.65 187.71 335.7 187.57 335.75C187.43 335.8 183.82 325.82 179.48 313.46C175.14 301.1 171.75 291 171.88 291Z" fill="#263238"/>
</svg>
