<svg width="16" height="16" viewBox="0 0 16 16" fill="none" xmlns="http://www.w3.org/2000/svg">
<rect width="16" height="16" fill="white"/>
<path d="M10.7782 6.445C11.6623 7.30211 11.4189 8.82019 10.2935 9.32792C9.71612 9.58843 8.76722 9.33763 8.6468 10.2356C8.5233 11.1571 9.3415 11.3542 10.0804 11.2449C12.3734 10.9053 13.7407 8.46111 12.8391 6.33518C11.8897 4.09688 8.99621 3.43744 7.1545 5.05973C6.43922 5.69005 5.83921 6.90114 5.96632 7.86603C6.06306 8.6026 7.07937 8.88966 7.55433 8.29459C7.80442 7.98147 7.72569 7.75417 7.78796 7.40274C8.02981 6.03279 9.76912 5.46683 10.7782 6.445Z" fill="#300600" style="mix-blend-mode:plus-darker"/>
<path d="M2.56055 6.07616C2.56055 6.07616 5.28941 10.1921 5.8076 10.9941C6.50177 12.0678 7.93078 11.4334 7.74399 10.5497C7.62306 9.97811 7.79802 9.63077 8.23851 9.16391C8.37282 9.0214 8.64297 8.83189 8.82411 8.75476C9.37935 8.51775 10.0252 8.76906 10.3478 8.10912C10.7456 7.29644 9.80903 6.47355 9.03458 6.98333C8.51896 7.32249 8.71862 7.83022 8.53954 8.32518C8.36047 8.82065 7.92873 9.2441 7.42237 9.40347C7.18823 9.47703 6.93917 9.53577 6.70658 9.52146C6.2203 9.49184 5.84465 9.40449 5.47723 8.91617C5.34035 8.73433 5.16024 8.49017 5.09901 8.0846C4.99455 7.39452 5.44893 6.66817 4.75372 6.16606C3.89847 5.54748 2.56055 6.07616 2.56055 6.07616Z" fill="#300600" style="mix-blend-mode:plus-darker"/>
<path d="M9.59416 8.78593H9.52006C9.03428 8.78593 8.64062 8.39518 8.64062 7.91299C8.64062 7.4308 9.03428 7.04004 9.52006 7.04004H9.59416C10.0799 7.04004 10.4736 7.4308 10.4736 7.91299C10.4736 8.39518 10.0799 8.78593 9.59416 8.78593Z" fill="#F2C14C"/>
</svg>
