<svg width="16" height="16" viewBox="0 0 16 16" fill="none" xmlns="http://www.w3.org/2000/svg">
<path d="M10.7829 6.64363C11.6201 7.45528 11.3896 8.89283 10.3239 9.37363C9.77717 9.62032 8.87861 9.38282 8.76458 10.2332C8.64763 11.1058 9.42242 11.2925 10.1222 11.189C12.2935 10.8673 13.5883 8.55279 12.7345 6.53963C11.8355 4.42006 9.09545 3.7956 7.35143 5.33183C6.67409 5.92872 6.10591 7.07557 6.22627 7.98928C6.31788 8.68678 7.28029 8.95862 7.73006 8.39511C7.96688 8.0986 7.89233 7.88335 7.95129 7.55057C8.18032 6.25328 9.82736 5.71734 10.7829 6.64363Z" fill="#300600"/>
<path d="M3 6.29497C3 6.29497 5.58411 10.1926 6.07481 10.952C6.73217 11.9688 8.08538 11.368 7.9085 10.5312C7.79398 9.98996 7.95966 9.66105 8.37678 9.21894C8.50397 9.08399 8.7598 8.90454 8.93132 8.8315C9.45711 8.60706 10.0687 8.84504 10.3742 8.2201C10.7509 7.45053 9.864 6.67129 9.13063 7.15403C8.64236 7.4752 8.83143 7.956 8.66185 8.42471C8.49227 8.8939 8.08343 9.29488 7.60394 9.4458C7.38222 9.51545 7.14637 9.57108 6.92611 9.55753C6.46562 9.52948 6.1099 9.44677 5.76197 8.98435C5.63235 8.81215 5.4618 8.58094 5.40381 8.19688C5.30489 7.5434 5.73517 6.85558 5.07684 6.38011C4.26696 5.79434 3 6.29497 3 6.29497Z" fill="#300600"/>
<path d="M9.66292 8.65321H9.59275C9.13277 8.65321 8.76001 8.2832 8.76001 7.82661C8.76001 7.37001 9.13277 7 9.59275 7H9.66292C10.1229 7 10.4957 7.37001 10.4957 7.82661C10.4957 8.2832 10.1229 8.65321 9.66292 8.65321Z" fill="#F2C14C"/>
</svg>