<svg width="250" height="176" viewBox="0 0 250 176" fill="none" xmlns="http://www.w3.org/2000/svg">
<path d="M194.575 54.0912C215.504 74.3824 209.742 110.321 183.099 122.341C169.431 128.508 146.966 122.571 144.116 143.83C141.192 165.645 160.562 170.312 178.056 167.724C232.34 159.683 264.708 101.82 243.365 51.4913C220.889 -1.49805 152.387 -17.1095 108.787 21.2963C91.8536 36.2185 77.649 64.8898 80.658 87.7326C82.9483 105.17 107.008 111.966 118.253 97.8782C124.173 90.4655 122.309 85.0843 123.783 76.7646C129.509 44.3325 170.685 30.934 194.575 54.0912Z" fill="white"/>
<path d="M0 45.3666C0 45.3666 64.6028 142.808 76.8704 161.793C93.3043 187.212 127.135 172.193 122.712 151.273C119.85 137.741 123.992 129.518 134.42 118.466C137.599 115.092 143.995 110.606 148.283 108.78C161.428 103.169 176.717 109.118 184.355 93.4947C193.772 74.2556 171.6 54.7745 153.266 66.8428C141.059 74.8723 145.786 86.8922 141.546 98.6099C137.307 110.34 127.086 120.364 115.098 124.137C109.556 125.878 103.659 127.269 98.1529 126.931C86.6406 126.229 77.7475 124.161 69.0493 112.601C65.8088 108.296 61.545 102.516 60.0953 92.9143C57.6223 76.5773 68.3793 59.3818 51.921 47.4948C31.674 32.8508 0 45.3666 0 45.3666Z" fill="white"/>
<path d="M166.573 104.33H164.819C153.319 104.33 144 95.0799 144 83.6651C144 72.2503 153.319 63 164.819 63H166.573C178.072 63 187.391 72.2503 187.391 83.6651C187.391 95.0799 178.072 104.33 166.573 104.33Z" fill="#F2C14C"/>
</svg>
