<svg width="71" height="16" viewBox="0 0 71 16" fill="none" xmlns="http://www.w3.org/2000/svg">
<path d="M35.9667 5.62915H35.8877C35.3736 5.62915 34.9563 5.21492 34.9563 4.70459C34.9563 4.19426 35.3736 3.78003 35.8877 3.78003H35.9667C36.4809 3.78003 36.8982 4.19426 36.8982 4.70459C36.8982 5.21492 36.4809 5.62915 35.9667 5.62915Z" fill="#F2C14C"/>
<path d="M29.8658 9.98134L31.7599 5.00394C32.0403 4.26716 32.7503 3.78003 33.5437 3.78003H34.1179L30.9052 12.2204C29.6544 12.2204 28.5338 11.4516 28.092 10.2906L25.6138 3.78003H26.3727C27.0538 3.78003 27.6647 4.19868 27.9051 4.83162L29.8647 9.98134H29.8658Z" fill="white"/>
<path d="M43.4454 3.78003C43.4454 3.78003 43.4532 3.78334 43.4532 3.78776V8.00076C43.4532 9.34508 42.82 10.5425 41.834 11.3146C41.8285 11.319 41.8318 11.3279 41.8385 11.3279H43.4454C43.4454 11.3279 43.4532 11.3312 43.4532 11.3356C43.4487 13.6597 41.5514 15.5442 39.2089 15.5486C39.2044 15.5486 39.2011 15.5453 39.2011 15.5409V15.0593C39.2011 14.3678 39.6017 13.7403 40.2293 13.4388C40.9593 13.0875 41.4801 12.3739 41.5525 11.5333C41.5525 11.5267 41.5458 11.5234 41.5402 11.5267C40.9193 11.9332 40.1848 12.1828 39.3947 12.2182C36.9543 12.3264 34.9557 10.3845 34.9557 7.95989V6.17815C34.9557 6.17815 34.959 6.17042 34.9635 6.17042H36.8909C36.8909 6.17042 36.8987 6.17373 36.8987 6.17815V8.00187C36.8987 9.29537 37.898 10.3448 39.2011 10.3448C40.5042 10.3448 41.5614 9.29537 41.5614 8.00187V5.65125C41.5614 4.61843 42.4049 3.78113 43.4454 3.78113" fill="white"/>
<path d="M52.7865 8.04274V10.3448C52.7865 11.3809 51.9407 12.2204 50.8969 12.2204C50.8958 12.2204 50.8947 12.2204 50.8947 12.2182V8.0328C50.8947 6.69069 49.7741 5.59712 48.4231 5.65898C47.1712 5.71642 46.1752 6.74261 46.1752 7.99855V12.2171C46.1752 12.2171 46.1752 12.2193 46.173 12.2193H44.2857C44.2857 12.2193 44.2834 12.2193 44.2834 12.2171V3.78224C44.2834 3.78224 44.2834 3.78003 44.2857 3.78003H46.173C46.173 3.78003 46.1752 3.78003 46.1752 3.78224V4.48588C46.1752 4.48588 46.1775 4.48919 46.1786 4.48809C46.8262 4.0595 47.5985 3.80212 48.4309 3.78224C50.8268 3.7248 52.7876 5.66561 52.7876 8.04384" fill="white"/>
<path d="M62.1229 5.65788V15.859C61.078 15.859 60.2311 15.0184 60.2311 13.9812V11.5112C59.5534 11.9608 58.7388 12.2226 57.863 12.2204C55.5395 12.216 53.6354 10.3359 53.6199 8.02948C53.6032 5.68549 55.5139 3.78003 57.8719 3.78003C58.7455 3.78003 59.5567 4.04182 60.2322 4.48919V3.78003C61.2772 3.78003 62.124 4.62064 62.124 5.65788M60.2322 8.04495C60.2567 6.7161 59.1661 5.63357 57.8274 5.65788C56.5655 5.68107 55.5361 6.70284 55.5128 7.95547C55.4883 9.28433 56.5788 10.3668 57.9176 10.3425C59.1795 10.3194 60.2089 9.29758 60.2322 8.04495Z" fill="white"/>
<path d="M70.8607 5.71054L66.2981 10.1632C66.5775 10.2781 66.8835 10.3422 67.2051 10.3422C67.5523 10.3422 67.8828 10.2682 68.1799 10.1334C68.9912 9.76779 69.946 9.94673 70.5758 10.5719C69.7879 11.5871 68.5449 12.2366 67.1494 12.2189C64.8103 12.1891 62.923 10.2649 62.9541 7.94296C62.9842 5.63763 64.876 3.77856 67.2051 3.77856C69.0034 3.77856 69.8336 4.58162 70.8607 5.70943M68.0564 5.81327C67.7748 5.70501 67.4677 5.64868 67.1461 5.65641C65.8808 5.68734 64.8559 6.72015 64.8448 7.97721C64.8426 8.26882 64.8938 8.54829 64.9895 8.80677L68.0564 5.81327Z" fill="white"/>
<path d="M17.7747 4.9413C19.6866 6.79493 19.1602 10.078 16.7264 11.176C15.4778 11.7394 13.4256 11.197 13.1652 13.139C12.8981 15.1319 14.6676 15.5583 16.2657 15.3219C21.2246 14.5873 24.1815 9.30142 22.2318 4.7038C20.1785 -0.136849 13.9209 -1.56297 9.93789 1.94545C8.391 3.30861 7.09339 5.92777 7.36827 8.01449C7.57749 9.60742 9.77541 10.2282 10.8026 8.9413C11.3434 8.26414 11.1732 7.77256 11.3078 7.01255C11.8309 4.04984 15.5924 2.82587 17.7747 4.9413Z" fill="white"/>
<path d="M0 4.14406C0 4.14406 5.90155 13.0455 7.02221 14.7798C8.52347 17.1018 11.6139 15.7298 11.2099 13.8187C10.9484 12.5826 11.3268 11.8314 12.2794 10.8218C12.5699 10.5136 13.1541 10.1037 13.5459 9.93693C14.7466 9.42436 16.1433 9.96786 16.8411 8.54063C17.7013 6.78311 15.6759 5.00349 14.001 6.10595C12.8859 6.83944 13.3177 7.93748 12.9304 9.00791C12.5432 10.0794 11.6095 10.9952 10.5144 11.3399C10.008 11.4989 9.46941 11.626 8.9664 11.595C7.91473 11.531 7.10234 11.3421 6.30775 10.286C6.01173 9.89274 5.62222 9.36471 5.48979 8.48761C5.26388 6.9952 6.24654 5.42437 4.74305 4.33848C2.89346 3.00073 0 4.14406 0 4.14406Z" fill="white"/>
<path d="M15.1309 9.56854H14.9707C13.9202 9.56854 13.0688 8.72351 13.0688 7.68076C13.0688 6.638 13.9202 5.79297 14.9707 5.79297H15.1309C16.1814 5.79297 17.0327 6.638 17.0327 7.68076C17.0327 8.72351 16.1814 9.56854 15.1309 9.56854Z" fill="#F2C14C"/>
</svg>
