<svg width="71" height="16" viewBox="0 0 71 16" fill="none" xmlns="http://www.w3.org/2000/svg">
<path d="M35.9667 5.62917H35.8877C35.3736 5.62917 34.9563 5.21494 34.9563 4.70461C34.9563 4.19428 35.3736 3.78004 35.8877 3.78004H35.9667C36.4808 3.78004 36.8981 4.19428 36.8981 4.70461C36.8981 5.21494 36.4808 5.62917 35.9667 5.62917Z" fill="#F2C14C"/>
<path d="M29.8658 9.98135L31.7598 5.00396C32.0403 4.26718 32.7502 3.78004 33.5437 3.78004H34.1179L30.9052 12.2204C29.6544 12.2204 28.5338 11.4516 28.092 10.2906L25.6137 3.78004H26.3727C27.0537 3.78004 27.6646 4.19869 27.905 4.83164L29.8647 9.98135H29.8658Z" fill="url(#paint0_linear_37_2)"/>
<path d="M43.4454 3.78004C43.4454 3.78004 43.4532 3.78336 43.4532 3.78778V8.00078C43.4532 9.3451 42.82 10.5425 41.834 11.3146C41.8284 11.319 41.8318 11.3279 41.8385 11.3279H43.4454C43.4454 11.3279 43.4532 11.3312 43.4532 11.3356C43.4487 13.6597 41.5513 15.5442 39.2089 15.5486C39.2044 15.5486 39.2011 15.5453 39.2011 15.5409V15.0593C39.2011 14.3678 39.6017 13.7404 40.2293 13.4388C40.9593 13.0875 41.4801 12.374 41.5525 11.5333C41.5525 11.5267 41.5458 11.5234 41.5402 11.5267C40.9193 11.9332 40.1848 12.1829 39.3947 12.2182C36.9543 12.3265 34.9557 10.3845 34.9557 7.95991V6.17816C34.9557 6.17816 34.959 6.17043 34.9635 6.17043H36.8909C36.8909 6.17043 36.8987 6.17375 36.8987 6.17816V8.00188C36.8987 9.29539 37.898 10.3448 39.2011 10.3448C40.5042 10.3448 41.5614 9.29539 41.5614 8.00188V5.65126C41.5614 4.61845 42.4049 3.78115 43.4454 3.78115" fill="url(#paint1_linear_37_2)"/>
<path d="M52.7865 8.04275V10.3448C52.7865 11.3809 51.9408 12.2204 50.897 12.2204C50.8959 12.2204 50.8947 12.2204 50.8947 12.2182V8.03281C50.8947 6.69071 49.7741 5.59714 48.4232 5.65899C47.1713 5.71643 46.1753 6.74262 46.1753 7.99857V12.2171C46.1753 12.2171 46.1753 12.2193 46.1731 12.2193H44.2857C44.2857 12.2193 44.2835 12.2193 44.2835 12.2171V3.78225C44.2835 3.78225 44.2835 3.78004 44.2857 3.78004H46.1731C46.1731 3.78004 46.1753 3.78004 46.1753 3.78225V4.48589C46.1753 4.48589 46.1775 4.48921 46.1786 4.4881C46.8263 4.05951 47.5986 3.80214 48.431 3.78225C50.8269 3.72481 52.7877 5.66562 52.7877 8.04386" fill="url(#paint2_linear_37_2)"/>
<path d="M62.1229 5.65789V15.859C61.0779 15.859 60.2311 15.0184 60.2311 13.9812V11.5112C59.5534 11.9608 58.7388 12.2226 57.863 12.2204C55.5395 12.216 53.6354 10.3359 53.6198 8.0295C53.6032 5.68551 55.5139 3.78004 57.8719 3.78004C58.7455 3.78004 59.5567 4.04184 60.2322 4.48921V3.78004C61.2771 3.78004 62.124 4.62066 62.124 5.65789M60.2322 8.04496C60.2567 6.71611 59.1661 5.63359 57.8274 5.65789C56.5655 5.68109 55.5361 6.70286 55.5127 7.95549C55.4883 9.28434 56.5788 10.3669 57.9175 10.3426C59.1795 10.3194 60.2088 9.2976 60.2322 8.04496Z" fill="url(#paint3_linear_37_2)"/>
<path d="M70.8607 5.71052L66.2981 10.1632C66.5774 10.2781 66.8835 10.3422 67.2051 10.3422C67.5523 10.3422 67.8828 10.2682 68.1799 10.1334C68.9911 9.76777 69.9459 9.94672 70.5758 10.5719C69.7879 11.5871 68.5449 12.2366 67.1494 12.2189C64.8103 12.1891 62.9229 10.2648 62.9541 7.94295C62.9841 5.63762 64.8759 3.77855 67.2051 3.77855C69.0034 3.77855 69.8335 4.5816 70.8607 5.70942M68.0564 5.81325C67.7748 5.705 67.4677 5.64866 67.1461 5.65639C65.8808 5.68732 64.8559 6.72014 64.8448 7.97719C64.8426 8.26881 64.8937 8.54828 64.9894 8.80676L68.0564 5.81325Z" fill="url(#paint4_linear_37_2)"/>
<path d="M17.7747 4.9413C19.6866 6.79493 19.1602 10.078 16.7264 11.176C15.4777 11.7394 13.4256 11.197 13.1652 13.139C12.8981 15.1319 14.6676 15.5583 16.2656 15.3219C21.2246 14.5873 24.1815 9.30142 22.2317 4.7038C20.1785 -0.136849 13.9208 -1.56297 9.93786 1.94545C8.39097 3.30861 7.09336 5.92777 7.36824 8.01449C7.57746 9.60741 9.77538 10.2282 10.8026 8.9413C11.3434 8.26414 11.1731 7.77256 11.3078 7.01255C11.8309 4.04984 15.5924 2.82587 17.7747 4.9413Z" fill="url(#paint5_linear_37_2)"/>
<path d="M0 4.1441C0 4.1441 5.90155 13.0455 7.02221 14.7798C8.52347 17.1018 11.6139 15.7298 11.2099 13.8188C10.9484 12.5826 11.3268 11.8315 12.2794 10.8218C12.5699 10.5136 13.1541 10.1038 13.5459 9.93697C14.7466 9.4244 16.1433 9.9679 16.8411 8.54067C17.7013 6.78314 15.6759 5.00353 14.001 6.10598C12.8859 6.83948 13.3177 7.93752 12.9304 9.00794C12.5432 10.0795 11.6095 10.9952 10.5144 11.3399C10.008 11.499 9.46941 11.626 8.9664 11.5951C7.91473 11.531 7.10234 11.3421 6.30775 10.286C6.01173 9.89278 5.62222 9.36475 5.48979 8.48764C5.26388 6.99524 6.24654 5.4244 4.74305 4.33852C2.89346 3.00077 0 4.1441 0 4.1441Z" fill="url(#paint6_linear_37_2)"/>
<path d="M15.1309 9.56854H14.9706C13.9201 9.56854 13.0688 8.72351 13.0688 7.68076C13.0688 6.638 13.9201 5.79297 14.9706 5.79297H15.1309C16.1814 5.79297 17.0327 6.638 17.0327 7.68076C17.0327 8.72351 16.1814 9.56854 15.1309 9.56854Z" fill="#F2C14C"/>
<defs>
<linearGradient id="paint0_linear_37_2" x1="25.6137" y1="8.00023" x2="34.1179" y2="8.00023" gradientUnits="userSpaceOnUse">
<stop stop-color="#001E6E"/>
<stop offset="0.5" stop-color="#61BDF9"/>
<stop offset="1" stop-color="#FBCF49"/>
</linearGradient>
<linearGradient id="paint1_linear_37_2" x1="34.9557" y1="9.66433" x2="43.4532" y2="9.66433" gradientUnits="userSpaceOnUse">
<stop stop-color="#001E6E"/>
<stop offset="0.5" stop-color="#61BDF9"/>
<stop offset="1" stop-color="#FBCF49"/>
</linearGradient>
<linearGradient id="paint2_linear_37_2" x1="44.2835" y1="8.00023" x2="52.7877" y2="8.00023" gradientUnits="userSpaceOnUse">
<stop stop-color="#001E6E"/>
<stop offset="0.5" stop-color="#61BDF9"/>
<stop offset="1" stop-color="#FBCF49"/>
</linearGradient>
<linearGradient id="paint3_linear_37_2" x1="53.6197" y1="9.81953" x2="62.124" y2="9.81953" gradientUnits="userSpaceOnUse">
<stop stop-color="#001E6E"/>
<stop offset="0.5" stop-color="#61BDF9"/>
<stop offset="1" stop-color="#FBCF49"/>
</linearGradient>
<linearGradient id="paint4_linear_37_2" x1="62.9537" y1="7.99891" x2="70.8607" y2="7.99891" gradientUnits="userSpaceOnUse">
<stop stop-color="#001E6E"/>
<stop offset="0.5" stop-color="#61BDF9"/>
<stop offset="1" stop-color="#FBCF49"/>
</linearGradient>
<linearGradient id="paint5_linear_37_2" x1="7.33127" y1="7.69036" x2="22.8379" y2="7.69036" gradientUnits="userSpaceOnUse">
<stop stop-color="#001E6E"/>
<stop offset="0.5" stop-color="#61BDF9"/>
<stop offset="1" stop-color="#FBCF49"/>
</linearGradient>
<linearGradient id="paint6_linear_37_2" x1="0" y1="9.84453" x2="17.0457" y2="9.84453" gradientUnits="userSpaceOnUse">
<stop stop-color="#001E6E"/>
<stop offset="0.5" stop-color="#61BDF9"/>
<stop offset="1" stop-color="#FBCF49"/>
</linearGradient>
</defs>
</svg>
