<svg width="32" height="22" viewBox="0 0 32 22" fill="none" xmlns="http://www.w3.org/2000/svg">
<path d="M24.3218 6.7614C26.938 9.2978 26.2177 13.7902 22.8873 15.2927C21.1788 16.0636 18.3707 15.3214 18.0144 17.9787C17.6489 20.7056 20.0702 21.289 22.2569 20.9656C29.0424 19.9604 33.0885 12.7275 30.4206 6.43641C27.611 -0.187257 19.0484 -2.13868 13.5983 2.66204C11.4817 4.52731 9.70608 8.11123 10.0822 10.9666C10.3685 13.1462 13.376 13.9957 14.7815 12.2348C15.5216 11.3082 15.2886 10.6355 15.4729 9.59558C16.1886 5.54157 21.3356 3.86676 24.3218 6.7614Z" fill="#300600"/>
<path d="M0 5.67106C0 5.67106 8.07535 17.8512 9.6088 20.2244C11.663 23.4017 15.8918 21.5243 15.3391 18.9093C14.9812 17.2179 15.4989 16.19 16.8025 14.8085C17.1999 14.3867 17.9994 13.8259 18.5354 13.5977C20.1785 12.8963 22.0896 13.64 23.0444 11.6871C24.2215 9.28219 21.45 6.84706 19.1582 8.3556C17.6324 9.35928 18.2232 10.8618 17.6933 12.3265C17.1634 13.7927 15.8857 15.0458 14.3873 15.5174C13.6944 15.7351 12.9574 15.9089 12.2691 15.8666C10.8301 15.7789 9.71844 15.5204 8.63117 14.0754C8.2261 13.5372 7.69313 12.8147 7.51192 11.6145C7.20279 9.57241 8.54741 7.42297 6.49013 5.9371C3.95925 4.10659 0 5.67106 0 5.67106Z" fill="#300600"/>
<path d="M20.8216 13.0413H20.6023C19.1649 13.0413 18 11.885 18 10.4581C18 9.03129 19.1649 7.875 20.6023 7.875H20.8216C22.259 7.875 23.4239 9.03129 23.4239 10.4581C23.4239 11.885 22.259 13.0413 20.8216 13.0413Z" fill="#F2C14C"/>
</svg>
