<svg width="71" height="16" viewBox="0 0 71 16" fill="none" xmlns="http://www.w3.org/2000/svg">
<path d="M35.9667 5.6294H35.8877C35.3736 5.6294 34.9563 5.21517 34.9563 4.70484C34.9563 4.1945 35.3736 3.78027 35.8877 3.78027H35.9667C36.4809 3.78027 36.8982 4.1945 36.8982 4.70484C36.8982 5.21517 36.4809 5.6294 35.9667 5.6294Z" fill="#F2C14C"/>
<path d="M29.8658 9.98158L31.7598 5.00419C32.0402 4.26741 32.7502 3.78027 33.5437 3.78027H34.1179L30.9052 12.2206C29.6544 12.2206 28.5337 11.4518 28.092 10.2909L25.6137 3.78027H26.3726C27.0537 3.78027 27.6646 4.19892 27.905 4.83187L29.8647 9.98158H29.8658Z" fill="white"/>
<path d="M43.4454 3.78027C43.4454 3.78027 43.4532 3.78359 43.4532 3.78801V8.00101C43.4532 9.34532 42.82 10.5427 41.834 11.3149C41.8285 11.3193 41.8318 11.3281 41.8385 11.3281H43.4454C43.4454 11.3281 43.4532 11.3314 43.4532 11.3358C43.4487 13.66 41.5514 15.5444 39.2089 15.5488C39.2044 15.5488 39.2011 15.5455 39.2011 15.5411V15.0595C39.2011 14.368 39.6017 13.7406 40.2293 13.439C40.9593 13.0878 41.4801 12.3742 41.5525 11.5336C41.5525 11.5269 41.5458 11.5236 41.5402 11.5269C40.9193 11.9334 40.1848 12.1831 39.3947 12.2184C36.9543 12.3267 34.9557 10.3848 34.9557 7.96014V6.17839C34.9557 6.17839 34.959 6.17066 34.9635 6.17066H36.8909C36.8909 6.17066 36.8987 6.17397 36.8987 6.17839V8.00211C36.8987 9.29562 37.898 10.345 39.2011 10.345C40.5042 10.345 41.5614 9.29562 41.5614 8.00211V5.65149C41.5614 4.61868 42.4049 3.78138 43.4454 3.78138" fill="white"/>
<path d="M52.7866 8.04298V10.345C52.7866 11.3811 51.9408 12.2206 50.897 12.2206C50.8959 12.2206 50.8948 12.2206 50.8948 12.2184V8.03304C50.8948 6.69093 49.7742 5.59737 48.4232 5.65922C47.1713 5.71666 46.1753 6.74285 46.1753 7.9988V12.2173C46.1753 12.2173 46.1753 12.2195 46.1731 12.2195H44.2857C44.2857 12.2195 44.2835 12.2195 44.2835 12.2173V3.78248C44.2835 3.78248 44.2835 3.78027 44.2857 3.78027H46.1731C46.1731 3.78027 46.1753 3.78027 46.1753 3.78248V4.48612C46.1753 4.48612 46.1775 4.48944 46.1786 4.48833C46.8263 4.05974 47.5986 3.80237 48.431 3.78248C50.8269 3.72504 52.7877 5.66585 52.7877 8.04409" fill="white"/>
<path d="M62.1229 5.65812V15.8592C61.078 15.8592 60.2311 15.0186 60.2311 13.9814V11.5115C59.5534 11.9611 58.7388 12.2228 57.863 12.2206C55.5395 12.2162 53.6354 10.3362 53.6199 8.02973C53.6032 5.68573 55.5139 3.78027 57.8719 3.78027C58.7455 3.78027 59.5567 4.04207 60.2322 4.48944V3.78027C61.2772 3.78027 62.124 4.62089 62.124 5.65812M60.2322 8.04519C60.2567 6.71634 59.1661 5.63382 57.8274 5.65812C56.5655 5.68132 55.5361 6.70308 55.5128 7.95572C55.4883 9.28457 56.5788 10.3671 57.9176 10.3428C59.1795 10.3196 60.2089 9.29783 60.2322 8.04519Z" fill="white"/>
<path d="M70.8607 5.71029L66.2981 10.163C66.5775 10.2779 66.8835 10.3419 67.2051 10.3419C67.5523 10.3419 67.8828 10.2679 68.1799 10.1332C68.9912 9.76754 69.946 9.94649 70.5758 10.5717C69.7879 11.5868 68.5449 12.2364 67.1494 12.2187C64.8103 12.1889 62.923 10.2646 62.9541 7.94272C62.9842 5.63739 64.876 3.77832 67.2051 3.77832C69.0034 3.77832 69.8336 4.58138 70.8607 5.70919M68.0564 5.81302C67.7748 5.70477 67.4677 5.64843 67.1461 5.65617C65.8808 5.68709 64.8559 6.71991 64.8448 7.97696C64.8426 8.26858 64.8938 8.54805 64.9895 8.80653L68.0564 5.81302Z" fill="white"/>
<path d="M17.7747 4.9413C19.6866 6.79493 19.1602 10.078 16.7264 11.176C15.4778 11.7394 13.4256 11.197 13.1652 13.139C12.8981 15.1319 14.6676 15.5583 16.2657 15.3219C21.2246 14.5873 24.1815 9.30142 22.2318 4.7038C20.1785 -0.136849 13.9209 -1.56297 9.93789 1.94545C8.391 3.30861 7.09339 5.92777 7.36827 8.01449C7.57749 9.60742 9.77541 10.2282 10.8026 8.9413C11.3434 8.26414 11.1732 7.77256 11.3078 7.01255C11.8309 4.04984 15.5924 2.82587 17.7747 4.9413Z" fill="white"/>
<path d="M0 4.14406C0 4.14406 5.90155 13.0455 7.02221 14.7798C8.52347 17.1018 11.6139 15.7298 11.2099 13.8187C10.9484 12.5826 11.3268 11.8314 12.2794 10.8218C12.5699 10.5136 13.1541 10.1037 13.5459 9.93693C14.7466 9.42436 16.1433 9.96786 16.8411 8.54063C17.7013 6.78311 15.6759 5.00349 14.001 6.10595C12.8859 6.83944 13.3177 7.93748 12.9304 9.00791C12.5432 10.0794 11.6095 10.9952 10.5144 11.3399C10.008 11.4989 9.46941 11.626 8.9664 11.595C7.91473 11.531 7.10234 11.3421 6.30775 10.286C6.01173 9.89274 5.62222 9.36471 5.48979 8.48761C5.26388 6.9952 6.24654 5.42437 4.74305 4.33848C2.89346 3.00073 0 4.14406 0 4.14406Z" fill="white"/>
<path d="M15.1308 9.56854H14.9706C13.9201 9.56854 13.0688 8.72351 13.0688 7.68076C13.0688 6.638 13.9201 5.79297 14.9706 5.79297H15.1308C16.1813 5.79297 17.0326 6.638 17.0326 7.68076C17.0326 8.72351 16.1813 9.56854 15.1308 9.56854Z" fill="#F2C14C"/>
</svg>
