<svg width="378" height="112" viewBox="0 0 378 112" fill="none" xmlns="http://www.w3.org/2000/svg">
<path d="M191.053 26.2065H190.711C188.505 26.2065 186.717 27.9968 186.717 30.2052V30.2107C186.717 32.4191 188.505 34.2093 190.711 34.2093H191.053C193.26 34.2093 195.048 32.4191 195.048 30.2107V30.2052C195.048 27.9968 193.26 26.2065 191.053 26.2065Z" fill="#FFBE01"/>
<path d="M164.889 53.0319L173.017 31.5034C174.219 28.3166 177.265 26.2124 180.664 26.2124H183.125L169.348 62.7191C163.985 62.7191 159.179 59.3943 157.281 54.3739L146.654 26.2124H149.91C152.834 26.2124 155.449 28.0239 156.486 30.7633L164.895 53.0374L164.889 53.0319Z" fill="white"/>
<path d="M223.127 26.2121C223.127 26.2121 223.16 26.2286 223.16 26.2452V44.4654C223.16 50.2811 220.445 55.4561 216.213 58.803C216.191 58.8251 216.202 58.8638 216.235 58.8638H223.127C223.127 58.8638 223.16 58.8803 223.16 58.8969C223.143 68.9542 215.005 77.1006 204.958 77.1171C204.941 77.1171 204.925 77.1006 204.925 77.084V74.9963C204.925 72.0029 206.646 69.2911 209.333 67.9822C212.467 66.4634 214.696 63.376 215.011 59.7364C215.011 59.7088 214.983 59.6922 214.961 59.7033C212.296 61.4651 209.151 62.5421 205.758 62.6967C195.291 63.1662 186.723 54.7657 186.723 44.2777V36.5731C186.723 36.5731 186.739 36.54 186.756 36.54H195.021C195.021 36.54 195.054 36.5566 195.054 36.5731V44.4599C195.054 50.0547 199.341 54.5945 204.93 54.5945C210.519 54.5945 215.055 50.0602 215.055 44.4599V34.2921C215.055 29.8241 218.674 26.2065 223.132 26.2065L223.127 26.2121Z" fill="white"/>
<path d="M263.194 44.6477V54.6056C263.194 59.0847 259.564 62.7188 255.089 62.7188C255.089 62.7188 255.078 62.7188 255.078 62.7078V44.609C255.078 38.8044 250.272 34.0712 244.474 34.3419C239.105 34.5904 234.829 39.0308 234.829 44.4654V62.7078C234.829 62.7078 234.829 62.7188 234.818 62.7188H226.724C226.724 62.7188 226.713 62.7188 226.713 62.7078V26.2176C226.713 26.2176 226.713 26.2065 226.724 26.2065H234.818C234.818 26.2065 234.829 26.2065 234.829 26.2176V29.2607C234.829 29.2607 234.84 29.2718 234.846 29.2663C237.621 27.4105 240.937 26.3004 244.507 26.2121C254.78 25.9635 263.189 34.3584 263.189 44.6422L263.194 44.6477Z" fill="white"/>
<path d="M303.234 34.331V78.4539C298.754 78.4539 295.124 74.8198 295.124 70.3351V59.6537C292.216 61.5978 288.724 62.73 284.966 62.7245C275.002 62.7079 266.836 54.5726 266.764 44.5982C266.692 34.458 274.886 26.2178 284.999 26.2178C288.746 26.2178 292.227 27.35 295.124 29.2885V26.2178C299.604 26.2178 303.234 29.8519 303.234 34.3365V34.331ZM295.118 44.6534C295.223 38.904 290.55 34.2261 284.806 34.331C279.394 34.4304 274.98 38.8543 274.875 44.2668C274.77 50.0162 279.443 54.6996 285.187 54.5892C290.6 54.4898 295.013 50.0659 295.113 44.6479L295.118 44.6534Z" fill="white"/>
<path d="M340.714 34.5628L321.144 53.8213C322.341 54.3184 323.654 54.5945 325.033 54.5945C326.523 54.5945 327.941 54.2742 329.216 53.6943C332.692 52.1147 336.791 52.8879 339.489 55.5887C336.113 59.9794 330.777 62.7906 324.796 62.7133C314.766 62.5863 306.671 54.2576 306.798 44.2169C306.925 34.248 315.041 26.2065 325.033 26.2065C332.747 26.2065 336.311 29.6805 340.714 34.5573V34.5628ZM328.686 35.0101C327.478 34.5407 326.159 34.2977 324.78 34.3308C319.351 34.4634 314.959 38.9314 314.909 44.366C314.898 45.6308 315.119 46.8403 315.527 47.9559L328.681 35.0046L328.686 35.0101Z" fill="white"/>
<path d="M113.515 41.842C121.714 49.8613 119.457 64.0608 109.018 68.8105C103.666 71.2462 94.8604 68.9044 93.7459 77.2993C92.6038 85.9151 100.19 87.7598 107.043 86.7381C128.313 83.5624 140.992 60.6973 132.633 40.8147C123.827 19.8772 96.9902 13.708 79.9082 28.8796C73.2707 34.7726 67.7091 46.1002 68.8843 55.1302C69.7836 62.0228 79.2074 64.7015 83.6159 59.1398C85.9387 56.2072 85.2049 54.0863 85.7787 50.8002C88.0188 37.9869 104.157 32.6904 113.509 41.842H113.515Z" fill="white"/>
<path d="M37.2868 38.4011C37.2868 38.4011 62.5953 76.9016 67.4065 84.4018C73.8453 94.4425 87.0982 88.5108 85.3658 80.2485C84.2457 74.8967 85.8678 71.6548 89.9563 67.2861C91.2032 65.9551 93.7081 64.1822 95.3854 63.4587C100.533 61.244 106.525 63.5913 109.521 57.4221C113.212 49.8225 104.528 42.1235 97.3441 46.8898C92.5605 50.0655 94.4144 54.8153 92.7536 59.438C91.0929 64.0718 87.0872 68.0317 82.3919 69.5229C80.2235 70.2133 77.9117 70.76 75.7489 70.6275C71.2356 70.3458 67.7541 69.534 64.3443 64.9609C63.0753 63.2599 61.4035 60.9789 60.8352 57.1791C59.8697 50.7228 64.0795 43.9351 57.6351 39.235C49.6955 33.447 37.2812 38.3955 37.2812 38.3955L37.2868 38.4011Z" fill="white"/>
<path d="M102.327 45.5698H101.637C97.1334 45.5698 93.4824 49.2245 93.4824 53.7328C93.4824 58.241 97.1334 61.8957 101.637 61.8957H102.327C106.831 61.8957 110.482 58.241 110.482 53.7328C110.482 49.2245 106.831 45.5698 102.327 45.5698Z" fill="#FFBE01"/>
<path d="M169.584 89.3226L168.033 83.7002H169.059L170.218 88.218H170.273L171.344 83.7002H172.569L173.628 88.218H173.683L174.842 83.7002H175.824L174.273 89.3226H173.06L171.967 84.6943H171.912L170.808 89.3226H169.595H169.584Z" fill="#FFBE01"/>
<path d="M179.096 82.2146C179.096 81.8059 179.427 81.4966 179.846 81.4966C180.265 81.4966 180.585 81.8059 180.585 82.2146C180.585 82.6233 180.265 82.9326 179.846 82.9326C179.427 82.9326 179.096 82.6233 179.096 82.2146ZM179.35 89.3226V83.7002H180.343V89.3226H179.35Z" fill="#FFBE01"/>
<path d="M185.131 87.8314V84.5232H184.027V83.6947H185.208L185.451 82.1538H186.124V83.6947H187.752V84.5232H186.124V87.7983C186.124 88.3506 186.433 88.6046 186.841 88.6046C187.106 88.6046 187.338 88.5494 187.625 88.3727L187.945 89.0575C187.514 89.3447 187.139 89.4331 186.687 89.4331C185.771 89.4331 185.136 88.8808 185.136 87.8369L185.131 87.8314Z" fill="#FFBE01"/>
<path d="M196.691 86.0143V89.3225H195.698V86.0695C195.698 84.998 195.202 84.4733 194.347 84.4733C193.342 84.4733 192.675 85.2576 192.675 86.2352V89.3225H191.682V81.6069H192.675V83.3467L192.631 84.6335H192.752C193.16 83.9487 193.844 83.5842 194.611 83.5842C195.902 83.5842 196.691 84.3574 196.691 86.0087V86.0143Z" fill="#FFBE01"/>
<path d="M205.801 82.2146C205.801 81.8059 206.132 81.4966 206.551 81.4966C206.97 81.4966 207.29 81.8059 207.29 82.2146C207.29 82.6233 206.97 82.9326 206.551 82.9326C206.132 82.9326 205.801 82.6233 205.801 82.2146ZM206.055 89.3226V83.7002H207.048V89.3226H206.055Z" fill="#FFBE01"/>
<path d="M210.898 86.5224C210.898 84.7716 211.836 83.5897 213.276 83.5897C214.115 83.5897 214.728 83.9763 215.114 84.639H215.191V81.6069H216.184V86.3235C216.184 87.3287 216.184 88.3173 216.239 89.3225H215.301L215.191 88.3836H215.114C214.728 89.0464 214.11 89.433 213.276 89.433C211.836 89.433 210.898 88.2621 210.898 86.5224ZM215.191 86.5224C215.191 85.2852 214.54 84.4733 213.541 84.4733C212.543 84.4733 211.892 85.2907 211.892 86.5224C211.892 87.754 212.543 88.5493 213.541 88.5493C214.54 88.5493 215.191 87.754 215.191 86.5224Z" fill="#FFBE01"/>
<path d="M225.177 86.8541H221.05C221.15 87.9255 221.79 88.6048 222.733 88.6048C223.373 88.6048 223.848 88.3287 224.173 87.6659L225.056 87.9863C224.659 88.9473 223.831 89.4278 222.733 89.4278C221.061 89.4278 220.035 88.152 220.035 86.5061C220.035 84.8603 221.05 83.5845 222.722 83.5845C224.195 83.5845 225.211 84.6117 225.211 86.3625C225.211 86.5282 225.199 86.7049 225.177 86.8485V86.8541ZM221.061 86.0588H224.267C224.179 85.0094 223.572 84.4184 222.728 84.4184C221.812 84.4184 221.199 85.0481 221.067 86.0588H221.061Z" fill="#FFBE01"/>
<path d="M233.492 86.3236C233.492 87.3287 233.492 88.3173 233.547 89.3225H232.719L232.609 88.3063H232.532C232.179 89.0132 231.517 89.433 230.617 89.433C229.514 89.433 228.791 88.7702 228.791 87.7816C228.791 86.6991 229.563 86.0529 231.147 85.9646L232.532 85.8872V85.6001C232.532 84.7827 231.947 84.4181 231.213 84.4181C230.43 84.4181 229.939 84.7937 229.707 85.5006L228.846 85.1913C229.1 84.142 230.06 83.5952 231.213 83.5952C232.631 83.5952 233.492 84.3132 233.492 85.5669V86.3291V86.3236ZM232.532 86.677L231.296 86.7543C230.336 86.8206 229.746 87.0857 229.746 87.7485C229.746 88.2676 230.143 88.588 230.783 88.588C231.754 88.588 232.499 87.7816 232.532 86.6825V86.677Z" fill="#FFBE01"/>
<path d="M237.298 87.9861L238.137 87.6879C238.358 88.3838 239.031 88.6599 239.632 88.6599C240.361 88.6599 240.747 88.3175 240.747 87.8425C240.747 86.5225 237.431 87.4338 237.431 85.1197C237.431 84.225 238.203 83.5898 239.445 83.5898C240.449 83.5898 241.293 84.0206 241.569 84.9209L240.73 85.2191C240.521 84.6005 240.002 84.3575 239.439 84.3575C238.733 84.3575 238.38 84.7 238.38 85.1197C238.38 86.4618 241.696 85.5505 241.696 87.8425C241.696 88.8035 240.868 89.4276 239.627 89.4276C238.623 89.4276 237.613 89.0299 237.293 87.9861H237.298Z" fill="#FFBE01"/>
<path d="M251.451 87.8314V84.5232H250.348V83.6947H251.528L251.771 82.1538H252.444V83.6947H254.072V84.5232H252.444V87.7983C252.444 88.3506 252.753 88.6046 253.162 88.6046C253.426 88.6046 253.658 88.5494 253.945 88.3727L254.265 89.0575C253.835 89.3447 253.459 89.4331 253.007 89.4331C252.091 89.4331 251.457 88.8808 251.457 87.8369L251.451 87.8314Z" fill="#FFBE01"/>
<path d="M257.582 86.5115C257.582 84.8712 258.608 83.5898 260.28 83.5898C261.952 83.5898 262.978 84.8656 262.978 86.5115C262.978 88.1573 261.952 89.4331 260.28 89.4331C258.608 89.4331 257.582 88.1573 257.582 86.5115ZM261.985 86.5115C261.985 85.2743 261.301 84.4735 260.28 84.4735C259.259 84.4735 258.575 85.2799 258.575 86.5115C258.575 87.7431 259.259 88.5495 260.28 88.5495C261.301 88.5495 261.985 87.7431 261.985 86.5115Z" fill="#FFBE01"/>
<path d="M271.865 82.2146C271.865 81.8059 272.196 81.4966 272.616 81.4966C273.035 81.4966 273.355 81.8059 273.355 82.2146C273.355 82.6233 273.035 82.9326 272.616 82.9326C272.196 82.9326 271.865 82.6233 271.865 82.2146ZM272.119 89.3226V83.7002H273.112V89.3226H272.119Z" fill="#FFBE01"/>
<path d="M277.235 89.3227V86.6993C277.235 85.6941 277.235 84.7055 277.18 83.7003H278.118L278.217 84.584H278.294C278.647 83.9323 279.298 83.5898 279.977 83.5898C280.838 83.5898 281.384 83.9544 281.693 84.6944H281.77C282.134 83.9875 282.796 83.5898 283.608 83.5898C284.799 83.5898 285.489 84.3078 285.489 85.8487V89.3227H284.496V85.9813C284.496 84.9871 284.065 84.4735 283.315 84.4735C282.454 84.4735 281.853 85.1694 281.853 86.1138V89.3227H280.86V85.9813C280.86 84.9871 280.429 84.4735 279.679 84.4735C278.818 84.4735 278.217 85.1694 278.217 86.1138V89.3227H277.224H277.235Z" fill="#FFBE01"/>
<path d="M289.571 91.5263V86.6993C289.571 85.6941 289.571 84.7055 289.516 83.7003H290.454L290.564 84.6392H290.641C291.027 83.9764 291.634 83.5898 292.478 83.5898C293.919 83.5898 294.857 84.7607 294.857 86.5115C294.857 88.2623 293.919 89.4331 292.478 89.4331C291.629 89.4331 291.027 89.0465 290.641 88.3838H290.564V91.5263H289.571ZM293.863 86.5225C293.863 85.2854 293.212 84.4735 292.214 84.4735C291.215 84.4735 290.564 85.2909 290.564 86.5225C290.564 87.7542 291.215 88.5495 292.214 88.5495C293.212 88.5495 293.863 87.7542 293.863 86.5225Z" fill="#FFBE01"/>
<path d="M303.144 86.3236C303.144 87.3287 303.144 88.3173 303.199 89.3225H302.372L302.261 88.3063H302.184C301.831 89.0132 301.169 89.433 300.27 89.433C299.166 89.433 298.443 88.7702 298.443 87.7816C298.443 86.6991 299.216 86.0529 300.799 85.9646L302.184 85.8872V85.6001C302.184 84.7827 301.599 84.4181 300.866 84.4181C300.082 84.4181 299.585 84.7937 299.359 85.5006L298.499 85.1913C298.752 84.142 299.712 83.5952 300.866 83.5952C302.284 83.5952 303.144 84.3132 303.144 85.5669V86.3291V86.3236ZM302.184 86.677L300.948 86.7543C299.988 86.8206 299.398 87.0857 299.398 87.7485C299.398 88.2676 299.795 88.588 300.435 88.588C301.406 88.588 302.151 87.7816 302.184 86.6825V86.677Z" fill="#FFBE01"/>
<path d="M306.969 86.5115C306.969 84.8712 307.995 83.5898 309.667 83.5898C310.781 83.5898 311.681 84.1311 312.045 85.2854L311.096 85.6278C310.809 84.8215 310.312 84.468 309.667 84.468C308.641 84.468 307.962 85.2743 307.962 86.506C307.962 87.7376 308.646 88.5439 309.667 88.5439C310.318 88.5439 310.848 88.1905 311.151 87.3841L312.1 87.7265C311.725 88.8753 310.748 89.4221 309.667 89.4221C307.995 89.4221 306.969 88.1463 306.969 86.5004V86.5115Z" fill="#FFBE01"/>
<path d="M316.523 87.8314V84.5232H315.42V83.6947H316.601L316.843 82.1538H317.517V83.6947H319.144V84.5232H317.517V87.7983C317.517 88.3506 317.826 88.6046 318.234 88.6046C318.499 88.6046 318.73 88.5494 319.017 88.3727L319.337 89.0575C318.907 89.3447 318.532 89.4331 318.079 89.4331C317.163 89.4331 316.529 88.8808 316.529 87.8369L316.523 87.8314Z" fill="#FFBE01"/>
</svg>
